<svg id="Layer_1" data-name="Layer 1" xmlns="http://www.w3.org/2000/svg" width="206.66mm" height="190.4mm" viewBox="0 0 585.81 539.71"><defs><style>.cls-1{fill:#b63737;}.cls-2{fill:#fff;}</style></defs><title>100</title><path class="cls-1" d="M224,35.52c-.17.84-.45,1.75-.65,2.58-1.67,0-2.66-1.21-3.25-3C217.33,59,239.53,70.51,261.62,71.28c2.84,4.43,9.66,4.9,15.27,1s7.86-10.69,5.05-15.15c-.1-1.4-.51-2.8-.15-4.17a76.55,76.55,0,0,0,1.53-35.25c-.34,2.74-.69,5.59-1,8.32-.52-3.29-.94-6.59-2.88-9.17-.76,1-1.47,2.15-2.25,3.2.9-13.42-10-22.14-24.49-19.6S225.49,15.8,224.59,29.33Z"/><path class="cls-1" d="M204.55,74.94c-.3-7.58-.12-15.19.13-22.83l1.11-2.34-8,6.77.6-.33C208.71,55.12,217,60.08,224.2,65l3,1.38A9.54,9.54,0,0,0,233.3,65c4.37-2.6,6.46-7.57,4.72-11.1l-2.05-4C234,37.56,223.78,24,206,30.14c-4.09,1.45-7.47,5.58-11.07,8.74-5.73,3.92-8,10.88-5,15.49s10,5.1,15.73,1.08c.17,1,.39,2.08.58,3.1-1.13,0-2.19-.13-3.32-.18,5.72-2.52,9.85.55,14.65,1.46l4.77,3.29,10.78-12.51-3.45-.93c-.41.6-.95,1.57-1,1.58-6.85-1.55-13.49-2.88-19.44-5.84l-9.32-2.31a9.34,9.34,0,0,0-8,6.75l-.69,4.81c.26-.85.43-1.63.7-2.48,1.88,8.38,5.23,16.17,6.92,24.65.16,1.42,1.61,2.16,3.27,1.66A3.57,3.57,0,0,0,204.55,74.94Z"/><path class="cls-1" d="M185.93,54.67c.2-1.75.5-3.52-.84-4.75l-1.5.19c-.18,1-.43,2.32-.68,3.65C182.42,56.38,184.2,56.16,185.93,54.67Z"/><path class="cls-1" d="M183.59,50.11c.18-.91.29-1.52.29-1.52l-.78,1.48.22.08Z"/><path class="cls-1" d="M426.16,287.38c6.88,9.9,14.18,19.47,21.58,29s15.12,18.73,22.9,27.9a1.56,1.56,0,0,0,2.27-.11,1.63,1.63,0,0,0,.34-2.2c-7.72-9.22-15.4-18.42-22.73-27.94S435.91,295,429,285.09a1.65,1.65,0,0,0-2.27,0A1.86,1.86,0,0,0,426.16,287.38Z"/><path class="cls-1" d="M483,486.42a2,2,0,0,0-1.72,1.86,1.26,1.26,0,0,0,1.5,1.37,2.32,2.32,0,0,0,1.71-1.86A1.25,1.25,0,0,0,483,486.42Z"/><path class="cls-1" d="M424.6,539.68a32.71,32.71,0,0,0-11.15-2.59,1.27,1.27,0,0,1-1.13-1.21,3.68,3.68,0,0,1-3.88,1.52,154,154,0,0,1-19.82-7.06c-6.38-2.73-12.59-5.79-18.69-9s-12.07-6.71-18-10.21S340,504.06,334,500.6a12.23,12.23,0,0,1-3.49,1.87c-4.2,1.56-8.3.38-10.49-2.89l-1.32-2.79c-3.28-5-6.64-10-10-14.89s-6.65-9.87-9.76-15a16.66,16.66,0,0,1-8.16-3.49c-5.31-1.9-10.59-3.86-15.78-6-2.59-1.06-5.17-2.14-7.7-3.28s-5-2.36-7.46-3.63a7.58,7.58,0,0,1-2.13,3.46c-2.67,2.26-6.22,2.29-8,.14-1.05-1-2.07-2-3.08-3,2.18,3.55,4.34,7.13,6.41,10.78a3.92,3.92,0,0,1,.68,1.6,122.73,122.73,0,0,0,9.58,9.65c29.95,26.95,66,44.42,103.16,59.59a1.36,1.36,0,0,1,1.24,1.74c-.32.85-1.17,1.62-2,1.48-7.25-1-14.65-1.56-22-2.13s-14.76-1.06-22.11-1.77a218.61,218.61,0,0,1-21.8-3.07A116.32,116.32,0,0,1,279,522.82a606.15,606.15,0,0,1-91.54-46.33,244.2,244.2,0,0,0-18.34-17.83c-3.18-2.8-6.42-5.51-9.69-8.19s-6.55-5.35-9.89-8C142.8,437.25,136,432.11,129,426.9s-13.88-10.61-20.91-16.21c-38-30.23-68.47-63.92-98.83-99.68A28.42,28.42,0,0,1,0,288c.45-8.72,4.48-17.82,11.77-25.12,8.92-8.84,20.57-13.15,31.26-12.66-.85-1.13-1.65-2.27-2.44-3.45L38.39,240a28.72,28.72,0,0,1,2-20.89l3.87-9c9-15,13.66-31.38,24.12-45.92L74.13,161l.75-2.09a35.23,35.23,0,0,1,9.26-16.64l6.4-4.53a93.2,93.2,0,0,1,23.52-11,34.13,34.13,0,0,1,8.24-5.12c4.72-7,10.58-13.17,19.15-17.28a6.42,6.42,0,0,1,6.41-4.31,4.13,4.13,0,0,1,2.3,1s0,0,0,0c1.09-1.94,1.4-2.51,2.48-4.82a26.81,26.81,0,0,1-.56-2.67c-1.44-4.11-1.44-4.11-2.59-7.73a24.85,24.85,0,0,1,2.15-8c9-11.27,9-11.26,14.07-14.55.59-.2,1.18-.39,1.76-.54-.07-3.35-.06-3.6,0-4.55a14.15,14.15,0,0,1,1.06-2.44c2.5-2.08,2.5-2.08,3.14-3.16A19.28,19.28,0,0,1,173.53,51c3.77-1,3.77-1,4.61-1.63a11.28,11.28,0,0,1,1.92-.41l3,1.12-4.33,8.14,2.8-1.14-2.51,3.07,2.49-2.57L181,60.4l1.12-3.63c1.75,4.35,1.75,4.35,3,5.69a5.86,5.86,0,0,0,2.65,2.59,18.93,18.93,0,0,1,1.39-1.3C191,68.39,191,68.39,192.73,73a22.6,22.6,0,0,1-1.15,2.31,2,2,0,0,1,2.38,1c.37.76.69,1.56,1,2.32l.71.12.21-.18,2.59.6.59.09s0,0,0,.05l11.24,2.56a23,23,0,0,1,1.25,4.24c.15-.65.3-1.28.5-1.93.41-1.31,3.27-2.69,3.24-3.2a77.87,77.87,0,0,0-4-17.17c-1.82-5.5-4-10.82-6-16.23-1.5-1.32-1.19-3.91.63-5.69s4.56-2.11,6.06-.72A59,59,0,0,1,243.52,62a67,67,0,0,1,9.27,16.29A82.5,82.5,0,0,1,258,97c2.52,5.69,5.26,11.25,8.06,16.79.22-.56.45-1.12.67-1.67.35,1.74.77,3.43,1.15,5.15a4.93,4.93,0,0,0,.23.46q1.06-3.18,2.12-6.35c-.08-1-.16-2-.29-3-3.52-6.19-5.58-13.14-7.27-20.29s-3-14.47-5-21.52c-2.14-7.58-1.78-15.82-2.88-23.66-.85-1.57,0-3.79,1.93-5.07s4.13-.92,5,.59C278.85,53.8,292.3,76.1,289,102.56a16.26,16.26,0,0,1,3.37,12.19l.07.18,2-5c1.08,3.16-.86,6.94-.31,10.19l4.3-5a98.38,98.38,0,0,0,5.81,10.42c2.12,3.39,4.37,6.68,6.45,10.08,4.18,6.78,7.75,13.89,8.83,22.38a11.3,11.3,0,0,1,.63,1.64c7.45,1.72,14.84,3.55,20,8.67-1.08-2.32-2.14-4.59-3.23-6.91,5.56,2.17,10.41,4.89,13.88,9.36a47.33,47.33,0,0,1,9.44,22.29,49.78,49.78,0,0,1-3.17,26.41c21.48,20.87,42.8,41.91,66.24,60.71,1.26.92,1.2,2.87,0,4.38s-3.31,1.94-4.57,1q-7.31-4.12-14.28-8.68c-4.63-3-9.13-6.24-13.58-9.51-8.88-6.54-17.5-13.42-25.89-20.53,2.44,3.94,4.87,7.89,7.39,11.79s5.11,7.75,7.76,11.57a243.26,243.26,0,0,0,17,22.17l5.53,4.67a16.2,16.2,0,0,1,4.12,5.86c4.09,4.36,8,8.76,12.08,13s8.09,8.47,12.26,12.58,8.44,8.16,13,12,9.36,7.53,14.48,11c4.39,3,8.65,5.85,12.91,8.61s8.52,5.38,12.8,8c8.56,5.2,17.21,10.27,26.71,15.33L530.68,394c6.37,3.48,12.68,6.87,18.73,10.5S561.33,411.89,567,416a156.07,156.07,0,0,1,16.34,13.34c3.17,2.16,3.3,7.16.28,11.06s-8.09,5.29-11.28,3.1l-20.28-11.12c-6.76-3.71-13.46-7.49-20.18-11.28q-20.19-11.29-39.59-23.78c-6.49-4.14-12.78-8.53-19-13s-12.4-9.14-18.35-14A298.45,298.45,0,0,1,421.14,338c-4.51-5.1-9-10.1-13.31-15.14a14.44,14.44,0,0,1-1.33,1.49,15.7,15.7,0,0,1-6.4,3.75q7.14,8.88,13.57,18.67,7.06,4.29,14,8.69c4.65,2.94,9.22,6,13.63,9.23A134.75,134.75,0,0,1,454,375.24a103.08,103.08,0,0,1,11.36,12.35,130.71,130.71,0,0,1,12.13,19.69c3.53,6.78,6.69,13.76,10,20.73,3.81,2.65,7.63,5.29,11.5,7.86l11.66,7.69q11.67,7.67,23.1,15.69c.78.25,1,1.15.53,2a1.87,1.87,0,0,1-2.18,1c-3.36-1.07-6.68-2.21-9.93-3.45s-6.46-2.57-9.64-3.95c-6.36-2.75-12.59-5.72-18.78-8.81a19,19,0,0,1-5.62,10.37,18.4,18.4,0,0,1-11,5.23c2.08,2.17,4.22,4.29,6.29,6.48a3.83,3.83,0,0,1-.51,5.24c-1.71,1.73-4,2-5.22.68-8.73-8.67-17.21-17.56-25.74-26.4-12.31-8.5-24.12-17.47-35.88-26.64a27.23,27.23,0,0,1-4.6,10.61l-.05.05,5.09,4.63c38.53,20.76,73.93,45.34,103.73,76.49a1.72,1.72,0,0,1-.13,2.42c-.7.78-1.76,1-2.26.38a330,330,0,0,0-28.45-26.55v.07a2.14,2.14,0,0,1-1.7,1.86,1.31,1.31,0,0,1-1.51-1.35,2.14,2.14,0,0,1,1.69-1.86c-9.26-7.75-19-14.92-29-21.79s-20.4-13.27-31-19.39c16.4,14.73,32.55,29.65,47.07,46.28,2.63.72,5.25,1.43,7.86,2.22a1.6,1.6,0,0,1,.38,2.2,2,2,0,0,1-2.18.87c-.69-.25-1.42-.46-2.12-.7,2.71,3.19,2.06,8.54-1.67,12.37-3.95,3.83-9.46,4.41-12.46,1.24q-13.65-11-26.4-22.83L435,486.31c-1.49-.29-3-.55-4.5-.81L439,496.18l8.5,10.68c5.64,7.14,11.16,14.4,16.75,21.56,1.16,1,1.05,3-.23,4.45s-3.31,1.73-4.47.7c-7.1-4-14-8.32-20.91-12.67s-13.73-8.81-20.38-13.49c-13.34-9.32-26.45-19-39.08-29.31-13.34-1.7-26.85-3.36-40.3-5.47.86,1.08,1.77,2.14,2.74,3.14a92.49,92.49,0,0,0,20.79,15.61,212.53,212.53,0,0,0,23.46,11.25c16.12,6.72,32.4,12.92,46.41,22.91.79.41.73,1.5.15,2.27a1.65,1.65,0,0,1-2.32.46c-14.27-9.16-30.68-14.1-46.48-21.71-13.11-6.28-25.34-12.55-38.83-17.22,10.08,8.47,21.29,15.4,32.78,22,5.76,3.26,11.56,6.46,17.26,9.77s11.31,6.75,16.78,10.39a2.49,2.49,0,0,1,1.44,2.81,2.2,2.2,0,0,1,1.39-.53,44.59,44.59,0,0,1,11.69,2.77c.8.16,1.14,1.06.68,2.06A2,2,0,0,1,424.6,539.68ZM204.83,135.21c.19-.47.35-.85.49-1.21,0,.91-.07,1.88-.11,2.95l-4.07,7.29S202.93,139.76,204.83,135.21Zm-46.58-12.4v0c1.33-2.39,2.3-4.11,2.3-4.11ZM369.81,266.59A111,111,0,0,1,348.63,233l7.31,6.18C360.83,248,365.36,257.22,369.81,266.59ZM211.45,96.66c-1,5.24-3.19,10.48-5.6,15.7a15.8,15.8,0,0,1,5.28,4.87A136.43,136.43,0,0,1,220.85,134c1.6-2.36,2.3-1,3-.61l2,1.4c-2.7-6.39-5.26-12.92-7.74-19.64C215.86,109.09,212.68,103.12,211.45,96.66Zm-37-29.93c.16-.36.3-.68.44-1.06l4-1.53Zm-6.67,2.71c.05.35.07.72.14,1.1C166.5,71.21,166.75,70.62,167.78,69.44Zm1.33,10.09a9.34,9.34,0,0,0,1-2.34C169.11,79.52,169.11,79.53,169.11,79.53ZM78.34,158.77l18.25-9.87L78.78,158Z"/><path class="cls-2" d="M67.29,269l.71-.45a15.47,15.47,0,0,1-1.79,1.62,104.61,104.61,0,0,0,11.5-9.44c3.89-3.61,7.83-7.62,11.27-11.33a27.47,27.47,0,0,0,5-5.31c.59-1.08-.83-.34-3.21,1.69-.49.37-1.09.84-1.43,1a125.28,125.28,0,0,0-12.11,8.68l2.8-1.95c-1.38,1.06-2.75,2.13-4.33,3.49.16,0,.37-.11.53-.14-4.78,3.43-11.68,9.74-14.5,13.29s-.86,3.31,3.58.17Z"/><path class="cls-2" d="M75,265.51l-6.78,4.77-.49.23.35.57,0-.09a98.56,98.56,0,0,1,8.68-8.83L78,261a7,7,0,0,0,1.13-1.46c.36-.73-.63-.26-2.23,1.08L75,262.15c-4.47,3.42-11.94,9.94-13.69,12.94-.39.68.29.52.58.67.11.48,1.85-.55,3.86-2.26s3.64-3.59,3.7-4.22l1.08-.82-.79.9c.49-.94,2.39-2.71,3.83-4.24l2.16-2a10.53,10.53,0,0,0-1.2-.29L73.39,264l.25-.08c-2.22,2.32-4.22,4.43-6.52,6.68l-2.79,2.94c-.7.86-.46,1,.46.47l1.34-.88-.62.36c3-2.29,6-4.75,8.75-6.84a6.41,6.41,0,0,0,1.2-1.18C75.66,265.17,75.48,265.17,75,265.51Z"/><path class="cls-2" d="M65.07,274.4a11.16,11.16,0,0,0-1.62,1.24l-.24.31,1-.63C64.9,274.87,65.17,274.5,65.07,274.4Z"/><path class="cls-2" d="M63.21,276l-.41.27.3-.14.07-.08Z"/><path class="cls-2" d="M97.09,348.28v5.11l.07,7.83.21,16.54-5-.71c-.39-.05-.69-.05-.65,0a1.55,1.55,0,0,0,.73.21l5.13.74q-.11-8.34-.21-16.64l-.07-7.92v-5.09a.83.83,0,0,0-.12-.52C97.14,347.84,97.09,348,97.09,348.28Z"/><path class="cls-2" d="M90.69,364.58c-.19.05-.18.12,0,.16a1.58,1.58,0,0,0,.65,0c.16,0,.15-.12,0-.16A1.63,1.63,0,0,0,90.69,364.58Z"/><path class="cls-2" d="M89,369.51c-1.11.09-2.17.19-3.11.36a1.8,1.8,0,0,1-.52,0c.06.1-.15.2-.55.24-4.55.48-9.3.79-14.12,1l.63-9.39,7.18.39a.26.26,0,0,1,.11-.22,2.23,2.23,0,0,1,1.68-.12l.63.14,2.74.52c.06-1.21.12-2.42.19-3.63a8.58,8.58,0,0,1-.26-1.53l-.51-2.62,0-.16,0-.3-.06-.6-.13-1.2L82.57,350c-.07.2-.15.33-.24.33s-.4-.8-.41-1.68l0-1.32c0,1.26-.05,2.53-.08,3.8,0,.18,0,.35,0,.51,0,.69,0,1.39,0,2.09l0,.92,0,.44c.12,1.88.32,3.82.58,6-3.36-.13-6.91-.16-11-.21L70.68,372l3.67-.29a1.82,1.82,0,0,1,.66,0c.11.06.09.13-.12.16l-4.21.67.81-12.2c3.66-.48,6-1.22,8.48-1.47l.43-.05a37.39,37.39,0,0,0-1.22-4.14l0,0a.69.69,0,0,1,0-.12l0-.44-.08-.89-.17-1.78c-.1-1.19-.21-2.38-.32-3.57-.19-2.39-.39-4.79-.59-7.22-.25-10.56-1-20.33-1.65-31.1q-.33-5.46-.58-10.78c-.07-1.78-.15-3.55-.23-5.32l-.11-2.65v-.46h0l0,0c-.09-.06-.13,0-.15,0s0,.06,0-.05a6.37,6.37,0,0,1,.16-1.06c.1-.55.21-1.24.42-2.11a14.55,14.55,0,0,1,1.9-4.34l-.36.29-.51.24a.85.85,0,0,1-1.15-.2,2.86,2.86,0,0,0-.41-.36c-.54-.89-2-.75-3.11-1.21l.11-.63-.24,0a1.89,1.89,0,0,1-1.71.05l-.09-.57a6.09,6.09,0,0,1,.85-2.85,1.32,1.32,0,0,1,.12-.91c-.76,0-1.28-.24-.85-1.39-.48.22-.47-.07,0-.68.18-.21.4-.43.63-.65h0a5.26,5.26,0,0,0-.73.23l-.75.56c-1.28,1-1.28,1-2.38,1.86a13.36,13.36,0,0,1-1.72,1c-1.53.18-1.57.22-1.6-.26A2.79,2.79,0,0,1,64,277l-1.33.93c-.31.17-.54.27-.54.27-.17-.12-.17-.12-.38,0a.22.22,0,0,1-.14-.08c.39-.64.39-.64.36-.7a4,4,0,0,1,.24-.36l.93-.95,1.63-.73.21-.42.42-.05-.28-.05.74-.47-.86.5c1.64-1.33,1.63-1.33,2.28-1.9s1.22-1.11,1.29-1.18a.14.14,0,0,1-.09-.07l3.43-2.77.41-.16a5,5,0,0,1,.8-.8l.87-.71.18-.21v0l.74-.78.16-.17h0c.52-.56,1.28-1.36,3.3-3.49.52-.43,1-.8,1.46-1.14l-.41.22c-.26.13,0-.39-.1-.29-3.71,2.7-8,6.23-12.32,9.72a4.34,4.34,0,0,1-1.69,1.15c-.17-.06.32-.69,1.12-1.41,4.13-4.3,9.17-9,14.18-13.4s10-8.44,14.11-11.53c0,.35,0,.69,0,1,0,3.44,0,6.9,0,10.36l.09-.63-.09,2.78v.29c.1-.83.2-1.67.3-2.49,0-.51,0-1,.07-1.53,0-3.54,0-7.11.12-10.78-2.83,2.19-5.68,4.34-8.76,6.79s-5.54,4.13-8.51,6.4c-.77.65-1.3.94-1.19.66a7.57,7.57,0,0,1,1.62-1.72c6.1-5.53,12.82-11.38,18.55-16,0,6.16-.25,12.09-.62,17.19,0,2.46,0,5-.16,7.13v.12c.09-.63.17-1.22.25-1.85,0,1.92-.24,3.16-.3,4.89.12-.34.25-.68.38-1,0,4.62,0,9.29.09,13.87,0,2.29,0,4.55,0,6.74,0,.55,0,1.09,0,1.63l-.05,1c0,.62-.09,1.23-.15,1.82l0,.55a53.06,53.06,0,0,1,.75,6.55c0-.83,0-1.63.07-2.46a51.7,51.7,0,0,1,.4,5.4c.08,5.12-.41,10.86-1.4,13.59.36,9.91.69,19.83,1.18,29.72a1.78,1.78,0,0,1-.16,1.07c-.12,0-.24-.28-.27-.79-.58-7.09-1-14.28-1.33-21.49-.07,6-.12,12.1,0,18.27,0,.79.07,1.58.11,2.37s0,1.57,0,2.34c.1,4.27.19,8.44.29,12.62.14,5.34.3,10.69.54,16.35l-3.21-.34-23.46-2.38,1-15,3.16-.16c9.62-.52,18.38-1,27.88-1,1.27,0,2.44.19,2.59.5s-.77.59-2,.62c-10.55.49-21,1-31.59,1.41l-.83,12.37c8.59.91,17,1.85,25.46,2.91-.14-4.61-.25-9.22-.34-13.87,0-3-.1-6-.16-8.95a.23.23,0,0,1-.12.06c-.17,0-.32-.2-.46-.54q0,4.8,0,9.68c.25,4.3.51,8.72.72,13.25-5.15-.54-10.6-1.2-16.26-2.05q-4.58-.7-8.74-1.46l.69-10.42,7.87.54,18-.57a1.13,1.13,0,0,1,.58.07c.09.06,0,.12-.29.14-4.16.38-8.42.66-12.73.91.68.19,1.08.44,1,.71s-.58.53-1.39.71l2.93,0c.6,0,1.08.12,1.06.26s-.49.26-1.07.26l-11.93-.08-4.08.12-.29,4.26,11.34,1.24a6,6,0,0,1-1.8-.92h0l-2.35-.29-7.1-.58.21-3.12c11.38-.55,23-.81,34.63-.67.28,0,.5.05.51.12s-.21.12-.46.11q-6.3-.07-12.58,0h0c.17,0,.2.11,0,.16a1.78,1.78,0,0,1-.65,0c-.2,0-.18-.12,0-.16-7.22.09-14.39.32-21.46.66l-.18,2.67,1.82.16-1.81-.23.17-2.53c6.53-.05,13-.06,19.57.06l2.33-.24a1.3,1.3,0,0,1,.58.09c.06.05-.1.12-.32.13l-.65.06c1.34,0,2.37.3,2.35.63s-1.23.61-2.62.6c-3.73.06-7.45.08-11.16.1l-1.21.05-1.21.16,17.28.5c.5,0,.92.09.93.21s-.39.22-.89.22q-12.37.57-25,.86L71,364.3l4.81.51c2.76-.16,5.21-.36,7.38-.58l-1-.15c-3.83-.51-7.27-.66-11-.8l-.43,6.33c5.59-.42,11.07-.92,17-1.07a.77.77,0,0,1,.53.09c0,.06-.16.12-.43.12-5.28.2-10.1.69-15.34,1l-1.72.12.46-6.91c2.94.14,5.59.25,8,.22-2.62-.28-5.19-.47-7.9-.64l-.52,7.76c4.5-.22,9-.49,13.54-.64a2.68,2.68,0,0,1,.94.07s.1-.07.2-.09c1-.16,2.14-.28,3.28-.37a1.22,1.22,0,0,1,.6.06C89.36,369.41,89.22,369.47,89,369.51Zm1.06-114-.14,0,.59-.36.12,0L90.27,257s.06-.4.14-1.38C90.51,255.42,90.28,255.45,90,255.49ZM77.35,269h0l-.46.05ZM95,330.58c-.09-4.34-.08-8.63.12-12.92.05,1,.11,2.09.16,3.13C95.19,324,95.09,327.3,95,330.58Zm-12.41-71a9.33,9.33,0,0,1,2.57-1.08c.8-.78,1.63-1.53,2.44-2.22l4-3.4c0,1.14,0,2.23,0,3.31.16-.71.15,0,.18.33l.07,1c0-1.77,0-3.54.07-5.35l-3.09,2.44C86.82,256.22,84.54,258.11,82.57,259.59Zm-16.18,15-.22.12.32-.63Zm-.47,1,.33-.24A.31.31,0,0,1,65.92,275.6Zm3-2.21a4.85,4.85,0,0,0-.45.21Zm3.4,7c.14-.68.31-1.4.5-2.13q-.33,1.1-.57,2.13Z"/><path class="cls-2" d="M125.53,353.74a.8.8,0,0,0,.16.23.81.81,0,0,1-.28-.07l0,0c-.31.49-.57.89-.85,1.27a7.81,7.81,0,0,0,.5-.73l.31-.47c0-.05,0,0,0,0a.29.29,0,0,0,.09.14,3.47,3.47,0,0,0,.72.46c.33.18.82.39,1.32.6l1.46.61a28.92,28.92,0,0,0,5.51,1.65,9.45,9.45,0,0,0,7.37-1.25c1.38-.41,2.51-1.42,2.42-1.86s-1.27-.15-2.51.27c-.29,0-.61.1-.81.11a17.71,17.71,0,0,1-2.67-.45c-.91-.24-2.07-.58-3.61-1.15.57.27,1.14.53,1.64.74-.77-.24-1.61-.54-2.7-.87l.31.34q-1.2-.55-2.82-1.2l-1.7-.64-1.68-.59-.44-.14-.11,0h0L127,351l-.24.47a23.85,23.85,0,0,1-2.72,4.37c-.15.18-.3.34-.4.45l-.3.29-.22.18s0,0,0,0l.06,0a6.58,6.58,0,0,1,1.42-.63l.57-.18.62-.17.64-.15.7-.15c.8-.17,2.26-.36,1.69-.29a2.58,2.58,0,0,0-.68.08l-.16.05-.39.08c-.41.07-.85.16-1.31.26s-.85.22-1.19.31a8.88,8.88,0,0,0-1.7.67c-.14.07-.33.2-.27.16l.22-.18.14-.14.19-.19a11.33,11.33,0,0,0,1.18-1.5l.38-.57.2-.33.1-.16h0S125.5,353.7,125.53,353.74Z"/><path class="cls-2" d="M131.55,358.53c-1.15-.49-2.31-1-3.5-1.63l-1.79-.9a9,9,0,0,1-1.27-.75c0-.08-.1-.16-.13-.23l-.24.62,0,0a8.28,8.28,0,0,1,1.5.23c.75.17,1.63.41,2.47.63,1.7.45,3.42.92,4.94,1.22l1.07.15a1.48,1.48,0,0,0,1-.18c.27-.28-.49-.67-1.82-1.06-.52-.15-1-.32-1.59-.5l-3.5-1.4-3.07-1.17h0l-.08.15-.43.68c-.13.2-.24.37-.37.55a11.07,11.07,0,0,1-1.14,1.41l-.19.18-.17.15-.11.09c-.07,0,0,0,0,0a5.65,5.65,0,0,1,.7-.36l.62-.25.82-.25c.27-.07.68-.2,1-.26l.14,0,.07,0h-.06c-.12,0-.26-.2-.41-.38-.29-.35-.59,0-.88.1-.22-.05-.4.28-.51.57l-.07.18s0,.05,0,.05l0,0-.11,0a7.32,7.32,0,0,0-1,.43l-.25.15-.08.05.09-.06a6.39,6.39,0,0,0,.67-.66l.23-.27,0-.07h.06a4.3,4.3,0,0,0,.54.12c.47.08,1,.08,1.16-.1l1.1.5-1-.19c.74-.13,2.95.6,4.44.88.74.21,1.46.39,2.16.56l-.89-1.33-1.14-.23.2.19c-1.12-.23-2.25-.49-3.46-.8s-2.2-.58-2.41-.62c0,0,0,0-.06,0l-.31.43a3.69,3.69,0,0,1-.25.34,8.69,8.69,0,0,1-.84,1l-.27.24-.11.08.07-.05a4,4,0,0,1,.61-.33l.39-.16.34-.12c.17-.07.25-.08.22-.08a9.46,9.46,0,0,0-1.12.44l-.3.16-.17.11.08-.07a3.1,3.1,0,0,0,.25-.21c-.16.15-.33.28-.35.3a6,6,0,0,0,.93-.93l.15-.19h0l0,0,.12.12a8.85,8.85,0,0,0,1.54.81c1.65.71,3.29,1.41,4.78,2a3.41,3.41,0,0,0,1.33.31C132.19,358.88,132,358.71,131.55,358.53Z"/><path class="cls-2" d="M123.5,356.49l.2-.09.27-.12.3-.12,0,0s0-.08,0-.21l-.11-.12a1.42,1.42,0,0,1-.1.36c-.06.1.07,0-.33.2Z"/><path class="cls-2" d="M124.19,355.81l0-.24-.08.17,0,0Z"/><path class="cls-2" d="M156.12,274.35a26.09,26.09,0,0,0-11.67,4.9,42.47,42.47,0,0,0-10,10c-.18.26-.29.5-.25.55s.22-.12.39-.36a42.3,42.3,0,0,1,9.88-9.92,26,26,0,0,1,11.55-4.9c.25,0,.44-.08.47-.16S156.36,274.32,156.12,274.35Z"/><path class="cls-2" d="M119.42,333c0-.27-.11-.26-.15,0a2.77,2.77,0,0,0,0,.91c0,.22.11.21.15,0A3.1,3.1,0,0,0,119.42,333Z"/><path class="cls-2" d="M114.55,330.48c0-1.58-.12-3.09-.21-4.44a3.54,3.54,0,0,1,0-.75c-.11.09-.19-.22-.2-.79a106.12,106.12,0,0,1,1.09-17.67c.22-1.5.45-3,.77-4.53l.45-2.27.54-2.26c.33-1.52.79-3,1.21-4.51.19-.73.48-1.55.77-2.37s.62-1.58.93-2.37a1.41,1.41,0,0,1,0-.61,13.84,13.84,0,0,1,2-4.28c.28-.39.54-.8.83-1.18a55.7,55.7,0,0,1,11.83-12.34,23.76,23.76,0,0,1,3.09-2.58,38.78,38.78,0,0,1,14-7.17c-.35,0-.58,0-.6-.11s.35-.31.87-.47a13.44,13.44,0,0,1,2-.45c.79-.12,1.59-.18,2.39-.26a35.45,35.45,0,0,0-6.74,1l-.86.21a39,39,0,0,0-6.68,2.73,49.65,49.65,0,0,0-12,8.95,52.59,52.59,0,0,0-4.74,5.41,50.54,50.54,0,0,0-4,5.95,44.78,44.78,0,0,0-3.11,6.55c-.21.58-.4,1.18-.6,1.77s-.31,1.09-.47,1.64c-.29,1.07-.6,2.12-.85,3.19a100.82,100.82,0,0,0-2.17,12.81,3.64,3.64,0,0,1-.18.95c-.08.16-.14.12-.12-.2a111.09,111.09,0,0,1,1.87-15.85,41.69,41.69,0,0,1,1-4.21,40.4,40.4,0,0,1,1.63-4.46A47,47,0,0,1,123.2,277a55.66,55.66,0,0,1,18.28-16.62,38.52,38.52,0,0,1,13.22-4.47,33,33,0,0,1,7.71-.16,32.17,32.17,0,0,1,7.8,1.83,34,34,0,0,1,7.12,4l1.58,1.17,1.44,1.24a31.92,31.92,0,0,1,2.91,2.91,34.48,34.48,0,0,1,7.24,13.95,54.72,54.72,0,0,1,1.8,13.6,83.42,83.42,0,0,1-.88,12.89A128.58,128.58,0,0,1,182.24,339a121.22,121.22,0,0,1-7.45,14.67,69,69,0,0,1-5.11,7.44,59.4,59.4,0,0,1-6.46,6.91,36.27,36.27,0,0,1-5.85,4.45,29.78,29.78,0,0,1-6.18,2.86c-4,1.3-7.19,1.25-8,.73-1-.68,1.55-1.58,5.32-3.51-.79.29-1.58.54-2.39.78l-2,.42-2,.27a21.86,21.86,0,0,1-5.24-.11,15.64,15.64,0,0,1-3.58-.93c-.81-.32-1.59-.66-2.34-1-1.46-.86-3.25-1.87-4.82-2.9a24.09,24.09,0,0,1-3.84-3l.62-.2-.46-.3c-1.64-.89-2.85-2-3-2.64l.44-.3a10.76,10.76,0,0,1,3.21-.21q0-.31.66-.39c-.93-.89-1.14-1.57-.14-1.78-.53-.38-.36-.53.39-.36.26.06.58.15.91.26h0l-.8-.63a7.46,7.46,0,0,1-.84-.44,5.35,5.35,0,0,1-1.06-.69,2.18,2.18,0,0,1-.5-.57,1.78,1.78,0,0,1-.06-.67,2.47,2.47,0,0,1,0-.32c.67-1,.71-1.06,1.09-.95l.13.16c0-.74.06-.9.08-1.15a4.94,4.94,0,0,1,.12-.51c.21-.05.21-.05.27-.25a.2.2,0,0,1,.15-.06c.25.64.25.6.31.63a2,2,0,0,1,.13.3,5,5,0,0,0,.17.76,2.05,2.05,0,0,1-.35.56l-.06,0a.49.49,0,0,0,.16,0l0,0-.41.19c.21-.11.21-.1.21-.1l-.27.13-.13.07-.13.08,0,0,.3-.18a1.52,1.52,0,0,1,.27-.13l.14-.07a5.93,5.93,0,0,0-.58.29l-.11.08s-.09.07,0,0a3.55,3.55,0,0,0,.43-.38l.21-.22s0,0,0,0l0,0a2,2,0,0,0,.57.29.38.38,0,0,1,0-.13,12.73,12.73,0,0,0,1.48.7l2,.82c.16.11.29.2.41.3a3.78,3.78,0,0,1,1,.25l1,.37.22,0h0l.86.16.17,0h0a29.39,29.39,0,0,0,3.5.4l1.42.32-.4-.15c-.26-.11,0-.27-.13-.31a51.57,51.57,0,0,1-5.82-2l-3.36-1.38a7.66,7.66,0,0,1-1.94-1c.12-.18-.31.45-.53.71s-.44.52-.57.66c-.3.3-.42.39-.45.42l.2-.18a8.69,8.69,0,0,0,1.09-1.26c.18-.23.48-.67.61-.88,0,0,0,0,.06,0a1.24,1.24,0,0,1,.31.05l1.33.37,3.76,1.09a36.72,36.72,0,0,0,6.44,1.37,12.06,12.06,0,0,0,2.54,0,12.47,12.47,0,0,0,2.49-.42,21.19,21.19,0,0,0,5.24-2.25,30.85,30.85,0,0,0,5.17-4.38l-.3.19c.44-.43.9-.85,1.33-1.3l.13-.15c-.39.29-.78.57-1.18.83-.24.22-.47.44-.72.64-3.79,3.89-8,5.93-11.45,6.17a8.41,8.41,0,0,1-2.61-.19,24.19,24.19,0,0,1-2.91-.85c-.58-.15-1-.39-.86-.51a2.1,2.1,0,0,1,1.22.07,12.55,12.55,0,0,0,8.71-1.17,42.17,42.17,0,0,0,9-6.51c.93-1.17,1.93-2.41,2.85-3.45l0-.06-.82.71c.75-1,1.33-1.45,2-2.43l-.57.16c3.58-5.36,6.56-12.13,9.32-17.75.1-.23.19-.45.29-.67.69-2.62,1.3-5.28,2.17-8.33-.34,1-.7,2-1.07,3,.56-2.24,1.07-4.45,1.71-6.8.85-3.19,1.7-6.53,2.43-9.48s1.3-5.48,1.9-7.12a37.65,37.65,0,0,0-.71-8.6,17.3,17.3,0,0,0-2.75-6.56l-.46-.63c-.16-.19-.35-.35-.52-.53a5.56,5.56,0,0,0-.54-.56l-.7-.6a17,17,0,0,0-2.88-2,13.67,13.67,0,0,0-3-1.08c-.5-.16-1-.16-1.55-.27l-.81,0a4.36,4.36,0,0,0-.81,0,1.61,1.61,0,0,1-1-.17c-.05-.12.25-.25.72-.26a13.34,13.34,0,0,1,9.21,2.77,14.47,14.47,0,0,1,3.47,3.59,16.93,16.93,0,0,1,2.15,5,15.76,15.76,0,0,0-3.87-7.87,19.51,19.51,0,0,0-3.7-2.89,15,15,0,0,0-4.13-1.6l-1.13-.16-1.15-.06c-.78,0-1.54,0-2.34,0a26,26,0,0,0-12,4.84,40.75,40.75,0,0,0-10,10.11,37,37,0,0,0-3,5.15,26.77,26.77,0,0,0-1.06,2.53c-.13.43-.27.77-.42,1.28l-.42,1.5a86.79,86.79,0,0,0-2.53,12.53,148.26,148.26,0,0,0-1,18.53c0,6.17.2,12.41.36,19,.08,1.76-.1,3.41-.4,3.62s-.62-1.06-.7-2.82c-.82-13.79-1.4-27.17.62-40.19a91.83,91.83,0,0,1,2-9.62c.47-1.52.94-3.26,1.42-4.49a33.59,33.59,0,0,1,1.92-4,42.55,42.55,0,0,1,12.78-13.85,32.25,32.25,0,0,1,7-3.63.32.32,0,0,1-.1-.1c-.06-.15.11-.4.46-.64a35.3,35.3,0,0,0-8.12,4,49,49,0,0,0-9.22,9.48,46,46,0,0,0-3.57,5.6c-.26.49-.49,1-.74,1.46l-.67,1.48c-.19.49-.39,1-.58,1.5s-.39,1.15-.59,1.73a118.81,118.81,0,0,0-4.74,18.71,204.37,204.37,0,0,0-.4,24.68,2,2,0,0,1-.06.81c-.06.12-.12-.06-.14-.4-.45-5.77-.69-11.65-.59-17.56-.25.92-.52,1.46-.79,1.37s-.5-.83-.6-1.94c-.1,1.34-.15,2.69-.23,4,0,.83-.17,1.49-.31,1.46s-.25-.7-.21-1.49A142,142,0,0,1,121.53,311c.41-3.26,1-6.48,1.77-9.67.41-1.58.78-3.18,1.29-4.73a34.64,34.64,0,0,1,1.58-4.54,6.11,6.11,0,0,1-1.33,1.45h0c-.37.91-.65,1.92-1,2.88a123.18,123.18,0,0,0-3.92,28c-.38,9.55-.06,19.23.13,29,0,.38,0,.7-.1.71s-.12-.29-.13-.63c-.11-5.91-.27-11.77-.3-17.61v0c0,.23-.11.28-.16,0a3.54,3.54,0,0,1,0-.92c0-.27.12-.24.16,0,0-10.85.46-21.61,2.53-32-2.22,9.59-3,19.48-3.29,29.36.07,1.08.14,2.16.2,3.26a2.23,2.23,0,0,1-.08.81c0,.08-.12-.14-.13-.45l-.06-.91c0,1.88-.3,3.33-.63,3.3s-.62-1.72-.59-3.68c0-5.24.15-10.47.61-15.67l.11-1.69c0-.58,0-1.15,0-1.72a206.43,206.43,0,0,0-1.55,24.29c0,.69-.08,1.28-.19,1.3s-.23-.54-.24-1.24a187.25,187.25,0,0,1,.17-21.57,106.31,106.31,0,0,1,3.67-21.67c.25-1.2.51-2.4.76-3.6l.52-1.88.61-1.85a45,45,0,0,1,3.3-7.08c-.38.54-.78,1.08-1.14,1.64a40.86,40.86,0,0,0-3,5.55l-.6,1.45-.53,1.49c-.33,1-.56,1.88-.83,2.81a80,80,0,0,0-2.24,11.06,179,179,0,0,0-1.37,22.28,1.33,1.33,0,0,1-.12.75c-.06,0-.11-.22-.1-.61,0-3.75.06-7.35.24-11a108.23,108.23,0,0,1,1-11c.11-.78.22-1.55.34-2.32s.28-1.53.41-2.29c.26-1.52.61-3,.94-4.5s.76-2.94,1.12-4.4c.17-.7.47-1.52.7-2.28s.55-1.51.84-2.24c-.33.73-.65,1.48-1,2.23s-.59,1.58-.78,2.27c-.41,1.45-.9,2.87-1.23,4.32s-.72,2.89-1,4.34l-.43,2.17-.35,2.17a150,150,0,0,0-1.54,17.43,6.81,6.81,0,0,1-.13,1.34.62.62,0,0,1,.06.29c.09,1.47.14,3.06.2,4.68a2.36,2.36,0,0,1-.09.86C114.62,331,114.57,330.83,114.55,330.48Zm33.8,28.29-.25.07c.25-.11.52-.22.81-.38l1.3-.32S149.28,358.49,148.35,358.77ZM134,363.4h0l-.68-.42Zm37.13-83.87c2.3,3.52,3.11,8.68,2.85,13.9,0-.65-.07-1.27-.1-1.9s-.1-1.25-.18-1.86a30.42,30.42,0,0,0-.78-5.47A20.59,20.59,0,0,0,171.15,279.53Zm-32.07,80.65c1.13.15,2.1.33,3,.39.77-.25,1.57-.56,2.39-.89a26.64,26.64,0,0,0,6.27-3.75c-.36.08.11-.29.33-.5s.45-.45.68-.67a25.22,25.22,0,0,1-6.55,4.11A14.78,14.78,0,0,1,139.08,360.18Zm-15.88-3.54-.12.1,0,0,.28-.25Zm-.3.18v.05C122.8,356.92,122.82,356.88,122.9,356.82Zm.81.93a2.77,2.77,0,0,0-.25-.29C123.69,357.74,123.72,357.75,123.71,357.75Zm-.33,7.95,1.92-.66-2,.56Z"/><path class="cls-2" d="M205.14,317.94c.22-1.36.41-2.72.69-4.06a121.38,121.38,0,0,1,12-35.86,94.72,94.72,0,0,1,5-8.39c1-1.35,1.83-2.71,2.93-4.07.53-.67,1-1.36,1.59-2l1.78-2a34.17,34.17,0,0,1,9.09-7.13c1-.44,2-.89,3-1.27s2.14-.64,3.24-.84a27.09,27.09,0,0,1,3.36-.32l1.68.05a8.88,8.88,0,0,1,1.65.16l2.26.43c.73.18,1.42.44,2.13.66l1.05.35,1,.42,2,.88a49.94,49.94,0,0,1,6.88,4.35l1.58,1.2c.52.4,1,.83,1.5,1.24L271,263l1.49,1.41,1.48,1.41c.5.46.92,1,1.38,1.5a40,40,0,0,1,2.62,3.09,65.69,65.69,0,0,1,8.18,13.52,94.68,94.68,0,0,1,5.08,14,89.39,89.39,0,0,0-5.81-16.32,61.81,61.81,0,0,0-9.95-15.07l-.77-.87-.84-.81-1.68-1.62c-.57-.56-1.14-1-1.71-1.51l-1.72-1.44a50.66,50.66,0,0,0-7.8-5.21,27.84,27.84,0,0,0-10-3.29,22.33,22.33,0,0,0-11.29,1.7,28.67,28.67,0,0,0-4.76,2.63,37.67,37.67,0,0,0-3.89,3.2,54.5,54.5,0,0,0-6.24,7,99.29,99.29,0,0,0-9.27,14.9,122.62,122.62,0,0,0-11,32.4,44.08,44.08,0,0,1,1.31-16.54c1.11-3.73,2.47-7.37,3.91-10.95a114,114,0,0,1,5-10.45,97.57,97.57,0,0,1,6.15-9.85,58.31,58.31,0,0,1,8.16-9.48l1.22,1.3.8-.81.92-.78,1.85-1.54c.69-.48,1.41-1,2.12-1.41.36-.22.71-.46,1.09-.67l1.21-.59a19.75,19.75,0,0,1,2.48-1.08c.89-.29,1.78-.56,2.68-.81a24.11,24.11,0,0,1,5.6-.58,16.4,16.4,0,0,1,2.74.17c.88.14,1.79.26,2.64.45a30.84,30.84,0,0,1,4.73,1.55,41.88,41.88,0,0,1,7.83,4.33c1.11.82,2.23,1.64,3.29,2.48s2,1.67,3,2.6l3,3,2.73,3.15a67.43,67.43,0,0,1,8.41,13.74c.52,1.2,1.12,2.38,1.57,3.59l1.4,3.63c.82,2.43,1.65,4.87,2.3,7.32a137,137,0,0,1,3.21,14.82q1.19,7.44,1.85,15c.18,2.52.41,5,.54,7.6s.21,5.3.09,8.15c.38-1.59.66-.61.93-.25l0,.33,0-.33c.21.34.48.14.62-2.68-.14,2.82-.41,3-.62,2.68.2-2.81.22-5.51.16-8.09s-.22-5-.37-7.54q-.52-7.49-1.7-14.89a131.08,131.08,0,0,0-3.26-14.73,92.87,92.87,0,0,0-5.36-14.46,69.24,69.24,0,0,0-8.36-13.72,58.83,58.83,0,0,0-5.7-6.15c-1-1-2-1.85-3.05-2.7s-2.1-1.68-3.2-2.5-2.33-1.61-3.52-2.4c-.58-.4-1.28-.76-1.94-1.13s-1.32-.73-2-1.07a34.82,34.82,0,0,0-4.61-1.81,24.18,24.18,0,0,0-2.54-.68q-1.37-.25-2.73-.45a26.8,26.8,0,0,0-11.45,1.34,30.78,30.78,0,0,0-4.92,2.4,25.93,25.93,0,0,0-2.2,1.4l-2,1.52a32.24,32.24,0,0,1,6.79-4.38c.66-.3,1.33-.6,2-.88s1.43-.46,2.15-.68a21,21,0,0,1,2.21-.55c.76-.12,1.53-.22,2.29-.31.38,0,.77-.1,1.15-.12h1.13c.76,0,1.52,0,2.27.06s1.44.2,2.16.3a21.32,21.32,0,0,1,2.11.41,35.63,35.63,0,0,1,7.3,2.77,56.8,56.8,0,0,1,11,7.54c.8.62,1.64,1.47,2.46,2.22s1.67,1.53,2.38,2.37l2.21,2.49c.72.83,1.34,1.72,2,2.59,1.38,1.72,2.45,3.56,3.63,5.36.55.91,1.05,1.84,1.57,2.76s1,1.85,1.46,2.8l1.35,2.82c.43.95.79,1.9,1.19,2.85.83,1.9,1.46,3.83,2.14,5.75a125.94,125.94,0,0,1,5.26,23.29c.29,1.95.46,3.9.69,5.85s.34,3.9.45,5.85a119.48,119.48,0,0,1,.23,12.09A48,48,0,0,1,297.75,352a37.49,37.49,0,0,1-1.52,3.64c-.65,1.17-1.25,2.37-2,3.5a30.73,30.73,0,0,1-2.51,3.29L290.3,364c-.5.48-1,.94-1.54,1.4a31.1,31.1,0,0,1-3.27,2.5c-.56.4-1.15.7-1.72,1.05s-1.16.69-1.75.95a34.92,34.92,0,0,1-3.54,1.52c-.59.21-1.18.45-1.77.63l-1.75.51a58.87,58.87,0,0,1-13.38,1.91c-2.1.09-4.22.1-6.15.08s-3.89,0-5.93-.12a75.48,75.48,0,0,1-13.05-1.45,50.45,50.45,0,0,1-6.27-1.76,43.27,43.27,0,0,1-6.24-2.78,44.48,44.48,0,0,1-13.83-14.92,41.44,41.44,0,0,1-3.75-9.36,58.21,58.21,0,0,1-1.59-9.2c1.27,1.35,2.72-1,4.06-.74.66.11,1.25.84,1.87,2.88.32,1,.65,2.36,1.13,4.13a44.06,44.06,0,0,0,2.26,6.55l1.62-.79a23,23,0,0,1-1.41-7.13,25.61,25.61,0,0,1,.39-5.77c.63-3.32,1.71-5.51,2.73-6.45a1.44,1.44,0,0,1,1.53-.47,3.27,3.27,0,0,1,1.43,1.57c.93,1.66,1.69,4.79,2.91,8.58a23.28,23.28,0,0,0,2.56,5.63,20.67,20.67,0,0,0,4.08,4.7,22.93,22.93,0,0,0,5.77,3.59,32.5,32.5,0,0,0,7.56,2.05,74.73,74.73,0,0,0,9.51.74c1.7.05,3.61.09,5.22.1s3.26,0,4.79-.15a30.61,30.61,0,0,0,8.14-1.5,11.55,11.55,0,0,0,5-3.18c1.64-1.85,2.7-4.33,3.16-8.17a74.91,74.91,0,0,0,0-13.36,151.55,151.55,0,0,0-4.17-28.2,58.41,58.41,0,0,0-7.17-17.34,37.46,37.46,0,0,0-5.61-6.92l-.78-.78c-.27-.26-.6-.52-.9-.78-.62-.51-1.23-1.09-1.85-1.55l-1.84-1.4L255,269.55l-1.74-1-1.63-.75c-.49-.12-1-.36-1.46-.45a7.79,7.79,0,0,0-1.26-.2,5.9,5.9,0,0,1-.59-.06c-.18,0-.36,0-.55.06a4.71,4.71,0,0,0-1.14.2,1.75,1.75,0,0,0-.62.21c-.21.09-.43.17-.65.24-.45.24-.92.53-1.4.77a28.25,28.25,0,0,0-6.08,5.76c-1,1.14-2,2.52-3,3.8s-1.9,2.66-2.77,4.05a51.86,51.86,0,0,0-3.71,7.29,86.92,86.92,0,0,0-3.05,8.6c-1.76,5.73-2.77,11-3.81,13.3a6.15,6.15,0,0,1-1.63,2.84,1.2,1.2,0,0,1-1.48-.16,105.67,105.67,0,0,1,2.46-12,99.9,99.9,0,0,1,3.94-11.5,83.93,83.93,0,0,1,5.35-10.79,67.47,67.47,0,0,1,6.75-9.59l1.16-1.27c.38-.41.8-.74,1.2-1.12a23,23,0,0,1,2.45-2,13.82,13.82,0,0,1,5-2.13,13.2,13.2,0,0,1,6.39,1l1.36.62c.46.22.92.52,1.38.78a12.17,12.17,0,0,1,1.37.85l1.37.94c.46.32.91.7,1.36,1.05.91.68,1.79,1.47,2.68,2.25s1.63,1.58,2.43,2.36a27.85,27.85,0,0,1,2.19,2.52,50.17,50.17,0,0,1,6.89,11.79,48.72,48.72,0,0,0-6.61-11.75,38.94,38.94,0,0,0-4.55-4.91c-.89-.77-1.76-1.6-2.67-2.28l-1.36-1.07-1.39-.95c-.91-.68-1.85-1.11-2.78-1.68a21.21,21.21,0,0,0-2.76-1.14,10.43,10.43,0,0,0-5.18-.52,13.4,13.4,0,0,0-5,2.16,25.54,25.54,0,0,0-2.47,2.05c-.4.39-.82.75-1.21,1.17l-1.16,1.3a68.85,68.85,0,0,0-6.88,9.45,85.56,85.56,0,0,0-5.52,10.63,98.82,98.82,0,0,0-6.89,23.13c-.84-.71-1.71-1.44-2.72-.56l-.36,2.87c-.17,1.6-.35,3.52-.43,4.81q-.53,1.89-1,3.24a13.39,13.39,0,0,1-1,2.2c-.66,1.14-1.34,1.65-2,1.65-1.33,0-2.7-2-3.73-4.82C206,321.39,205.46,319.77,205.14,317.94Z"/><path class="cls-2" d="M327.35,368.31l1-1.48c5.72-9.26,9.85-19.26,15.73-29.75,4.37-7.24,8-16.12,11.62-23.71-9.26,17.65-17.79,36.75-28.59,52.85a14.22,14.22,0,0,1,1.16-7.11q4.62-8.57,8.89-17.06l1.62.75c6.37-16.9,16.78-30.58,22.5-47.8-.5.48-.66,0-.87-.27l.05-.11-.05.11c-.18-.21-.39-.23-.87.78.48-1,.69-1,.87-.78-7.23,16.19-14.68,31-22.93,46.67,12.35-24.56,22.9-48.87,35.18-74.23.52-1.08,1.57-3.24,2.09-4.33a53.38,53.38,0,0,0,7.93-12.16c1.49,2.06,7.64-.27,2.62,7.95l1.62.79c6.23-7.63,13.46-8.08,10.88,1.31-3.11,10.46-11,22.6-15.85,34.85-3.73,8.83-7.43,17.67-12.33,25.93-6.84,11.33-12.51,24.52-19.67,35.72-2.42,4.15-4.7,12.33-6.92,13.94-1.3,1.3-2.2,1-3.07.28,3.43-7.1,6.76-14.2,10.21-21.16,4.46-8.43,9-16.82,13.86-25a255.39,255.39,0,0,0-13.86,25l-10.89,20.57a3.5,3.5,0,0,0-2.47-1.23l-1.5,3.27c-4,3.43-6.41,1-7.46-2.09C327.68,370.07,327.5,369.23,327.35,368.31Z"/><path class="cls-2" d="M389.63,341.31a10.65,10.65,0,0,1-.46-1.26c-.1-.4-.18-.8-.24-1.19a10.43,10.43,0,0,1,.28-4.57,11.08,11.08,0,0,1,1.88-3.72,9.78,9.78,0,0,1,1.6-1.62l.47-.37.36-.23c.24-.16.49-.3.73-.43a11.59,11.59,0,0,1,2.85-1.05,13.33,13.33,0,0,1,4.37-.23,14.47,14.47,0,0,1,1.56.26c.49.11,1,.24,1.61.42l2.8,1a13.37,13.37,0,0,1,3.36,1.8,10,10,0,0,1,2.88,3.28,9.84,9.84,0,0,1,1.21,3.76,10.3,10.3,0,0,0-1.25-4.5,10.42,10.42,0,0,0-3.5-3.69,14.25,14.25,0,0,0-3.85-1.66c-1.16-.31-2.19-.49-3.05-.65a27,27,0,0,0-2.94-.45,13.49,13.49,0,0,0-4.53.35,11.37,11.37,0,0,0-2.89,1.18,6.82,6.82,0,0,0-.89.61,8,8,0,0,0-.87.74,11.58,11.58,0,0,0-1.44,1.65,12,12,0,0,0-1.79,3.74,11.4,11.4,0,0,0-.32,4.64,9,9,0,0,1-.65-9.43,14.15,14.15,0,0,1,2.24-2.89,17.34,17.34,0,0,1,1.51-1.29c.45-.31.79-.52,1.19-.76a15.3,15.3,0,0,1,4.46-1.66,18.66,18.66,0,0,1,5.82-.17c0,.46-.05,1.34-.07,1.79a12.2,12.2,0,0,1,1.24-.13,9.92,9.92,0,0,1,1.33,0,14.16,14.16,0,0,1,3.35.66,13.86,13.86,0,0,1,4.06,2.13,12.73,12.73,0,0,1,3.53,4.17,13.6,13.6,0,0,1,1.42,4.74,16.55,16.55,0,0,1-.15,4.41,18.7,18.7,0,0,1-3.64,8.29c.51-.15.56.3.68.59l-.07.08.07-.08c.1.25.29.37.93-.29-.64.66-.83.54-.93.29a15.9,15.9,0,0,0,4.42-8.57,16.3,16.3,0,0,0,.08-4.79,15,15,0,0,0-1.67-5.06,14.43,14.43,0,0,0-3.84-4.41,16.07,16.07,0,0,0-4.32-2.31,26.2,26.2,0,0,0-3.52-1l-2.6-.5,2,.27c.73.11,1.57.24,2.53.46a16.8,16.8,0,0,1,6.88,3.24,14.53,14.53,0,0,1,4.93,7.74,16.06,16.06,0,0,1,0,7.89,15.75,15.75,0,0,1-3.8,6.94,15.22,15.22,0,0,1-3.24,2.63,17.23,17.23,0,0,1-3.38,1.58,18,18,0,0,1-6.74.9,19.1,19.1,0,0,1-6.16-1.37,21,21,0,0,1-2.61-1.28c-.62-.88-1.14-1.63-1.6-2.27l-3.76-5.33.35-.76a5.66,5.66,0,0,0,.45-3.06c2.28.08,6.58-1.87,6,1.05l1.79-.22c1.89-3.08,8-4.9,10.15-2.3a6.5,6.5,0,0,1,1,2.17l-4.91-5.57a3.86,3.86,0,0,0,.57-.89c.09-.2.06-.17,0,.06a5.34,5.34,0,0,0,.18,2.57,3.81,3.81,0,0,0,.19.43.6.6,0,0,0,.06.11l0,0h0c-.17-.23,1.42,2.06.75,1.09h0v0L404,339a2,2,0,0,0-.58-.47c-.21-.13-.34-.14-.24-.12a2.6,2.6,0,0,0,.83,0,2.16,2.16,0,0,0,1-.42l-.06.07v0l-.37.53-.16.27-.2.39a16.27,16.27,0,0,0-1,3.2c0,.16,0,.08,0,.1v0s0,0,0,0l-.06-.07a1.23,1.23,0,0,0-.27-.15,10.17,10.17,0,0,0-1-.38,2.14,2.14,0,0,1-.81-.43.54.54,0,0,1-.15-.26l-.1-.74c0-.34-.12-.73-.16-1a9.75,9.75,0,0,0-.61-2,2.32,2.32,0,0,0-.24-.43l0-.05h0c.19.25-1.67-2.17-.88-1.15h0l0,0,0,0,.12.12a1.28,1.28,0,0,0,.4.24.77.77,0,0,0-.25,0c-.36,0-.4.05-.33,0,.51-.08.72.05.49,0a1.69,1.69,0,0,1-.36-.25l-.07-.07,0,0,.89,1.15,0,.07.08.12a2.9,2.9,0,0,1,.17.35,5,5,0,0,1,.21.54s.06,0,.13,0a7.26,7.26,0,0,1,.83.07c.43.13,1.15.3,1.68.48a2.83,2.83,0,0,1,1.12.6.37.37,0,0,1,.12.29v0l.08-.18a1.77,1.77,0,0,1,.15-.31c.08-.17.19-.35.24-.44L405,338s.07-.07,0,0l0,0a.28.28,0,0,1-.11.07,1.07,1.07,0,0,0,.15-.1h0l0,0-.43.62-.23.41-.15.31c0,.08,0,.05,0,0v0a.38.38,0,0,0-.13-.3,2.56,2.56,0,0,0-1.15-.54,14.68,14.68,0,0,0-1.72-.33c-.38-.11-.67-.18-.86-.25a.41.41,0,0,1-.19-.11l0,0,0-.08-.06-.13a2.5,2.5,0,0,0-.17-.36l-.08-.13,0-.07,0,0-.88-1.15h0v0l0,0,.07.07a1.21,1.21,0,0,0,.35.25c.25.11.07,0-.42,0h0a12,12,0,0,0-1.36.19,1.22,1.22,0,0,0,.18.45,3.43,3.43,0,0,0-.62,1.8,11.32,11.32,0,0,1-.38,2,3.12,3.12,0,0,1-1.27,1.63,3.78,3.78,0,0,1-2.59.49A8.27,8.27,0,0,1,389.63,341.31Z"/><path class="cls-2" d="M335.46,276.81c0,.39,0,.79.07,1.18.12,1.78.29,3.51.36,5.25.06.86.07,1.73.1,2.6,0,.43,0,.86,0,1.3s0,.84,0,1.48a39.34,39.34,0,0,1-.78,6.95,29.22,29.22,0,0,1-2.11,6.37c-.31.69-.73,1.29-1.07,2-.09.16-.17.34-.27.49l-.32.42-.62.87a4.59,4.59,0,0,1-.68.76l-.7.72c-.09.16-.27.19-.44.23l-.5.13a5,5,0,0,1-1,.18,12.67,12.67,0,0,1-4.32-.27A18.75,18.75,0,0,1,319,306a18.55,18.55,0,0,0,5,1.93,10.24,10.24,0,0,0,5,.11l.58-.16a.39.39,0,0,0,.25-.14l.21-.2.84-.8.21-.2.19-.26.36-.52c.24-.35.51-.66.73-1.05a36.1,36.1,0,0,0,2.13-5.26,45.53,45.53,0,0,0,1.51-5.88c.15-1,.34-2.08.45-3.15l.16-1.61.07-.79.05-.63a78.5,78.5,0,0,0,.24-9.73,6.53,6.53,0,0,1,2.88,4.23c.08,1.13.13,2.25.13,3.37,0,.56,0,1.11,0,1.67l0,.86v.55l0,.61a45.52,45.52,0,0,1-1.33,9.4l-1.67-.81a23.6,23.6,0,0,1-.52,3c-.12.48-.23,1-.35,1.44s-.29.92-.44,1.38-.3.91-.47,1.34l-.57,1.24a7.15,7.15,0,0,1-.61,1.17l-.76,1a6.13,6.13,0,0,1-1.7,1.5,2.79,2.79,0,0,1-.95.54,6.69,6.69,0,0,1-1.07.35,10.34,10.34,0,0,1-4.78-.1,25.26,25.26,0,0,1-9.61-4.25,28.55,28.55,0,0,1-4.71-4.11,29.6,29.6,0,0,1-4.39-6.17c.09.88-.41.65-.73.63l-.06-.16.06.16c-.27,0-.45.2.23,1.56-.68-1.36-.5-1.58-.23-1.56a26.93,26.93,0,0,0,4.38,6.83,24.6,24.6,0,0,0,5.07,4.44,25.93,25.93,0,0,0,5.11,2.64,25.42,25.42,0,0,0,5,1.25,23.67,23.67,0,0,0,2.49.21,10.1,10.1,0,0,0,2.35-.35,9.5,9.5,0,0,0,3.91-2.28l.81-.94.41-.47.32-.6a24.1,24.1,0,0,0,1.25-2.49c.37-.9.78-1.77,1.09-2.73s.69-1.9.95-2.93a39.6,39.6,0,0,1-2.88,7.82,11.94,11.94,0,0,1-2.11,3,16.79,16.79,0,0,1-2.73,1.73,3.42,3.42,0,0,1-.77.3l-.8.24a16.15,16.15,0,0,1-1.7.23,21.86,21.86,0,0,1-3.59-.27,23.28,23.28,0,0,1-7.38-2.42,26,26,0,0,1-7.47-6,26.86,26.86,0,0,1-5.65-10.77,34.32,34.32,0,0,1-1.11-6.48,48,48,0,0,1,0-6.23c.3-4,.8-7.6,1.23-11.45l3.37-.57c.37-.09,1.19-.17,1.9-.25l2.17-.23c1.17-.15,3.56-.35,4.77-.38l1.83.42c.57.14,1.28.28,1.61.41.76.25,1.52.47,2.26.67,1.5.39,3,.67,4.47.91-.54,1-.26,2.81-.57,4.07s-1.08,2-3.68,1.3c0,.45-.11,1.34-.15,1.79A6.93,6.93,0,0,1,325,282.8a4.79,4.79,0,0,1-.81,2.84,4.27,4.27,0,0,1-2.34,1.71,14.68,14.68,0,0,1-2.4.41c-.39,0-.85.07-1.21.09-.08,0-.07,0-.11.06s-.34-.15-.34,0a.45.45,0,0,0,.13.49c.14.15.27.1.28.07s-.07,0,0,.53a2,2,0,0,0,.61,1,1.27,1.27,0,0,0,.47.31.94.94,0,0,0,.3-.12,9.77,9.77,0,0,0,1.78-1.5.63.63,0,0,0,.1-.3c0-.17,0-.53-.07-.82-.07-.61-.23-1.23-.35-1.83-.28-1.19-.49-2.23,0-2.86a3,3,0,0,1,2.43-1.3,30.47,30.47,0,0,1,.72,5.28l0,1.32c0,.35,0,.58,0,.88,0,.56-.12,1.11-.22,1.64a8.93,8.93,0,0,1-1.55,3.07,4.91,4.91,0,0,1-.49.52c-.09.06-.16.17-.27.19l-.49-.2a6.81,6.81,0,0,1-1.71-1.14,6.56,6.56,0,0,0,1.8,1.37l.52.23c.11.07.11,0,.17,0l.13-.11a3.82,3.82,0,0,0,.52-.54,8.07,8.07,0,0,0,1.37-3.34,15.15,15.15,0,0,0,.4-1.61c0-.3.1-.55.14-.9l.08-1.32a32.66,32.66,0,0,0-.25-5.4,7,7,0,0,0,2.69-.67s-.07-.3-.18-.66l-.33-1.1c1.32-3,4.37-3.81,7-3.07A16.11,16.11,0,0,1,335.46,276.81Z"/></svg>