<svg id="Layer_1" data-name="Layer 1" xmlns="http://www.w3.org/2000/svg" width="206.66mm" height="190.4mm" viewBox="0 0 585.81 539.71"><defs><style>.cls-1{fill:#055072;}.cls-2{fill:#fff;}</style></defs><title>20</title><path class="cls-1" d="M224,35.52c-.17.84-.45,1.75-.65,2.58-1.67,0-2.66-1.21-3.25-3C217.33,59,239.53,70.51,261.62,71.28c2.84,4.43,9.66,4.9,15.27,1s7.86-10.69,5.05-15.15c-.1-1.4-.51-2.8-.15-4.17a76.55,76.55,0,0,0,1.53-35.25c-.34,2.74-.69,5.59-1,8.32-.52-3.29-.94-6.59-2.88-9.17-.76,1-1.47,2.15-2.25,3.2.9-13.42-10-22.14-24.49-19.6S225.49,15.8,224.59,29.33Z"/><path class="cls-1" d="M204.55,74.94c-.3-7.58-.12-15.19.13-22.83l1.11-2.34-8,6.77.6-.33C208.71,55.12,217,60.08,224.2,65l3,1.38A9.54,9.54,0,0,0,233.3,65c4.37-2.6,6.46-7.57,4.72-11.1l-2.05-4C234,37.56,223.78,24,206,30.14c-4.09,1.45-7.47,5.58-11.07,8.74-5.73,3.92-8,10.88-5,15.49s10,5.1,15.73,1.08c.17,1,.39,2.08.58,3.1-1.13,0-2.19-.13-3.32-.18,5.72-2.52,9.85.55,14.65,1.46l4.77,3.29,10.78-12.51-3.45-.93c-.41.6-.95,1.57-1,1.58-6.85-1.55-13.49-2.88-19.44-5.84l-9.32-2.31a9.34,9.34,0,0,0-8,6.75l-.69,4.81c.26-.85.43-1.63.7-2.48,1.88,8.38,5.23,16.17,6.92,24.65.16,1.42,1.61,2.16,3.27,1.66A3.57,3.57,0,0,0,204.55,74.94Z"/><path class="cls-1" d="M185.93,54.67c.2-1.75.5-3.52-.84-4.75l-1.5.19c-.18,1-.43,2.32-.68,3.65C182.42,56.38,184.2,56.16,185.93,54.67Z"/><path class="cls-1" d="M183.59,50.11c.18-.91.29-1.52.29-1.52l-.78,1.48.22.08Z"/><path class="cls-1" d="M426.16,287.38c6.88,9.9,14.18,19.47,21.58,29s15.12,18.73,22.9,27.9a1.56,1.56,0,0,0,2.27-.11,1.63,1.63,0,0,0,.34-2.2c-7.72-9.22-15.4-18.42-22.73-27.94S435.91,295,429,285.09a1.65,1.65,0,0,0-2.27,0A1.86,1.86,0,0,0,426.16,287.38Z"/><path class="cls-1" d="M483,486.42a2,2,0,0,0-1.72,1.86,1.26,1.26,0,0,0,1.5,1.37,2.32,2.32,0,0,0,1.71-1.86A1.25,1.25,0,0,0,483,486.42Z"/><path class="cls-1" d="M424.6,539.68a32.71,32.71,0,0,0-11.15-2.59,1.27,1.27,0,0,1-1.13-1.21,3.68,3.68,0,0,1-3.88,1.52,154,154,0,0,1-19.82-7.06c-6.38-2.73-12.59-5.79-18.69-9s-12.07-6.71-18-10.21S340,504.06,334,500.6a12.23,12.23,0,0,1-3.49,1.87c-4.2,1.56-8.3.38-10.49-2.89l-1.32-2.79c-3.28-5-6.64-10-10-14.89s-6.65-9.87-9.76-15a16.66,16.66,0,0,1-8.16-3.49c-5.31-1.9-10.59-3.86-15.78-6-2.59-1.06-5.17-2.14-7.7-3.28s-5-2.36-7.46-3.63a7.58,7.58,0,0,1-2.13,3.46c-2.67,2.26-6.22,2.29-8,.14-1.05-1-2.07-2-3.08-3,2.18,3.55,4.34,7.13,6.41,10.78a3.92,3.92,0,0,1,.68,1.6,122.73,122.73,0,0,0,9.58,9.65c29.95,26.95,66,44.42,103.16,59.59a1.36,1.36,0,0,1,1.24,1.74c-.32.85-1.17,1.62-2,1.48-7.25-1-14.65-1.56-22-2.13s-14.76-1.06-22.11-1.77a218.61,218.61,0,0,1-21.8-3.07A116.32,116.32,0,0,1,279,522.82a606.15,606.15,0,0,1-91.54-46.33,244.2,244.2,0,0,0-18.34-17.83c-3.18-2.8-6.42-5.51-9.69-8.19s-6.55-5.35-9.89-8C142.8,437.25,136,432.11,129,426.9s-13.88-10.61-20.91-16.21c-38-30.23-68.47-63.92-98.83-99.68A28.42,28.42,0,0,1,0,288c.45-8.72,4.48-17.82,11.77-25.12,8.92-8.84,20.57-13.15,31.26-12.66-.85-1.13-1.65-2.27-2.44-3.45L38.39,240a28.72,28.72,0,0,1,2-20.89l3.87-9c9-15,13.66-31.38,24.12-45.92L74.13,161l.75-2.09a35.23,35.23,0,0,1,9.26-16.64l6.4-4.53a93.2,93.2,0,0,1,23.52-11,34.13,34.13,0,0,1,8.24-5.12c4.72-7,10.58-13.17,19.15-17.28a6.42,6.42,0,0,1,6.41-4.31,4.13,4.13,0,0,1,2.3,1s0,0,0,0c1.09-1.94,1.4-2.51,2.48-4.82a26.81,26.81,0,0,1-.56-2.67c-1.44-4.11-1.44-4.11-2.59-7.73a24.85,24.85,0,0,1,2.15-8c9-11.27,9-11.26,14.07-14.55.59-.2,1.18-.39,1.76-.54-.07-3.35-.06-3.6,0-4.55a14.15,14.15,0,0,1,1.06-2.44c2.5-2.08,2.5-2.08,3.14-3.16A19.28,19.28,0,0,1,173.53,51c3.77-1,3.77-1,4.61-1.63a11.28,11.28,0,0,1,1.92-.41l3,1.12-4.33,8.14,2.8-1.14-2.51,3.07,2.49-2.57L181,60.4l1.12-3.63c1.75,4.35,1.75,4.35,3,5.69a5.86,5.86,0,0,0,2.65,2.59,18.93,18.93,0,0,1,1.39-1.3C191,68.39,191,68.39,192.73,73a22.6,22.6,0,0,1-1.15,2.31,2,2,0,0,1,2.38,1c.37.76.69,1.56,1,2.32l.71.12.21-.18,2.59.6.59.09s0,0,0,.05l11.24,2.56a23,23,0,0,1,1.25,4.24c.15-.65.3-1.28.5-1.93.41-1.31,3.27-2.69,3.24-3.2a77.87,77.87,0,0,0-4-17.17c-1.82-5.5-4-10.82-6-16.23-1.5-1.32-1.19-3.91.63-5.69s4.56-2.11,6.06-.72A59,59,0,0,1,243.52,62a67,67,0,0,1,9.27,16.29A82.5,82.5,0,0,1,258,97c2.52,5.69,5.26,11.25,8.06,16.79.22-.56.45-1.12.67-1.67.35,1.74.77,3.43,1.15,5.15a4.93,4.93,0,0,0,.23.46q1.06-3.18,2.12-6.35c-.08-1-.16-2-.29-3-3.52-6.19-5.58-13.14-7.27-20.29s-3-14.47-5-21.52c-2.14-7.58-1.78-15.82-2.88-23.66-.85-1.57,0-3.79,1.93-5.07s4.13-.92,5,.59C278.85,53.8,292.3,76.1,289,102.56a16.26,16.26,0,0,1,3.37,12.19l.07.18,2-5c1.08,3.16-.86,6.94-.31,10.19l4.3-5a98.38,98.38,0,0,0,5.81,10.42c2.12,3.39,4.37,6.68,6.45,10.08,4.18,6.78,7.75,13.89,8.83,22.38a10.2,10.2,0,0,1,.62,1.64c7.46,1.72,14.85,3.55,20.06,8.67-1.08-2.32-2.14-4.59-3.23-6.91,5.56,2.17,10.41,4.89,13.88,9.36a47.33,47.33,0,0,1,9.44,22.29,49.78,49.78,0,0,1-3.17,26.41c21.48,20.87,42.8,41.91,66.24,60.71,1.26.92,1.2,2.87,0,4.38s-3.31,1.94-4.57,1q-7.31-4.12-14.28-8.68c-4.63-3-9.13-6.24-13.58-9.51-8.88-6.54-17.5-13.42-25.89-20.53,2.44,3.94,4.87,7.89,7.39,11.79s5.11,7.75,7.76,11.57a243.26,243.26,0,0,0,17,22.17l5.53,4.67a16.2,16.2,0,0,1,4.12,5.86c4.09,4.36,8,8.76,12.08,13s8.09,8.47,12.26,12.58,8.44,8.16,13,12,9.36,7.53,14.48,11c4.39,3,8.65,5.85,12.91,8.61s8.52,5.38,12.8,8c8.56,5.2,17.21,10.27,26.71,15.33L530.68,394c6.37,3.48,12.68,6.87,18.73,10.5S561.33,411.89,567,416a156.07,156.07,0,0,1,16.34,13.34c3.17,2.16,3.3,7.16.28,11.06s-8.09,5.29-11.28,3.1l-20.28-11.12c-6.76-3.71-13.46-7.49-20.18-11.28q-20.19-11.29-39.59-23.78c-6.49-4.14-12.79-8.53-19-13s-12.4-9.14-18.35-14A298.45,298.45,0,0,1,421.14,338c-4.51-5.1-9-10.1-13.31-15.14a14.44,14.44,0,0,1-1.33,1.49,15.7,15.7,0,0,1-6.4,3.75q7.14,8.88,13.57,18.67,7.06,4.29,14,8.69c4.65,2.94,9.22,6,13.63,9.23A134.75,134.75,0,0,1,454,375.24a103.08,103.08,0,0,1,11.36,12.35,130.71,130.71,0,0,1,12.13,19.69c3.53,6.78,6.69,13.76,10,20.73,3.81,2.65,7.63,5.29,11.5,7.86l11.66,7.69q11.67,7.67,23.1,15.69c.78.25,1,1.15.53,2a1.87,1.87,0,0,1-2.18,1c-3.36-1.07-6.68-2.21-9.93-3.45s-6.46-2.57-9.64-3.95c-6.36-2.75-12.59-5.72-18.78-8.81a19,19,0,0,1-5.62,10.37,18.4,18.4,0,0,1-11,5.23c2.08,2.17,4.22,4.29,6.29,6.48a3.83,3.83,0,0,1-.51,5.24c-1.71,1.73-4,2-5.22.68-8.73-8.67-17.21-17.56-25.74-26.4-12.31-8.5-24.12-17.47-35.88-26.64a27.23,27.23,0,0,1-4.6,10.61l-.05.05,5.09,4.63c38.53,20.76,73.93,45.34,103.73,76.49a1.72,1.72,0,0,1-.13,2.42c-.7.78-1.76,1-2.26.38a330,330,0,0,0-28.45-26.55v.07a2.14,2.14,0,0,1-1.7,1.86,1.31,1.31,0,0,1-1.51-1.35,2.13,2.13,0,0,1,1.69-1.86c-9.26-7.75-19-14.92-29-21.79s-20.4-13.27-31-19.39c16.4,14.73,32.55,29.65,47.07,46.28,2.63.72,5.25,1.43,7.86,2.22a1.6,1.6,0,0,1,.38,2.2,2,2,0,0,1-2.18.87c-.69-.25-1.42-.46-2.12-.7,2.71,3.19,2.06,8.54-1.67,12.37-3.95,3.83-9.46,4.41-12.46,1.24q-13.65-11-26.4-22.83L435,486.31c-1.49-.29-3-.55-4.5-.81L439,496.18l8.5,10.68c5.64,7.14,11.16,14.4,16.75,21.56,1.16,1,1.05,3-.23,4.45s-3.31,1.73-4.47.7c-7.1-4-14-8.32-20.91-12.67s-13.73-8.81-20.38-13.49c-13.34-9.32-26.45-19-39.08-29.31-13.34-1.7-26.85-3.36-40.3-5.47.86,1.08,1.77,2.14,2.74,3.14a92.49,92.49,0,0,0,20.79,15.61,212.53,212.53,0,0,0,23.46,11.25c16.12,6.72,32.4,12.92,46.41,22.91.79.41.73,1.5.15,2.27a1.65,1.65,0,0,1-2.32.46c-14.27-9.16-30.68-14.1-46.48-21.71-13.11-6.28-25.34-12.55-38.83-17.22,10.08,8.47,21.29,15.4,32.78,22,5.76,3.26,11.55,6.46,17.26,9.77s11.31,6.75,16.78,10.39a2.49,2.49,0,0,1,1.44,2.81,2.2,2.2,0,0,1,1.39-.53,44.59,44.59,0,0,1,11.69,2.77c.8.16,1.14,1.06.68,2.06A2,2,0,0,1,424.6,539.68ZM204.83,135.21c.19-.47.35-.85.49-1.21,0,.91-.07,1.88-.11,2.95l-4.07,7.29S202.93,139.76,204.83,135.21Zm-46.58-12.4v0c1.33-2.39,2.3-4.11,2.3-4.11ZM369.81,266.59A111,111,0,0,1,348.63,233l7.31,6.18C360.83,248,365.36,257.22,369.81,266.59ZM211.45,96.66c-1,5.24-3.19,10.48-5.6,15.7a15.8,15.8,0,0,1,5.28,4.87A136.43,136.43,0,0,1,220.85,134c1.6-2.36,2.3-1,3-.61l2,1.4c-2.7-6.39-5.26-12.92-7.74-19.64C215.86,109.09,212.68,103.12,211.45,96.66Zm-37-29.93c.16-.36.3-.68.44-1.06l4-1.53Zm-6.67,2.71c.05.35.07.72.14,1.1C166.5,71.21,166.75,70.62,167.78,69.44Zm1.33,10.09a9.34,9.34,0,0,0,1-2.34C169.11,79.52,169.11,79.53,169.11,79.53ZM78.34,158.77l18.25-9.87L78.78,158Z"/><path class="cls-2" d="M255.65,396.33c-1.4-1.12-2.77-2.34-4.21-3.39A91,91,0,0,0,230,381.18a71.14,71.14,0,0,0-23.3-4.82,58.23,58.23,0,0,0-22.94,4.22c-7.41,3-14.59,7.92-21.45,14a105.82,105.82,0,0,0-18.77,21.8l-18-12.16c11.53-16,22.26-33.29,31.82-49.19-10.38,16.31-21.3,32.58-32.83,48.48l20.06,13.54c6.5-9.62,13.85-18.48,22.15-25.43s17.48-11.74,27.06-13.39c9.59-1.81,19.69-.71,29.31,2.42l3.58,1.25c1.19.46,2.36,1,3.53,1.48l1.75.75,1.72.87c1.15.58,2.29,1.13,3.42,1.74,2.22,1.32,4.45,2.52,6.57,4,1.06.73,2.15,1.38,3.17,2.16l3.08,2.3c-1.52-.28-3.06-.61-4.62-1s-3.2-.7-4.82-1.18-3.3-.86-5-1.45-3.4-1.06-5.11-1.78a74.94,74.94,0,0,0-12.3-4.11c-2.06-.58-4.08-.81-6.11-1.18a11.35,11.35,0,0,0-1.5-.18l-1.5-.12a25.24,25.24,0,0,0-3-.19l-2.94,0a9.91,9.91,0,0,0-1.45.09l-1.43.12a45.76,45.76,0,0,0-5.65.82,8.18,8.18,0,0,0-1.38.34l-1.35.38a23.58,23.58,0,0,0-2.72.81,48.5,48.5,0,0,0-5.31,2.25l-1.67-3.16c-12.71,7.65-23.77,20.08-33.43,34.09l-28.18-19c12-16.32,23.68-32.74,34.39-50,5.35-8.61,10.47-17.41,15.24-26.49a202.13,202.13,0,0,0,12.4-27.52c-1.26,1.66-1.44.26-1.8-.35l.15-.37-.15.37c-.34-.55-.74-.5-2.22,2.7,1.48-3.2,1.88-3.25,2.22-2.7-3.78,8.91-8.37,17.78-13.27,26.75s-9.91,17.7-15.11,26.31c-10.42,17.24-21.53,33.88-33.42,50.16l31.35,21.16a127,127,0,0,1,14.83-18.2,71,71,0,0,1,17.07-12.95,70.6,70.6,0,0,0-16.76,13.1,126.13,126.13,0,0,0-14.55,18.43l-32.5-21.93q16-22.51,30.17-46.07,7.11-11.78,13.82-23.81c4.45-8,8.88-16.17,12.75-24.05a175.83,175.83,0,0,0,9.73-23.54,102.32,102.32,0,0,0,3.05-11.59A82.64,82.64,0,0,0,189.34,259a43.54,43.54,0,0,0,0-5,29.12,29.12,0,0,0-.54-4.38,21.27,21.27,0,0,0-1-3.49,14.72,14.72,0,0,0-1.27-2.46,9.94,9.94,0,0,0-3.33-2.94,16.72,16.72,0,0,0-6.1-1.62,23.2,23.2,0,0,0-4.39,0,23.54,23.54,0,0,0-2.49.4,17.23,17.23,0,0,0-2,.5,13.41,13.41,0,0,0-1.8.08,11.55,11.55,0,0,0-1.78.24c-.29.05-.58.08-.9.16l-1,.31-1,.31-1,.4a37.83,37.83,0,0,0-8.14,4.49c-5.39,3.82-10.5,9.12-15.42,15.14-.5-2.93-5-2.82-6.67-4.83-.84-1-1-2.58.5-5.36a29.36,29.36,0,0,1,3.61-5.07,56.63,56.63,0,0,1,7-6.82l-2.44-2.64c-6.72,4.72-12.46,9.06-17.31,12S113,253,110.44,252.88s-3.9-1.74-3.41-5.18a23.32,23.32,0,0,1,2.21-6.58,61.19,61.19,0,0,1,5.83-9.61,103.67,103.67,0,0,1,11.08-12.69,84.08,84.08,0,0,1,15.71-12c1.53-.9,3.12-1.72,4.77-2.57l2.7-1.21,1.36-.6,1.39-.51,2.79-1c.94-.31,1.9-.56,2.85-.83,1.9-.57,3.85-.94,5.82-1.33a63.85,63.85,0,0,1,24.82.44c1.08.27,2.15.56,3.23.85l1.61.46,1.62.58c1.07.39,2.15.79,3.21,1.22s2.13,1,3.19,1.52c.53.26,1.06.5,1.57.8l1.56.93c1,.63,2.06,1.23,3.05,1.94a50.7,50.7,0,0,1,5.71,4.68c.88.87,1.81,1.69,2.62,2.63s1.61,1.9,2.4,2.86a47.34,47.34,0,0,1,4.07,6,56.94,56.94,0,0,1,5.29,12.65,77.71,77.71,0,0,1,2.62,23.75c-.11,3.69-.44,7.33-.88,10.68-.17,1.71-.46,3.38-.71,5.06s-.57,3.33-.87,5a143.92,143.92,0,0,1-3.55,14c-.67,2.29-1.44,4.48-2.19,6.71s-1.57,4.38-2.43,6.5a252.48,252.48,0,0,1-11.18,24.29c-4,7.66-8.08,14.94-12.41,22.23S187,369,182.23,375.92c-10.34,14.92-21,30.33-32.19,45.53l-31.65-21.36A179,179,0,0,1,133.28,381,121.29,121.29,0,0,1,152,364,101.43,101.43,0,0,1,163,357l3-1.48,1.48-.73,1.53-.66,3.06-1.29c1-.39,2.09-.76,3.13-1.13a81.41,81.41,0,0,1,25.63-4.27,134.25,134.25,0,0,1,17,.68c1.51.18,3.07.3,4.59.54l4.57.8c.76.15,1.53.26,2.28.43l2.23.53,4.41,1.1c11.48,3.24,20.93,8,24.27,11.44.65.53,1.21,1,1.68,1.48a12.16,12.16,0,0,1,1.13,1.32,4.82,4.82,0,0,1,1,2.08,2.63,2.63,0,0,1-1.46,2.6A125.81,125.81,0,0,0,243,360.66a109.78,109.78,0,0,0-21.32-6.2A92.51,92.51,0,0,0,199,353.32a79,79,0,0,0-22.42,5.18c-11.48,4.33-21.57,11.26-30.18,19.15a161.88,161.88,0,0,0-22.52,26l20.73,14q10.68-14,21-28.26-10.53,13.95-21.34,28l-20-13.5a170.89,170.89,0,0,1,22.25-25.85c8.52-7.93,18.53-15,30.07-19.57A77.52,77.52,0,0,1,199,353.69a90.82,90.82,0,0,1,22.29,1.48,117.52,117.52,0,0,1,39.62,16.33c-1.82,1.05-3.58,2.24-3.05,4.62l4,2.41,3.44,2.27c1.15.75,2.24,1.48,3.07,2.11a36.79,36.79,0,0,1,3.24,4.54,17,17,0,0,1,1.57,3.67c.59,2.12.31,3.62-.55,4.66-1.74,2.08-5.74,2.3-10.05,1.83l-3.31-.62C258.11,396.77,256.92,396.52,255.65,396.33Z"/><path class="cls-2" d="M318.94,226.82c-.15,0-.33.05-.47.1a1.17,1.17,0,0,1,.79-.76,3.82,3.82,0,0,0-1.74.73,4.45,4.45,0,0,0-.69.62,8.45,8.45,0,0,0-.74,1.07,19.69,19.69,0,0,0-1.51,3.6c-.49,1.43-.94,3.29-1.35,5a76,76,0,0,0-1.9,19.7,27.82,27.82,0,0,0-.38,5.34c.09,1.47.34,2.5.74,2.74.81.46,1.86-2.4,2.51-6.32a19.54,19.54,0,0,1,.69-2.44c2.17-5.36,4.36-11.74,7-18.37-.6,1.26-1.28,2.54-1.84,3.85.34-1,.74-1.95,1.1-2.95s.72-2.08,1-3c-.21.14-.45.39-.66.55.75-1.5,1.41-2.83,1.86-3.6l.45-.77a.21.21,0,0,0,0-.06h0l-.15-.09-.36-.24-.36-.25,0,0c.4.27-.92-.62.89.61h0l0,0s0,0,0,0a2.81,2.81,0,0,1-.49-1.33,7.49,7.49,0,0,0-.51-2.29,2.77,2.77,0,0,0-2.62-1.61A5,5,0,0,0,318.94,226.82Z"/><path class="cls-2" d="M311.08,231.55a22.68,22.68,0,0,1,2.75-4.59,8,8,0,0,1,1.28-1.27,10.52,10.52,0,0,1,1.33-.87l.5-.06-1-.84,0,.09c-.18.53-.41,1.14-.59,1.73s-.37,1.24-.65,2.13c-.55,1.77-1.28,4.42-2,7.55l-.42,2.19a3.43,3.43,0,0,0,.17,2.1c.24.33.63.06,1-.63a13.92,13.92,0,0,0,1.37-3.14c.33-1.06.68-2.08,1-3a38.55,38.55,0,0,1,2-4,10,10,0,0,1,.66-1,9,9,0,0,1,.69-.84c1-1.08,2.19-1.74,2.79-2.4.28-.31-.18-1-.42-1.5,0-.34-.42-.8-1.15-1.11a4,4,0,0,0-4.93,1.79,1.47,1.47,0,0,0,0,1.63,7,7,0,0,0-.68.66l.15-.79a2.87,2.87,0,0,1-.15,1.75c-.21.78-.53,1.83-.72,2.91s-.62,2.18-.94,3.45a27.66,27.66,0,0,1,2.57-1.35l.31-1.63c-.13.06-.33.25-.33.23.28-1.52.54-2.68.77-3.53a5.08,5.08,0,0,1,1.17-2.28,5.49,5.49,0,0,1,1.83-1.62c.52-.44.29-.94-.71-1.07a7.14,7.14,0,0,0-1.46.06c.24,0,.46,0,.69,0a7.5,7.5,0,0,0-4,2.41,20.32,20.32,0,0,0-3.2,5.23,5.3,5.3,0,0,0-.54,2.25C310.39,232.67,310.72,232.36,311.08,231.55Z"/><path class="cls-2" d="M318.36,221.5c.57,0,1.12.06,1.83.05.14-.07.22-.09.26-.11a5.71,5.71,0,0,0-1.13-.31C318.48,221,318.18,221.27,318.36,221.5Z"/><path class="cls-2" d="M320.45,221.44a3,3,0,0,1,.45.18l-.32-.21h-.08Z"/><path class="cls-2" d="M347.48,358.36a182.43,182.43,0,0,0,7.26-26.45c.86-4.56,1.66-9.15,2.25-13.8a131.29,131.29,0,0,0,1.25-13.37c0-.56-.06-1-.19-1.07s-.24.41-.25.93a130,130,0,0,1-1.23,13.3c-.6,4.63-1.39,9.2-2.24,13.74A181.85,181.85,0,0,1,347.11,358a2.14,2.14,0,0,0-.18,1.19C347,359.26,347.28,358.89,347.48,358.36Z"/><path class="cls-2" d="M331.09,230.52c.38.29.47.19.22-.24a5.29,5.29,0,0,0-1.07-1.21c-.32-.24-.43-.13-.21.23A4.73,4.73,0,0,0,331.09,230.52Z"/><path class="cls-2" d="M341.36,227.35c2,2,3.83,4,5.61,5.63a5.73,5.73,0,0,1,.82,1c.06-.25.54,0,1.25.8,3.46,3.69,6.87,7.56,10.19,11.6s6.54,8.18,9.74,12.65a99.13,99.13,0,0,1,8.87,14.79,66.76,66.76,0,0,1,3.4,8.57,68.65,68.65,0,0,1,2.18,9,2.33,2.33,0,0,1,.6,1,23.83,23.83,0,0,1,1.25,8.42c0,.87-.07,1.72-.1,2.57a147.69,147.69,0,0,1-1.35,14.87c-.32,2.38-.7,4.72-1.06,7.08s-.8,4.71-1.29,7.05a52.22,52.22,0,0,1-.74,6.66,185.56,185.56,0,0,1-4.48,25c.29-.48.54-.74.72-.68.37.28.11,2.31-.68,4.54l-1.13,3.39c1.22-3.2,2.41-6.41,3.49-9.63.15-.47.31-.9.46-1.28.52-1.79,1-3.6,1.5-5.42s.9-3.67,1.34-5.53a207.26,207.26,0,0,0,3.87-24.14c.38-4,.73-7.9.91-12a119.69,119.69,0,0,0-.07-12.55,79.08,79.08,0,0,0-1.83-13A64,64,0,0,0,380.51,275a105.49,105.49,0,0,0-13-20.54,5.48,5.48,0,0,1-.92-1.44c-.08-.3.07-.34.43.08,3.12,3.61,6.22,7.27,9.17,11.31A77.26,77.26,0,0,1,384.28,278a63.79,63.79,0,0,1,3,8,75.44,75.44,0,0,1,2,8.43,95.52,95.52,0,0,1,1.34,17.34c0,3.48-.15,6.83-.35,10.11-.1,1.64-.19,3.29-.31,4.93l-.42,4.94c-.64,6.59-1.54,13.21-2.76,19.85a186.45,186.45,0,0,1-11.89,39.95c-.83,1.69-1.64,3.39-2.49,5.06l-1.32,2.49c-.67,1.29-1.4,2.65-2.17,3.95-1.57,2.59-3.14,5.16-4.7,7.74l-.59,1-.67.85-1.34,1.7-2.69,3.4-1.34,1.69c-.49.49-1,1-1.49,1.41a32.34,32.34,0,0,1-3.13,2.5,29.1,29.1,0,0,1-7.2,3.68,29.42,29.42,0,0,1-8,1.55,34.55,34.55,0,0,1-4.07,0c-1.38-.16-2.76-.33-4.14-.54-.69-.12-1.38-.17-2.07-.36l-2.08-.55-2.08-.56a19.66,19.66,0,0,1-2.07-.63l-4.12-1.53-1-.39-1-.5-2-1a74,74,0,0,1-7.88-4.52c-1.28-.85-2.52-1.77-3.75-2.71l-1.83-1.43c-.61-.48-1.1-.94-1.65-1.42a85.27,85.27,0,0,1-17.34-20.89A93.65,93.65,0,0,1,273,375.31a118,118,0,0,1-4.53-16.12,179,179,0,0,1-3.34-30.33c-.17-4.79-.21-9.44-.21-14s0-8.94.07-13.42c.09-9,.34-18.28.95-27.81a90.51,90.51,0,0,1,2.89-19.43,38,38,0,0,1,2.35-6.57,6.64,6.64,0,0,1,2.33-3.1c.87-.41,1.51.28,1.92,1.81a29,29,0,0,1,.75,6.91c.16-1.16.36-2.31.56-3.47.4-1.81.79-3.63,1.26-5.45a45.33,45.33,0,0,1,4.5-12c.65-1.18,1.36-2.35,2.07-3.52.86-1.13,1.7-2.39,2.66-3.82s2-3,3.1-4.56c2.21-3.12,5-6.14,7.43-7.62,0,.48,0,.95,0,1.41l.89-.84c2.79-2.8,5.39-3.72,6.59-3.57l.36.95c.15,1.29-.51,3.08-1.29,5.64.39.19.51.67.45,1.39a3.84,3.84,0,0,1,2.46-.55c.58.14.87.64.87,1.53.91-.6,1.08-.17.51.89a13.12,13.12,0,0,1-.72,1.2h0l1.34-.76a11.81,11.81,0,0,1,1.12-1,11.14,11.14,0,0,1,2-1.42,10.35,10.35,0,0,1,2.05-.86,7.45,7.45,0,0,1,2.33-.11,4.34,4.34,0,0,1,.64.1l.23.06a8.55,8.55,0,0,1,2.1,1.45.77.77,0,0,1,.21.75l-.26.15a6.68,6.68,0,0,1,1.27.44,4.37,4.37,0,0,1,.5.27,3.15,3.15,0,0,1,.59.51,1,1,0,0,0,.3.57.67.67,0,0,1,.08.27c-.51,0-.51.06-.51.16a1,1,0,0,1-.28,0,4.34,4.34,0,0,0-1.05-.09,9.06,9.06,0,0,0-1.7-.79l-.26-.09-.21.37-.59-.32.41.32c-.46,0-.69,0-.81,0h-.11a8.39,8.39,0,0,1,.95.05l.14,0a6.67,6.67,0,0,0-1.77.46,5.07,5.07,0,0,0-.82.44,4.11,4.11,0,0,0-1.21,1,.59.59,0,0,1,.22.12,9.25,9.25,0,0,0-1.45,1.42,11,11,0,0,0-1.26,1.75,5.27,5.27,0,0,1-.53.4,3.19,3.19,0,0,1-.38,1.26c-.21.46-.43.92-.64,1.41l-.06.35h0c-.11.57-.18,1-.26,1.4l0,.3v0c-.17,1-.42,2.57-1,6.71-.32,1.07-.64,2-1,3l.41-.83c.28-.53.53.08.64-.22.65-1.85,1.38-3.69,2.07-5.57a52.3,52.3,0,0,1,2.09-5,14.82,14.82,0,0,1,2-3.19,7.39,7.39,0,0,1,2.11-1.75,1.3,1.3,0,0,1,1.46-.24c.24.24,0,.61-.49,1a6.89,6.89,0,0,0-1.21,2.1c-.23.65-.65,1.71-1.11,3.25s-1,3.47-1.58,5.76-1.11,4.43-1.67,6.67c-1.05,4.52-2.07,9.1-3,13.68s-1.79,9.13-2.59,13.55c-.61,4.67-1.13,9.42-1.5,14.26.08-.23.15-.46.23-.68-.17,1.24-.32,2.49-.46,3.74l0,.41c.27-.94.55-1.88.82-2.82.1-.65.2-1.3.31-1.95a183.34,183.34,0,0,1,5.34-30.88,113.28,113.28,0,0,1,4.86-14.35c.38-1.23.87-2,1.11-1.78s.09,1.42-.28,2.61c-1,4-1.91,8.23-2.7,12.59s-1.57,8.77-2.24,13.19c-1.4,8.81-2.57,17.52-4.05,24.83a71.27,71.27,0,0,1-.91,9.33v.15l.64-2.08c-.2,2.54-.73,3.88-1,6.22l.82-.85c-.35,6.29-.5,13-.64,19.31-.1,6.09-.21,12.07-.3,17.61,0,.43,0,.83,0,1.23,1,4.5,2.11,8.86,3.29,13.72-.16-.83-.27-1.67-.39-2.51s-.25-1.68-.34-2.55c1,3.61,2,7,3,10.6.19.59.35,1.23.54,1.8l.57,1.72c.16.58.4,1.14.6,1.71s.37,1.16.61,1.71c.85,2.27,1.79,4.46,2.71,6.49,1.83,4.09,3.72,7.41,4.69,9.88l1.18,1.05a7.57,7.57,0,0,0,.72.6c.45.35.92.67,1.4,1a15.1,15.1,0,0,0,3,1.48,12.65,12.65,0,0,0,1.59.48,6.11,6.11,0,0,0,1.64.22,2.84,2.84,0,0,0,1.57-.48A4.9,4.9,0,0,0,335,386c.62-.93,1.17-1.89,1.7-2.85.25-.49.52-1,.75-1.44.07-.21.95-1.83,1.51-3a137.66,137.66,0,0,0,6.36-15.38,4.53,4.53,0,0,1,1.19-2.12c.27,0,.22.76-.15,1.86l-.92,2.89-1,2.85c-.64,1.92-1.44,3.76-2.18,5.65s-1.6,3.69-2.45,5.52l-.66,1.35-.29.58-.14.33c-.18.43-.38.83-.59,1.25-.4.83-.83,1.66-1.31,2.49a13.09,13.09,0,0,1-1.57,2.43,3.49,3.49,0,0,1-2.5,1.26,9,9,0,0,1-2.82-.41,11.8,11.8,0,0,0,2.41.74,3.75,3.75,0,0,0,2.45-.33c1.47-.84,2.29-2.37,3.31-3.73.49-.7.95-1.44,1.42-2.17.25-.36.45-.76.69-1.15l1.24-2.22,2.38-4.67c.73-1.61,1.48-3.2,2.19-4.83s1.34-3.37,1.94-5.1,1.32-3.35,2-5c1.52-4.31,2.78-8.68,4-13s2.16-8.8,3-13.29,1.51-9,2-13.63a135.82,135.82,0,0,0,1-13.73c.1-7.61-.74-14-2.8-19.39-2.08-5.55-5.64-11.22-10.39-17.62-6.8-9.17-13.84-17.64-21.1-25.74-1.82-2-3.64-4-5.5-6l-2.78-3c-.89-.94-1.77-1.85-2.64-2.69a42.25,42.25,0,0,0-9.29-7.43c-1.38-.67-2.12-1.26-2.11-1.92,0-.31.24-.57.68-.64a1.7,1.7,0,0,1,.79,0,3.65,3.65,0,0,1,1,.3,23.24,23.24,0,0,1,5,2.82,56.35,56.35,0,0,1,5.65,4.75c1,.91,1.95,1.88,2.95,2.89l3.06,3.17q3.06,3.21,6,6.52,5.94,6.6,11.51,13.57,2.79,3.48,5.48,7.05c1.79,2.39,3.56,4.8,5.2,7.15a74.81,74.81,0,0,1,8,13.94,41.29,41.29,0,0,1,2.2,7,52.81,52.81,0,0,1,1.05,7.69,102.09,102.09,0,0,1-.6,17.18c-.65,6.07-1.54,12.15-2.73,18.19q-1.51,7.81-3.62,15.23a.48.48,0,0,1,.27-.06c.32.09.49.64.52,1.51,1.68-5.64,3.14-11.42,4.41-17.29.32-2.07.53-4.15.81-6.23s.46-4.17.65-6.26c.38-4.2.73-8.43.88-12.49.3-8.16-.1-15.84-2.21-22.8a75.31,75.31,0,0,0-6.32-14.53c-2.64-4.81-5.69-9.77-8.76-14.61q-6.63-8.69-13.85-16.87c-2.4-2.74-4.85-5.43-7.34-8.1s-4.9-5.14-7.33-7.31a2.82,2.82,0,0,1-.82-.93c-.06-.21.23-.12.64.19a109.55,109.55,0,0,1,10.77,10q5.41,5.56,10.6,11.52c-.72-1.54-.95-2.62-.45-2.85s1.72.44,3.23,1.78c-1.48-1.9-3-3.78-4.47-5.65-.92-1.16-1.51-2.19-1.27-2.34s1.19.6,2.07,1.7c6.21,7.62,12,15.52,17.53,23.63,6.88,9.49,12.89,19.22,14.65,30.28a9.27,9.27,0,0,1,.73-3.46h0a49.06,49.06,0,0,0-1.4-5.09c-2.87-7.57-7.43-14.47-12.38-21.26s-10.18-13.52-15.61-20.06q-4.07-4.9-8.3-9.7c-2.82-3.18-5.69-6.41-8.58-9.35a61.7,61.7,0,0,0-9.13-7.86,26.26,26.26,0,0,0-10.09-4.34c-.55-.08-1-.26-1-.39s.45-.17.95-.08a28.53,28.53,0,0,1,12.28,5.8,84.33,84.33,0,0,1,10.81,10.25l0,0c-.22-.36-.16-.51.21-.24a5.16,5.16,0,0,1,1.08,1.2c.26.42.12.48-.2.24q9.7,10.68,18.59,22,4.44,5.64,8.66,11.39c2.81,3.83,5.52,7.67,7.89,11.66-2.08-3.78-4.45-7.43-6.92-11.05s-5-7.22-7.64-10.75q-7.81-10.64-16.31-20.72l-4.17-4a3.64,3.64,0,0,1-.83-1.17c0-.18.34,0,.72.4l1.16,1.12c-2.16-2.52-3.51-4.72-3-5.15s3,1.39,5.28,4q9.42,10.35,17.8,21.5l1.9,2.35,2,2.26q-6.18-8.93-12.9-17.46-3.35-4.26-6.83-8.41c-2.31-2.76-4.66-5.52-7.19-8.16-.88-.88-1.55-1.74-1.4-1.94s1,.35,1.94,1.25c2.39,2.2,4.65,4.52,6.84,6.83s4.36,4.68,6.5,7.07Q347,238.17,353,245.79c4,5.09,7.83,10.24,11.53,15.65a90.15,90.15,0,0,1,9.69,17.68A60.06,60.06,0,0,1,379,292.2,86.73,86.73,0,0,1,381.21,306c0-1.16.08-2.34.07-3.54a62.74,62.74,0,0,0-3.84-22.21A79.82,79.82,0,0,0,367.18,262c-3.93-5.4-8-10.37-12.14-15.46s-8.49-10.11-13-15.28a2.44,2.44,0,0,1-.72-1.16c0-.13.44.15.88.68,4.43,5,8.65,9.84,12.77,14.75,2.07,2.46,4.1,4.93,6.11,7.47s4,5.12,6,7.9A99.23,99.23,0,0,1,376,275.51a67.59,67.59,0,0,1,5.51,16.58,60.52,60.52,0,0,0-4.9-16.83A92.87,92.87,0,0,0,368.36,261c-3-4.36-6.12-8.38-9.28-12.47s-6.42-8.07-9.76-12.06a10.34,10.34,0,0,1-1.39-2,1,1,0,0,1-.45-.3c-1.88-1.82-3.86-3.86-5.88-5.94a3.87,3.87,0,0,1-.9-1.26C340.6,226.74,340.9,226.92,341.36,227.35Zm-41.85,39c.08-.19.14-.34.19-.48-.12.52-.26,1.09-.41,1.71l-1.2,2.35Zm1.78-30.73v0l.91-1.21Zm35.1,154a5,5,0,0,1-1.5,1.22,3.76,3.76,0,0,1-1.9.36,11.84,11.84,0,0,1-3.74-1,18.28,18.28,0,0,1-6.12-4.36,21.6,21.6,0,0,0,2.91,1.89,20.24,20.24,0,0,0,5,2.64,7.07,7.07,0,0,0,2.87.53A4.15,4.15,0,0,0,336.39,389.61Zm-30.3-142.7a68.86,68.86,0,0,1-2.94,6.35c-.08.89-.19,1.8-.32,2.72s-.23,1.85-.37,2.79c-.75,5-1.4,10-1.94,14.94.39-.61.26.57.25,1.17s0,1.25,0,1.87c.6-5.26,1.34-10.49,2.28-15.73C303.87,256.3,304.85,251.23,306.09,246.91Zm10.23-26.78h.31s0,0-.27.63C316.36,220.76,316.34,220.49,316.32,220.13Zm.48-1-.5.09C316.38,219,316.56,219,316.8,219.09Zm-4.27,1.73a4,4,0,0,0,.67-.23Zm-14.73-5.56a26.7,26.7,0,0,0,.6,4.12,25.25,25.25,0,0,1-.34-4.33Z"/></svg>