<svg id="Layer_1" data-name="Layer 1" xmlns="http://www.w3.org/2000/svg" width="206.66mm" height="190.4mm" viewBox="0 0 585.81 539.71"><defs><style>.cls-1{fill:#b2910e;}.cls-2{fill:#fff;}</style></defs><title>30</title><path class="cls-1" d="M224,35.52c-.17.84-.45,1.75-.65,2.58-1.67,0-2.66-1.21-3.25-3C217.33,59,239.53,70.51,261.62,71.28c2.84,4.43,9.66,4.9,15.27,1s7.86-10.69,5.05-15.15c-.1-1.4-.51-2.8-.15-4.17a76.55,76.55,0,0,0,1.53-35.25c-.34,2.74-.69,5.59-1,8.32-.52-3.29-.94-6.59-2.88-9.17-.76,1-1.47,2.15-2.25,3.2.9-13.42-10-22.14-24.49-19.6S225.49,15.8,224.59,29.33Z"/><path class="cls-1" d="M204.55,74.94c-.3-7.58-.12-15.19.13-22.83l1.11-2.34-8,6.77.6-.33C208.71,55.12,217,60.08,224.2,65l3,1.38A9.54,9.54,0,0,0,233.3,65c4.37-2.6,6.46-7.57,4.72-11.1l-2.05-4C234,37.56,223.78,24,206,30.14c-4.09,1.45-7.47,5.58-11.07,8.74-5.73,3.92-8,10.88-5,15.49s10,5.1,15.73,1.08c.17,1,.39,2.08.58,3.1-1.13,0-2.19-.13-3.32-.18,5.72-2.52,9.85.55,14.65,1.46l4.77,3.29,10.78-12.51-3.45-.93c-.41.6-.95,1.57-1,1.58-6.85-1.55-13.49-2.88-19.44-5.84l-9.32-2.31a9.34,9.34,0,0,0-8,6.75l-.69,4.81c.26-.85.43-1.63.7-2.48,1.88,8.38,5.23,16.17,6.92,24.65.16,1.42,1.61,2.16,3.27,1.66A3.57,3.57,0,0,0,204.55,74.94Z"/><path class="cls-1" d="M185.93,54.67c.2-1.75.5-3.52-.84-4.75l-1.5.19c-.18,1-.43,2.32-.68,3.65C182.42,56.38,184.2,56.16,185.93,54.67Z"/><path class="cls-1" d="M183.59,50.11l.29-1.52-.78,1.48.22.08Z"/><path class="cls-1" d="M426.16,287.38c6.88,9.9,14.18,19.47,21.58,29s15.12,18.73,22.9,27.9a1.56,1.56,0,0,0,2.27-.11,1.63,1.63,0,0,0,.34-2.2c-7.72-9.22-15.4-18.42-22.73-27.94S435.91,295,429,285.09a1.65,1.65,0,0,0-2.27,0A1.86,1.86,0,0,0,426.16,287.38Z"/><path class="cls-1" d="M483,486.42a2,2,0,0,0-1.72,1.86,1.26,1.26,0,0,0,1.5,1.37,2.32,2.32,0,0,0,1.71-1.86A1.25,1.25,0,0,0,483,486.42Z"/><path class="cls-1" d="M424.6,539.68a32.71,32.71,0,0,0-11.15-2.59,1.27,1.27,0,0,1-1.13-1.21,3.68,3.68,0,0,1-3.88,1.52,154,154,0,0,1-19.82-7.06c-6.38-2.73-12.59-5.79-18.69-9s-12.07-6.71-18-10.21S340,504.06,334,500.6a12.23,12.23,0,0,1-3.49,1.87c-4.2,1.56-8.3.38-10.49-2.89l-1.32-2.79c-3.28-5-6.64-10-10-14.89s-6.65-9.87-9.76-15a16.66,16.66,0,0,1-8.16-3.49c-5.31-1.9-10.59-3.86-15.78-6-2.59-1.06-5.17-2.14-7.7-3.28s-5-2.36-7.46-3.63a7.58,7.58,0,0,1-2.13,3.46c-2.67,2.26-6.22,2.29-8,.14-1.05-1-2.07-2-3.08-3,2.18,3.55,4.34,7.13,6.41,10.78a3.92,3.92,0,0,1,.68,1.6,122.73,122.73,0,0,0,9.58,9.65c29.95,26.95,66,44.42,103.16,59.59a1.36,1.36,0,0,1,1.24,1.74c-.32.85-1.17,1.62-2,1.48-7.25-1-14.65-1.56-22-2.13s-14.76-1.06-22.11-1.77a218.61,218.61,0,0,1-21.8-3.07A116.32,116.32,0,0,1,279,522.82a606.15,606.15,0,0,1-91.54-46.33,244.2,244.2,0,0,0-18.34-17.83c-3.18-2.8-6.42-5.52-9.69-8.19s-6.55-5.35-9.89-8C142.8,437.25,136,432.11,129,426.9s-13.88-10.61-20.91-16.21c-38-30.23-68.47-63.92-98.83-99.68A28.42,28.42,0,0,1,0,288c.45-8.72,4.48-17.82,11.77-25.12,8.92-8.84,20.57-13.15,31.26-12.66-.85-1.13-1.65-2.27-2.44-3.45L38.39,240a28.72,28.72,0,0,1,2-20.89l3.87-9c9-15,13.66-31.38,24.12-45.92L74.13,161l.75-2.09a35.23,35.23,0,0,1,9.26-16.64l6.4-4.53a93.2,93.2,0,0,1,23.52-11,34.13,34.13,0,0,1,8.24-5.12c4.72-7,10.58-13.17,19.15-17.28a6.42,6.42,0,0,1,6.41-4.31,4.13,4.13,0,0,1,2.3,1s0,0,0,0c1.09-1.94,1.4-2.51,2.48-4.82a26.81,26.81,0,0,1-.56-2.67c-1.44-4.11-1.44-4.11-2.59-7.73a24.85,24.85,0,0,1,2.15-8c9-11.27,9-11.26,14.07-14.55.59-.2,1.18-.39,1.76-.54-.07-3.35-.06-3.6,0-4.55a14.15,14.15,0,0,1,1.06-2.44c2.5-2.08,2.5-2.08,3.14-3.16A19.28,19.28,0,0,1,173.53,51c3.77-1,3.77-1,4.61-1.63a11.28,11.28,0,0,1,1.92-.41l3,1.12-4.33,8.14,2.8-1.14-2.51,3.07,2.49-2.57L181,60.4l1.12-3.63c1.75,4.35,1.75,4.35,3,5.69a5.86,5.86,0,0,0,2.65,2.59,18.93,18.93,0,0,1,1.39-1.3C191,68.39,191,68.39,192.73,73a22.6,22.6,0,0,1-1.15,2.31,2,2,0,0,1,2.38,1c.37.76.69,1.56,1,2.32l.71.12.21-.18,2.59.6.59.09s0,0,0,.05l11.24,2.56a23,23,0,0,1,1.25,4.24c.15-.65.3-1.28.5-1.93.41-1.31,3.27-2.69,3.24-3.2a77.87,77.87,0,0,0-4-17.17c-1.82-5.5-4-10.82-6-16.23-1.5-1.32-1.19-3.91.63-5.69s4.56-2.11,6.06-.72A59,59,0,0,1,243.52,62a67,67,0,0,1,9.27,16.29A82.5,82.5,0,0,1,258,97c2.52,5.69,5.26,11.25,8.06,16.79l.67-1.67c.35,1.74.77,3.43,1.15,5.15a4.93,4.93,0,0,0,.23.46q1.06-3.18,2.12-6.35c-.08-1-.16-2-.29-3-3.52-6.19-5.58-13.14-7.27-20.29s-3-14.47-5-21.52c-2.14-7.58-1.78-15.82-2.88-23.66-.85-1.57,0-3.79,1.93-5.07s4.13-.92,5,.59C278.85,53.8,292.3,76.1,289,102.56a16.26,16.26,0,0,1,3.37,12.19l.07.18,2-5c1.08,3.16-.86,6.94-.31,10.19l4.3-5a98.38,98.38,0,0,0,5.81,10.42c2.12,3.39,4.37,6.68,6.45,10.08,4.18,6.78,7.75,13.89,8.83,22.38a11.3,11.3,0,0,1,.63,1.64c7.45,1.72,14.84,3.55,20,8.67-1.08-2.32-2.14-4.59-3.23-6.91,5.56,2.17,10.41,4.89,13.88,9.36a47.33,47.33,0,0,1,9.44,22.29,49.78,49.78,0,0,1-3.17,26.41c21.48,20.87,42.8,41.91,66.24,60.71,1.26.92,1.2,2.87,0,4.38s-3.31,1.94-4.57,1q-7.31-4.12-14.28-8.68c-4.63-3-9.13-6.24-13.58-9.51-8.88-6.54-17.5-13.42-25.89-20.53,2.44,3.94,4.87,7.89,7.39,11.79s5.11,7.75,7.76,11.57a243.26,243.26,0,0,0,17,22.17l5.53,4.67a16.2,16.2,0,0,1,4.12,5.86c4.09,4.36,8,8.76,12.08,13s8.09,8.47,12.26,12.58,8.44,8.16,13,12,9.36,7.53,14.48,11c4.39,3,8.65,5.85,12.91,8.61s8.52,5.38,12.8,8c8.56,5.2,17.21,10.27,26.71,15.33L530.68,394c6.37,3.48,12.68,6.87,18.73,10.5S561.33,411.89,567,416a156.07,156.07,0,0,1,16.34,13.34c3.17,2.16,3.3,7.16.28,11.06s-8.09,5.29-11.28,3.1l-20.28-11.12c-6.76-3.71-13.46-7.49-20.18-11.28q-20.19-11.29-39.59-23.78c-6.49-4.14-12.78-8.53-19-13s-12.4-9.14-18.35-14A298.45,298.45,0,0,1,421.14,338c-4.51-5.1-9-10.1-13.31-15.14a14.44,14.44,0,0,1-1.33,1.49,15.7,15.7,0,0,1-6.4,3.75q7.14,8.88,13.57,18.67,7.06,4.29,14,8.69c4.65,2.94,9.22,6,13.63,9.23A134.75,134.75,0,0,1,454,375.24a103.08,103.08,0,0,1,11.36,12.35,130.71,130.71,0,0,1,12.13,19.69c3.53,6.78,6.69,13.76,10,20.73,3.81,2.65,7.63,5.29,11.5,7.86l11.66,7.69q11.67,7.67,23.1,15.69c.78.25,1,1.15.53,2a1.87,1.87,0,0,1-2.18,1c-3.36-1.07-6.68-2.21-9.93-3.45s-6.46-2.57-9.64-3.95c-6.36-2.75-12.59-5.72-18.78-8.81a19,19,0,0,1-5.62,10.37,18.4,18.4,0,0,1-11,5.23c2.08,2.17,4.22,4.29,6.29,6.48a3.83,3.83,0,0,1-.51,5.24c-1.71,1.73-4,2-5.22.68-8.73-8.67-17.21-17.56-25.74-26.4-12.31-8.5-24.12-17.47-35.88-26.64a27.23,27.23,0,0,1-4.6,10.61l-.05.05,5.09,4.63c38.53,20.76,73.93,45.34,103.73,76.49a1.72,1.72,0,0,1-.13,2.42c-.7.78-1.76,1-2.26.38a330,330,0,0,0-28.45-26.55v.07a2.14,2.14,0,0,1-1.7,1.86,1.31,1.31,0,0,1-1.51-1.35,2.13,2.13,0,0,1,1.69-1.86c-9.26-7.75-19-14.92-29-21.79s-20.4-13.27-31-19.39c16.4,14.73,32.55,29.65,47.07,46.28,2.63.72,5.25,1.43,7.86,2.22a1.6,1.6,0,0,1,.38,2.2,2,2,0,0,1-2.18.87c-.69-.25-1.42-.46-2.12-.7,2.71,3.19,2.06,8.54-1.67,12.37-3.95,3.83-9.46,4.41-12.46,1.24q-13.65-11-26.4-22.83L435,486.31c-1.49-.29-3-.55-4.5-.81L439,496.18l8.5,10.68c5.64,7.14,11.16,14.4,16.75,21.56,1.16,1,1.05,3-.23,4.45s-3.31,1.73-4.47.7c-7.1-4-14-8.32-20.91-12.67s-13.73-8.81-20.38-13.49c-13.34-9.32-26.45-19-39.08-29.31-13.34-1.7-26.85-3.36-40.3-5.47.86,1.08,1.77,2.14,2.74,3.14a92.49,92.49,0,0,0,20.79,15.61,212.53,212.53,0,0,0,23.46,11.25c16.12,6.72,32.4,12.92,46.41,22.91.79.41.73,1.5.15,2.27a1.65,1.65,0,0,1-2.32.46c-14.27-9.16-30.68-14.1-46.48-21.71-13.11-6.28-25.34-12.55-38.83-17.22,10.08,8.47,21.29,15.4,32.78,22,5.76,3.26,11.56,6.46,17.26,9.77s11.31,6.75,16.78,10.39a2.49,2.49,0,0,1,1.44,2.81,2.2,2.2,0,0,1,1.39-.53,44.59,44.59,0,0,1,11.69,2.77c.8.16,1.14,1.06.68,2.06A2,2,0,0,1,424.6,539.68ZM204.83,135.21l.49-1.21-.11,2.95-4.07,7.29S202.93,139.76,204.83,135.21Zm-46.58-12.4v0c1.33-2.39,2.3-4.11,2.3-4.11ZM369.81,266.59A111,111,0,0,1,348.63,233l7.31,6.18C360.83,248,365.36,257.22,369.81,266.59ZM211.45,96.66c-1,5.24-3.19,10.48-5.6,15.7a15.8,15.8,0,0,1,5.28,4.87A136.43,136.43,0,0,1,220.85,134c1.6-2.36,2.3-1,3-.61l2,1.4c-2.7-6.39-5.26-12.92-7.74-19.64C215.86,109.09,212.68,103.12,211.45,96.66Zm-37-29.93c.16-.36.3-.68.44-1.06l4-1.53Zm-6.67,2.71c.05.35.07.72.14,1.1C166.5,71.21,166.75,70.62,167.78,69.44Zm1.33,10.09a9.34,9.34,0,0,0,1-2.34C169.11,79.52,169.11,79.53,169.11,79.53ZM78.34,158.77l18.25-9.87L78.78,158Z"/><path class="cls-2" d="M247.93,289.4c.35-2,.83-4,1.25-6a191.25,191.25,0,0,1,7.68-26.94,127.51,127.51,0,0,1,12.84-26c.69-1,1.45-2,2.18-3.08s1.43-2.07,2.29-3a73.71,73.71,0,0,1,5.16-5.81l1.38-1.4.7-.7a8.18,8.18,0,0,1,.78-.72,32.86,32.86,0,0,1,3.8-3l1-.7c.35-.22.75-.42,1.12-.63.78-.4,1.5-.84,2.34-1.18s1.69-.67,2.53-1,1.76-.47,2.65-.69a27,27,0,0,1,10.75,0,33.82,33.82,0,0,1,9.11,3.35,57.17,57.17,0,0,1,13.34,10.39,165.59,165.59,0,0,1,14,17.32c4.14,5.87,8.35,11.84,12.55,17.82L368,275.08l6.19,8.64a91.7,91.7,0,0,1,6,9.52,103.43,103.43,0,0,0-6.86-11.12q-3.42-5-6.87-10l-13.84-20c-2.32-3.35-4.59-6.67-7-10.12s-5-6.86-7.7-10.24a118.5,118.5,0,0,0-8.91-9.92,63.8,63.8,0,0,0-11.29-9,39.74,39.74,0,0,0-7.36-3.49,29.91,29.91,0,0,0-9-1.63,25.89,25.89,0,0,0-9.55,1.61,30.14,30.14,0,0,0-8,4.45l-1.64,1.35c-.26.23-.57.47-.79.68l-.63.62-2.52,2.47L277,220.14l-1.14,1.31-2.28,2.63c-.79.86-1.41,1.8-2.11,2.7l-2,2.74c-1.27,1.86-2.49,3.75-3.71,5.64a138.45,138.45,0,0,0-11.3,23.56A192.33,192.33,0,0,0,247.16,283a65.71,65.71,0,0,1,2.73-24.49l.69-2.06.77-2.05,1.56-4.1,1.74-4,.88-2,1-2,2-4,2.18-3.93c.7-1.32,1.51-2.6,2.33-3.89s1.6-2.57,2.49-3.82c1.82-2.5,3.57-5,5.68-7.38a88.77,88.77,0,0,1,6.55-6.93,38.5,38.5,0,0,1,10.82-7.2,31.8,31.8,0,0,1,14.3-2.54l-.12,2.68a33.53,33.53,0,0,1,8.71,1.48,40.49,40.49,0,0,1,7.17,3.07,57.62,57.62,0,0,1,11.05,7.88,116.78,116.78,0,0,1,15.76,17.68c2.24,3,4.35,6,6.35,9l5.92,8.72q5.88,8.72,11.75,17.42l5.88,8.7c2,2.91,4.12,6,6.18,9.58a56.73,56.73,0,0,1,5.42,12.09A51.29,51.29,0,0,1,389,314.22a79.56,79.56,0,0,1-.72,12.53c-.53,4-1.21,7.76-2.05,11.61a157,157,0,0,1-6.84,22.72c1.25-1.94,1.21-.49,1.41.13l-.18.42.18-.42c.16.54.6.44,2.14-3.29-1.54,3.73-2,3.83-2.14,3.29a136.26,136.26,0,0,0,7.43-22.44c.91-3.84,1.63-7.61,2.2-11.6a77.09,77.09,0,0,0,.8-12.67,52.81,52.81,0,0,0-2.09-13.79,56.35,56.35,0,0,0-5.53-12.47c-2.11-3.61-4.3-6.74-6.31-9.63l-5.92-8.48-11.78-17c-4-5.69-7.7-11.29-12.06-17.34a141.51,141.51,0,0,0-15-17.9,70.07,70.07,0,0,0-10.35-8.48,51.11,51.11,0,0,0-6.71-3.74l-2-.79a18.76,18.76,0,0,0-2-.73l-2.14-.64c-.75-.19-1.53-.35-2.29-.5a40.43,40.43,0,0,1,12.35,4.6,60,60,0,0,1,9,6.33,107.58,107.58,0,0,1,13.37,13.78c3.84,4.68,7.31,9.43,10.55,14l9.45,13.42,19.06,26.94a89.12,89.12,0,0,1,5.1,8.3,51.27,51.27,0,0,1,6.23,21.48,69.12,69.12,0,0,1-.11,10.41c-.28,3.33-.73,6.49-1.28,9.51s-1.19,6.05-1.95,9a132.74,132.74,0,0,1-5.76,17.54q-1.73,4.29-3.77,8.44c-.66,1.39-1.37,2.76-2.09,4.12L376.14,373l-1.23,2.16a67.3,67.3,0,0,1-13.42,16.51,46.1,46.1,0,0,1-10.13,6.76,40.89,40.89,0,0,1-25.69,3.38A48,48,0,0,1,314.13,398a77.59,77.59,0,0,1-17.22-11.66l-1.77-1.55-1.65-1.48-3.27-3c-2.16-2-4.31-4-6.42-6.14-2.91-2.8-8.55-8.62-11.27-11.62l-14.2-19.87A83,83,0,0,1,251,330.53a47,47,0,0,1-2.83-7.61,52.14,52.14,0,0,1-1.44-7.62c1,1.13,2,.66,3,0s2.06-1.46,3.05-1.28,1.87,1.3,3,4.42c.6,1.55,1.3,3.64,2.48,6.23a66.07,66.07,0,0,0,5,9l2.2-1.57a32.89,32.89,0,0,1-3.9-10,23.51,23.51,0,0,1,0-8.41c.88-4.8,2.68-7.94,4.24-9.26a2.17,2.17,0,0,1,2.32-.61,5,5,0,0,1,2.07,2.36,39.32,39.32,0,0,1,1.9,4.77,38.32,38.32,0,0,0,2.39,5.64,46.7,46.7,0,0,0,5.22,7.34c1.24,1.49,2.71,3.19,4.21,4.93l4.58,5.22c6.24,7,13,14.21,20.22,21.22,1.82,1.75,3.66,3.5,5.54,5.23l1.39,1.28L317,363l1.31,1.13,1.29,1.08a35.69,35.69,0,0,0,9.57,5.92,10.69,10.69,0,0,0,6.86.54,14.54,14.54,0,0,0,6.43-4.37,39,39,0,0,0,4.81-6.42c.38-.63.75-1.26,1.11-1.91s.71-1.29,1.11-2.07q1.15-2.24,2.2-4.52a111.76,111.76,0,0,0,6.67-18.79c.82-3.2,1.5-6.49,2-9.67a53.51,53.51,0,0,0,.79-8.59,25.64,25.64,0,0,0-.79-6.65,32.7,32.7,0,0,0-3.09-7c-1-1.89-2.31-3.92-3.74-6.12l-4.43-6.75L340,275.16l-9.29-13.69c-3.12-4.61-6.06-8.88-9.15-12.91a95.69,95.69,0,0,0-9.49-10.86c-3.16-3.09-6.53-5.5-8.81-6.39-.26-.08-.53-.22-.77-.29s-.46-.16-.64-.18a4.52,4.52,0,0,0-1-.15,4,4,0,0,0-2.12.51,7,7,0,0,0-.76.44c-.27.2-.55.4-.85.59l-2.37,2.16a28.5,28.5,0,0,0-2.32,2.34,31.16,31.16,0,0,0-2.24,2.47c-4.17,5-8.39,13.57-11.15,21.9s-4.59,16.13-6.31,19.44c-1.9,4.89-3.36,4.9-4.79,3.83a151.67,151.67,0,0,1,4.28-17.61,111.48,111.48,0,0,1,6.46-16.63,83.47,83.47,0,0,1,9-14.74l2.69-3.23,2.9-2.95a12.86,12.86,0,0,1,1.32-1.18,10.17,10.17,0,0,1,1.26-.93,11.17,11.17,0,0,1,2.45-1.22,9.73,9.73,0,0,1,6.34.36,26.84,26.84,0,0,1,7.46,4.47c5,4.09,9.67,9.58,14,15.41,2.16,2.92,4.24,6,6.32,9.1l6.32,9.59,12.58,19.29q-6-9.57-12.15-19.15-3.1-4.77-6.23-9.57c-2.06-3.13-4.14-6.18-6.3-9.13-4.32-5.84-9-11.41-14.15-15.55a27,27,0,0,0-7.66-4.56,12.36,12.36,0,0,0-3.42-.69,9,9,0,0,0-3.08.43,10.55,10.55,0,0,0-2.47,1.17,8.68,8.68,0,0,0-1.28.89,12.63,12.63,0,0,0-1.35,1.16L290.33,232l-2.75,3.17a85.21,85.21,0,0,0-9.28,14.49A115.85,115.85,0,0,0,271.51,266a148.1,148.1,0,0,0-4.66,17.37c-1.19-1.1-2.44-2.22-4-1l-.23,1.23-.46,3c-.39,2.35-.68,5.2-.91,7.1a38.33,38.33,0,0,1-3.34,8c-1.05,1.65-2.1,2.37-3.11,2.34s-2-.81-2.9-2.12a19.73,19.73,0,0,1-2.43-5.26l-.8-3.43C248.39,292.05,248.16,290.76,247.93,289.4Z"/><path class="cls-2" d="M102.82,364.48c.16.72.33,1.42.53,2.09s.36,1.39.57,2c1.94,6.14,4.82,11.4,8.52,14.79a17.36,17.36,0,0,0,6.3,3.79,22.74,22.74,0,0,0,8,1.24c6,0,13.35-1.61,20.21-3.63q5.18-1.62,10.3-3.79a109.76,109.76,0,0,0,10.07-5,73.07,73.07,0,0,0,13.44-9.43c4.14-3.7,8.23-8.09,10.64-12.24a18.15,18.15,0,0,0,2.33-6.11,23.06,23.06,0,0,0,0-6.86,55.65,55.65,0,0,0-1.64-7.83c-.73-2.71-1.52-5.36-2.41-7.94.52,1.53.91,3.1,1.37,4.65s.79,3.14,1.16,4.7a45,45,0,0,1,1.22,8.68,20.94,20.94,0,0,1-.23,3.71,16.32,16.32,0,0,1-.87,3.26,27,27,0,0,1-4,6.72,67.22,67.22,0,0,1-6.3,6.82,82.22,82.22,0,0,1-7.24,6.18,88.35,88.35,0,0,1-34.38,15.75c-6.21,1.36-12.33,2-17.08,1.25a19.55,19.55,0,0,1-3.31-.81,11.62,11.62,0,0,1-1.46-.62,8.82,8.82,0,0,1-1.41-.7,16.53,16.53,0,0,1-4.76-4c-2.84-3.24-5-8-6.54-13.26l4.79,5.21,4.45,4.57a13.66,13.66,0,0,0,4.92,3.7c.24.1.47.21.7.33s.47.17.73.24a15.85,15.85,0,0,0,1.64.39,21.49,21.49,0,0,0,4,.32,49.8,49.8,0,0,0,10.27-1.25,88.68,88.68,0,0,0,10.87-3l.93,2.51a104.27,104.27,0,0,0,27.34-16.83l1.48-1.3,1.42-1.35c1-.87,1.86-1.83,2.78-2.75a46.87,46.87,0,0,0,4.61-5.43,19.14,19.14,0,0,0,2.56-4.69,14.39,14.39,0,0,0,.73-5,37.2,37.2,0,0,0-.83-6.91c-.25-1.28-.59-2.62-.91-3.95s-.71-2.64-1.08-4a97.51,97.51,0,0,0-6-15.42A96.3,96.3,0,0,0,172.68,299c-.82-1.14-1.67-2.26-2.57-3.35s-1.78-2.19-2.72-3.24l-.7-.8-.35-.4-.59-.64L163.29,288,162,286.63l-.15-.17-.08-.09s-.08,0,0-.1l.54-.62,1.1-1.24,4.47-5a17.8,17.8,0,0,1-2.2,2.28c.07-.14.75-.9,1.1-1.3l.79-.82-.79.82c.31-.35.36-.41-.61.56l-2.32,2.31-1.9,1.9-1.16,1.17-.64.64c-.17.2-.6.5-.35.57-.25-.07.18-.37.35-.57l.64-.64,1.16-1.17,1.9-1.9,2.32-2.31c1-1,.92-.91.61-.56l-5.13,5.33L160.41,287a6.23,6.23,0,0,0,.58.71l1.23,1.4,2.46,2.79.3.34.17.21.32.4.64.8,1.29,1.6,1.23,1.63c.83,1.08,1.62,2.2,2.39,3.32a108.27,108.27,0,0,1,8.22,13.93,103,103,0,0,1,6,14.81c.79,2.51,1.49,5.1,2.1,7.61a41.68,41.68,0,0,1,1,6.6,13.76,13.76,0,0,1-.39,4.59,14.83,14.83,0,0,1-2,4.11,57.22,57.22,0,0,1-9.51,10.39,82,82,0,0,1-26.58,15.56,83.81,83.81,0,0,0,16.39-8.23,77,77,0,0,0,13.87-11.54,42.46,42.46,0,0,0,5.09-6.21,19.87,19.87,0,0,0,1.42-2.6,9.72,9.72,0,0,0,.67-2.1,17.63,17.63,0,0,0,0-5.82c-.17-1.22-.43-2.56-.77-4s-.77-3-1.17-4.47a109,109,0,0,0-6.76-17.55,117.57,117.57,0,0,0-9.73-16.25c-1-1.26-1.88-2.56-2.87-3.8l-1.49-1.86-.39-.49-.73-.84-1.47-1.68-1.47-1.69-.74-.84-.18-.21s-.11-.05-.05-.12l.2-.2.82-.82,6.57-6.52,1.65-1.64.82-.81.41-.41c.11-.09,0-.08,0-.11l-.05-.06-.94-1-1.86-1.94a11.72,11.72,0,0,0-2-1.75,4.08,4.08,0,0,0-2.55-.72,2.64,2.64,0,0,0-2,1.58,1.33,1.33,0,0,0,.15,1.28l.12.13s.07.1.12,0l.27-.2.53-.42c.71-.55,1.43-1.09,2.13-1.66l2.08-1.73c.7-.58,1.35-1.2,2-1.8l.5-.45.25-.23.13-.11.06-.06,0,0-.48-.18-15.74-5.88,2.79-2.25c.94-.75,1.71-1.54,2.58-2.32l2.53-2.33c.84-.78,1.58-1.62,2.35-2.42l1.62-1.82c.33-.37.63-.76.94-1.14.63-.75,1.25-1.51,1.84-2.3s1.19-1.57,1.74-2.38l.85-1.2.8-1.23.62-.94.07-.14.14-.26a7.65,7.65,0,0,0,.44-1.08c.08-.16.1-.43-.13-.49a3.8,3.8,0,0,0-.59-.06l-1.11-.06a171.05,171.05,0,0,0-39-3.17c1.59-1.72-.93-4.2-.57-6.15s3.66-3.48,16.94-2.78c0-.67,0-2,0-2.7-13.31-1.76-22.65-4.55-25.32-7.58-1.3-1.51-1-3.07,1.42-4.47s6.86-2.67,13.71-3.44a217,217,0,0,1,24-.93q3.18,0,6.45.15l3.27.13,2.64.12,3.13.19c4.19.22,8.37.54,12.58.88a6.27,6.27,0,0,1,.77.08l.7.16,1.39.32,2.8.65,1.4.32c.22.07.5.1.67.18l.5.29,2,1.15a15.71,15.71,0,0,1,6.61,6,16.68,16.68,0,0,1,2,4.49,21.39,21.39,0,0,1,.57,4.51,17.14,17.14,0,0,1-.41,5.11,26.88,26.88,0,0,1-1.67,5.62c-.6,1.9-1.55,3.84-2.36,5.77s-1.85,3.85-2.81,5.78-2.12,3.79-3.2,5.69l-.83,1.41c-.29.51-.53.86-.73,1.17l-1.1,1.66c-1.47,2.21-3,4.36-4.63,6.45-.79,1.06-1.64,2.07-2.47,3.09-.41.51-.82,1-1.26,1.52l-.31.36,0,.06s-.08.09-.08.1a1.52,1.52,0,0,0-.12.36.32.32,0,0,0,0,.14.24.24,0,0,0,0,.15s0,.11.08,0,.41,0,.51,0l.16,0h0l.06.06.12.12.47.51.12.12s0,0,.09.1l.22.28.89,1.09,1.76,2.2c1.14,1.5,2.28,3,3.37,4.53a123.16,123.16,0,0,1,19.18,40.75q.49,1.89.9,3.81c.29,1.28.59,2.53.84,3.87a82.88,82.88,0,0,1,1.31,8.67,50.67,50.67,0,0,1,0,10.15,39.66,39.66,0,0,1-2.76,10.92,47.77,47.77,0,0,1-5,9,71.55,71.55,0,0,1-5.67,7,107.05,107.05,0,0,1-55.65,32.19c-2.56.59-5.15,1-7.73,1.42a79.64,79.64,0,0,1-8,.75,65.27,65.27,0,0,1-14.64-.52,41.06,41.06,0,0,1-27.41-17.26l-.89-1.29c-.27-.42-.5-.84-.74-1.25-.46-.81-.89-1.59-1.26-2.31a23.67,23.67,0,0,1-1.38-3.7c-.81-2.75-.87-4.29-.47-5.14s1.14-1,2-1a55.88,55.88,0,0,0,9.88,16,38.15,38.15,0,0,0,17,10.79,47.74,47.74,0,0,0,19.22,1.24,85.51,85.51,0,0,0,8.76-1.51c1.43-.28,2.85-.64,4.26-1s2.81-.75,4.2-1.17a110,110,0,0,0,20-7.8,107.51,107.51,0,0,0,18.25-11.63c1.45-1.1,2.8-2.33,4.21-3.49s2.72-2.44,4-3.75a71.53,71.53,0,0,0,7.6-8.51,41.11,41.11,0,0,0,6.19-11.5,39.08,39.08,0,0,0,1.85-13.46,39.78,39.78,0,0,1-1.93,13.16,40.48,40.48,0,0,1-6.11,11.33,72.12,72.12,0,0,1-7.55,8.45c-1.27,1.31-2.65,2.49-4,3.73s-2.75,2.38-4.17,3.5a113.67,113.67,0,0,1-38.35,20c-1.4.4-2.79.79-4.21,1.11s-2.82.67-4.25.93a85.14,85.14,0,0,1-8.71,1.36,47.31,47.31,0,0,1-18.83-1.45,37.35,37.35,0,0,1-16.37-10.55,54.54,54.54,0,0,1-9.42-15.54c1.6.23,3.25.3,3.87-1.48l-.44-1c-.26-.64-.67-1.51-1-2.51-.78-2-1.62-4.38-2.14-6-.4-7,1.07-9.85,3-10.36s4.52,1.38,7,3.88C100.22,361.51,101.46,363,102.82,364.48Z"/><path class="cls-2" d="M147.19,285.53l.42-.3c2-1.79,1.35-3.59,2.7-5.59,1.35-1.4.67-3,.67-4.39-1.24,3.31-.77,6.79-5.44,10-1.6-.33-2.87-.71-2.87-1.16a13.83,13.83,0,0,0,1.37-3.19h2.68c-2-3,3.38-5.8,0-8.79a5,5,0,0,1-1.34,0v0c-.39,0-.68,0-.68.18,0-.19.29-.2.68-.18.65,2.95,0,5.7-1.31,8.65,1.27-4.58,0-9,0-13.67v-.8c2-.8,2.7-1.59,2.7-2.39,3.38.2,10.13-.6,8.78,1h2.7c3.37-1.6,12.82-2.2,15.52-.6,2.7,1.79,0,4.19,1.35,6.39.68,1.6,1.35,3.19,0,4.79-2,2.2-1.35,4.6-4,6.79-.67.8,1.35,2.2-.67,2.6a14.43,14.43,0,0,1-4,.26c.24-1.32.31-2.63.6-3.92a21.25,21.25,0,0,1,2.94-4.77,8.27,8.27,0,0,0-2.94,4.77c-.61,1.29-1.17,2.58-1.9,3.87-1.37,0-2.81-.09-4.14,0v.6c-3.38.8-8.1.6-11.48.2Z"/></svg>