<svg id="Layer_1" data-name="Layer 1" xmlns="http://www.w3.org/2000/svg" width="206.66mm" height="190.4mm" viewBox="0 0 585.81 539.71"><defs><style>.cls-1{fill:#157332;}.cls-2{fill:#fff;}</style></defs><title>8</title><path class="cls-1" d="M224,35.52c-.17.84-.45,1.75-.65,2.58-1.67,0-2.66-1.21-3.25-3C217.33,59,239.53,70.51,261.62,71.28c2.84,4.43,9.66,4.9,15.27,1s7.86-10.69,5.05-15.15c-.1-1.4-.51-2.8-.15-4.17a76.55,76.55,0,0,0,1.53-35.25c-.34,2.74-.69,5.59-1,8.32-.52-3.29-.94-6.59-2.88-9.17-.76,1-1.47,2.15-2.25,3.2.9-13.42-10-22.14-24.49-19.6S225.49,15.8,224.59,29.33Z"/><path class="cls-1" d="M204.55,74.94c-.3-7.58-.12-15.19.13-22.83l1.11-2.34-8,6.77.6-.33C208.71,55.12,217,60.08,224.2,65l3,1.38A9.54,9.54,0,0,0,233.3,65c4.37-2.6,6.46-7.57,4.72-11.1l-2.05-4C234,37.56,223.78,24,206,30.14c-4.09,1.45-7.47,5.58-11.07,8.74-5.73,3.92-8,10.88-5,15.49s10,5.1,15.73,1.08c.17,1,.39,2.08.58,3.1-1.13,0-2.19-.13-3.32-.18,5.72-2.52,9.85.55,14.65,1.46l4.77,3.29,10.78-12.51-3.45-.93c-.41.6-.95,1.57-1,1.58-6.85-1.55-13.49-2.88-19.44-5.84l-9.32-2.31a9.34,9.34,0,0,0-8,6.75l-.69,4.81c.26-.85.43-1.63.7-2.48,1.88,8.38,5.23,16.17,6.92,24.65.16,1.42,1.61,2.16,3.27,1.66A3.57,3.57,0,0,0,204.55,74.94Z"/><path class="cls-1" d="M185.93,54.67c.2-1.75.5-3.52-.84-4.75l-1.5.19c-.18,1-.43,2.32-.68,3.65C182.42,56.38,184.2,56.16,185.93,54.67Z"/><path class="cls-1" d="M183.59,50.11c.18-.91.29-1.52.29-1.52l-.78,1.48.22.08Z"/><path class="cls-1" d="M426.16,287.38c6.88,9.9,14.18,19.47,21.58,29s15.12,18.73,22.9,27.9a1.56,1.56,0,0,0,2.27-.11,1.63,1.63,0,0,0,.34-2.2c-7.72-9.22-15.4-18.42-22.73-27.94S435.91,295,429,285.09a1.65,1.65,0,0,0-2.27,0A1.86,1.86,0,0,0,426.16,287.38Z"/><path class="cls-1" d="M483,486.42a2,2,0,0,0-1.72,1.86,1.26,1.26,0,0,0,1.5,1.37,2.32,2.32,0,0,0,1.71-1.86A1.25,1.25,0,0,0,483,486.42Z"/><path class="cls-1" d="M424.6,539.68a32.71,32.71,0,0,0-11.15-2.59,1.27,1.27,0,0,1-1.13-1.21,3.65,3.65,0,0,1-3.88,1.51,152.5,152.5,0,0,1-19.82-7c-6.38-2.73-12.59-5.79-18.69-9s-12.07-6.71-18-10.21S340,504.06,334,500.6a12.23,12.23,0,0,1-3.49,1.87c-4.2,1.56-8.3.38-10.49-2.89l-1.32-2.79c-3.28-5-6.64-10-10-14.89s-6.65-9.87-9.76-15a16.66,16.66,0,0,1-8.16-3.49c-5.31-1.9-10.59-3.86-15.78-6-2.59-1.06-5.17-2.14-7.7-3.28s-5-2.36-7.46-3.63a7.58,7.58,0,0,1-2.13,3.46c-2.67,2.26-6.22,2.29-8,.14-1.05-1-2.07-2-3.08-3,2.18,3.55,4.34,7.13,6.41,10.78a3.92,3.92,0,0,1,.68,1.6,122.73,122.73,0,0,0,9.58,9.65c29.95,26.95,66,44.42,103.16,59.59a1.36,1.36,0,0,1,1.24,1.74c-.32.85-1.17,1.62-2,1.48-7.25-1-14.65-1.56-22-2.13s-14.76-1.06-22.11-1.77a218.61,218.61,0,0,1-21.8-3.07A116.32,116.32,0,0,1,279,522.82a606.15,606.15,0,0,1-91.54-46.33,244.2,244.2,0,0,0-18.34-17.83c-3.18-2.8-6.42-5.52-9.69-8.19s-6.55-5.35-9.89-8C142.8,437.25,136,432.11,129,426.9s-13.88-10.61-20.91-16.21c-38-30.23-68.47-63.92-98.83-99.68A28.42,28.42,0,0,1,0,288c.45-8.72,4.48-17.82,11.77-25.12,8.92-8.84,20.57-13.15,31.26-12.66-.85-1.13-1.65-2.27-2.44-3.45L38.39,240a28.72,28.72,0,0,1,2-20.89l3.87-9c9-15,13.66-31.38,24.12-45.92L74.13,161l.75-2.09a35.23,35.23,0,0,1,9.26-16.64l6.4-4.53a93.2,93.2,0,0,1,23.52-11,34.13,34.13,0,0,1,8.24-5.12c4.72-7,10.58-13.17,19.15-17.28a6.42,6.42,0,0,1,6.41-4.31,4.13,4.13,0,0,1,2.3,1s0,0,0,0c1.09-1.94,1.4-2.51,2.48-4.82a26.81,26.81,0,0,1-.56-2.67c-1.44-4.11-1.44-4.11-2.59-7.73a24.85,24.85,0,0,1,2.15-8c9-11.27,9-11.26,14.07-14.55.59-.2,1.18-.39,1.76-.54-.07-3.35-.06-3.6,0-4.55a14.15,14.15,0,0,1,1.06-2.44c2.5-2.08,2.5-2.08,3.14-3.16A18,18,0,0,1,173.53,51c3.77-1,3.77-1,4.61-1.63a11.28,11.28,0,0,1,1.92-.41l3,1.12-4.33,8.14,2.8-1.14-2.51,3.07,2.49-2.57L181,60.4l1.12-3.63c1.75,4.35,1.75,4.35,3,5.69a5.86,5.86,0,0,0,2.65,2.59,18.93,18.93,0,0,1,1.39-1.3C191,68.39,191,68.39,192.73,73a22.6,22.6,0,0,1-1.15,2.31,2,2,0,0,1,2.38,1c.37.76.69,1.56,1,2.32l.71.12.21-.18,2.59.6.59.09s0,0,0,.05l11.24,2.56a23,23,0,0,1,1.25,4.24c.15-.65.3-1.28.5-1.93.41-1.31,3.27-2.69,3.24-3.2a77.87,77.87,0,0,0-4-17.17c-1.82-5.5-4-10.82-6-16.23-1.5-1.32-1.19-3.91.63-5.69s4.56-2.11,6.06-.72A59,59,0,0,1,243.52,62a67,67,0,0,1,9.27,16.29A82.5,82.5,0,0,1,258,97c2.52,5.69,5.26,11.25,8.06,16.79.22-.56.45-1.12.67-1.67.35,1.74.77,3.43,1.15,5.15a4.93,4.93,0,0,0,.23.46q1.06-3.18,2.12-6.35c-.08-1-.16-2-.29-3-3.52-6.19-5.58-13.14-7.27-20.29s-3-14.47-5-21.52c-2.14-7.58-1.78-15.82-2.88-23.66-.85-1.57,0-3.79,1.93-5.07s4.13-.92,5,.59C278.85,53.8,292.3,76.1,289,102.56a16.26,16.26,0,0,1,3.37,12.19l.07.18,2-5c1.08,3.16-.86,6.94-.31,10.19l4.3-5a98.38,98.38,0,0,0,5.81,10.42c2.12,3.39,4.37,6.68,6.45,10.08,4.18,6.78,7.75,13.89,8.83,22.38a11.3,11.3,0,0,1,.63,1.64c7.45,1.72,14.84,3.55,20,8.67L337,161.44c5.56,2.17,10.41,4.89,13.88,9.36a47.33,47.33,0,0,1,9.44,22.29,49.78,49.78,0,0,1-3.17,26.41c21.48,20.87,42.8,41.91,66.24,60.71,1.26.92,1.2,2.87,0,4.38s-3.31,1.94-4.57,1q-7.31-4.12-14.28-8.68c-4.63-3-9.13-6.24-13.58-9.51-8.88-6.54-17.5-13.42-25.89-20.53,2.44,3.94,4.87,7.89,7.39,11.79s5.11,7.75,7.76,11.57a243.26,243.26,0,0,0,17,22.17l5.53,4.67a16.2,16.2,0,0,1,4.12,5.86c4.09,4.36,8,8.76,12.08,13s8.09,8.47,12.26,12.58,8.44,8.16,13,12,9.36,7.53,14.48,11c4.39,3,8.65,5.85,12.91,8.61s8.52,5.38,12.8,8c8.56,5.2,17.21,10.27,26.71,15.33L530.68,394c6.37,3.48,12.68,6.87,18.73,10.5S561.33,411.89,567,416a156.07,156.07,0,0,1,16.34,13.34c3.17,2.16,3.3,7.16.28,11.06s-8.09,5.29-11.28,3.1l-20.28-11.12c-6.76-3.71-13.46-7.49-20.18-11.28q-20.19-11.29-39.59-23.78c-6.49-4.14-12.78-8.53-19-13s-12.4-9.14-18.35-14A298.45,298.45,0,0,1,421.14,338c-4.51-5.1-9-10.1-13.31-15.14a14.44,14.44,0,0,1-1.33,1.49,15.7,15.7,0,0,1-6.4,3.75q7.14,8.88,13.57,18.67,7.06,4.29,14,8.69c4.65,2.94,9.22,6,13.63,9.23A134.75,134.75,0,0,1,454,375.24a103.08,103.08,0,0,1,11.36,12.35,130.71,130.71,0,0,1,12.13,19.69c3.53,6.78,6.69,13.76,10,20.73,3.81,2.65,7.63,5.29,11.5,7.86l11.66,7.69q11.67,7.67,23.1,15.69c.78.25,1,1.15.53,2a1.87,1.87,0,0,1-2.18,1c-3.36-1.07-6.68-2.21-9.93-3.45s-6.46-2.57-9.64-3.95c-6.36-2.75-12.59-5.72-18.78-8.81a19,19,0,0,1-5.62,10.37,18.4,18.4,0,0,1-11,5.23c2.08,2.17,4.22,4.29,6.29,6.48a3.83,3.83,0,0,1-.51,5.24c-1.71,1.73-4,2-5.22.68-8.73-8.67-17.21-17.56-25.74-26.4-12.31-8.5-24.12-17.47-35.88-26.64a27.23,27.23,0,0,1-4.6,10.61l-.05.05,5.09,4.63c38.53,20.76,73.93,45.34,103.73,76.49a1.72,1.72,0,0,1-.13,2.42c-.7.78-1.76,1-2.26.38a330,330,0,0,0-28.45-26.55v.07a2.14,2.14,0,0,1-1.7,1.86,1.31,1.31,0,0,1-1.51-1.35,2.14,2.14,0,0,1,1.69-1.86c-9.26-7.75-19-14.92-29-21.79s-20.4-13.27-31-19.39c16.4,14.73,32.55,29.65,47.07,46.28,2.63.72,5.25,1.43,7.86,2.22a1.6,1.6,0,0,1,.38,2.2,2,2,0,0,1-2.18.87c-.69-.25-1.42-.46-2.12-.7,2.71,3.19,2.06,8.54-1.67,12.37-3.95,3.83-9.46,4.41-12.46,1.24q-13.65-11-26.4-22.83L435,486.31c-1.49-.29-3-.55-4.5-.81L439,496.18l8.5,10.68c5.64,7.14,11.16,14.4,16.75,21.56,1.16,1,1.05,3-.23,4.45s-3.31,1.73-4.47.7c-7.1-4-14-8.32-20.91-12.67s-13.73-8.81-20.38-13.49c-13.34-9.32-26.45-19-39.08-29.31-13.34-1.7-26.85-3.36-40.3-5.47.86,1.08,1.77,2.14,2.74,3.14a92.49,92.49,0,0,0,20.79,15.61,212.53,212.53,0,0,0,23.46,11.25c16.12,6.72,32.4,12.92,46.41,22.91.79.41.73,1.5.15,2.27a1.65,1.65,0,0,1-2.32.46c-14.27-9.16-30.68-14.1-46.48-21.71-13.11-6.28-25.34-12.55-38.83-17.22,10.08,8.47,21.29,15.4,32.78,22,5.76,3.26,11.55,6.46,17.26,9.77s11.31,6.75,16.78,10.39a2.49,2.49,0,0,1,1.44,2.81,2.2,2.2,0,0,1,1.39-.53,44.59,44.59,0,0,1,11.69,2.77c.8.16,1.14,1.06.68,2.06A2,2,0,0,1,424.6,539.68ZM204.83,135.21c.19-.47.35-.85.49-1.21,0,.91-.07,1.88-.11,2.95l-4.07,7.29S202.93,139.76,204.83,135.21Zm-46.58-12.4v0c1.33-2.39,2.3-4.11,2.3-4.11ZM369.81,266.59A111,111,0,0,1,348.63,233l7.31,6.18C360.83,248,365.36,257.22,369.81,266.59ZM211.45,96.66c-1,5.24-3.19,10.48-5.6,15.7a15.8,15.8,0,0,1,5.28,4.87A136.43,136.43,0,0,1,220.85,134c1.6-2.36,2.3-1,3-.61l2,1.4c-2.7-6.39-5.26-12.92-7.74-19.64C215.86,109.09,212.68,103.12,211.45,96.66Zm-37-29.93c.16-.36.3-.68.44-1.06l4-1.53Zm-6.67,2.71c.05.35.07.72.14,1.1C166.5,71.21,166.75,70.62,167.78,69.44Zm1.33,10.09a9.34,9.34,0,0,0,1-2.34C169.11,79.52,169.11,79.53,169.11,79.53ZM78.34,158.77l18.25-9.87L78.78,158Z"/><path class="cls-2" d="M201,208.85c0,.38-.06.77-.06,1.16a7,7,0,0,1-.37-1.29,10.79,10.79,0,0,1-.14-1.69,16.81,16.81,0,0,0,.23,4.75,20.4,20.4,0,0,0,1.84,5.08,25.55,25.55,0,0,0,3.45,4.92c.8.79,1.55,1.6,2.37,2.4l2.71,2.3a74.16,74.16,0,0,0,13.11,7.83A142.09,142.09,0,0,0,237.82,240a74.17,74.17,0,0,0,8.17,3.61c2.33.86,4,1.27,4.5,1,1-.47-3.37-3.42-9.35-6.43-1.25-.74-2.74-1.56-3.62-2.15-3.81-2.68-8-5.47-12-8.39a77.93,77.93,0,0,1-10.53-9l.77.95a9.36,9.36,0,0,0,.86,1l1.91,2a76.46,76.46,0,0,1-5.5-5.37l.23.94c-.27-.4-.55-.79-.85-1.18l-.46-.58c-.14-.19-.23-.37-.35-.55-.51-.72-.9-1.45-1.34-2.15a26.93,26.93,0,0,1-1.9-4,50.77,50.77,0,0,1-1.83-6.36,6.21,6.21,0,0,0-.81-2.05,1.17,1.17,0,0,0-1.28-.51,2.33,2.33,0,0,0-.83.46,4.44,4.44,0,0,0-.47.42l-.42.57a8.91,8.91,0,0,0-1.44,3.71A16.43,16.43,0,0,0,201,208.85Z"/><path class="cls-2" d="M203.84,224.66A26.8,26.8,0,0,1,198,210.28l.13-.95-1.24.53.1.08a45.38,45.38,0,0,0,4.09,7.63c.54.67,1,1.41,1.57,2.08l.85,1,.94,1c.56.69,1.41,1.37,2.09,2.06.37.34.7.7,1.08,1l1.22,1c.79.6,1.49,1.24,2.39,1.81a6.48,6.48,0,0,0,2.61,1.15c.47,0,.27-.58-.43-1.43a14.73,14.73,0,0,0-1.39-1.47c-.58-.54-1.11-1.17-1.8-1.8a35,35,0,0,1-2.82-2.94,33.25,33.25,0,0,1-3.78-6,27,27,0,0,1-2.18-6.41c-.89-4.14-.42-7.93-.58-10.44-.11-1.15-1-.58-1.67-.57-.32-.3-1.07.21-1.72,1.44a12.56,12.56,0,0,0-1.5,5.4,14.32,14.32,0,0,0,.8,5.89c.6,1.51,1.26,2.4,1.75,2.41l.28,1.11c.09.38.25.74.36,1.11l-.51-.78c-.15-.27-.28-.55-.44-.82a8.84,8.84,0,0,1,.95,1.18c.37.52.7,1.16,1.19,1.81l.68,1,.78,1,.38.52.43.48.83.93c.51.62,1.07,1.21,1.6,1.82l1.89,1.81c-.18-1.19-.41-2.34-.47-3.45l-.85-.83-.43-.41-.38-.44c0,.2.12.56.1.54a22.71,22.71,0,0,1-6.25-11.24,19.87,19.87,0,0,1-.63-5.71c-.11-.82-.2-1.22-.46-1.21s-.6.44-.88,1.32a26.84,26.84,0,0,0-.68,2.71l.34-1.24c-1,6.29,1.19,13.52,5.58,19.49.16.24.35.48.54.72a8.5,8.5,0,0,0,.66.68,8.09,8.09,0,0,0,1.17.92C204.83,226.18,204.64,225.62,203.84,224.66Z"/><path class="cls-2" d="M195.74,202.65c.28-1,.64-2,1-3.46l0-.66a14.83,14.83,0,0,0-.89,1.93,8,8,0,0,0-.34.95,3.28,3.28,0,0,0-.07.7C195.5,202.49,195.59,202.67,195.74,202.65Z"/><path class="cls-2" d="M196.8,198.53c.11-.24.21-.44.27-.58a1.83,1.83,0,0,1,.13-.21,3.83,3.83,0,0,0-.36.49l0,.17Z"/><path class="cls-2" d="M155.81,346l9.74-21c3.26-7,6.38-14,9.95-21.39A182.08,182.08,0,0,1,188,281.35a120.15,120.15,0,0,1,8-10.62c2.89-3.42,5.91-6.59,8.91-9.55a5.27,5.27,0,0,0,1.36-1.62c0-.12-.73.4-1.47,1.13-3,2.95-6,6.11-9,9.53a119.57,119.57,0,0,0-8.07,10.64A180.06,180.06,0,0,0,175.23,303c-1.79,3.67-3.47,7.29-5.1,10.82l-4.85,10.54-9.73,21a6,6,0,0,0-.65,1.95C155,347.46,155.4,346.84,155.81,346Z"/><path class="cls-2" d="M236.32,167.32c.67,0,.67-.09,0-.32a7,7,0,0,0-2.29-.36c-.57,0-.56.17,0,.32A17.64,17.64,0,0,0,236.32,167.32Z"/><path class="cls-2" d="M245.68,159.85a41.15,41.15,0,0,1,12.62,7.31A11.47,11.47,0,0,1,260,169c0-.18.16-.11.53.18a8.35,8.35,0,0,1,1.52,1.56,39.35,39.35,0,0,1,7,12.48c.36,1.12.68,2.26,1,3.4s.5,2.29.75,3.44c.11.57.24,1.16.32,1.73l.22,1.68c.17,1.12.26,2.25.34,3.39A68.15,68.15,0,0,1,268,224a81.64,81.64,0,0,1-13.43,24,202.37,202.37,0,0,1-17.75,18.81,3.84,3.84,0,0,1-.71,1.28,61.91,61.91,0,0,1-7.86,8.16c-.84.75-1.72,1.49-2.53,2.24-2.51,2.3-4.84,4.62-7,7a84.44,84.44,0,0,0-6.15,7.32A128,128,0,0,0,202,309.45c-1,2.57-2.31,5.53-3.76,8.81l-6.72,17.15q-3.41,8.67-6.95,17.45c.45-.67.8-1,1-.95.3.4-.6,3.2-2,6.31l-2.08,4.72q3.18-6.69,6.36-13.38c.29-.65.59-1.24.87-1.77q3.34-7.41,6.69-15c4.93-11.25,9.3-21.79,14.55-31,1.31-2.31,2.69-4.5,4.1-6.66S217,291,218.55,289a142.67,142.67,0,0,1,10.7-11.75c3.91-3.92,8.09-7.89,12.29-12.06a183.37,183.37,0,0,0,12.51-13.47,89.18,89.18,0,0,0,10.83-16.24,82,82,0,0,0,4-9,76.93,76.93,0,0,0,2.77-9.53,25.92,25.92,0,0,1,.74-2.92c.21-.48.33-.37.18.6a78.13,78.13,0,0,1-2.89,12.12A86.55,86.55,0,0,1,259,248.31c-2.21,3.33-4.59,6.35-7,9.31-4.85,5.88-9.93,11.22-14.95,16.48s-10,10.43-14.19,15.74a89.53,89.53,0,0,0-6.8,9.88c-2.07,3.48-4,7.18-5.8,11.06s-3.56,8-5.3,12.24-3.56,8.8-5.33,13.21l-10.9,26.84-1.38,3.37-.3.74,0,.14-.06.28-.22,1a3.44,3.44,0,0,0,0,1.83,1.37,1.37,0,0,0,.39.88,1.67,1.67,0,0,0,.87.43,7.34,7.34,0,0,0,1.93,0l.46-.05.27,0h.21l.87,0c2.33-.1,4.66-.15,7-.34s4.64-.3,7-.51l6.93-.68a299.74,299.74,0,0,0,55.29-11.64l4.64-1.53,2.31-.75,2.29-.82,4.55-1.63,4.49-1.75c1.49-.58,3-1.14,4.44-1.78l2.19-.93,1.09-.47a1.62,1.62,0,0,0,.27-.12l.11,0a1.32,1.32,0,0,0,.24-.25.33.33,0,0,0,0-.48l-.18-.16a3.43,3.43,0,0,1-.2-.29l-2-3.65c-6.21-11.28-12.58-21.32-19.91-29.75a94.32,94.32,0,0,0-11.73-11.51c-2.12-1.68-4.24-3.37-6.52-4.86l-1.68-1.17-1.78-1.11-1.79-1.11-1.91-1.1c-7.7-4.27-16.34-8.71-23-12.82s-11.52-7.81-12.2-9.65c-.78-2.2,4.5-1,12.8,2l-4.68-2.36c-2.46-1.39-4.91-2.72-7.41-4.22-7.06-4.12-13-8.71-16.3-12.2-1.54-1.63-3.06-3.24-4.53-4.94-.68-.94-1.42-1.93-2.19-3-.38-.52-.78-1-1.17-1.58l-1.17-1.73c-.77-1.2-1.6-2.31-2.35-3.6s-1.53-2.54-2.16-3.9c-2.7-5.28-4.21-10.82-4.36-14.63.44.43.84.86,1.3,1.25-.15-.55-.23-1.12-.35-1.67s-.28-1.35-.42-2-.16-1.25-.22-1.82-.11-1.13-.14-1.64,0-1,0-1.47a8.89,8.89,0,0,1,.69-3.73l1,.41a5.37,5.37,0,0,1,.93,1,18.07,18.07,0,0,1,1.07,1.48c.7,1.16,1.59,2.6,2.59,4.32.36-.25.9.07,1.57.87a6.16,6.16,0,0,1,.58-3.48c.41-.55,1-.43,1.86.53-.15-1.77.33-1.56,1.08.33a23.49,23.49,0,0,1,.92,2.24v0c-.06-1-.08-1.27-.21-2.52-.16-.82-.29-1.46-.37-1.9s-.12-.67-.12-.67c-.13-1.08-.28-1.89-.32-2.56s-.06-1.19-.09-1.69,0-1,0-1.58a16.6,16.6,0,0,1,.15-2.21c.07-.4.13-.77.2-1.13s.18-.68.27-1c.19-.6.33-1.13.49-1.54.36-.83.58-1.27.58-1.27a15.31,15.31,0,0,1,1.5-1.62,6,6,0,0,1,.85-.7c.39-.23.53,0,.82.32,0,.2,0,.42,0,.65l.32-.77.31-.59.41-.79a8.12,8.12,0,0,1,.5-.87c.44-.58.79-1,.79-1,.41.09.41.09.72-.23a.4.4,0,0,1,.31,0c-.18,1.44-.18,1.42-.08,1.51a6.36,6.36,0,0,1-.13.76c-.42,1.48-.63,2-.64,2.29a21.55,21.55,0,0,0-1.63,2.52l-.23.38a5,5,0,0,0,.21.67l0,.1-.58.69.5-.37a14.36,14.36,0,0,0-.42,1.41l0,.2a14.49,14.49,0,0,1,.53-1.6l.08-.23a18.74,18.74,0,0,0-.41,5.43,16.26,16.26,0,0,0,.49,3.17.39.39,0,0,1,.21-.18,9.12,9.12,0,0,0,.25,1.37l.22,1.09c.19.64.34,1.16.48,1.67s.37,1,.59,1.63a21.37,21.37,0,0,0,1,2.36c.08.41.18.73.26,1a11.37,11.37,0,0,1,1.28,1.74c.46.65.82,1.34,1.33,2l.38.35,0,0a18.88,18.88,0,0,0,1.49,1.41l.34.28v0c.58.47,1.2,1.08,2.32,2s2.7,2.09,5.29,3.67c1.16,1,2.45,1.92,3.56,2.82l-1-.93c-.63-.6.24-.47-.12-.77a71,71,0,0,1-6.14-5.64c-.24-.24-.49-.47-.72-.72l-.63-.75-1.28-1.48A16.42,16.42,0,0,1,203.4,222l-.55-.73-.48-.77a24.86,24.86,0,0,1-4.29-12.67c-.21-1.5.09-2.91.43-3.1.17-.08.31.14.39.55a7.4,7.4,0,0,1,.25,1.77,26.85,26.85,0,0,0,5.66,11.79,14.23,14.23,0,0,0,1.2,1.41l.62.71.74.71c.5.48,1,1,1.47,1.46s1.12.95,1.67,1.43a80.62,80.62,0,0,0,7.63,5.72c5.68,3.74,12.23,7.33,19,10.94s13.71,7.25,20.42,11.19c3.58,1.95,7.23,4,10.89,6.29,1.83,1.09,3.68,2.36,5.51,3.54s3.61,2.58,5.42,3.87l-.94-.89c1.87,1.36,3.59,2.9,5.35,4.37l.58.47-3.7-3.76c-.94-.77-1.9-1.5-2.87-2.26l-3.15-2.24-3.16-2.07-1.56-1-1.56-.95-3.08-1.91-6-3.55c-2-1.1-4-2.27-5.9-3.32-7.78-4.32-15.23-8.3-22.32-12.4A107,107,0,0,1,221,230a74.61,74.61,0,0,1-7.88-6.65c-1.16-1.12-1.83-2-1.49-2.12s1.52.75,2.72,1.81a117.5,117.5,0,0,0,15.91,10c6.16,3.33,12.93,6.66,19.8,10.22a231.73,231.73,0,0,1,20.49,11.7,117.15,117.15,0,0,1,9.53,6.89l2.21,1.77,2.08,1.85c1.35,1.24,2.71,2.39,3.92,3.64a90.6,90.6,0,0,1,6.73,6.23,68.55,68.55,0,0,1,5.41,6.12l.19.21-2.23-3.19c1.56,1.74,2.7,3.13,3.74,4.52s2,2.78,3.29,4.43l-.41-1.7,1.37,1.65,1.32,1.7,2.63,3.4c1.66,2.32,3.41,4.63,5,7,3.23,4.71,6.14,9.53,8.88,14.3l2,3.57,1.9,3.55c.63,1.18,1.24,2.35,1.82,3.51l1.83,3.64c1.82,3.73,3.75,7.3,5.22,11,.38.93.77,1.84,1.15,2.76a24.71,24.71,0,0,1,1,2.71,38.05,38.05,0,0,1,1.23,5.27c.19,1.12.31,2.15.39,3.18a25.68,25.68,0,0,1-.25,9.15,24,24,0,0,1-3.85,8.68,32.33,32.33,0,0,1-6.93,7.06c-.7.53-1.44,1.05-2.21,1.55a18.62,18.62,0,0,1-2.44,1.43l-5.37,2.62,3.75-1.72a33.46,33.46,0,0,0,3.65-1.8,42.15,42.15,0,0,0,6.23-4.5,38.91,38.91,0,0,1-6.51,5.09c-2.55,1.43-5.29,2.72-8,4.09l-4.1,2q-1,.51-2.1,1l-2,.85c-1.77.74-3.56,1.48-5.39,2.21a203.37,203.37,0,0,1-30.56,9.09c-4.86,1.09-9.49,1.76-13.56,2.34a97.38,97.38,0,0,1-10.48.77c-9.93,2.06-20,3.56-30,4.7-2.52.29-5,.57-7.56.76s-5,.47-7.58.6l-7.59.45-8.29.26c-2,.07-3.94,0-5.9-.06l-5.89-.16-2.95-.07a23,23,0,0,1-2.91-.18,48.16,48.16,0,0,1-5.42-1,38,38,0,0,1-5-1.59,31.3,31.3,0,0,1-4.62-2.25,27.34,27.34,0,0,1-7.78-6.91,26.73,26.73,0,0,1-2.7-4.58,29,29,0,0,1-1.62-5,33.69,33.69,0,0,1-.61-10.33,46.16,46.16,0,0,1,2.3-10.73c1.2-3.67,2.92-7.36,4.51-11,.66-1.52,1.35-3,1.9-4a4.16,4.16,0,0,1,.85-1.21c.15,0,.15.26,0,.8l-.13.45-.08.25-.16.43c-.24.61-.53,1.3-.85,2-1.1,2.6-2.23,5.18-3.29,7.77a66.8,66.8,0,0,0-2.58,7.69,38.62,38.62,0,0,0-1.17,14.78,31.19,31.19,0,0,0,.68,3.57l.53,1.75c.2.58.45,1.15.67,1.73a23.08,23.08,0,0,0,4,6.29l1.28,1.36c.46.41.94.8,1.4,1.2a12.68,12.68,0,0,0,1.46,1.1c.51.35,1,.71,1.51,1a35,35,0,0,0,3.21,1.69c1.1.5,2.24.92,3.4,1.32a42.5,42.5,0,0,0,7.36,1.7,61.65,61.65,0,0,0,8.13.41l8.24.16c1.4,0,2.75-.05,4.08-.11l2.8-.11c7.32-.27,14.63-.89,21.92-1.6l-9.17.57-9.21.33-4.61.05-2.62,0c-1.1,0-2.25,0-3.39,0-4.5-.19-9-.3-13.5-.54a41.6,41.6,0,0,1-12-3.08,25.9,25.9,0,0,1-5.16-3,25,25,0,0,1-2.35-1.92,13.76,13.76,0,0,1-1.06-1.1,12.66,12.66,0,0,1-1-1.17,21.28,21.28,0,0,1-3.1-5.34,26,26,0,0,1-1.51-5.89,35.35,35.35,0,0,1,.75-12.2,66.34,66.34,0,0,1,4.45-12.87q1.41-3.22,2.87-6.4l1.07-2.27,1-2,18.66-41.62a209.67,209.67,0,0,1,11.18-21.57c2.18-3.6,4.56-7.18,7.17-10.67A124.36,124.36,0,0,1,203,265.56c5-5.4,9.94-10.06,14.57-14.48s9-8.57,12.86-12.74c2-2.08,3.72-4.17,5.37-6.25a68.61,68.61,0,0,0,4.39-6.35,62.3,62.3,0,0,0,3.45-6.76,53.31,53.31,0,0,0,2.41-7.16,44.07,44.07,0,0,0,1.17-15.18c-.12-.8-.2-1.66-.33-2.41s-.3-1.38-.43-2.07a16.74,16.74,0,0,0-3-6.32,13.47,13.47,0,0,0-4.51-3.73c-3.59-1.89-8.95-2.51-14.47-1.39a32.44,32.44,0,0,0-15.32,7.91c-.28.27-.56.54-.85.79l-.78.78c-.52.49-1,.93-1.45,1.35a9.39,9.39,0,0,1-1.17.93,1.34,1.34,0,0,1-.75.36c-.34,0-.36-.62.07-1.5a16.17,16.17,0,0,1,.88-1.56c.41-.56.92-1.16,1.47-1.8a34.19,34.19,0,0,1,17-9.91c6.44-1.51,13-.83,17.53,1.84a15.37,15.37,0,0,1,5.57,5.39,22.27,22.27,0,0,1,3.05,8.57,46.39,46.39,0,0,1-2.21,22.4,57.06,57.06,0,0,1-5.1,10.76A71.62,71.62,0,0,1,235,237c-5.8,6.58-12.91,12.94-20.23,19.84-3.67,3.46-7.41,7.08-11.07,11a120.51,120.51,0,0,0-10.36,12.81,183.74,183.74,0,0,0-15.59,28c-1.89,4.07-3.66,8-5.43,11.93s-3.54,7.81-5.29,11.69c.12-.06.23-.12.31-.09.3.14.25,1-.06,2.35q3-6.58,6.09-13.23c2.05-4.41,4.11-8.88,6.32-13.41a187.2,187.2,0,0,1,9.57-19.33,114.22,114.22,0,0,1,13.1-18.43c10-11.37,21.25-20.23,30.76-29.78a99.44,99.44,0,0,0,8.67-9.72,62.18,62.18,0,0,0,6.41-10.19,52.3,52.3,0,0,0,5.73-22.31c-.29-10.05-4-17.76-10.83-21.71a24.56,24.56,0,0,0-2.66-1.35,27.75,27.75,0,0,0-2.92-1,31.4,31.4,0,0,0-3.09-.67c-1.08-.09-2.13-.27-3.24-.26s-2.21,0-3.32,0-2.23.17-3.35.41a36.94,36.94,0,0,0-6.62,1.75,5,5,0,0,1-1.71.48c-.3,0,0-.27.73-.56a33.8,33.8,0,0,1,18.74-2.7c6.17,1,11.65,4,15.08,9.08a13.51,13.51,0,0,1-.77-2.22c-.12-.57-.13-.9.14-1s.79,0,1.39.49a12.86,12.86,0,0,1,1.06.88,11.67,11.67,0,0,1,1.16,1.34,24.42,24.42,0,0,0-6-7.05c-1.48-1.23-2.75-2.11-2.54-2.35s1.71.34,3.19,1.55a25.18,25.18,0,0,1,6.37,7.51,31.6,31.6,0,0,1,3.36,9.53l.41,2.57.24,2.67.11,2.68c0,.89,0,1.78,0,2.68a55.26,55.26,0,0,1-1.44,10.62,63.13,63.13,0,0,1-10.64,23.63c-5.12,7.15-11.64,13.55-18.37,19.89a19.06,19.06,0,0,1,4.83-2.66,0,0,0,0,1,0,0c2.07-2,4.11-4,6.06-6a87.89,87.89,0,0,0,11.57-15.28,65.19,65.19,0,0,0,4.21-8.5,59.95,59.95,0,0,0,4.37-18.25,57.22,57.22,0,0,0-.11-9.35,40.28,40.28,0,0,0-1.83-8.9,28.34,28.34,0,0,0-4-7.77,26.2,26.2,0,0,0-14-9.66,36.89,36.89,0,0,0-17.8-.56,42.7,42.7,0,0,0-8.72,2.76,41.86,41.86,0,0,0-8,4.49c-1.29.85-2.44,1.86-3.64,2.82s-2.27,2.05-3.28,3.21-2,2.33-3,3.5-1.8,2.49-2.54,3.84c-.48.83-1,1.47-1.1,1.42s.16-.75.61-1.5A44.68,44.68,0,0,1,229,167h-.06c-.59-.07-.71-.21-.06-.31a7.29,7.29,0,0,1,2.33,0c.68.13.6.26.05.31a30.26,30.26,0,0,1,18.51,6.76,26.81,26.81,0,0,1,6.19,7.67,33.07,33.07,0,0,1,3.26,9.61,54.38,54.38,0,0,1-.38,21.07A64.86,64.86,0,0,1,250.94,232a67.6,67.6,0,0,0,4.67-8.82,59.25,59.25,0,0,0,3.25-9.39,56.35,56.35,0,0,0,1.6-19.64l-.11-1.23-.19-1.2c-.14-.8-.24-1.61-.4-2.4a37.67,37.67,0,0,0-1.33-4.62,28,28,0,0,0-20.32-18.28,38.23,38.23,0,0,0-8.42-.53,7.68,7.68,0,0,1-2.11-.14c-.22-.1.34-.24,1.15-.28s1.59-.12,2.38-.09c-4.91-.32-8.8,0-8.84-.7.13-.69,4.52-2.1,10-1.69a33.81,33.81,0,0,1,20,7.69,29.68,29.68,0,0,1,6.84,8.48,37.61,37.61,0,0,1,3.61,10.29c.28,1.55.62,3.1.76,4.67s.41,3.16.57,4.75A46.47,46.47,0,0,0,261.24,182a33.43,33.43,0,0,0-1.88-3.91c-.37-.63-.69-1.28-1.1-1.88L257,174.4a30.17,30.17,0,0,0-6.18-6.13,31.62,31.62,0,0,0-7.63-4.22,36.2,36.2,0,0,0-8.41-2.2c-1.44-.26-2.89-.29-4.33-.41h-3.26l-1.09.07a48.6,48.6,0,0,0-8.57,1.29c-1.9.55-3.58.87-3.69.69s.26-.36.87-.62a20.55,20.55,0,0,1,2.44-.86,46.94,46.94,0,0,1,15.51-1.85,38.39,38.39,0,0,1,15.47,4A33.57,33.57,0,0,1,260.43,175a39.08,39.08,0,0,1,5.95,15.18,58.64,58.64,0,0,1,.58,15.92,64.22,64.22,0,0,1-3.44,15.54,74.36,74.36,0,0,1-6.9,14.32,89.32,89.32,0,0,1-9.56,12.53c-8.49,10.74-18.35,19.94-26.66,29.78,1.13-1.14,2.35-2.27,3.53-3.42,7.62-7.29,15.62-14.27,22.89-22.22a95.29,95.29,0,0,0,10.05-12.85,77.28,77.28,0,0,0,7.37-14.61A66.42,66.42,0,0,0,268,193a42.69,42.69,0,0,0-5.31-16.17l-1.16-1.88c-.38-.63-.87-1.19-1.31-1.79a31.91,31.91,0,0,0-2.9-3.36,34.13,34.13,0,0,0-7.06-5.47A11.56,11.56,0,0,1,248.3,163c-.07-.14.75,0,1.79.72.64.37,1.27.75,1.9,1.13s1.2.85,1.8,1.28l.89.65c.29.23.56.48.84.72l1.65,1.46a36.48,36.48,0,0,1,5.46,6.78,42.32,42.32,0,0,1,5.77,15.79,65.4,65.4,0,0,1-3.07,32.39A81.66,81.66,0,0,1,252,247.44a230.75,230.75,0,0,1-16.89,18.29,186.27,186.27,0,0,0,17.37-17.85,80.78,80.78,0,0,0,13.24-22.39,68.69,68.69,0,0,0,4.64-25.79c0-1.11-.07-2.21-.14-3.31s-.18-2.2-.31-3.29c-.07-.55-.11-1.09-.21-1.65l-.3-1.69a31.16,31.16,0,0,0-.72-3.37A40.45,40.45,0,0,0,263,173.46c-.5-.68-1-1.36-1.44-2s-.82-1.22-1.14-1.66a2.78,2.78,0,0,1-.77-.61A39.41,39.41,0,0,0,247,160.84a14.33,14.33,0,0,1-2.52-1.15C244,159.4,244.62,159.51,245.68,159.85Zm3.56,97.49-.66-.49,2.45,1.5,3.12,2.69Zm-43.82-20.13h0l-1.34-1.73C204.64,236.19,205.07,236.74,205.42,237.21ZM192.29,406.47a436.92,436.92,0,0,0,52.13-4.32c-2.08.43-4.18.74-6.27,1.12s-4.18.74-6.28,1A322.68,322.68,0,0,1,192.29,406.47Zm29.72-167c3.36,2.49,6,4.58,8.57,6.59,2.6,1.19,5.29,2.48,8,3.85,7.39,3.69,14.79,7.37,22,11.55-.79-.81.95.15,1.87.65l2.79,1.51c-7.68-4.77-15.48-8.86-23.17-12.93C235.21,247,227.85,243.22,222,239.44Zm-28.52-34.83.16-.51.43,1.14Zm-.72-1.88a6,6,0,0,0-.15.88A.7.7,0,0,1,192.77,202.73Zm-.31,8.35a7.86,7.86,0,0,0,.06-1.23Zm-12.1,11.64a41.59,41.59,0,0,0,4.4,3.29c-.75-.57-1.51-1.15-2.28-1.77s-1.46-1.29-2.2-2Z"/></svg>