<svg id="Layer_1" data-name="Layer 1" xmlns="http://www.w3.org/2000/svg" width="492.62" height="540.35" viewBox="0 0 492.62 540.35"><defs><style>.cls-1{fill:#e6e482;}.cls-2{fill:none;stroke:#fafae8;stroke-miterlimit:10;}</style></defs><title>ph_figur</title><path class="cls-1" d="M68.34,182.75c.38.13,1-1,.8.94-1,6-3.45,10.48-4.51,16.52.18.19.36.38.53.58-1.41,4.53-2.88,9.26-4.37,14.08Q57.64,228.46,54.71,242c.29-.17.53-.23.4.68-.73,3.76-2.21,8.86-3.56,14.19-.16.8-.31,1.6-.47,2.38a1.29,1.29,0,0,0,.29,1c-.6,2.41-1.18,4.54-1.73,6.52-.7,3.59-1.39,7.18-2.16,11.18L63.68,281l3.25-35.27q.82-9,1.68-18.32c.15-1.55.29-3.11.43-4.67s.28-3.16.45-4.55a22,22,0,0,1,.71-3.77,11.22,11.22,0,0,1,1.5-3.08c1.26-2.14,3.42-4.37,5.59-7a30.24,30.24,0,0,0,3.07-4.34,20.79,20.79,0,0,0,2-5.07,26.5,26.5,0,0,0,.8-8,49.76,49.76,0,0,0-1.06-8c-.53-2.59-1.16-5.08-1.72-7.43a49.4,49.4,0,0,1-1.14-6.43c-.53.38-1.17-.55-1.73-2.19a19.57,19.57,0,0,1-.94-6.27,23.88,23.88,0,0,1,.89-6.07c.43-1.46.47-2.33-.75-1.66a15.4,15.4,0,0,1,1.8-2.07,19.71,19.71,0,0,1,2.27-1.8c.79-.51,1.57-.95,2.3-1.35l.94-.51.76-.43A8.29,8.29,0,0,0,87,141c.44-.56.55-1,.43-1.16a17.64,17.64,0,0,1-1.13-1.59,12.08,12.08,0,0,0-1.17-1.5,11.56,11.56,0,0,0-1.57-1.4c-.23.29-1.92-2.57-2.85-5.1a29.44,29.44,0,0,1-1.87-9.84,26.4,26.4,0,0,1,1-6.81,25.16,25.16,0,0,1,3.24-7,22.63,22.63,0,0,1,4.81-5.21l1.15-.89c.36-.26.72-.47,1-.68.64-.41,1.16-.74,1.51-1,.68-.52.54-.64,0-.55l-.22,0-.39.14-.93.4a15.45,15.45,0,0,0-2.13,1.1c-.71.45-1.44.9-2,1.34s-1.1.86-1.47,1.13c-.74.55-1,.54-.06-.64a25.58,25.58,0,0,0-4.11,5.6c-.48,1-1,2-1.36,3a29.94,29.94,0,0,0-1,3,33.91,33.91,0,0,0-1,11.72,38.55,38.55,0,0,0,1,5.65c.25.93.52,1.86.83,2.78l.52,1.37c.17.45.36,1,.51,1.28l.06.13c0,.06,0,.09,0,.08v0s0,0,0,0h0v0s0,0,0-.05,0,0,0-.07h0l-.16.09-.37.2a34.29,34.29,0,0,0-3.84,2.34,23.47,23.47,0,0,0-7.29,8.6A28.56,28.56,0,0,0,65.53,157,47,47,0,0,0,66.78,173l.44,1.77.41,1.55.78,2.93c.49,1.89.9,3.65,1.17,5.26a22.38,22.38,0,0,1,.38,4.26,8.92,8.92,0,0,1-.47,2.83,6.68,6.68,0,0,1-1.43,2.28c-.84,1-2.22,2.3-3.89,3.93-.85.84-1.76,1.76-2.71,2.84a30.6,30.6,0,0,0-2.87,3.8,24.74,24.74,0,0,0-2.35,4.72,32.43,32.43,0,0,0-1.3,4.47c-.3,1.4-.5,2.66-.67,3.81l-.46,3.22c-.31,2.12-.61,4.23-.92,6.36-.49,6.28-3.18,27.11-6.49,51.44l18,3.48c4-17.31,8.58-36.4,12.6-53.09s7.59-31,9.47-38.72L87,187.8c3.46-14.24,7-31.82,8.27-44.3.46-5.75.77-11.61,1-17.44-.77,2.61-1.51,5-2.23,7.09.5-2.9.94-5.81,1.27-8.28a40.84,40.84,0,0,0,.47-5.55,54.32,54.32,0,0,0,.25-5.8c-.07-1-.32-1.18-.7-.87-.77.6-2,3.29-3.12,5.52-1.19,3.28-1.56-1.47-3,3.76.6-3.84.86-5.78,1.7-9.65-.28-.29-.82,2.72-1.2,5.42s-.74,5.11-1.08,3.7c.77-3.67,1-7.94,2-11.84-.61.56-1.48,4-2,7.09s-1,6-1.44,5.6A57.1,57.1,0,0,1,88.48,116c.61-2.56,1.22-5,.79-5.46-.21-.21-1.09,3.77-1.4,5.73.79-6.09,2-11,2.3-13,.16-1,0-1.29-.55-.62A20.25,20.25,0,0,0,87,107.78a41.68,41.68,0,0,1,2.62-6.89,53.12,53.12,0,0,1,4-6.8l0,0-1.22,1.68c-.4.63-.87,1.31-1.27,2a30.86,30.86,0,0,0-1.93,3.75,36.82,36.82,0,0,1,3.92-7.08c-.37.27-.77.59-1.2,1a30.68,30.68,0,0,0-3.13,5.39A40.76,40.76,0,0,1,91.32,96a21.26,21.26,0,0,0-1.55,1.68,24,24,0,0,0-1.55,2,51.43,51.43,0,0,0-6,14.41c-.62,3.13-1.08,6.14-1.55,9s-1,5.7-1.48,8.54c-1,5.69-2.12,11.38-3.31,17.07C73.59,160,71,171.39,68.34,182.75Z" transform="translate(-5.34 -7.63)"/><path class="cls-1" d="M56.77,341.59c-.32-.25-1.7,1.44-.26-1.59,1.15-2.39,2.12-4.27,3.2-6.18s2.17-3.7,3.26-5.5c2.21-3.6,4.47-7.15,6.62-11.28-.07-.3-.15-.6-.22-.91,3.86-6.09,8.1-12.26,12.61-18.35a234.24,234.24,0,0,1,25.7-32.3c-.43.08-.7,0,.2-1a130,130,0,0,1,16.28-14.11l2.79-2.22a2.08,2.08,0,0,0,.75-1.19l4.32-2.9c1.39-.88,2.74-1.67,4-2.45a132.86,132.86,0,0,1,24.69-13c1.09-.47,2.21-.87,3.33-1.26l3.39-1.2,3.46-1,1.74-.53,1.78-.44,3.57-.89,3.64-.71,1.84-.36,1.86-.26,3.76-.52-3.66-13-26.61,14.74L163.3,234a37.45,37.45,0,0,1,20.84-1.47L184,222.8a52,52,0,0,0-14.76,7.91,71,71,0,0,0-10.84,11.12c-3.12,4-5.89,8-8.51,12-3.93,5.89-8.15,12.67-12.49,19.18a198.3,198.3,0,0,1-13.3,17.74c.76,0,.14,1.6-1.29,3.91-.71,1.16-1.58,2.53-2.57,3.95L117,303c-1.07,1.46-2.2,2.82-3.16,4.11s-1.8,2.43-2.44,3.32c-1.26,1.81-1.54,2.76.08,2l-2.67,2.45c-.93.85-1.93,1.67-2.91,2.52L103,320l-2.85,2.32-2.53,2.09c-.79.63-1.49,1.19-2.08,1.69a8.44,8.44,0,0,0-2,1.91c-.27,1.46-1.57,3.61-5.3,7.33s-10.13,8.76-21.17,14.86l-1.68.88-1.82.85-3.84,1.72a48.47,48.47,0,0,1-9.16,3.05,26.32,26.32,0,0,1-10.26.3,22.94,22.94,0,0,1-7.08-2.68c-1.18-.58-1.18-.38-.58.21l.24.23c.13.11.37.28.57.42a15.44,15.44,0,0,0,1.46.95c.55.3,1.15.62,1.78.91s1.29.52,2,.74a28,28,0,0,0,6.49,1.16c.66.06,1,.12,1,.2s-.52.2-1.58.31a32.53,32.53,0,0,0,8.68-1.35,55.05,55.05,0,0,0,6.85-2.5L65.91,353c1.9-.9,3.79-1.85,5.68-2.77A199,199,0,0,0,93.24,337.4a196.86,196.86,0,0,0,37.38-33.11,190.52,190.52,0,0,0,15.28-19.81c4.65-6.9,8.68-13.68,12.9-20.06,1.06-1.55,2.1-3.18,3.19-4.66l1.61-2.27,1.66-2.18.83-1.09.85-1,1.71-2.06,1.77-1.92c.29-.32.58-.66.88-1l.92-.88a45.3,45.3,0,0,1,7.63-6.16l2-1.2c.68-.39,1.39-.66,2.08-1l1-.5c.36-.16.73-.26,1.08-.39l2.16-.77,32-11.43-32.29-8.15a53.81,53.81,0,0,0-21.13-1,59.7,59.7,0,0,0-8.33,2.17l7.59,18.3c6.23-3.37,15.55-8.29,26.88-14.21l42.4-22.19-47.47,4.23a128.27,128.27,0,0,0-24.66,4.71,140.66,140.66,0,0,0-25.79,10.48A168.06,168.06,0,0,0,112.85,236a186.15,186.15,0,0,0-21.53,19.54,262.22,262.22,0,0,0-31.66,41.52C51.58,310,45.72,321,42,328.14l-1.65,3.23A37.32,37.32,0,0,1,36,338,11.31,11.31,0,0,1,33.89,340a5.26,5.26,0,0,1-1.7.8,17.47,17.47,0,0,1-3.34.37c-1.54.08-3.35.1-5.49.26-.57.06-1.08.09-1.7.17s-1.18.15-1.87.29a20,20,0,0,0-4.51,1.38c-.42.2-.85.4-1.26.62s-.9.56-1.34.86a13.63,13.63,0,0,0-2.52,2.23,14.93,14.93,0,0,0-2,2.83A20.92,20.92,0,0,0,7,352.7l-1.68,5.11,4.11,3.81a17.76,17.76,0,0,0,12.69,4.8l4.3-.11L28.9,363c4.65-6.21,9-12.24,12.58-17.78A148.9,148.9,0,0,0,54.2,320.31a106,106,0,0,1-6.53,10,112.18,112.18,0,0,0,6.22-12,53.42,53.42,0,0,0,3-8.66A46.8,46.8,0,0,0,58.85,300c.07-1.69-.16-2-.59-1.37-.81,1.17-2.59,5.63-4.53,8.94-1.19,2.46-1.47,1.85-1.84,1.62s-.83-.08-2.69,3.63c1.12-2.76,1.89-4.86,2.57-7s1.29-4.28,2-7.19c-.22-.4-1.13,4.08-2.41,8s-2.76,7.37-2.48,5.26a70.06,70.06,0,0,0,4.77-17.25c-.56.93-1.56,5.9-3.08,10.36s-3.28,8.45-3.51,7.85c.52-1.48,2.33-5.18,3.59-8.83.3-.91.61-1.81.86-2.66s.44-1.66.6-2.36a5.72,5.72,0,0,0,.15-2.79,13.85,13.85,0,0,0-.84,2.95c-.43,1.73-1,3.82-1.45,5.21a62.75,62.75,0,0,0,2.17-11.33c.11-1.56.2-2.93.17-4.07a18.42,18.42,0,0,0-.16-2.7c-.18-1.3-.42-1.54-.73-.51s-.62,3.36-1.47,7.17a75,75,0,0,0,.88-9.16,41.45,41.45,0,0,0-.77-9.3s0,0,0,0l.33,2.39c.07.88.15,1.83.22,2.76s0,1.88.07,2.74,0,1.66,0,2.31a52,52,0,0,0-.71-9.51c-.07.52-.13,1.1-.18,1.7.15,2.35.28,4.7.23,7.17,0-1,0-2.1-.08-3.14s-.16-2.08-.26-3.12c-.17,1.59-.36,3.39-.65,5.34-.55,7.4-3.09,14.15-4.23,18a85.4,85.4,0,0,1-5.21,13.13,126.61,126.61,0,0,1-7.27,12.64c-5.39,8.29-11.72,16.29-18.22,24.52l7.72-2.31a2,2,0,0,1,0-.45.7.7,0,0,1,0-.18,2.13,2.13,0,0,1-.37.52l.8,8a3.51,3.51,0,0,1-1.26-.47l-.19-.09s-.21-.18-.08-.06a.8.8,0,0,1,.16.16c0,.05,0,0,.09.12a2.83,2.83,0,0,1,.23.28,3.65,3.65,0,0,1,.35.59l0,.08.09.13.15.27c.1.18.19.36.28.55a5.25,5.25,0,0,1,.22.55l.1.28a1.77,1.77,0,0,0,.12.34c.12.29.23.57.33.86l0,.11h0s.12,0,.25-.05a5.06,5.06,0,0,1,.54-.08c.19,0,.49-.05.78-.07,1.16-.09,2.71-.1,4.52-.16a40.47,40.47,0,0,0,6.54-.6,24.64,24.64,0,0,0,8-3.08,28.51,28.51,0,0,0,6-4.86A49.67,49.67,0,0,0,56.77,341.59Z" transform="translate(-5.34 -7.63)"/><path class="cls-1" d="M71.84,352.57c-.11-.39-.55-.68-.1-1a4.58,4.58,0,0,1,2.26-.44,3.71,3.71,0,0,0,2.24-.51l-.13-.65c1.26-.2,2.62-.35,4-.64a47.27,47.27,0,0,0,6.26-3.74c-.17-.17-.31-.35-.15-.54a26.42,26.42,0,0,1,3.29-1.86l.45-.44a.81.81,0,0,0-.09-.55c.54-.33,1.05-.6,1.52-.83A93.74,93.74,0,0,0,104,324.71a28.92,28.92,0,0,1,1.88-4.19,60,60,0,0,1,4.62-4.92c-1.94-1.26.28-5.72-2.15-6.45.88-1,2.18-2.48,1.73-3-1.33-1.46-2.46-3.65-1.24-7.11.63-1.24,2.58-2.4,2.57-3,0-1-2.19.55-2.21-.44-6.84,7.59-12,15.51-18.84,22-.77,1.46-5.06,6.08-10.14,9.64a49.12,49.12,0,0,1-7.73,4.49,30.83,30.83,0,0,1-5.8,2.1l-.44.16a47.79,47.79,0,0,0-8.05,2.62c-1,.6-2,1.39-3.16,2,.52.37,1,.77,1.47,1.1-1.17,0-2.33-.05-2.79.36-2.54.86-1.26,2.08-.22,3.7.76.72-.33,1.76.91,2.45-.9,0-1.36-.09-2.27-.15-.07.32.64.27,1.28.27s1.21,0,.89.54a15.64,15.64,0,0,0-2.82,0c.26.91,3.21.48,3.06,1.31-.53.25-2.61-1.28-2.85-.2,0,.22.91.3,1.38.34a6.88,6.88,0,0,0-3.14.75c-.49.39-.29,1,1.08,1.71-1-.1-2.32-.75-3.37-.71h0c.51.1,1.37.43,1.85.5l-1.76-.27a3.23,3.23,0,0,0,.25.49,5.06,5.06,0,0,0,1.32.41l-1.18-.17a7.53,7.53,0,0,0,.89,1.12c1.36.9,2.73,2,3.55,2A48.1,48.1,0,0,0,71.84,352.57Z" transform="translate(-5.34 -7.63)"/><path class="cls-1" d="M117.85,313.11c-.29-.28-.74-.4-.62-.79.51-1.07,2.08-.82,2.57-1.91l-.43-.5c.79-.45,1.67-.88,2.47-1.38a43.91,43.91,0,0,0,2.78-4.08c-.22-.12-.4-.24-.37-.42a9.93,9.93,0,0,1,1.68-1.91c.06-.13.11-.26.16-.39a1,1,0,0,0-.31-.43,7.8,7.8,0,0,1,.83-.81c1.8-4.4,3.26-8.89,5.13-13.54a13.45,13.45,0,0,1,.8-3.25c.75-1.28,2.32-2.34,3.32-3.32-1.86-1.41-.18-4.71-2.3-5.88.71-.69,1.9-1.63,1.52-2.17a6.92,6.92,0,0,1-1.3-2.85,5.27,5.27,0,0,1,.69-3.75c.74-1,2.63-1.39,2.72-2,.13-.9-2-.18-1.89-1.08a47.42,47.42,0,0,0-9.64,8.46c-2.68,3.09-5.1,6.28-7.52,9.35-.44,1.35-3.26,5.65-6.19,9.72-1.49,2-3,4-4.41,5.63-.68.83-1.33,1.52-1.9,2.1s-1.06,1.06-1.44,1.39l-.23.27a22.38,22.38,0,0,0-2.32,2.43,10,10,0,0,0-1.74,2.67c-.28.9-.52,1.92-.79,2.95.53.06,1,.14,1.53.24-.72.49-1.42,1-1.46,1.53-1,1.82.51,2.22,2.08,3.07.86.24.85,1.55,2,1.57-.53.39-.85.52-1.41.87.15.29.53-.06.9-.34s.69-.54.83,0c-.64.2-1,.89-1.62,1.25.7.61,2.14-1,2.55-.3-.16.43-2.26.12-1.76,1.1.1.19.7-.16,1-.34-1.57,1.44-2.06,3,.28,2.88-.61.36-1.69.52-2.23,1.05h0c.33-.17,1-.33,1.29-.51l-1.1.65c.13.1.28.18.42.27a2.74,2.74,0,0,0,1-.32l-.73.44a7.26,7.26,0,0,0,1.15.46c1.24,0,2.67.31,3.17,0A48.42,48.42,0,0,0,117.85,313.11Z" transform="translate(-5.34 -7.63)"/><path class="cls-1" d="M153.32,159.75c.4.08.91-.93.93.71-.22,5.19-2.34,9-3.32,14l.52.54c-.93,2.52-2,5-3.3,7.63l18.13-.31c-.13-.48-.27-1-.42-1.48s-.27-1-.35-1.58A40.07,40.07,0,0,1,164,169.11c-.15-3.73,0-7.71.21-11.91-.26.2-.49.29-.51-.55.1-3.55.71-8.46,1.17-13.54,0-.75.05-1.51.07-2.25a1.17,1.17,0,0,0-.45-.86c.2-2.3.42-4.35.64-6.24q.22-9.41.46-18.93c.14-6.39.31-13.42-1.12-20.73s-4.09-13.51-6.09-19.55a61.07,61.07,0,0,1-2.36-9c-.12-.73-.25-1.49-.29-2.16a18.09,18.09,0,0,1-.12-2.1c0-.71.06-1.43.08-2.15s.14-1.45.29-2.16A21.74,21.74,0,0,1,158,50a13.34,13.34,0,0,1,4.5-5.26,11.31,11.31,0,0,1,4.23-1.41L163.81,39a57.12,57.12,0,0,0-4.11,10.87,70.64,70.64,0,0,0-2,10.68c1.2-.51,1.59,4.28,2.33,8.6s1.56,8.29,2.75,6.34c-.13,5.4-.3,13.53.34,14,1.94,1.28,4.14,5.48,5.14,19.87.2,5.63-.74,14.26-.37,16.25.59,3.13,1.48-7.28,2.06-4.15.42-13.8.66-27.43.81-41,.09-6.85.08-13.35.7-19.34a46.74,46.74,0,0,1,4.14-16l8.76-17.66-19,2.7c-.75.11-1.5.23-2.25.37l-1.12.22L161,31c-.73.23-1.47.46-2.18.74s-1.37.63-2.05,1a25.16,25.16,0,0,0-6.86,5.21A33.3,33.3,0,0,0,142.36,51a39.43,39.43,0,0,0-1.7,14.26,68.73,68.73,0,0,0,2.19,12.36c.46,1.42,1.19,3.64,2.13,6.52s2,6,2.75,9.34a42.2,42.2,0,0,1,.91,5.21,57.15,57.15,0,0,1,.27,6.08c0,2.2-.12,4.58-.28,7.12s-.35,5.28-.54,8c-.77,11-1.61,22.72-2.42,34.13a139.49,139.49,0,0,0-.54,17.85,51.14,51.14,0,0,0,4,18l8.58,19.42,7.92-19.69a109.4,109.4,0,0,0,6.64-24.72l.27-2.46a92.8,92.8,0,0,0-1.12-28.87l-5.15-24.87-11.4,22.13a98.78,98.78,0,0,0-6.2,14.82,118.57,118.57,0,0,0-3.49,16.58q.75-1.83,1.53-3.45c.51-1.09,1-2.1,1.51-3-1.79,5.36-3.07,10.87-3.09,13.08a28.31,28.31,0,0,0-.28,5.82c.11,1,.37,1.17.73.84.74-.66,1.84-3.32,3.07-5.36,1.32-3,1.44,1.43,3.21-3.26-.42,1.73-.72,3-1,4.35s-.51,2.64-.83,4.4c.31.26.62-2.47,1.11-4.92s1-4.61,1.25-3.28c-1,3.27-1.34,7.13-1.85,10.63.51-.55,1-3.57,1.67-6.33s1.33-5.29,1.67-4.93c-.11.95-1,3.28-1.57,5.53s-1,4.4-.53,4.81c.18.16.77-3.3,1.13-5a42.55,42.55,0,0,0-.65,11.17c.3,1.64.89.69,2.08-4A81.37,81.37,0,0,0,153,190.81s0,0,0,0c.06-.88.19-2.08.31-3.27s.3-2.34.37-3.16l-.26,3-.18,3c.17-.31.34-.66.5-1,.19-1.49.41-3,.56-4.53-.11,1.32-.25,2.64-.31,4,.39-1,.82-2.09,1.24-3.3,1.06-4.64,2.79-8.86,3.25-11.32a120,120,0,0,1,12.94-34.23l-18.71-3.1A86.69,86.69,0,0,1,153.32,159.75Z" transform="translate(-5.34 -7.63)"/><path class="cls-1" d="M217.18,96.8c-.4-.06-.88,1-1-.69,0-5.23,1.65-9.31,1.64-14.54l-.63-.42c.6-4,1.22-8.17,1.85-12.43q.33-5.91.66-11.8l.54-11.31c-.24,0-.46,0-.52-.19,0,0,0,0,0,0s.11,0-.32-.07c-.59-.11-1.22-.28-1.69-.39a16.32,16.32,0,0,1-2.47-.86,4.87,4.87,0,0,1-1.46-1l-9.21,1.72A32.17,32.17,0,0,1,206.77,51a15.77,15.77,0,0,1,.5,1.56.94.94,0,0,0,.64.48,32.3,32.3,0,0,1,.53,4.72A60.92,60.92,0,0,1,208.76,73,141,141,0,0,1,206,89.46c-1.23,5.7-2.67,11.61-3.84,17.8a148.74,148.74,0,0,0-2.36,19.1c-.08,5.49.08,10.91,0,16.08-.31,7.66-1.29,17.31-2.19,24.57,1.21-.44,1.63,3.83,1.91,7.84s.39,7.77,1.89,6.19l-.41,2.08-4.64-1.57a47.39,47.39,0,0,0,2.56-6.22c.62-1.86.86-3.29.65-3.52a5.31,5.31,0,0,1-1.06-1.75,14.94,14.94,0,0,1-.73-3.14c-.08-.66-.16-1.4-.23-2.23s-.11-1.74-.18-2.76c-.09-2-.19-4.45-.39-7.35-.05-2.26,0-5.12-.11-7.62a20.73,20.73,0,0,0-.71-5.37c-.29-.68-.44-.59-.52-.12s-.15,1.18-.2,1.92c-.1,1.48-.31,2.93-.76,1.76A61.22,61.22,0,0,1,189.08,178l19.81,6.7c2.58-13,3.18-25.67,3.94-37.82s1.62-23.85,4.41-35c.28-1.76,1-5,2.1-9.33s2.72-10,4.28-16.61a102.25,102.25,0,0,0,3-23,67,67,0,0,0-1.28-13.19,52.84,52.84,0,0,0-4.64-13.18l-4-7.7-7.85,3.67a11.93,11.93,0,0,0-5.73,5.82,15.73,15.73,0,0,0-1.32,4.6c-.08.6-.13,1.15-.16,1.62l-.08,1.07c0,.69-.09,1.38-.14,2.07-.19,2.75-.38,5.47-.56,8.12-.39,5.31-.75,10.39-1.09,15.06-.69,9.34-1.3,17.08-1.74,21.87l-.12,2.06c-.41,5-.8,10.32-1.11,15.66l18.09-.12c-.36-3.75-.62-7.5-.81-11s-.27-6.92-.35-9.91c-.27-4.58-.43-9.29-.34-14-.71,2.1-1.36,4-1.93,5.74.57-4.76,1.49-9.46,1.42-11.35.51-5.11.33-6.31-.44-5.8a7.61,7.61,0,0,0-1.41,1.8c-.52.86-1.11,1.89-1.7,2.8-1.21,2.73-1.53-1.36-3,3,.61-3.27.95-4.9,1.72-8.15-.14-.13-.33.44-.55,1.32s-.42,2.09-.64,3.23c-.41,2.29-.77,4.34-1.1,3.11.77-3.13,1.15-6.73,2-10-.55.46-1.33,3.27-1.92,5.9s-1.09,5.08-1.49,4.75a38.67,38.67,0,0,1,1.39-5.33c.61-2.14,1.18-4.13.72-4.57-.19-.18-1,3.1-1.32,4.76a101.49,101.49,0,0,0,1.57-10.73c0-1.61-.85-.89-2.6,3.64.82-3.25,2.57-7.66,3.51-11.06l0,0c-.57,1.67-1.69,4.51-2.12,6.08.54-1.93,1.17-3.84,1.79-5.75-.24.25-.49.55-.75.87a38.7,38.7,0,0,0-1.56,4.32c.37-1.29.76-2.57,1.18-3.84a28.24,28.24,0,0,0-2,3c-2,4.41-4.06,8.71-4.61,11.29A156.76,156.76,0,0,0,195.74,112l20.25-.14Q216.59,104.31,217.18,96.8Z" transform="translate(-5.34 -7.63)"/><path class="cls-1" d="M188.71,189c.38.13.81.1.91.4.11.89-1.37,1-1.31,1.86l.58.3c-.48.47-1.09.89-1.63,1.33-.41,1.06-.91,2.21-1.27,3.21a2,2,0,0,1,.44.32.24.24,0,0,1,0,.13l0,0h0l.08.07a19,19,0,0,1,2.56,2.5c.2.27.37.47.53.71l.16.24a4.9,4.9,0,0,1,.63,1.35,1.31,1.31,0,0,1,0,.23s0,.06,0,0a.13.13,0,0,1,0-.06.2.2,0,0,0,0,0c0,.08,0,0,0,0a3.52,3.52,0,0,1,1.31-1.2,10.66,10.66,0,0,1,1.59-.82l.94-.35.24-.08h-.08a.63.63,0,0,1-.3-.12.68.68,0,0,1-.32-.36,19.24,19.24,0,0,1-2-5.77,7.74,7.74,0,0,1-.85-3c.1-1.39,1.15-2.86,1.76-4-1.09-.4-1.51-1.46-1.92-2.56s-.73-2.19-1.92-2.46c.58-.89,1.55-2.16,1.09-2.61a5.45,5.45,0,0,1-1.35-6.77c.73-1.2,2.84-2,2.93-2.55,0-.43-.44-.5-1-.44s-1.13.09-1-.4a31.13,31.13,0,0,0-9.31,12.22,41.18,41.18,0,0,0-3.27,14.94c.09.45.2,1.22.34,2.23.06.5.13,1.06.24,1.67l.15,1c.07.38.14.77.2,1.18a21.44,21.44,0,0,0,.93,3.29,14.68,14.68,0,0,0,2.63,4.47,12,12,0,0,0,3,2.48,11.61,11.61,0,0,0,8.57,1.36,12.05,12.05,0,0,0,3.5-1.39,14.86,14.86,0,0,0,3.83-3.32c.42-.51.8-1,1.12-1.49l.45-.7.31-.51c.83-1.36,1.56-2.71,2.19-4,1.28-2.54,2.14-4.75,2.71-6l.12-.48c1.08-2.81,1.71-6.49,1.14-9.08a26.51,26.51,0,0,0-1.51-3.57,14.37,14.37,0,0,1-1.23,1.31c.15-1.1.25-2.22-.16-2.65-1-2.37-2.11-1-3.71-.22-.7.56-1.73-.25-2.46.61.05-.63.1-.95.12-1.59-.63-.08.28,2-.77,1.48.27-.59-.1-1.27-.08-1.88-.86.21-.37,2.12-1.25,2-.18-.32,1.25-1.68.14-1.8-.22,0-.23.57-.27.87-.31-1.87-1.4-2.74-2.55-1.15,0-.54.45-1.32.28-1.89h0c0,.29-.23.8-.23,1.06l0-1-.45.2a1.75,1.75,0,0,0-.22.74V178c-.35.18-.68.38-1,.58-.67.77-1.71,1.43-1.74,1.8A58,58,0,0,1,188.71,189Z" transform="translate(-5.34 -7.63)"/><path class="cls-1" d="M264.85,21.83l.51.16c.12,0-.24,0-1.48-.47a11.09,11.09,0,0,1-3.56-1.77c-.57-.46-.56-.77-.46-.38-.13-.5,0-.45-.18.06a6.75,6.75,0,0,1-1.8,2.21l-.29.26a15.31,15.31,0,0,1-2.45,1.63l-.27.15-.13.07h0l-.05,0a.9.9,0,0,0-.09.1c-.22-.23-.08,1-.05,1.8a71.2,71.2,0,0,1,1.8,9.13c.23-.09.45-.15.55.16a22.9,22.9,0,0,1,0,5c0,.28.07.56.09.83a.79.79,0,0,0,.5.33,18.41,18.41,0,0,1-.3,2.33,71.64,71.64,0,0,1-.64,14.67,21.62,21.62,0,0,1-1.4,5.91,4.47,4.47,0,0,1-1,1.52,3.72,3.72,0,0,1-1.43.78,2.2,2.2,0,0,1-.54.29.89.89,0,0,1-.66,0,3.28,3.28,0,0,1-1.53-1.74,12.18,12.18,0,0,1-.66-2.42,24.78,24.78,0,0,1-.41-2.76c-.1-.93-.12-1.87-.17-2.77s0-1.77,0-2.58c-1.13.29-2.07-1.58-2.82-3.44s-1.43-3.69-2.68-2.94c.28-2.41,1.07-5.94.51-6.26a5,5,0,0,1-2.33-3c-.54-1.63-.75-4.07.07-7.62a17,17,0,0,1,.91-2.13c.37-.73.82-1.44,1.22-2.11A13.53,13.53,0,0,0,245.23,24c0-.36-.12-.43-.37-.33a4.74,4.74,0,0,0-1,.74c-.76.63-1.53,1.29-1.4.43A55.15,55.15,0,0,0,235,55.48a60.79,60.79,0,0,0,.93,7.93c.11.66.28,1.31.41,2s.28,1.27.49,2A23.68,23.68,0,0,0,239,73a15.8,15.8,0,0,0,15,8.08,18.2,18.2,0,0,0,7.21-2,18,18,0,0,0,3.12-2c.25-.2.51-.42.73-.62l.61-.57c.4-.38.76-.78,1.12-1.19A28.09,28.09,0,0,0,270.07,69a34.64,34.64,0,0,0,1.36-3.78c.4-1.31.7-2.54,1-3.86a92.54,92.54,0,0,0,2.65-19,80.94,80.94,0,0,0-1.79-20.16c-.15-.76-.35-1.49-.52-2.22l-.13-.53c-.05-.18-.08-.32-.17-.66-.17-.58-.35-1.12-.56-1.66A18.13,18.13,0,0,0,270.4,14a14.9,14.9,0,0,0-2.63-3.2c-.32-.28-.61-.54-1-.81s-.76-.53-1.15-.77a13.66,13.66,0,0,0-1.38-.69A12.45,12.45,0,0,0,262.71,8a11.59,11.59,0,0,0-11.12,3,12.88,12.88,0,0,0-2.26,3,15.32,15.32,0,0,0-1,2.26,19.57,19.57,0,0,0-.59,2.09c-.07.32-.13.62-.18.91l-.13.76c-.12.81-.24,1.62-.33,2.45-.21,1.65-.35,3.33-.43,5a48.23,48.23,0,0,0,.37,9.14c.51,2.4,1.2,4.81,1.94,7.16.34-1.12.68-2.15,1-3,0,2.4.07,4.82.55,5.71a7.14,7.14,0,0,0,.86,2.2l8.24-1.33c-.53-.35-1-.21-1.46.35l-5.28.86c.42-.55.85-1.38,1.36-2.09.6-1.4,1.77.36,2.34-1.79,0,1.18.09,2.37.16,3.55l-2.35.38-.06-.28c-.1,0-.14.11-.13.33l2.74-.45c.11-.94-.66-4.23.3-3.39a12.79,12.79,0,0,0,.3,3.34l-3.93.64a7.25,7.25,0,0,1-.3-1.5,2.12,2.12,0,0,0-.2,1.62l5-.8c.08-1.55-.16-3.91.48-3.77.17.58-.42,2.63-.27,3.75l-5.38.87c-.14-.52-.3-.87-.6-.94-.11,0-.11.46,0,1.09L259,48c0-.47,0-1-.05-1.42.08.5.16,1,.25,1.4l-7,1.13c-.82-2.51-.82-4.47-1.16-5.12-.16-.32-.4-.32-.71.15a7.07,7.07,0,0,0-.87,3A13,13,0,0,1,250,43,26,26,0,0,1,251.54,39h0a21.71,21.71,0,0,0-1.08,2.12,11.7,11.7,0,0,0-.71,2.2,14.88,14.88,0,0,1,1.46-4.15,4.83,4.83,0,0,0-.75.52,10.5,10.5,0,0,0-1.29,3.21,15.49,15.49,0,0,1,.92-2.9,9.7,9.7,0,0,0-1.78,2.24,16.93,16.93,0,0,0-1.5,8.1l5.44,51.91,12.52-54.82a3.46,3.46,0,0,0,.11-1q-.09-6.42.44-12.8c.18-2.12.4-4.24.68-6.34l.44-3.15.25-1.57c0-.13,0-.23,0-.27v0h0l-.15,0-.9-.23Z" transform="translate(-5.34 -7.63)"/><path class="cls-1" d="M235.54,99.32c.4,0,.82-.43,1,.3.34,2.3-1.11,4.08-.8,6.37l.64.19c-.34,1.75-.76,3.58-1.17,5.43-.09,3.46-.09,6.9-.11,10.32.24-.07.46-.1.53.25a40.08,40.08,0,0,1-.49,5.42c0,.31,0,.61,0,.91a.81.81,0,0,0,.49.37c-.1.92-.23,1.73-.36,2.49.48,10.11.94,20.45,1,31.68a56.49,56.49,0,0,1,.5,7.12c-.23,3.38-1.33,7.56-1.9,10.79,2.36-.14,2.13,8,4.69,6.8-.4,2.18-1.09,5.42-.48,5.71,1.82.85,3.78,2.94,3.79,9-.18,2.33-1.68,5.66-1.45,6.54.36,1.39,1.94-2.67,2.3-1.28,2.09-8.4,3.54-16.77,4.81-25.18s2.21-16.86,3.25-25.5c-.06-1.5.09-5.11.44-9.83s.68-10.58,1.07-16.56c.76-12,1.22-24.49,1.6-29.6v-.93c.12-2.79.2-5.89.09-8.88a61.78,61.78,0,0,0-.78-8.22c-.56-2.17-1.24-4.37-1.89-6.55-.37,1-.75,2-1.11,2.79,0-2.23.07-4.45-.37-5.29-1.09-4.71-2.18-2-3.71-.18-.67,1.31-1.74-.43-2.42,1.61,0-1.46,0-2.19,0-3.66-.65-.16.42,4.51-.68,3.5.25-1.41-.2-3-.2-4.44-.87.53-.22,5.07-1.11,4.86-.19-.79,1.11-4.13,0-4.39-.22-.05-.22,1.41-.22,2.14-.44-4.49-1.53-6.92-2.62-2.81a42,42,0,0,0,.23-4.93h0c0,.75-.22,2-.22,2.74V65.86c-.15.13-.29.29-.44.45a11.41,11.41,0,0,0-.22,2v-1.7a11.07,11.07,0,0,0-1,1.47c-.66,2-1.64,4-1.64,5C236.23,81.83,235.86,90.6,235.54,99.32Z" transform="translate(-5.34 -7.63)"/><path class="cls-1" d="M237.81,125c.4-.06.73-.51,1,.06.69,1.81-.38,3.55.3,5.3l.67,0c0,1.47-.18,2.95-.25,4.47.45,2.65,1,5.24,1.33,7.73.23-.08.45-.13.56.12a6.52,6.52,0,0,1,.12,1.82c0,.67,0,1.41-.1,2.14,0,.22.07.44.1.65a.8.8,0,0,0,.51.24,17.79,17.79,0,0,1-.18,1.82,81.6,81.6,0,0,1,.65,11.58,95.47,95.47,0,0,1-1.25,12.7c0,1,0,2-.12,3a23.35,23.35,0,0,1-.43,2.82c-.74,2.63-2.52,5.66-3.68,8.05,2.31.57.52,7,3.18,6.84-.84,1.61-2.1,4-1.59,4.44,1.56,1.24,3,3.53,1.8,8.38-.62,1.83-2.69,4-2.64,4.78.08,1.22,2.35-1.54,2.43-.32a173,173,0,0,0,9.55-19,168.9,168.9,0,0,0,7.45-20.93c.05-.67.24-1.78.51-3.25s.59-3.3.88-5.41a96.27,96.27,0,0,0,1.15-15,109.13,109.13,0,0,0-1.25-15.37c-.64-4.45-1.22-8-1.45-10l-.16-.73a80.3,80.3,0,0,0-2.72-12.83c-.69-1.55-1.41-3.1-2.09-4.71-.39.75-.71,1.48-1.06,2.1-.06-1.68,0-3.32-.39-4-.46-1.78-.92-2.2-1.56-2A8.76,8.76,0,0,0,247,102.3c-.69,1-1.74-.42-2.44,1.26,0-1.22,0-1.84.16-3.06-.31-.09-.32.86-.29,1.72s0,1.63-.52,1.2a6.49,6.49,0,0,0,0-1.87,17.47,17.47,0,0,1,0-1.91c-.45.19-.61,1.27-.72,2.28s-.17,1.93-.6,1.84a7.11,7.11,0,0,1,.38-2.05c.24-.83.36-1.6-.18-1.75-.21-.07-.33,1.21-.37,1.85a11.17,11.17,0,0,0-.69-4.17c-.35-.63-1-.34-1.72,1.48.07-1.3.82-3.09.82-4.47h0c-.12.67-.49,1.83-.58,2.47l.34-2.34-.5.34a9.4,9.4,0,0,0-.47,1.77l.23-1.57a9.24,9.24,0,0,0-1.17,1.23c-.23.45-.48.91-.73,1.35l-.64,1.27a6.47,6.47,0,0,0-.74,2.06A95.28,95.28,0,0,0,237.81,125Z" transform="translate(-5.34 -7.63)"/><path class="cls-1" d="M232,193.5c.41,0,.81-.06,1,.07.38.41-1,.67-.64,1.07l.65.06c-.29.29-.66.58-1,.87a12.63,12.63,0,0,0,.28,1.78,1.22,1.22,0,0,1,.54.11c.14.27-.13.58-.25.91l.08.18a3.07,3.07,0,0,0,.5.13,1.36,1.36,0,0,1-.23.41,41.6,41.6,0,0,1,2.78,6.63,5.84,5.84,0,0,1,.95,1.77c0,.72-.71,1.36-1,1.93,2.18.78,2.53,2.79,4.78,3.45-.23.43-.63,1-.06,1.37,1.7,1,3.59,2.3,3.93,4.16,0,.64-1.17,1-.92,1.38.39.59,1.56,0,1.95.61a20,20,0,0,0,3.05-5.81c.71-2.06,1.24-4.16,1.85-6.28-.28-.87.14-3.73.41-6.71s.48-6.08.75-7.35l0-.23a5.74,5.74,0,0,0-1-4.23,21.06,21.06,0,0,0-2-1.46c-.36.27-.73.52-1.09.74,0-.52,0-1.05-.41-1.21-1.1-1-2.18-.22-3.7.31-.65.34-1.73.07-2.4.56,0-.3,0-.46,0-.76-.65,0,.43.89-.66.78.23-.31-.21-.58-.21-.88-.87.2-.22,1-1.1,1.08-.2-.13,1.1-.93,0-.87-.22,0-.22.3-.22.45-.43-.86-1.51-1.17-2.6-.28,0-.26.42-.69.24-1h0c0,.15-.22.42-.22.55v-.48l-.44.14a.65.65,0,0,0-.22.39v-.32l-1,.39c-.66.45-1.64.88-1.65,1.07A28.35,28.35,0,0,0,232,193.5Z" transform="translate(-5.34 -7.63)"/><path class="cls-1" d="M280.5,177.69c-.4-.07-.89.8-.94-.63.11-4.48,1.8-7.88,2.09-12.3l-.61-.4c.7-3.38,1.77-6.8,2.67-10.32,1.23-6.55,2.52-13,4.24-19.36-.27.1-.51.11-.4-.54a40.08,40.08,0,0,1,1.38-4.57c.63-1.66,1.32-3.45,2-5.28.16-.56.31-1.11.47-1.66a.94.94,0,0,0-.24-.77c.69-1.63,1.34-3.06,2-4.38l.57-1.71.14-.43.07-.22,0-.09a.23.23,0,0,0,0-.09h0l-.11-.06-.54-.29-.94-.54c-2.26-1.31-3.23-2.39-3.5-2.91l-.07-.15,0-.07s0,0,0,0v0c0-.16,0-.08-.1.17a6.69,6.69,0,0,1-2.61,2.25,13.39,13.39,0,0,1-1.69.8l-.26.09-.14,0h0c-.19.06-.05,0-.09,0v0l.06.16a18.76,18.76,0,0,1,.79,2.63c.86,3.7.77,8.21.17,13.09s-1.62,10.14-2.28,15.83a59.94,59.94,0,0,0-.45,8.9,35.64,35.64,0,0,0,1.46,9.46,30.55,30.55,0,0,0,3.8,7.15,28.43,28.43,0,0,1,1.63,2.55,6.08,6.08,0,0,1,.72,2.29,7.38,7.38,0,0,1-.15,1.85,12.52,12.52,0,0,1-.69,2.1,32,32,0,0,1-2.55,4.54c-2.08,3.2-4.18,6.47-5.8,9.37,1.25.12.16,3.84-.64,7.34s-1.36,6.73.36,5.8c-1.93,3.86-4.53,9.82-4,10.38.72.83,1.27,2.22,1.32,4.76A57.33,57.33,0,0,1,276,234.26c-1.1,4.21-3.6,10.46-3.58,12.05,0,2.5,2.74-5.11,2.74-2.61a215.42,215.42,0,0,1,18-43.78c1-1.72,1.92-3.43,2.93-5.12l1.54-2.58c.57-.93,1.19-2,1.82-3.13a35.44,35.44,0,0,0,1.87-3.93,24.4,24.4,0,0,0,1.48-5.22,20.08,20.08,0,0,0,.06-6.19,18.44,18.44,0,0,0-.68-3,23.15,23.15,0,0,0-1-2.73c-.68-1.48-1.32-2.6-1.76-3.41l-.53-1c-.11-.28-.23-.55-.36-.82a14.54,14.54,0,0,1-.95-3.62,31.29,31.29,0,0,1,.47-9.58,59.61,59.61,0,0,1,1-6.62c.59-3.14,1.52-7.21,2.3-12.33a64.7,64.7,0,0,0,.76-8.56,42.54,42.54,0,0,0-1-10.19l-.35-1.34-.18-.68-.09-.34-.17-.53a15.28,15.28,0,0,0-2.52-4.73,12.13,12.13,0,0,0-3.32-2.88,11.09,11.09,0,0,0-11.51.14,12.46,12.46,0,0,0-3.16,2.87,15,15,0,0,0-1.46,2.3c-.18.33-.32.64-.45.93l-.18.4-.11.27-.85,2.13q-.85,2.13-1.71,4.29a209.2,209.2,0,0,0-9.73,34.24c-2.05,10.53-3.15,19.39-3.79,24.51l-.18,1.87a192.56,192.56,0,0,0-.77,34.22c.52,4.32,1.15,8.69,1.85,13,.36-2,.71-3.89,1.1-5.51,0,4.41,0,8.82.41,10.5,1.19,9.34,2.23,4,3.72.39.65-2.59,1.75.88,2.4-3.16,0,2.9,0,4.36.05,7.28.33.16.2-2.08.12-4.11s-.06-3.85.49-2.85c-.23,2.8.26,5.93.28,8.84.85-1,.13-10.08,1-9.64.2,1.56-1,8.18.06,8.72.22.11.19-2.8.17-4.25.52,8.93,1.72,13.82,2.68,5.64,0,2.83-.3,6.85-.07,9.83l0,0c0-1.49.14-4.08.12-5.46l.09,5.1c.14-.27.28-.58.42-.9.1-1.28.17-2.55.15-3.88l.06,3.39a30.45,30.45,0,0,0,.93-2.91c.57-4,1.54-7.89,1.51-10.06.11-8.73.26-17.44.64-26.09S279.68,186.17,280.5,177.69Z" transform="translate(-5.34 -7.63)"/><path class="cls-1" d="M273.25,183.58c.4,0,.83-.19,1,.25.26,1.39-1.21,2.27-1,3.58l.63.2a11.71,11.71,0,0,1-.72,1.41c-.26.47-.51.95-.79,1.4-.33,1.88-.7,3.58-1.21,5.56.24,0,.45.09.46.31a14,14,0,0,1-1.38,3.1l-.12.59a.87.87,0,0,0,.38.4,15.88,15.88,0,0,1-.8,1.5c-.37,1.71-.78,3.54-1.1,5.43s-.61,3.76-.84,5.65c-.45,3.8-.66,7.64-.74,11.58a36.22,36.22,0,0,1,.51,5c-.18,2.31-1,5.13-1.45,7.34,2.33,0,2.73,5.48,5.19,4.71-.24,1.44-.57,3.61.06,3.79,1.91.57,4,1.93,4.77,5.9.11,1.52-1,3.77-.62,4.34.54.91,1.58-1.81,2.12-.91,1.89-11.15,2.2-21.67,4.84-31.8a28.34,28.34,0,0,1,1-5.81,72.71,72.71,0,0,1,3.26-9.59c.73-1.86,1.53-3.87,2.26-6s1.38-4.29,1.86-6.26c1-4,1.39-7.27,1.7-9.16l0-.69a32.6,32.6,0,0,0-.64-12.31c-.58-1.49-1.31-3-2-4.42-.35.71-.69,1.37-1,1.94,0-1.51-.06-3-.51-3.56-1.2-3.11-2.23-1.23-3.72.08-.63.91-1.75-.2-2.37,1.2,0-1,0-1.47-.07-2.44-.66-.07.53,3-.59,2.36.19-.95-.27-2-.31-2.94-.85.4-.11,3.38-1,3.28-.23-.5,1-2.79-.09-2.91-.22,0-.18.95-.17,1.44-.53-3-1.69-4.53-2.68-1.73a19.09,19.09,0,0,0,.11-3.31h0c0,.51-.16,1.39-.14,1.85l-.07-1.71c-.14.1-.29.21-.43.33a4.85,4.85,0,0,0-.16,1.31l0-1.13a7.88,7.88,0,0,0-.94,1c-.6,1.39-1.54,2.73-1.52,3.44C274,173.06,273.76,178.55,273.25,183.58Z" transform="translate(-5.34 -7.63)"/><path class="cls-1" d="M110.85,340.2c.36.19,1.36-1.6.59,1.43-.68,2.36-1.32,4.61-2,6.79s-1.4,4.28-1.94,6.44-1.19,4.29-1.74,6.51-.85,4.56-1.16,7l.53.8c-1.45,7.49-2.44,15.22-3.37,22.89-.52,7.08-1,14-1.78,20.63a136.5,136.5,0,0,1-3.58,19.35c.33-.26.58-.36.3.92a136.91,136.91,0,0,1-7.26,19.9c-.41,1.11-.86,2.23-1.3,3.32a2.06,2.06,0,0,0-.06,1.4c-1.52,3.35-3,6.3-4.36,9-2.6,5.87-5.36,11.76-8.49,18.35l-14.53,30.6,26.54-20.24a193.4,193.4,0,0,0,37.75-39c11-14.79,20.42-31.05,29-48.25,4.07-8.78,7.87-17.64,11.68-26.07,5.8-12.42,13.57-28,19.49-39.92-1.48.4,1.06-6.8,3.51-13.47s4.66-12.83,2.14-10.49a142.67,142.67,0,0,0,6.08-13c1.63-4.12,2.44-7.41,2.2-7.82a8.16,8.16,0,0,1-.75-2.82,43.89,43.89,0,0,1-.27-5.45c0-2.35,0-5.36.17-9.2s.21-8.58.48-14.5a153.47,153.47,0,0,1,2-15.93c.9-5.31,2.17-9.91,2.39-11.67.17-1.28,0-1.22-.38-.49s-.91,2.34-1.46,3.89c-1,3.11-1.93,6.25-1.73,3.45-1.79,9.15-2.53,18-3.41,26.28-.44,4.15-.91,8.19-1.52,12.08a99,99,0,0,1-2.41,11.16c-1.93,7-5.29,14-9.07,21.36-1.9,3.67-3.87,7.53-5.79,11.34s-3.78,7.65-5.63,11.48C164.35,353.63,157.36,369,149.91,384a409.2,409.2,0,0,1-24.54,43.67,205,205,0,0,1-15.47,22,172.39,172.39,0,0,1-32.7,31.56l13.55,11.7c6.17-12.23,12.87-25.45,18.28-39.51a177.84,177.84,0,0,0,6.78-21.6c.85-3.68,1.6-7.35,2.16-11s1-7.14,1.4-10.58c.74-6.89,1.2-13.41,1.71-19.45s1-11.62,1.74-16.65A171,171,0,0,1,128,350.39c.27-1.14.68-2.24,1-3.37a190.9,190.9,0,0,1,12.9-30.9,219.11,219.11,0,0,1,16.45-26.47l1.77-2.55.89-1.28.95-1.24,3.79-5c2.69-3.22,5.32-6.54,8.23-9.59-1.54,1.22-3.11,2.31-4.47,3.49l-3.93,3.26,4.46-4.57,4.28-4c.67-.63,1.27-1.25,1.89-1.8l1.7-1.53c1-1,1.87-1.77,2.43-2.39,3.33-3.17,5.49-5.06,6.52-6.24s1-1.51.37-1.37c-1.33.28-5.31,2.43-8.57,4.16-4.41,2.87.31-2.55-6.42,2.28l5.69-4.81c1.74-1.4,3.51-2.77,5.87-4.58.08-.45-3.52,2.36-6.69,5.07s-6,5.13-4.78,3.39c2.29-1.76,4.53-3.84,6.91-5.79s4.75-3.91,7.1-5.71c-1.07.29-5.2,3.31-9,6.28s-7.17,5.91-7.11,5.28c1.18-1.12,4.57-3.69,7.74-6.06s6.15-4.48,6.27-5.26c.05-.32-4.68,3.28-7,5.17,3.56-3,6.72-5.51,9.16-7.63a51.05,51.05,0,0,0,5-4.77c.88-1,.9-1.37-.09-.89s-3,1.79-6.46,4.07c2.26-1.74,5-3.74,7.63-5.86a58.16,58.16,0,0,0,7-6.47h0c-1,1-2.36,2.35-3.82,3.61s-2.92,2.48-4,3.34a84.26,84.26,0,0,0,7.17-6.62l-1.49.89c-1.77,1.59-3.64,3.15-5.6,4.8q2.51-2.1,4.81-4.32l-4.71,3c-3.13,2.26-6.45,4.3-9.44,6.17s-5.63,3.58-7.45,5a196.41,196.41,0,0,0-21,19,199.11,199.11,0,0,0-17.93,22,189.76,189.76,0,0,0-14.44,24.43c-1,2.14-2.12,4.24-3,6.41l-2.8,6.53C113.94,331.26,112.22,335.67,110.85,340.2Z" transform="translate(-5.34 -7.63)"/><path class="cls-1" d="M215.13,297.89c-.4-.08-.92,1.08-.92-.8.24-5.93,2.2-10.46,2.74-16.34l-.57-.52c1-4.48,2.21-9.09,3.51-13.78.41-2.09.85-4.18,1.3-6.27s.93-4.26,1.38-6.06a28.65,28.65,0,0,1,1.45-4.51,8.37,8.37,0,0,1,1.44-2.33l-16.05-5.68c.06.35.13.7.19,1.05.2-.24.4-.38.61.42a62,62,0,0,1,.7,13c0,.73,0,1.45.05,2.17a1.12,1.12,0,0,0,.47.82,59.79,59.79,0,0,1-.68,6,83.87,83.87,0,0,1-2.33,14.44l13.74-2.87a.84.84,0,0,1-.36-.3,2.81,2.81,0,0,1-.28-1.31,14.32,14.32,0,0,1,1.24-5.24c.19-.49.42-1,.65-1.48s.49-1,.82-1.56c.61-1.11,1.25-2.22,1.92-3.32l1-1.63.53-.82c.16-.26.41-.6.41-.63.25-.46.54-.94.85-1.43s.66-1,1-1.54a7.49,7.49,0,0,1,1.3-1.53,1.78,1.78,0,0,1,.92-.43,1.13,1.13,0,0,1,.86.29,10.07,10.07,0,0,1,1.13,1.46,23.58,23.58,0,0,1,2,3.75c.13.26.4,1,.62,1.65s.42,1.29.63,1.93c.4,1.3.74,2.63,1.06,4l.9,3.53a29.24,29.24,0,0,1,.57,3.06c.08.54.12,1.09.17,1.64l0,.42-.17-.27a5.8,5.8,0,0,1-.36-.59,15.44,15.44,0,0,1-1.22-2.69,20.55,20.55,0,0,1-1.15-4.87,18.15,18.15,0,0,1,.22-5.26c.1-.43.18-.85.31-1.26a4.75,4.75,0,0,1,.43-1.18,1,1,0,0,1,1.07-.5,2.38,2.38,0,0,1,1.11.58,9.33,9.33,0,0,1,2.34,4.15,1.22,1.22,0,0,1,1.21-.37,2.25,2.25,0,0,1,.69.35,4.42,4.42,0,0,1,.66.69,9.08,9.08,0,0,1,1.49,5.26c.11,4.33-3.08,8.26-.3,7a16.45,16.45,0,0,1-4.3,3.63,19.59,19.59,0,0,1-5.38,2.11c-.89.2-1.74.33-2.52.43s-1.43.15-2,.16a5.7,5.7,0,0,0-2,.25,4.79,4.79,0,0,1-2.21,1.2,11.91,11.91,0,0,1-4.7.26,20.43,20.43,0,0,1-7.8-2.62l-1.18-.7c-.38-.25-.74-.51-1.13-.78-.79-.53-1.52-1.16-2.32-1.82a35.11,35.11,0,0,1-4.55-4.91,40,40,0,0,1-5.31-10.89c-1.22-3.64-1.85-6.69-2.34-7.77-.35-.77-.5-.67-.53-.12a20.85,20.85,0,0,0,.2,2.77c.26,2.21.66,4.48-.23,2.73a60.43,60.43,0,0,0,3.63,9.35,44.89,44.89,0,0,0,5.92,9.09,37.14,37.14,0,0,0,4.06,4.07c.69.63,1.59,1.28,2.41,1.89s1.72,1.16,2.61,1.66a32.56,32.56,0,0,0,11.51,3.93,26.79,26.79,0,0,0,3.12.28c.53,0,1,.05,1.59,0l1.88-.08a27.76,27.76,0,0,0,8-1.92,25.59,25.59,0,0,0,6.78-4,24.31,24.31,0,0,0,4.89-5.72,24.86,24.86,0,0,0,2.85-6.64,26.23,26.23,0,0,0,.71-3.46,28.67,28.67,0,0,0,.22-3.45,25.61,25.61,0,0,0-.83-6.69,27,27,0,0,0-2.45-6.09,24.45,24.45,0,0,0-4-5.07,13.22,13.22,0,0,0-2.56-2,13.58,13.58,0,0,0-2.48-1.17c-.53-.18-.35-.12-.12,0l.35.14.53.23.27.12.39.2.8.44,1.08.73a4.86,4.86,0,0,1,.56.41l.68.62.68.62a4.25,4.25,0,0,1,.71.74l1.55,2,.38.49.39.71.77,1.44a12.1,12.1,0,0,1,1.41,3.15l1.09,3.74c0,.16.1.31.13.48l0,.51.07,1L258,266l.13,2.06c0,.65-.17,1.26-.25,1.89-.2,1.24-.36,2.54-.58,3.73l-1,2.93-.26.73-.13.36a1.71,1.71,0,0,1-.14.27l-.55,1-.55,1a7.27,7.27,0,0,1-.52.9l-1,1.38a24.06,24.06,0,0,1-2.46,2.84l-.1.09,0,.05,0,0h0c-2.89-2.28,3.92,3.13,3.22,2.54l0-1,.05-2,.09-4c0-1.32,0-2.66,0-4s-.11-2.71-.16-4.06c0-.68-.09-1.36-.15-2.05l-.23-2c-.1-.81-.24-1.62-.36-2.42-.27-1.61-.6-3.21-1-4.8s-.82-3.16-1.31-4.73l-1.3-3.74-1.57-3.78c-.58-1.19-1.14-2.42-1.74-3.6l-.95-1.69-.47-.85a3.84,3.84,0,0,0-.51-.79l-1.1-1.38-.55-.69-.27-.34-.3-.24-1.2-1a10.18,10.18,0,0,0-1.2-.88,13.73,13.73,0,0,0-3.72-1.28,12.17,12.17,0,0,0-2.8-.19,12.86,12.86,0,0,0-2.89.49,14,14,0,0,0-3,1.28,18.08,18.08,0,0,0-3.39,2.45c-.59.51-1.16,1.16-1.75,1.75l-1.77,2c-1.18,1.38-2.4,2.82-3.6,4.38l-.9,1.18c-.26.35-.53.7-.79,1.06l-1,1.44c-.68,1-1.36,2-2.05,3.05s-1.37,2.15-2,3.28-1.5,2.64-2.18,4.09a32.18,32.18,0,0,0-3,10.51,21.33,21.33,0,0,0,.55,7.18,18.3,18.3,0,0,0,3.86,7.4l11,12.63,4.79-15.93a102.45,102.45,0,0,0,3-46.1l-2.7-16.18L213,233.33a25,25,0,0,0-4.46,5.4,31.34,31.34,0,0,0-2.66,5.46,75.24,75.24,0,0,0-2.68,9.34c-1.33,5.58-2.45,10.92-3.38,15.86-1.87,9.86-3,18.09-3.65,23.36-.08.83-.15,1.65-.23,2.47-.63,5.55-1.11,11.58-1.34,17.61l-2.31,58.71,19.9-55.09a39.89,39.89,0,0,0,2.07-9.12,58,58,0,0,0,.29-8.19c-.07-2.53-.25-4.86-.42-7s-.37-4.18-.57-6.09c-.73-5.6-1.59-11.29-2.42-17-.29,2.66-.58,5.12-.89,7.26-.14-5.8-.29-11.59-.78-13.8-1.4-12.29-2.32-5.27-3.73-.47-.57,3.43-1.78-1.14-2.3,4.22-.1-3.85-.14-5.78-.24-9.65-.67-.42.73,11.87-.43,9.23.13-3.72-.41-7.86-.51-11.72-.84,1.37.12,13.37-.77,12.81-.27-2.08.82-10.88-.29-11.59-.23-.14-.13,3.72-.08,5.65-.74-11.86-2-18.37-2.81-7.49-.1-3.76.18-9.1-.1-13.07,0,0,0,0,0,0,0,2-.07,5.42,0,7.25,0-2.25-.11-4.52-.17-6.77-.14.36-.28.76-.41,1.19-.08,1.7-.13,3.39-.09,5.15,0-1.49-.07-3-.11-4.5-.31,1.14-.61,2.44-.88,3.87-.53,5.37-1.38,10.52-1.31,13.42q.2,13.41.4,26.85l.12,6.72c0,2.21.07,4.3,0,6.25a29.45,29.45,0,0,1-1.58,9.77l19.68,4.05Q214.31,305.79,215.13,297.89Z" transform="translate(-5.34 -7.63)"/><path class="cls-2" d="M196.52,243.39" transform="translate(-5.34 -7.63)"/><path class="cls-1" d="M173.76,255.42c-.17-.36-.75-.52-.22-1,1.79-1.35,4-.85,5.8-2l-.1-.66c1.67-.39,3.45-.64,5.24-.9q4.65-1.64,9.43-2.82c-.13-.22-.21-.43.1-.57a25.44,25.44,0,0,1,5.2-.57l.85-.2a.82.82,0,0,0,.28-.53l1.27,0h.59c0-.74,0-1.47-.07-2.19v-1.37a10.18,10.18,0,0,1,.49-3,2,2,0,0,1,.43-.77h0l.06,0s0,0,0,0a1.5,1.5,0,0,1-.47-.08,6.88,6.88,0,0,1-2.1-1.3,17.22,17.22,0,0,1-1.28-1.19c-.21-.23-.44-.46-.64-.7l-.32-.36-.54-.62,0,0-.64.7c-.43.47-.86.93-1.31,1.39q-2.64,2.78-5.61,5.39a85.52,85.52,0,0,1-13.35,9.69c-.78.6-1.58,1.17-2.39,1.73l4.73,1.73c-.17,0-.33.08-.45-.07a1,1,0,0,1,0-.92,7.93,7.93,0,0,1,3.21-3.1l1.24-.69,1.3-.7,2.44-1.3c-.81-.87.49-2.61,1.71-4.26s2.37-3.22,1-3.85c2.13-1.08,5.38-2.58,5.27-3.24-.34-2,.31-4.91,5.88-8.58A23,23,0,0,1,205,226.9l8.36-2.51,2.26,7a8.08,8.08,0,0,0,1.06,2.52c1.11,1,0-3.46,1.13-2.46-.11-.29-.22-.57-.32-.85l-3.46-9L204.28,225a135.5,135.5,0,0,0-20.14,9.11q-2.41,1.33-4.77,2.74L177,238.29l-1.17.73-.58.37-.83.54a28.61,28.61,0,0,0-3.28,2.61,22.19,22.19,0,0,0-3.22,3.7,16.36,16.36,0,0,0-2.69,6.47A18.75,18.75,0,0,0,165,255a18.08,18.08,0,0,0,.19,2.43,17.39,17.39,0,0,0,.61,2.36,21,21,0,0,0,.94,2.12L171,270l8.48-3.43a117.53,117.53,0,0,0,11.45-5.36c1.39-1,5-3.22,9.4-6.45,2.21-1.62,4.64-3.5,7.1-5.6l.93-.81.47-.4.28-.25.49-.45a13.6,13.6,0,0,0,2.31-2.87,11.34,11.34,0,0,0,1.22-2.92,10.7,10.7,0,0,0,.15-4.59,10.36,10.36,0,0,0-2-4.47,10.61,10.61,0,0,0-3.42-2.81,11.63,11.63,0,0,0-4.82-1.27,14.55,14.55,0,0,0-1.48,0l-.45,0-.32,0-1.32.1a95.44,95.44,0,0,0-19.94,4,112.42,112.42,0,0,0-13.37,5.16l-.95.53c-1.19.56-2.38,1.22-3.61,1.9l7.85,16.43c4-1.59,8.49-3,11.85-4.23,1.91-.86,3.9-1.76,6-2.54-1-.32-1.95-.6-2.79-.9,2.18-.18,4.35-.23,5.18-.66,4.66-1,2.1-2.17.14-3.72-1.4-.64.45-1.76-1.77-2.38,1.59,0,2.39,0,4,0,.09-.32-1.14-.26-2.26-.2s-2.11.09-1.58-.47c1.55.19,3.28-.25,4.9-.17-.27-.46-1.68-.55-3-.62s-2.52-.07-2.41-.5a10.61,10.61,0,0,1,2.68.28c1.08.19,2.07.26,2.24-.28.07-.22-1.58-.25-2.4-.26a19.68,19.68,0,0,0,5.3-.85c.79-.39.38-1-2-1.68,1.67.05,4,.69,5.73.71,0,0,0,0,0,0-.87-.11-2.35-.48-3.16-.53,1,.07,2,.19,3,.3-.14-.17-.3-.33-.47-.5a11.44,11.44,0,0,0-2.26-.44c.66,0,1.33.12,2,.19a10.62,10.62,0,0,0-1.63-1.15c-2.35-.88-4.7-1.91-6-1.93a72.77,72.77,0,0,0-28.18,4.51l8.79,18.4C172,256.33,172.88,255.85,173.76,255.42Z" transform="translate(-5.34 -7.63)"/><path class="cls-1" d="M195.53,303.41c.39.07.91-.93.92.71-.18,5.16-1.92,9.11-2.17,14.29l.6.45c-.74,3.93-1.61,8-2.46,12.25-.88,7.82-1.75,15.67-2.46,23.54.26-.18.49-.25.49.54-.25,3.26-.93,7.79-1.52,12.48,0,.7-.07,1.4-.11,2.09a1.08,1.08,0,0,0,.44.81c-.22,2.14-.45,4-.68,5.79l-.15,4.38c0,1.47,0,2.94-.05,4.41s0,2.94,0,4.42l0,2.22.05,2.23q.09,4.46.18,9a90.6,90.6,0,0,0,.76,9.59,38.38,38.38,0,0,0,2.88,10.33,48.77,48.77,0,0,0,5.35,8.8c1.92,2.58,3.84,4.94,5.53,7.28a58,58,0,0,1,4.53,7.42,83.76,83.76,0,0,1,6.53,14c2.41,7.19,4.76,16.67,6.8,23.8,1.89-1.75,8.12,15.3,9.33,11.17,1.36,4.76,3.4,11.92,4.13,12.1,2.21.55,5.45,3.56,10.32,15.84,1.73,4.86,3.19,12.67,4.08,14.3,1.42,2.56-.57-6.79.84-4.23-5.1-18.44-10.47-36.44-15.93-54.44l-4.11-13.51c-1.39-4.49-2.71-9-4.3-13.79A109.22,109.22,0,0,0,219.39,437a75.09,75.09,0,0,0-4.14-7.2c-1.45-2.23-2.87-4.23-4.09-6.08a35.6,35.6,0,0,1-3.64-5.54,17.07,17.07,0,0,1-1.45-3.84,30.13,30.13,0,0,1-.77-5.62c-.12-2.21-.14-4.84-.05-7.69s.15-5.76.23-8.78.36-6.16.54-9.34.52-6.42.78-9.67c1.19-13,2.89-26.46,4.36-38.08s2.67-21.45,3.37-27.16l.19-2.08c.34-3.13.62-6.45.91-9.81s.42-6.83.59-10.2.13-6.74.11-9.9c0-1.58-.05-3.12-.1-4.6s-.2-2.91-.31-4.26c-.3-2.48-.57-5-.95-7.46l-1.32-7.48c-.26,2.35-.54,4.51-.83,6.38-.2-5.06-.33-10.13-1-12-2-10.65-2.58-4.38-3.75-.2-.4,3-1.81-.86-2.1,3.72-.25-3.26-.43-4.9-.7-8.18-.69-.31,1.32,10,0,7.85-.06-3.15-.8-6.63-1.09-9.88-.79,1.23.82,11.29-.19,10.86-.28-1.73.31-9.22-.81-9.73-.23-.1.06,3.14.2,4.76-.33-2.48-.67-4.68-1-6.43a22.11,22.11,0,0,0-1.16-3.72c-.67-1.39-1.07-.41-1,4.11-.42-3.09-.66-7.52-1.3-10.77l0,0c.22,1.64.43,4.48.65,6q-.41-2.78-.8-5.57c-.11.32-.21.68-.3,1.05.08,1.41.19,2.81.39,4.25-.17-1.23-.35-2.45-.53-3.68-.2,1-.38,2.08-.52,3.28,0,2.23-.06,4.4-.21,6.32a31.81,31.81,0,0,0-.16,4.76c.45,4.75.44,9.57.59,14.37,0,2.4-.06,4.82-.08,7.23l-.05,3.62c0,1.21-.11,2.42-.16,3.63l-.34,7.27-.55,7.3-.26,3.64-.36,3.66Z" transform="translate(-5.34 -7.63)"/><path class="cls-1" d="M215.72,476.51c.38-.13.67-.52,1-.19.82,1.1-.1,2.56.71,3.67l.65-.13c.09,1.05.11,2.17.18,3.3.77,1.85,1.58,3.67,2.45,5.46.21-.13.41-.22.55-.07a14.33,14.33,0,0,1,.94,3l.28.46a1,1,0,0,0,.54,0,11.54,11.54,0,0,1,.34,1.42c3.13,5.05,6.49,10.14,9.95,15.73a21.33,21.33,0,0,1,2.68,3.34,40,40,0,0,1,1.74,6.05c2.1-1,4.61,3,6.54,1.44.35,1.21.86,3,1.51,2.93a6.34,6.34,0,0,1,6.55,2.75c.67,1.17.5,3.35,1,3.67.82.51.79-2,1.61-1.54-2.31-9.56-6.07-18.27-9.24-27.62-1-1.43-3.47-7.46-5.91-13.83s-4.85-13.05-5.63-15.87L234,470a30.18,30.18,0,0,0-4.22-8.8c-.94-1-2-1.9-3-2.85-.16.68-.32,1.32-.51,1.88-.4-1.2-.8-2.41-1.36-2.71-1.87-2.18-2.41-.34-3.52,1.18-.38.94-1.72.37-2,1.7-.26-.79-.39-1.19-.66-2-.64.14,1.23,2.3,0,2.13,0-.84-.74-1.55-1-2.35-.72.59.72,2.84-.15,3-.34-.36.28-2.63-.79-2.4-.22.05.05.85.18,1.25-1.22-2.3-2.69-3.26-3-.64a15.24,15.24,0,0,0-.68-2.78l0,0c.12.41.17,1.19.3,1.56l-.46-1.39a4.47,4.47,0,0,0-.34.4,3.86,3.86,0,0,0,.16,1.13l-.31-.92a7.07,7.07,0,0,0-.66,1.14c-.25,1.33-.82,2.73-.62,3.32C212.63,466.85,214.05,471.74,215.72,476.51Z" transform="translate(-5.34 -7.63)"/><path class="cls-1" d="M95.43,116.09c.41,0,.81-.25,1,.15.38,1.29-1,2.32-.6,3.6l.65.1c-.3,1-.68,2-1,3,.07,1.94.11,3.83.26,5.75.24,0,.46-.05.54.15a12.86,12.86,0,0,1-.32,3l.08.5a1,1,0,0,0,.5.22,7.42,7.42,0,0,1-.26,1.37A136.2,136.2,0,0,1,98,151.71a18.72,18.72,0,0,1,.51,4.12,12.83,12.83,0,0,1-.85,2.95c-.37,1-.79,2-1.14,2.82,2.29.43,1.84,5.16,4.32,5.13-.53,1.19-1.34,3-.78,3.3a6.05,6.05,0,0,1,2.48,2.73l2.33,5.27-12.44-3.16a8.62,8.62,0,0,1-5.4-5.06,10.47,10.47,0,0,1-.36-5.23c.27-1.75.9-3.19.93-3.81a.33.33,0,0,0-.43-.23c-.08,0-.27.23-.43.41s-.34.46-.5.71c-.66,1-1.16,2.13-1.3,1.07a16.08,16.08,0,0,0,4.65,15.21l10.65,10,6.13-13.53c3.55-7.86,5.34-16.08,6.89-24.37a47.72,47.72,0,0,1,.29-6c.1-1.43.21-3,.33-4.7s.19-3.44.29-5.23c.36-7.12.42-14.43.63-17.4l0-.54a29.2,29.2,0,0,0-1.07-9.84c-.57-1.24-1.27-2.47-1.94-3.7-.36.59-.73,1.14-1.09,1.62,0-1.28,0-2.55-.4-3-1.08-2.66-2.18-1.1-3.72,0-.66.77-1.74-.2-2.41,1,0-.84,0-1.26,0-2.1-.65-.08.41,2.58-.67,2,.22-.82-.21-1.71-.2-2.55-.88.32-.24,2.92-1.12,2.81-.21-.44,1.12-2.39,0-2.52-.22,0-.22.82-.22,1.24-.42-2.57-1.51-4-2.61-1.57a15.71,15.71,0,0,0,.25-2.84h0c0,.44-.22,1.19-.22,1.58V96.84c-.15.08-.29.18-.44.27a3.71,3.71,0,0,0-.22,1.13v-1a8.11,8.11,0,0,0-1,.87c-.67,1.18-1.66,2.32-1.66,3C95.73,106.14,95.49,111.16,95.43,116.09Z" transform="translate(-5.34 -7.63)"/><path class="cls-1" d="M254.22,323.47c.39-.1.53-1,1.08.11a13.88,13.88,0,0,1,1,5.28,44.52,44.52,0,0,0,.43,5.64l.67.25a103.2,103.2,0,0,1-.8,10.46q-.28,10.71-.58,21.33c.25-.18.47-.25.52.46,0,3-.43,7.09-.72,11.35,0,.63,0,1.26,0,1.88a1,1,0,0,0,.47.72c-.12,1.92-.27,3.63-.43,5.22.19,21,.59,42.34.87,65.45.34,4.9.69,9.81.72,14.52-.11,7-1,15.79-1.42,22.62,1.18-.47,1.85,3.47,2.64,7.09s1.72,6.89,2.86,5.24c0,1.12,0,2.37,0,3.62s.1,2.52.21,3.64c.16,2.26.54,4,.86,4.1,1,.41,2.18,1.38,3.45,3.55s2.67,5.52,4.91,10.17c.42.9.74,2,1.21,3l.63,1.6c.2.54.47,1,.69,1.52s.44,1,.65,1.4.46.81.67,1.16a7.11,7.11,0,0,0,1,1.45c.5.45.6.31.51-.12s-.24-1-.43-1.63a10.28,10.28,0,0,1-.39-1.56c0-.38.11-.49.5-.13-3.29-6-5.08-13-5.91-20.66a170.23,170.23,0,0,1-.36-24.13c.75-17.06,1.46-34.35,2.39-51.9-.2-6,.65-29.2,1.74-53.48.58-12.18,1.17-24.64,1.68-35.35a123.17,123.17,0,0,0-.23-15.64,69.16,69.16,0,0,0-2-11.84c-.19-.72-.46-1.44-.7-2.16a50.5,50.5,0,0,0-4.35-9.7,71.72,71.72,0,0,0-5.8-8.46c-4-5.1-7.94-9.25-10.87-12.56-1.42-1.5-2.71-2.87-4-4.38a46.44,46.44,0,0,1-3.42-4.72c.35,1.78.74,3.48,1.16,5-2-3.59-3.19-7.35-3.95-8.68-.79-1.95-1.17-3.15-1.53-3.79s-.62-.71-.92-.41a5.28,5.28,0,0,0-.73,1.85c-.19.86-.38,1.91-.52,2.87,0,1.33-.47,1.24-.91,1.32s-.86.33-.5,2.48a33.14,33.14,0,0,1-1.69-7.62c-.17-.07-.16.5-.06,1.36a26.27,26.27,0,0,0,.65,3c.29,1.05.58,2.05.73,2.66s.07.87-.36.43c-.74-2.94-1.87-6.22-2-9.5-.42.57-.34,3.46.22,6s1.29,4.83.78,4.75a13,13,0,0,1-.61-2.1c-.16-.95-.38-2-.49-3.12-.07-.54-.14-1.07-.2-1.56s-.1-1-.17-1.37c-.15-.81-.29-1.39-.57-1.53s.07,3.25.46,4.87a44.8,44.8,0,0,1-1.19-6.68c-.06-1-.16-1.79-.19-2.51a15.65,15.65,0,0,0-.14-1.72c-.12-.85-.3-1.06-.7-.41a14.61,14.61,0,0,0-1.16,4.81,26.36,26.36,0,0,1,.81-6.26,40.5,40.5,0,0,1,2.16-6.2l0,0c-.21.45-.46,1-.72,1.55-.13.29-.27.58-.4.88s-.23.63-.35.94c-.21.63-.47,1.25-.61,1.84s-.27,1.14-.36,1.58l.35-1.65c.12-.55.31-1.08.48-1.63a23.07,23.07,0,0,1,1.23-3.17c-.28.26-.58.58-.89.92a17.07,17.07,0,0,0-1,2.41,15.61,15.61,0,0,0-.71,2.56,28,28,0,0,1,1.28-4.43,13.66,13.66,0,0,0-1.08,1.61,14.77,14.77,0,0,0-1,1.94c-2,5.4-2.26,10.94-1.71,13.78a44.5,44.5,0,0,0,2.26,8.27,56.37,56.37,0,0,0,3.43,7.47,70.61,70.61,0,0,0,4.21,6.72c1.44,2,2.9,4,4.33,5.86,2.86,3.71,5.59,7.14,7.8,10.45a56.8,56.8,0,0,1,3,4.88A38.39,38.39,0,0,1,254.22,323.47Z" transform="translate(-5.34 -7.63)"/><path class="cls-1" d="M438.84,209.37c.27.31,1.21-.09.34,1.09-2.95,3.6-6.63,5.19-9.95,8.63l.18.72c-3,2.25-6.22,4.52-9.48,6.82q-8.42,7.13-17,13.86c.29.08.5.2,0,.7-2.34,1.94-5.89,4.21-9.51,6.62L391.84,249a1,1,0,0,0-.3.82c-1.64,1.09-3.14,2-4.53,2.85a256.1,256.1,0,0,1-26.78,18,121.31,121.31,0,0,1-14.73,7.13c-2.56,1-5.2,1.93-7.87,2.77s-5.42,1.48-8.22,2a55.71,55.71,0,0,1-14.31,1.85,49.12,49.12,0,0,1-11.19-1.77,57.25,57.25,0,0,1-10.35-4c0,.6-1,.78-2.41.51-.71-.13-1.54-.31-2.42-.56l-2.67-.92c-3.55-1.36-6.78-3.15-6.19-1.09a67.3,67.3,0,0,1-5.77-5.69c-1.66-1.91-3-3.4-3.31-3.39-1.1.07-2.79-.29-5.08-2.35s-5.45-5.77-7.88-13a28.91,28.91,0,0,1-1-4.79c-.14-.86-.14-1.75-.21-2.61a24.37,24.37,0,0,1-.06-2.55c0-3.33.49-6.14.38-7.22-.06-.7-.24-.66-.46-.26a16.17,16.17,0,0,0-.74,2.4c-.58,2-.83,4-1.16,2.25a48.85,48.85,0,0,0,2.29,17,55.52,55.52,0,0,0,7.33,14.84,59.25,59.25,0,0,0,11,12c1,.9,2.14,1.69,3.25,2.49s2.26,1.53,3.42,2.26a61.42,61.42,0,0,0,7.13,3.74,75,75,0,0,0,30.44,6.2,92.24,92.24,0,0,0,15.23-1.26,106.4,106.4,0,0,0,14.75-3.55A184.92,184.92,0,0,0,369.85,284c4.71-2.43,9.78-5.37,15-8.6s10.55-6.74,15.9-10.41c10.7-7.34,21.27-15.35,30.08-22.58,4.41-3.62,8.38-7,11.82-10s6.28-5.69,8.35-7.71l1.45-1.52c2.21-2.26,4.48-4.77,6.66-7.48a85.18,85.18,0,0,0,6-8.55,128.47,128.47,0,0,0,8.37-16c1.73-4.27,3.34-8.55,5.13-12.64l-3.89,4.3c2.32-4,4.83-7.71,5.46-9.37.59-1,1.05-1.89,1.39-2.58a14.72,14.72,0,0,0,.72-1.58c.27-.77.12-1-.32-1a6.39,6.39,0,0,0-2,.92c-.8.51-1.72,1.16-2.6,1.71-2.14,1.89-.89-1.83-3.91,1.44.89-1.32,1.55-2.31,2.27-3.27s1.4-1.95,2.43-3.18c-.07-.17-.47.24-1,.91s-1.19,1.67-1.83,2.59c-1.26,1.84-2.33,3.52-2.18,2.29,1.85-2.46,3.62-5.47,5.69-8-.67.16-2.58,2.27-4.11,4.37-.79,1-1.54,2-2.09,2.75s-1,1.08-1.08.86a31.47,31.47,0,0,1,3.3-4.16c1.37-1.66,2.75-3.14,2.5-3.74-.08-.24-2.19,2.31-3.11,3.66,2.78-4.21,5.24-7.38,6-8.8.39-.7.32-1-.33-.72a15.61,15.61,0,0,0-3.67,2.75c2.18-2.57,5.93-5.6,8.64-8h0c-.7.57-1.67,1.32-2.63,2.06a31.3,31.3,0,0,0-2.42,2.14c.75-.7,1.43-1.45,2.23-2.1l2.36-2q-.53.15-1.11.36c-.63.45-1.26.92-1.89,1.4s-1.17,1-1.76,1.59l1.47-1.43,1.59-1.34a19.48,19.48,0,0,0-3.31,1.64c-2.05,1.46-3.94,3-5.63,4.39a28.53,28.53,0,0,0-3.72,3.77c-6.48,8.44-11.1,17.28-15.79,25.22-2.34,4-4.68,7.76-7.18,11.19A87.61,87.61,0,0,1,438.84,209.37Z" transform="translate(-5.34 -7.63)"/><path class="cls-1" d="M260.24,241.75c.4,0,.78-.46,1,.17.56,2-.64,3.77.08,5.83l.67.05c0,1.65-.05,3.4.05,5.19a47.44,47.44,0,0,0,3.52,9.16c.19-.17.38-.29.59,0,.7,1.17,1.28,3,2.22,4.75.17.24.35.47.53.71a.78.78,0,0,0,.6,0c.45.77.82,1.49,1.17,2.14a39,39,0,0,0,11.75,9.19,41.25,41.25,0,0,0,14.08,4.14c1.06-.05,2.1-.11,3.11-.13s2-.12,2.94-.08c2.77.17,6.22.94,8.89,1.06-.17-1.17,1.37-1.94,2.73-2.83s2.57-1.74,1.94-2.89c1.67,0,4.19,0,4.28-.69.3-2,1.42-4.26,5.65-5.82,1.67-.41,4.42.12,5-.33.89-.72-2.38-1.14-1.49-1.86l-9.32.48c-3,.15-5.94.26-8.76.2-5.66-.06-10.94-.82-15.35-2.76a13.32,13.32,0,0,1-2-.59c-.44-.16-.87-.42-1.38-.66l-.78-.39-.77-.52a20.71,20.71,0,0,1-6.38-6.52,33.23,33.23,0,0,1-4.11-9.75,36,36,0,0,1-1.09-7.81l-.09-.62a95.23,95.23,0,0,0-.87-11.87c-.43-1.6-1-3.26-1.44-5-.45.72-.89,1.39-1.32,2,.19-1.65.41-3.31.06-4-.6-3.68-2-1.79-3.67-.56-.79.93-1.7-.53-2.56,1,.16-1.14.23-1.7.38-2.84-.64-.2,0,3.54-1,2.64.36-1.07.09-2.34.25-3.48-.93.3-.75,3.92-1.6,3.66-.14-.65,1.52-3.09.46-3.43-.21-.06-.37,1.07-.44,1.65,0-3.56-.76-5.61-2.3-2.53a30.05,30.05,0,0,0,.78-3.82h0c-.11.58-.44,1.56-.52,2.1l.28-2-.49.3a6.27,6.27,0,0,0-.42,1.48l.19-1.32a8.87,8.87,0,0,0-1.14,1c-.88,1.51-2.07,2.93-2.19,3.8A93.46,93.46,0,0,0,260.24,241.75Z" transform="translate(-5.34 -7.63)"/><path class="cls-1" d="M317.08,286.84c0-.41-.2-.81.09-1,.94-.4,1.71.94,2.65.54l.06-.65c.73.26,1.49.62,2.27.91,1.42-.12,2.84-.3,4.25-.54,0-.24-.06-.46.07-.55a7.67,7.67,0,0,1,2.25.09l.37-.12a1.37,1.37,0,0,0,.13-.51,5.23,5.23,0,0,1,1,.14c4.12-1.36,8.3-2.94,12.82-4.51a12.68,12.68,0,0,1,2.83-1.52c1.37-.28,3.13.12,4.48.17-.25-2.3,3-3.48,2.31-5.8.89,0,2.24.09,2.29-.57.18-2,.83-4.22,3.18-5.44.93-.29,2.37.51,2.69.11.5-.64-1.23-1.36-.72-2-6.92-.59-13.55.37-20.5.46-2.34,1.07-18.29,1.78-22.4,1.4l-.37,0a15.4,15.4,0,0,0-6.82,1c-.86.56-1.73,1.23-2.6,1.88.41.38.8.75,1.13,1.12-.89,0-1.79-.07-2.12.35-1.89,1-.79,2.16,0,3.71.54.68-.15,1.75.68,2.43L305.6,278c-.05.65,1.83-.37,1.44.71-.58-.24-1.22.17-1.81.14.22.89,2.07.3,2,1.18-.32.2-1.69-1.16-1.79-.08,0,.22.58.25.87.26-1.82.36-2.82,1.42-1.12,2.57-.58,0-1.41-.47-2-.31v0c.31,0,.84.25,1.12.26l-1,0a4.32,4.32,0,0,0,.19.45,2,2,0,0,0,.79.24l-.69,0a6.77,6.77,0,0,0,.61,1c.83.69,1.64,1.7,2.09,1.72A90,90,0,0,0,317.08,286.84Z" transform="translate(-5.34 -7.63)"/><path class="cls-1" d="M471.31,269.52c.38.15,1.16-1.4.75,1.19-.19,1-.39,2-.62,3s-.52,1.88-.79,2.8c-.56,1.82-1.12,3.59-1.74,5.34-1.31,3.47-2.49,7-3.67,10.87l.43.77c-.58,1.48-1.12,3-1.76,4.47s-1.28,3-1.94,4.49c-.32.75-.65,1.51-1,2.27s-.71,1.49-1.07,2.24l-2.14,4.53a213.55,213.55,0,0,1-17,32.5c.38-.13.64-.13,0,.92s-1.44,2.24-2.27,3.47-1.82,2.45-2.81,3.77-2,2.7-3.15,4-2.29,2.71-3.45,4.1c-.64.86-1.3,1.7-2,2.49a1.75,1.75,0,0,0-.4,1.21l-3.17,3.42c-1,1.08-2.05,2-3,2.94-2.95,3.32-6.18,6.37-9.41,9.46l-5.05,4.41c-1.7,1.45-3.52,2.77-5.27,4.17a102.15,102.15,0,0,1-23,13.66,67.53,67.53,0,0,1-12.73,3.88l-1.63.31-1.65.23c-1.1.18-2.2.26-3.31.35a48.37,48.37,0,0,1-6.58.07,19.46,19.46,0,0,1-5.67-1.16,12.48,12.48,0,0,1-4.44-3c-2.67-2.7-4.61-6.92-6.16-11.54-1.47-3.88-2.68-8.11-4.24-12.36a107.34,107.34,0,0,0-5.31-12.19,66.47,66.47,0,0,0-12.14-17.5,55.78,55.78,0,0,0-8.55-6.94c-2.94-2-5.86-3.62-8.53-5.1.13.73-1.44.44-3.78-.29a83.34,83.34,0,0,1-8.4-3.26c-3-1.32-5.72-2.77-7.5-3.7s-2.69-1.11-2,.4L274,329.1l-.62-.58-.59-.65c-.78-.87-1.59-1.77-2.41-2.66s-1.44-1.93-2.15-2.87a28.43,28.43,0,0,1-1.89-2.83c-.56-.92-1.14-1.76-1.59-2.57s-.84-1.52-1.2-2.13-.66-1.11-.91-1.46-.39-.58-.5-.62c-1.24-.49-3.18-2-5.69-6.08a68.44,68.44,0,0,1-4.15-8.09c-1.52-3.38-3.13-7.52-5.09-12.21a126.6,126.6,0,0,0-4.93-11.86,25.08,25.08,0,0,0-1.36-2.5,24.31,24.31,0,0,0-1.28-2.09,28.49,28.49,0,0,0-2-2.48c-.87-.8-.93-.62-.6.05.21.36.34.72.57,1.17l.75,1.42a13.08,13.08,0,0,1,1.13,2.62c.17.59.07.74-.56,0,.4.69.82,1.34,1.21,2l1.1,2.2.56,1.1.5,1.17,1,2.34c1.26,3.28,2.45,6.63,3.57,10.25s2.33,7.42,3.5,11.12l1,2.9.49,1.45.56,1.48,1.11,2.95c.4,1,.85,2,1.27,3,.8,2,1.89,4,2.89,6,.5,1,1.16,2,1.74,3a34.49,34.49,0,0,0,1.88,2.93l2.11,2.85.54.71.6.67,1.21,1.34a43.69,43.69,0,0,0,5.18,5,76.39,76.39,0,0,0,11,7.48c3.62,2.07,7.07,3.83,10.26,5.59a77,77,0,0,1,8.57,5.31c.62.47,1.19.94,1.79,1.41s1.13,1,1.67,1.49a37.9,37.9,0,0,1,3.1,3.33,56.11,56.11,0,0,1,9.39,17.05c.59,1.6,1.12,3.25,1.62,4.92l.72,2.54.72,2.76c.49,1.88,1,3.86,1.62,5.93s1.29,4.2,2.19,6.43a36.25,36.25,0,0,0,8.8,13.48,27.09,27.09,0,0,0,3.63,2.82,24.68,24.68,0,0,0,4.06,2.23,33.41,33.41,0,0,0,8.12,2.33,50,50,0,0,0,6.71.39c1.32,0,2.77,0,4.31-.11l2.4-.15,2.54-.29a85.24,85.24,0,0,0,24-6.79,128.12,128.12,0,0,0,26.11-15.68,174.84,174.84,0,0,0,24.59-22.72c15.3-17,27.28-37.14,35.28-55.25a277.55,277.55,0,0,0,15-43.36c.28-1.13.51-2.26.77-3.38a287.23,287.23,0,0,0,5.89-32.48A282.68,282.68,0,0,0,498,212.09c0-8-.34-16.11-.78-24.15-.44,3.72-1,7.16-1.45,10.14.36-8.16.56-16.31.15-19.44-.39-8.68-1-10.54-1.59-9.43s-1.28,5.23-2.11,8.54c-.74,4.77-1.7-1.69-2.52,5.76.12-5.37.17-8.07.2-13.47-.59-.61.21,16.59-.83,12.84.32-5.17,0-11,0-16.35-.84,1.87-.41,18.62-1.34,17.78-.1-2.89,1.35-15.08.24-16.13-.23-.2-.23,5.17-.3,7.86-.1-8.27-.51-14.68-1-17.13s-1-.95-1.54,6.59c0-5.23.37-12.64.11-18.18a.43.43,0,0,0,0,.05c0,2.76-.09,7.53-.12,10.08L485,148c-.15.5-.29,1.06-.43,1.66-.09,2.35-.15,4.71-.14,7.15,0-2.08,0-4.16-.06-6.26-.33,1.57-.64,3.37-.93,5.35-.61,7.43-1.62,14.52-1.67,18.52C481.07,206.69,478.54,238.83,471.31,269.52Z" transform="translate(-5.34 -7.63)"/><path class="cls-1" d="M49,281.07c.4,0,.82-.13,1,.22.29,1.1-1.16,1.8-.89,2.89l.64.15c-.36.78-.81,1.59-1.22,2.42-.09,1.6-.11,3.2-.1,4.81.24,0,.46,0,.53.16a9.15,9.15,0,0,1-.44,2.49c0,.15,0,.29,0,.43a1,1,0,0,0,.49.22,9.31,9.31,0,0,1-.31,1.14c.64,4.79,1.41,9.73,2,15.1a15.85,15.85,0,0,1,.88,3.46c0,1.6-.84,3.49-1.2,5,2.31.2,2.68,4.12,5.11,3.85-.24,1-.64,2.51,0,2.72A6.12,6.12,0,0,1,59.92,331c0,1.13-1.13,2.59-.83,3,.48.73,1.65-1.08,2.14-.35,2.47-7.81,3.15-15.7,4.5-23.79-.28-1.46.23-6.85.79-12.47s1.2-11.49,1.67-13.87l0-.44A20.31,20.31,0,0,0,68,275c-.46-1.06-1-2.14-1.6-3.22A15.64,15.64,0,0,1,65.17,273c.13-1,.26-2.07-.13-2.5-.84-2.29-2.07-1.1-3.7-.37-.72.56-1.71-.33-2.48.57l.2-1.71c-.65-.12.19,2.13-.85,1.58.3-.64-.05-1.4,0-2.08-.89.18-.48,2.34-1.35,2.17-.17-.38,1.31-1.83.24-2-.22,0-.29.64-.33,1-.2-2.11-1.16-3.32-2.47-1.5.08-.65.6-1.56.5-2.26h0c-.06.35-.33.93-.36,1.25l.13-1.18-.46.18a2.76,2.76,0,0,0-.32.88l.09-.78a8.06,8.06,0,0,0-1.06.61c-.76.88-1.84,1.71-1.9,2.2C50.12,273,49.43,277.05,49,281.07Z" transform="translate(-5.34 -7.63)"/><path class="cls-1" d="M226.38,266.68c.35-.2.63-.53.91-.42.66.42-.15,1.6.56,2l.57-.32c.07.6.09,1.3.22,1.95a13.88,13.88,0,0,0,2.43,2.17c.15-.18.31-.34.44-.32.43.19.66.8,1.06,1.28l.28.11a1.94,1.94,0,0,0,.43-.3,4.76,4.76,0,0,1,.45.61,26.36,26.36,0,0,0,9.61,1.34,9,9,0,0,1,2.2-.68,9.79,9.79,0,0,1,2.49,1.08,6.63,6.63,0,0,1,1.45-2.63,4.73,4.73,0,0,0,1.1-2.72c.39.16,1,.29,1.11-.35a16.87,16.87,0,0,1,1.67-5.26c.27-.28.69.57.78.18s-.06-.66-.12-1a2.4,2.4,0,0,1-.11-1,7.59,7.59,0,0,0-2.46-.5,7.86,7.86,0,0,1-2.72-.79,2.08,2.08,0,0,1-1.34-.06,7.58,7.58,0,0,1-1.86-1,6.2,6.2,0,0,1-2.27-2.88l-.08-.09a2,2,0,0,0-.56-.89,2.31,2.31,0,0,0-1.16-.6c-.58-.07-1.29-.14-2-.26l-1,.72c-.05-.35-.12-.68-.55-.71-1.1-.5-2.16.12-3.6.87-.61.44-1.73.33-2.28.94-.07-.32-.06-.5-.11-.83-.65.12.55.92-.53,1,.14-.38-.3-.65-.34-1-.85.31-.08,1.27-.91,1.43-.28-.14.93-1.27-.15-1.09-.22,0-.17.4-.15.59-.55-1-1.72-1.55-2.65-.19-.05-.4.29-1,.07-1.42h0c0,.21-.15.61-.12.8l-.09-.72-.42.2a1.1,1.1,0,0,0-.15.59l-.05-.49a6.62,6.62,0,0,0-.92.6c-.58.71-1.45,1.54-1.4,1.9A19.7,19.7,0,0,0,226.38,266.68Z" transform="translate(-5.34 -7.63)"/><path class="cls-1" d="M254,288.3c.36-.17.55-.69,1-.25,1.17,1.47.7,3.43,1.95,4.88l.63-.21c.49,1.38.93,2.86,1.49,4.33a67.52,67.52,0,0,0,5.15,6.72c.15-.2.3-.36.54-.19a34,34,0,0,1,2.52,3.51l.51.45a.81.81,0,0,0,.55-.12,16.14,16.14,0,0,1,1,1.5c1.3,1.17,2.5,2.25,3.56,3.32.52.54,1,1.07,1.48,1.61a16.37,16.37,0,0,1,1.29,1.74c1.71,2.56,3,6.32,4.85,10.47,1.05,1.69,2.2,3.36,3.2,5a37.07,37.07,0,0,0,4.91,7.74,1.76,1.76,0,0,1,1.63-.54c.71,0,1.5.18,2.28.27a6,6,0,0,0,2.09,0,1.4,1.4,0,0,0,1.1-1.14c1.12.94,3.07,2,3.44,1.44a8.57,8.57,0,0,1,2.33-2.22,10,10,0,0,1,1.64-.82,13,13,0,0,1,2-.56c1.06,0,2.59.82,3,.44.23-.16.2-.32.06-.49s-.27-.35-.43-.53c-.31-.35-.58-.69-.32-1a16.45,16.45,0,0,1-9.08-4.53c-.34-.29-.57-.63-.87-.93s-.54-.65-.73-1l-.34-.51-.28-.52a3.48,3.48,0,0,1-.29-.58c-.1-.2-.19-.42-.28-.65a49.93,49.93,0,0,1-2-7.72c-.25-.54-.57-1.47-1-2.84s-1-3.13-2-5.27a39.55,39.55,0,0,0-3.66-6.57c-1.42-2.08-3-4-4.37-5.72s-2.65-3.27-3.81-4.82-2.21-3.11-3.13-4.59a54.69,54.69,0,0,1-3.87-7.08l-.3-.53a74.2,74.2,0,0,0-5.37-10l-3.16-3.59c-.15.77-.31,1.5-.49,2.16-.44-1.47-.83-2.95-1.39-3.41-1.84-2.89-2.47-.82-3.61.88-.39,1.11-1.77.16-2,1.81-.28-1.06-.44-1.58-.68-2.65-.68.07,1.25,3.14,0,2.72-.07-1.08-.78-2.11-1-3.19-.78.61.72,3.77-.15,3.85-.38-.52.26-3.31-.82-3.23-.22,0,0,1.1.17,1.64-1.24-3.2-2.69-4.86-3-1.46-.28-1.08-.16-2.73-.59-3.83h0c.1.58.12,1.62.23,2.15l-.41-2-.36.45a6.66,6.66,0,0,0,.11,1.54l-.28-1.31a9.55,9.55,0,0,0-.72,1.35c-.32,1.73-.87,3.5-.67,4.36A84.7,84.7,0,0,0,254,288.3Z" transform="translate(-5.34 -7.63)"/><path class="cls-1" d="M257.29,310.12c.38-.14.64-.57,1-.19.91,1.26.09,2.88,1,4.14l.64-.14c.19,1.22.24,2.37.49,3.83a36.44,36.44,0,0,0,2.18,4.17,22,22,0,0,0,1.7,2.37,18.91,18.91,0,0,0,2.27,2.38c.08-.25.19-.43.53-.23l0,0c.71.53,1.5,1.21,2.42,1.9.47.34,1,.68,1.47,1s1,.6,1.52.84l1,.29a.7.7,0,0,0,.51-.34l2.3.93c4.71.6,8,0,10.78,0a33.37,33.37,0,0,1,9.29,1.11,13.89,13.89,0,0,1,4.33.87,13,13,0,0,1,2.7,2c.83.83,1.65,1.63,2.32,2.36.66-.93,2.13-.8,3.52-.56s2.78.45,3.28-.72c1,1.17,2.31,3,2.88,2.72,1.75-.85,4.42-1.33,7.75,2.08,1.17,1.42,1.55,4.31,2.17,4.71.46.27.6-.29.64-1s.12-1.37.63-1a40.09,40.09,0,0,0-5-9,46.42,46.42,0,0,0-6.82-7.51,55.47,55.47,0,0,0-8.15-6,61.83,61.83,0,0,0-9.23-4.45c-.73-.08-2-.45-3.73-.8-.87-.17-1.82-.42-2.89-.58l-1.66-.27-.87-.14-.85-.1c-2.22-.26-4.27-.44-5.7-.73a9.54,9.54,0,0,1-1.59-.43l-.21-.09-.11-.05-.1,0-.1-.07a.52.52,0,0,1-.11-.1.72.72,0,0,1-.14-.17,6.47,6.47,0,0,1-.49-.82,31.51,31.51,0,0,1-1.23-2.93c-.89-2.32-1.59-4.26-2-5.51l-.24-.54a38.51,38.51,0,0,0-4.86-9.85c-1-1.1-2.15-2.17-3.25-3.25-.12.75-.25,1.45-.41,2.08-.47-1.35-1-2.7-1.54-3.06-2-2.48-2.47-.45-3.51,1.22-.33,1-1.73.36-1.9,1.84-.31-.9-.47-1.35-.79-2.25-.65.14,1.38,2.61.15,2.39-.11-.95-.85-1.76-1.17-2.66-.7.63.89,3.2,0,3.38-.37-.41.13-2.93-.95-2.7-.22,0,.1.94.26,1.39-1.38-2.61-2.94-3.73-3.07-.8a19,19,0,0,0-.85-3.14l0,0c.15.47.25,1.34.4,1.77l-.56-1.58a4.73,4.73,0,0,0-.31.43,4.58,4.58,0,0,0,.22,1.28l-.37-1.05a8.48,8.48,0,0,0-.6,1.25c-.17,1.49-.67,3-.43,3.72C253.47,299.2,255.25,304.73,257.29,310.12Z" transform="translate(-5.34 -7.63)"/><path class="cls-1" d="M306.84,346.82c.37-.17.64-.53,1-.32.79.77-.11,2.09.66,2.93l.63-.18c.07.88.07,1.84.14,2.83.73,1.58,1.55,3.22,2.39,4.76.2-.13.4-.23.54-.1a10.58,10.58,0,0,1,.9,2.63l.27.39a1,1,0,0,0,.54,0,8.74,8.74,0,0,1,.31,1.25c3,4.3,6.18,8.58,9.14,13.5a14.17,14.17,0,0,1,2.35,3,23.27,23.27,0,0,1,1,5.38c1.1-.35,2.14.4,3.15,1.12s2,1.42,3.07.81c.16,1.15.3,2.88,1,2.89a6,6,0,0,1,5.84,3.81c.38,1.29-.35,3.34.08,3.77.66.7,1.28-1.75,1.95-1.05A57.52,57.52,0,0,0,340,379.77c-1.07-4.61-2.51-9-3.91-13.48-1-1.37-3.25-7-5.66-12.72-1.2-2.87-2.39-5.73-3.38-8.23s-1.93-4.83-2.44-6.2l-.25-.47c-1.2-2.94-3.5-6.59-6.1-8.51a25.75,25.75,0,0,0-4.2-2,11.14,11.14,0,0,1,.37,2.05c-.85-1.06-1.87-2.06-2.54-2.11-2.92-1.14-2.24.92-2.56,2.7.06,1-1.3,1.15-1.05,2.35a16.44,16.44,0,0,0-1.28-1.22c-.23.23.23.51.63.8s.68.63.15.84c-.31-.65-1.14-.81-1.65-1.23-.33.8,1.55,1.73.87,2.31-.34-.09-.6-2.09-1.38-1.32-.14.15.31.59.54.79a2.46,2.46,0,0,0-2.09-.4c-.47.23-.61.8-.37,1.71-.37-.34-.75-1.09-1.29-1.24h0c.22.18.49.61.69.74l-.74-.51-.09.48a1.43,1.43,0,0,0,.43.55l-.47-.32c-.05.38-.09.75-.12,1.1.15.94-.06,2.06.14,2.29a23.49,23.49,0,0,1,2.27,3.55C305.3,343.47,306.05,345.07,306.84,346.82Z" transform="translate(-5.34 -7.63)"/><path class="cls-1" d="M236.69,200.19c-.4,0-.81.26-1-.2a4,4,0,0,1,.39-2.23,4.28,4.28,0,0,0,.43-2.29l-.64-.16c.37-1.25.84-2.53,1.28-3.81q.22-3.63.54-7.13c-.25,0-.47,0-.51-.24a15,15,0,0,1,.9-3.57l0-.61a.89.89,0,0,0-.44-.35,15.37,15.37,0,0,1,.59-1.57c.18-1.69.37-3.39.69-5.07a46.1,46.1,0,0,1,1.23-5.2c1-3.68,2.64-7.86,3.58-12.61.15-2.09.07-4.13.23-6,.37-2.71,1.25-6.07,1.49-8.7-1.15.12-1.92-1.41-2.73-2.77s-1.68-2.55-2.86-2c.07-1.62.08-4.07-.58-4.18-2-.32-4.24-1.43-5.7-5.6-.39-1.64.21-4.33-.23-4.9-.7-.9-1.19,2.33-1.9,1.43.17,6.35.56,12.14.27,17.45a43.57,43.57,0,0,1-1,7.53,29.65,29.65,0,0,1-2.67,7,49.34,49.34,0,0,1-2.8,6.82c-.8,1.78-1.73,4-2.52,6.28s-1.53,4.75-2.14,7.21c-2.43,9.9-2.86,19.86-3.28,23.83v.81a33.23,33.23,0,0,0,.52,8.25,20.76,20.76,0,0,0,3.58,8.4,16.75,16.75,0,0,0,6.92,5,11.72,11.72,0,0,1-1.85-3,11.53,11.53,0,0,0,3.91,2.85l2.77,1.17,1.79-1.11a3.09,3.09,0,0,0,.93-.79,4.83,4.83,0,0,0,1.53-1.94.62.62,0,0,0-.31-.85c-.61-.29-1.84-.22-2.89-.53-.6,0-.74-.43-.92-.8a1.21,1.21,0,0,0-1.07-.78h1a.63.63,0,0,0-.08-.17l.12.08h-1.12a10.21,10.21,0,0,0,2-1.17c-.12-.22-.47,0-.89.35a2.78,2.78,0,0,1-1.22.63l1.31,0c-.1-.15-.06-.28.17-.42l0,0-1.7,0c.91-.19,1.56-1.08,2.25-1.64-.33-.18-.78.05-1.27.29a4,4,0,0,1-1.39.51l2.53,0a.38.38,0,0,1,0-.48c.06,0,.12.05.19.12l-2.88,0a10.34,10.34,0,0,0,1.37-.26c.46-.16.78-.44.54-.84-.12-.18-.77.3-1.13.48a2.71,2.71,0,0,0,1.23-2.29c-.12-.56-.7-.67-1.69-.55.43-.33,1.33-.69,1.51-1.32h0a9.2,9.2,0,0,1-.85.73,7.68,7.68,0,0,0,.63-.78l-.48-.1a2.47,2.47,0,0,0-.62.41,4.31,4.31,0,0,0,.39-.46l-1.09-.21a9.62,9.62,0,0,1-2.07-.46,3.39,3.39,0,0,1-.39.08l8.36.1c.06-.1,0,.07-.1.16s.06-.08.07-.08l.18-.2,0,0a.14.14,0,0,0,0-.1c0-.17-.16-.62-.29-1.33A29.83,29.83,0,0,1,236.69,200.19Z" transform="translate(-5.34 -7.63)"/><path class="cls-1" d="M91.11,156.11c.41,0,.83-.19,1,.22.28,1.3-1.16,2.15-.95,3.39l.64.17c-.39.91-.93,1.8-1.4,2.69-.23,1.78-.54,3.47-.84,5.18.24,0,.46.07.48.27a9.45,9.45,0,0,1-1.09,2.62c0,.16,0,.33-.07.49a1,1,0,0,0,.4.36,10.61,10.61,0,0,1-.69,1.22c-.53,2.82-1.28,5.85-2.11,9.08s-1.67,6.52-2.54,9.95a24.48,24.48,0,0,1-.64,4.53c-.72,2-2.31,4.16-3.29,5.95,2.2.76,1,5.69,3.49,5.86-.66,1.19-1.65,3-1.11,3.36,1.6,1.17,3.14,3.12,2.57,6.87-.39,1.38-2.11,2.94-2,3.56.21,1,2.06-1,2.27,0,5.36-9,9.16-18.41,13.94-27.82a39.39,39.39,0,0,1,2.11-5.61c1.13-2.65,2.73-6,4.24-9.88a69.43,69.43,0,0,0,3.5-11.81c.75-3.64,1.08-6.64,1.36-8.37v-.63a29.77,29.77,0,0,0-.67-11.26c-.58-1.38-1.29-2.74-2-4.08-.36.65-.71,1.25-1.07,1.78,0-1.4,0-2.78-.46-3.29-1.14-2.88-2.2-1.15-3.71,0-.65.84-1.75-.19-2.39,1.09,0-.9,0-1.35,0-2.26-.65-.06.47,2.76-.63,2.19.21-.88-.24-1.83-.26-2.73-.86.36-.17,3.13-1,3-.22-.47,1.07-2.57,0-2.69-.22,0-.2.87-.2,1.32-.48-2.74-1.6-4.2-2.65-1.62a16.24,16.24,0,0,0,.17-3.05h0c0,.47-.19,1.28-.18,1.71l0-1.58c-.14.09-.29.19-.43.3a4.19,4.19,0,0,0-.19,1.21l0-1.05a7.89,7.89,0,0,0-1,1C93,139,92,140.25,92,140.91,91.79,146.27,91.54,151.37,91.11,156.11Z" transform="translate(-5.34 -7.63)"/><path class="cls-1" d="M244.59,24.54c.35.21.76.29.82.56,0,.75-1.42.53-1.41,1.28l.55.37c-.49.29-1.07.56-1.6.87a24.23,24.23,0,0,0-1,2.77c.22.09.41.19.44.32,0,.44-.53.81-.87,1.28l0,.27a1.61,1.61,0,0,0,.4.34,3.22,3.22,0,0,1-.49.54c-.3,3.1-.42,6.36-.68,9.81a7.9,7.9,0,0,1,.31,2.43c-.25.95-1.22,1.78-1.74,2.54,2.07,1,1.93,3.53,4.18,4.3-.35.51-.87,1.27-.33,1.64,1.63,1.09,3.35,2.62,3.56,4.62-.07.69-1.28,1.13-1,1.53.36.62,1.6,0,2,.58,3-3.76,4.5-8.14,6.89-12.27-.08-1.92,5-11.64,6.76-13.86l.11-.24a7.63,7.63,0,0,0,1.53-4.53c-.18-.79-.45-1.64-.7-2.48-.47.05-.93.09-1.37.1.35-.51.7-1,.45-1.43-.2-1.62-1.57-1.56-3.18-1.9-.78,0-1.45-1-2.34-.83l.58-.85c-.54-.36-.34,1.26-1.12.48.41-.21.28-.8.51-1.13-.83-.32-1,1.06-1.71.57-.07-.29,1.6-.4.69-1-.18-.12-.41.21-.53.38.34-1.26-.21-2.37-1.82-2,.23-.33.91-.6,1-1h0c-.14.16-.52.37-.63.53l.41-.6-.45-.11a1.17,1.17,0,0,0-.5.34l.27-.39a8.29,8.29,0,0,0-1.08-.16c-.89.15-2.06.11-2.23.36A42.29,42.29,0,0,0,244.59,24.54Z" transform="translate(-5.34 -7.63)"/><path class="cls-1" d="M248.75,78.77c.4,0,.8-.21,1,.1.42,1-.94,1.81-.54,2.79l.65.07c-.27.77-.62,1.57-.93,2.38.09,1.5.25,3,.43,4.49.24,0,.46,0,.55.1a8.16,8.16,0,0,1-.17,2.37l.1.39a1.12,1.12,0,0,0,.51.16,7.93,7.93,0,0,1-.19,1.09c1.15,4.41,2.42,9,3.51,14a13.94,13.94,0,0,1,1.2,3.19c.11,1.51-.52,3.35-.74,4.78,2.32,0,3,3.7,5.41,3.28-.15,1-.43,2.43.21,2.59a6.1,6.1,0,0,1,4.84,4.35c.12,1.07-.93,2.54-.59,3,.53.67,1.56-1.13,2.09-.46,1.88-7.65,1.87-15.26,2.44-23.1-.41-1.38-.43-6.57-.48-12s-.09-11.07.1-13.39l0-.42a18.41,18.41,0,0,0-1.19-7.68c-.6-1-1.31-1.9-2-2.85a13.43,13.43,0,0,1-1.07,1.31c0-1,0-2-.45-2.35-1.13-2-2.19-.77-3.71.13-.64.62-1.74-.09-2.39.85,0-.65,0-1,0-1.62-.66,0,.47,2-.63,1.59.21-.64-.24-1.31-.25-2-.87.28-.18,2.25-1.06,2.2-.22-.33,1.06-1.88,0-1.93-.22,0-.21.63-.2.95-.47-1.95-1.58-2.95-2.64-1.08,0-.62.39-1.53.19-2.18h0c0,.33-.2.91-.2,1.21l0-1.12-.44.23a2.28,2.28,0,0,0-.19.87l0-.75a9.64,9.64,0,0,0-1,.71c-.63.93-1.6,1.83-1.6,2.3C248.93,71.16,248.74,75,248.75,78.77Z" transform="translate(-5.34 -7.63)"/><path class="cls-1" d="M248,452c.4.07.85-.21,1,.33.15,1.7-1.34,2.86-1.16,4.57l.63.2c-.43,1.25-1,2.54-1.4,3.87-.17,2.53-.3,5.05-.28,7.57.24,0,.46-.06.53.2a24.13,24.13,0,0,1-.47,4c0,.23,0,.45.07.67a.86.86,0,0,0,.49.28c-.07.67-.17,1.26-.28,1.81.76,7.4,1.94,14.86,3.34,22.85a31.69,31.69,0,0,1,1.46,5,69.73,69.73,0,0,1-.16,7.8c2.3-.4,3.6,5.22,5.89,4,0,1.53,0,3.84.69,3.93,2,.27,4.25,1.34,5.67,5.27.38,1.55-.29,4,.14,4.54.68.82,1.24-2.13,1.93-1.3-.07-5.81-.32-11.49-.6-17.19s-.44-11.42-.27-17.26c-.47-2-.61-9.74-.16-17.83a173.62,173.62,0,0,1,2.08-19.89l.06-.63c.33-1.86.59-3.93.75-5.94a29.51,29.51,0,0,0,0-5.63c-.28-1.53-.68-3.12-1.05-4.7a21.23,21.23,0,0,1-1.44,1.67c.31-1.49.62-3,.31-3.64-.36-3.37-1.83-1.78-3.62-.82-.84.77-1.66-.63-2.59.65.2-1,.33-1.51.55-2.53-.62-.23-.26,3.19-1.17,2.3a16.76,16.76,0,0,0,.46-3.12c-.94.19-1,3.47-1.81,3.16-.12-.59,1.7-2.65.67-3.05-.21-.08-.44.94-.55,1.44.27-3.2-.41-5.14-2.13-2.48a22.71,22.71,0,0,0,1-3.41h0c-.13.52-.53,1.39-.64,1.88l.41-1.8-.51.23a5.31,5.31,0,0,0-.51,1.32l.26-1.19a8.83,8.83,0,0,0-1.19.83c-1,1.29-2.23,2.48-2.41,3.25A162.11,162.11,0,0,0,248,452Z" transform="translate(-5.34 -7.63)"/><path class="cls-1" d="M260,541.36c-.09-.52-.54-1.23-.05-1.19a7.57,7.57,0,0,1,2.44,1.59,6.51,6.51,0,0,0,2.48,1.53l-.19-.85c1.38,1,2.92,2.1,4.51,3.17,2.05.85,4.06,1.65,6,2.37.11-.35.21-.69.31-1a1.65,1.65,0,0,1-.42-.85,2.75,2.75,0,0,1,.56-1.07,9.92,9.92,0,0,0,.72-.89c0-.15.07-.29.11-.44a2,2,0,0,0-.27-.69,14.07,14.07,0,0,1,.71-1.41,23.8,23.8,0,0,0,.44-4.76,19.37,19.37,0,0,0-.58-4.41,48,48,0,0,0-1.6-5.16c-.19-.48-.37-1-.55-1.44s-.44-1-.65-1.52-.46-1-.68-1.53l-.8-1.59c-1.24-2-2.57-3.73-3.3-5.18a16.78,16.78,0,0,1-1-3.4c-.23-1.18-.47-2.35-.67-3.37-2.18.84-4.22-2.73-6.3-1.44-.21-1.09-.48-2.72-1.14-2.67a6,6,0,0,1-6.09-3c-.49-1.13,0-3.08-.44-3.43-.72-.55-1.11,1.76-1.83,1.2a58.19,58.19,0,0,0,1,6.65c.23,1.09.47,2.17.74,3.25l.43,1.61.4,1.44c.12-.06.38.11.41.23a4.71,4.71,0,0,1,1.27,1.34,2.76,2.76,0,0,1,.41,1,.64.64,0,0,1,0,.24h-.1a1.57,1.57,0,0,1-.27,0,2.51,2.51,0,0,1-1.22-.89h0c-.33-.37-.48-.25-1.18.33a3.85,3.85,0,0,1-1.62,1.06c-.07.44-.11.89-.14,1.35a1.92,1.92,0,0,0-1.38-.73c-2.3-.68-2.14,1-2.49,2.76.05.94-1.31,1.17-1,2.37-.56-.51-.81-.74-1.34-1.26-.5.45,1.92,1.21.86,1.71-.4-.65-1.25-.87-1.79-1.38-.19.42.24.9.63,1.36a2.92,2.92,0,0,1,.5.63c.12.21.18.42,0,.57-.3-.13-.47-.65-.74-1.12s-.54-.82-.95-.46c-.17.15.38.66.65.92-2-1.25-3.62-1.37-2.8.95-.55-.51-1-1.57-1.7-2v0c.27.29.62.91.88,1.17l-1-1c-.05.16-.09.32-.13.49a3,3,0,0,0,.59.88l-.64-.63a7.59,7.59,0,0,0-.12,1.27c.32,1.25.46,2.7.89,3.12a21.72,21.72,0,0,0,1.61,1.6c.78.72,1.58,1.39,2.38,2.09s1.62,1.38,2.46,2,1.67,1.35,2.52,1.94A84.24,84.24,0,0,0,260,541.36Z" transform="translate(-5.34 -7.63)"/></svg>