<svg xmlns="http://www.w3.org/2000/svg" xmlns:xlink="http://www.w3.org/1999/xlink" width="1497.03" height="321.53" viewBox="0 0 1497.03 321.53"><defs><style>.cls-1{isolation:isolate;}.cls-2{fill:#fff;}.cls-3{fill:#daa520;}.cls-4{fill:#ab2d28;}.cls-5{mask:url(#mask);}.cls-6{opacity:0.75;mix-blend-mode:soft-light;}.cls-7{fill:none;stroke:#ab2d28;stroke-linecap:round;stroke-linejoin:round;}.cls-8{filter:url(#luminosity-invert);}</style><filter id="luminosity-invert" filterUnits="userSpaceOnUse" color-interpolation-filters="sRGB"><feColorMatrix values="-1 0 0 0 1 0 -1 0 0 1 0 0 -1 0 1 0 0 0 1 0"/></filter><mask id="mask" x="1321.86" y="5.42" width="175" height="305" maskUnits="userSpaceOnUse"><g class="cls-8"><image width="175" height="305" transform="translate(1321.86 5.42)" xlink:href="Logo_hvid1.png"/></g></mask></defs><title>Logo_hvid</title><g class="cls-1"><g id="Layer_1" data-name="Layer 1"><path class="cls-2" d="M217.13,172.13a297.06,297.06,0,0,0-1.24,32.68c.1,6.19.53,12.77,4.11,17.83,3.76,5.33,10.39,8,16.86,8.77,11.89,1.52,23.78-2,35.23-5.58l28-8.61c4.14-1.28,8.38-2.56,12.7-2.38s8.84,2.13,10.93,5.92c3.24,5.85-.67,13.49-6.34,17s-12.59,4.24-19.13,5.67c-21.29,4.68-40.88,17.94-62.67,17.39-2.85-.07-6-.3-8.22,1.48-1.38,1.1-2.14,2.79-3.18,4.21-3.79,5.15-12,6.2-17,2.17a19.55,19.55,0,0,1-4.73-6.41c-11-21.4-6.43-47-6.29-71,.09-14.86-1.62-29.67-3.32-44.44l-5.51-47.74a18.67,18.67,0,0,1-14.38,3.61c-3.81-12.25,10.9-24.24,8-36.73-.85-3.63-3.15-6.87-3.5-10.58s2.87-8.16,6.35-6.84c-.18-2.92,2.55-5.19,5.23-6.36,9.46-4.15,21.65-.55,27.34,8.07a11.24,11.24,0,0,0,2.81,3.44c2,1.34,4.66.85,7,.39a121.9,121.9,0,0,1,35.3-1.74c6.73.66,13.67,2,19.07,6s8.73,11.53,6.18,17.78c-8.51,7.41-20.74,8.41-32,8.23S231.64,83.31,221.36,88a182.71,182.71,0,0,0-2,53.43,201.84,201.84,0,0,1,80.89-10.54l.21,14.22a8.7,8.7,0,0,1-.65,4.24c-1.21,2.28-4.08,3-6.61,3.46l-59.12,11c-3.29.62-6.68,1.27-9.52,3.05-6.51,4.09-8.28,12.8-8.09,20.49s1.7,15.6-.67,22.92"/><path class="cls-2" d="M214.42,272.67a13,13,0,0,1-8.23-2.8,21.15,21.15,0,0,1-5.13-6.88c-8.74-17-7.84-36.71-7-55.73.24-5.28.49-10.73.52-16,.09-14.8-1.64-29.78-3.31-44.27l-5.22-45.29a20.38,20.38,0,0,1-13.43,2.47l-.91-.16-.27-.88c-2.12-6.8.95-13.38,3.92-19.74,2.75-5.91,5.35-11.48,4.05-17.09A27.8,27.8,0,0,0,177.89,62a21.92,21.92,0,0,1-2-6.48A8.87,8.87,0,0,1,179.15,48a5.52,5.52,0,0,1,3.28-1.2c.6-2.41,2.71-4.58,5.95-6,10.05-4.41,23.15-.54,29.19,8.62l.42.64a7.67,7.67,0,0,0,2,2.38c1.54,1,4,.55,5.91.16a123.15,123.15,0,0,1,35.74-1.75c6.09.59,13.85,1.85,19.82,6.34,5.57,4.19,9.65,12.26,6.67,19.55l-.14.33-.27.24c-9.07,7.89-21.79,8.76-33,8.59l-3.93-.08c-9.56-.23-19.43-.46-28.05,3.18a180.84,180.84,0,0,0-2,50.35,204.38,204.38,0,0,1,79.71-10l1.37.11L302,145a9.91,9.91,0,0,1-.83,5c-1.65,3.1-5.56,3.83-7.66,4.22l-59.11,11c-3.13.58-6.36,1.18-9,2.84-6.74,4.23-7.52,13.83-7.39,19.18.05,1.91.18,3.88.31,5.79.37,5.44.75,11.06-.71,16.45.32,4.43,1.18,8.75,3.65,12.25,4.15,5.86,11.7,7.62,15.83,8.14,11.78,1.51,23.91-2.23,34.6-5.52l28-8.61c4-1.24,8.58-2.63,13.21-2.45,5.35.23,10,2.79,12.18,6.7,2.91,5.27,1.12,14.05-6.87,19-4.73,2.95-10.21,4-15.52,5-1.36.26-2.73.53-4.07.82-8.12,1.79-16.17,4.91-23.94,7.92-12.5,4.84-25.43,9.84-39.1,9.51l-.58,0c-2.47-.07-5-.14-6.67,1.17a10,10,0,0,0-1.92,2.45c-.31.5-.64,1-1,1.48a13.32,13.32,0,0,1-9.08,5.13A16.22,16.22,0,0,1,214.42,272.67ZM188.47,96.26l5.81,50.39c1.68,14.57,3.42,29.64,3.33,44.62,0,5.33-.28,10.82-.52,16.12-.85,18.63-1.73,37.9,6.64,54.23a18.1,18.1,0,0,0,4.35,5.93,10.83,10.83,0,0,0,14.85-1.9c.31-.42.59-.86.87-1.31a12.07,12.07,0,0,1,2.58-3.18c2.5-2,5.75-1.91,8.63-1.83l.57,0c13.06.36,25.15-4.35,37.93-9.31,7.89-3,16-6.21,24.38-8,1.37-.31,2.76-.58,4.15-.85,5.27-1,10.24-2,14.5-4.63,5.08-3.16,8.63-10,5.83-15-2-3.58-6.3-5-9.68-5.15-4.11-.19-8.23,1.09-12.2,2.31l-27.95,8.61c-11,3.39-23.45,7.22-35.87,5.64-8-1-14.33-4.35-17.9-9.39-2.83-4-3.81-8.89-4.17-13.65l-.23-.07.18-.59c-.1-1.48-.14-2.95-.16-4.37A297.69,297.69,0,0,1,215.64,172l2.22.21a16.38,16.38,0,0,1,5.91-6.63c3.12-2,6.79-2.65,10-3.25l59.11-11c2.22-.41,4.67-1,5.57-2.68a7.68,7.68,0,0,0,.47-3.52V145l-.19-12.73a201.09,201.09,0,0,0-78.92,10.56l-1.78.61-.2-1.87a184,184,0,0,1,2-53.87l.15-.77.71-.32c9.41-4.24,19.91-4,30.07-3.76l3.91.08c10.57.17,22.43-.61,30.73-7.62,2.12-5.75-1.37-12.34-5.82-15.69-5.37-4.05-12.61-5.2-18.31-5.75a120,120,0,0,0-34.87,1.71c-2.36.46-5.59,1.1-8.16-.61a10.24,10.24,0,0,1-2.83-3.27l-.39-.6c-5.28-8-16.71-11.37-25.49-7.52-2.18,1-4.47,2.75-4.33,4.89l.15,2.32-2.18-.82a2.24,2.24,0,0,0-2.25.45,5.86,5.86,0,0,0-2.08,4.85,19.5,19.5,0,0,0,1.76,5.6,29.41,29.41,0,0,1,1.71,4.78c1.54,6.62-1.41,12.93-4.26,19-2.7,5.79-5.25,11.27-4,16.68a17.29,17.29,0,0,0,12.28-3.45Z"/><path class="cls-2" d="M644,285.73a9.67,9.67,0,0,1-4-.77c-3.27-1.71-3.43-6.25-3.19-9.94,1.09-16.29,1.23-32.69-.67-48.9-1.75-15-5.24-29.85-4.18-44.86l-25.49,5.25c1.72-4.87-4.89-8.82-5.57-13.95-.53-4,2.9-7.67,6.72-9.06s8-1.19,12.06-1.53c1.64-.13,3.4-.42,4.55-1.6,1.92-2,1.21-5.16.36-7.76-3.89-11.87-8.16-23.62-11.69-35.6a297.32,297.32,0,0,1-10.46-53c-.57-5.46-1-11.06.34-16.39S607.4,37.16,612.46,35c1.65-.7,3.46-1.08,4.95-2.06,1.17-.76,2.08-1.85,3.17-2.71,4.47-3.54,11.53-2.52,15.58,1.49S641.48,42,640.4,47.63c-.82,4.22-2.81,8.19-3.19,12.47-.31,3.45.46,6.89,1.23,10.26q5.53,24.11,12.1,48c1.84,6.68,3.75,13.59,2.73,20.44-.93,6.26-3.64,14.16,1.55,17.76a12.24,12.24,0,0,0,5.26,1.67,187.48,187.48,0,0,0,52.42.53c4-29.81-5.6-59.6-8.06-89.58-1-11.93-.61-24.68,5.78-34.81.94,2.81,3.89,4.31,6.13,6.26,11.09,9.71,3.65,29.12,11.31,41.72.67,1.11,1.49,2.38,1,3.6s-2.9.91-2.47-.31c10.68,16.38-1.51,40.58,9.27,56.9-.77-1.59-3.07.37-3.33,2.11-1.47,9.74,6.22,19.63,3.19,29-1.05,3.25-3.3,6-4.35,9.25s-.84,6.56-.64,9.87l5.78,97.42c.18,2.93,1,6.62,3.85,7.18a3.07,3.07,0,0,1,2.89-3.61c4.1,6.43,1.85,16-4.68,20,1.25,2.48-1,5.66-3.69,6.19s-5.5-.9-7.56-2.76c-5.83-5.28-7.52-13.62-8.89-21.37l-5.62-31.71a130.41,130.41,0,0,1-2.31-17.68,158,158,0,0,1,.83-18.06,379.6,379.6,0,0,0,.65-47.22l-55.76-.36a111,111,0,0,1-.32,24.31q.51,20.24-.24,40.46c-.29,7.63.47,17.2,7.57,20C654.39,273.13,658.34,286.39,644,285.73Z"/><path class="cls-2" d="M733.31,321.53c-3.23,0-5.94-2-7.37-3.26-6.46-5.85-8.14-15.31-9.36-22.22L711,264.34a132.94,132.94,0,0,1-2.32-17.89,130.18,130.18,0,0,1,.62-15.6l.21-2.63a379.24,379.24,0,0,0,.71-45.61l-52.69-.34a112.89,112.89,0,0,1-.46,22.88c.34,13.42.26,27-.24,40.44-.4,10.57,1.77,16.63,6.62,18.55l2.26.89-1.81,1.62c-3,2.66-4.29,6.14-5.58,9.5-2.17,5.67-4.42,11.54-14.38,11.08h0a11.07,11.07,0,0,1-4.62-.94c-4.11-2.14-4.25-7.51-4-11.37,1.24-18.71,1-34.16-.67-48.63-.48-4.11-1.11-8.3-1.71-12.35-1.51-10.06-3.06-20.45-2.59-30.82l-26.18,5.4L605,186c.73-2.06-.7-4.11-2.35-6.48-1.45-2.08-2.95-4.22-3.29-6.78-.65-4.93,3.38-9.09,7.7-10.67a31.54,31.54,0,0,1,9.38-1.42c1-.06,2-.11,3.06-.19a5.88,5.88,0,0,0,3.61-1.16c1-1.07,1-3,0-6.24-1.33-4-2.72-8.14-4.07-12.1-2.6-7.68-5.3-15.62-7.64-23.55a300.08,300.08,0,0,1-10.52-53.28c-.57-5.48-1-11.3.38-16.91,1.58-6.38,5.54-11.47,10.59-13.6.6-.25,1.22-.46,1.83-.68a12.63,12.63,0,0,0,2.88-1.24,12.55,12.55,0,0,0,1.68-1.42c.43-.4.88-.82,1.38-1.22,4.88-3.86,12.76-3.15,17.57,1.6,4.13,4.09,5.92,10.69,4.65,17.23a47.44,47.44,0,0,1-1.5,5.45,31.39,31.39,0,0,0-1.67,6.87c-.29,3.3.5,6.75,1.2,9.79,3.67,16,7.74,32.09,12.09,47.9l0,.11c1.87,6.8,3.8,13.82,2.74,20.95-.17,1.11-.39,2.28-.6,3.41-1,5.15-2,10.47,1.51,12.9a11,11,0,0,0,4.63,1.42,185.53,185.53,0,0,0,50.86.67c2.33-18.93-.86-38.28-3.95-57-1.67-10.17-3.41-20.7-4.26-31.1-.89-10.81-1-24.64,6-35.74l1.68-2.67,1,3c.55,1.64,2.11,2.83,3.77,4.08.64.49,1.3,1,1.92,1.53,6.6,5.78,7.11,14.64,7.6,23.22.38,6.65.77,13.53,4,18.85l.06.11c.76,1.24,1.8,2.94,1.1,4.8a2.58,2.58,0,0,1-1,1.23c3.87,8,3.53,17.33,3.21,26.39-.37,10-.71,19.56,4.2,27.27a3,3,0,0,1,.32.52l-2.55,1.45a.58.58,0,0,0,.42.11,2.23,2.23,0,0,0-1.07,1.43c-.63,4.19.57,8.43,1.84,12.92,1.51,5.34,3.07,10.85,1.3,16.32a28.08,28.08,0,0,1-2.29,4.89,25.66,25.66,0,0,0-2.06,4.36c-.95,2.93-.76,6.18-.57,9.33l5.78,97.41a10.28,10.28,0,0,0,1.23,4.79,4.67,4.67,0,0,1,.57-.92,4.48,4.48,0,0,1,3.46-1.71l.81,0,.43.68A15.83,15.83,0,0,1,746,305a16,16,0,0,1-6,9.34,5.44,5.44,0,0,1-.52,3.41,6.78,6.78,0,0,1-4.67,3.64A7.56,7.56,0,0,1,733.31,321.53ZM654.19,179.25l58.85.38.07,1.42a384.45,384.45,0,0,1-.65,47.4l-.21,2.64a131.38,131.38,0,0,0-.62,15.25,131,131,0,0,0,2.29,17.48l5.61,31.71c1.43,8.09,3.16,15.75,8.43,20.51,1,.9,3.57,2.93,6.26,2.4a3.8,3.8,0,0,0,2.55-2,2.32,2.32,0,0,0,.09-2l-.62-1.24,1.19-.72a12.83,12.83,0,0,0,5.64-8.12,13.11,13.11,0,0,0-.93-8.85,2,2,0,0,0-.36.35,1.41,1.41,0,0,0-.33,1.17l.55,2.27-2.29-.45c-2.1-.4-4.69-2.22-5.07-8.56l-5.78-97.42c-.19-3.26-.41-7,.71-10.42a28.83,28.83,0,0,1,2.29-4.89,25.06,25.06,0,0,0,2.07-4.37c1.48-4.6.11-9.44-1.34-14.57-1.3-4.6-2.64-9.36-1.92-14.19a5.3,5.3,0,0,1,2.2-3.38c-4.23-8.12-3.89-17.74-3.55-27.06.34-9.58.67-18.66-3.54-26.18a2.19,2.19,0,0,1-1-2.67l1-2.87.5.77c-3.57-5.94-4-13.16-4.39-20.15-.47-8.32-.92-16.19-6.57-21.13-.54-.47-1.14-.92-1.76-1.4a19.39,19.39,0,0,1-3.38-3c-5.24,10-5.07,22.07-4.28,31.7.84,10.29,2.57,20.75,4.23,30.86,3.19,19.32,6.48,39.3,3.82,59l-.16,1.14-1.14.15a188.58,188.58,0,0,1-52.84-.54,13.48,13.48,0,0,1-5.88-1.91c-5.11-3.54-3.86-10.12-2.76-15.93.22-1.15.42-2.24.58-3.29,1-6.5-.88-13.22-2.67-19.71l0-.11c-4.36-15.85-8.43-32-12.11-48-.75-3.26-1.6-6.95-1.27-10.72a35.22,35.22,0,0,1,1.8-7.53,44.91,44.91,0,0,0,1.42-5.1c1.07-5.57-.39-11.13-3.82-14.53-3.7-3.65-9.92-4.28-13.6-1.38-.4.32-.78.68-1.19,1.06a15,15,0,0,1-2.08,1.74,15.85,15.85,0,0,1-3.55,1.57c-.55.19-1.11.38-1.64.61-4.19,1.76-7.49,6.08-8.84,11.55-1.28,5.14-.85,10.66-.31,15.87a297.08,297.08,0,0,0,10.41,52.76c2.32,7.87,5,15.78,7.61,23.43,1.34,4,2.74,8.07,4.07,12.13.57,1.75,2.1,6.41-.72,9.27-1.49,1.52-3.62,1.89-5.5,2.05-1,.09-2.1.14-3.16.19a28.82,28.82,0,0,0-8.5,1.25c-3.12,1.14-6.19,4.13-5.75,7.45.24,1.84,1.52,3.68,2.77,5.46,1.42,2,3,4.28,3.09,6.8l25.34-5.23-.14,2c-.75,10.69.88,21.59,2.45,32.13.61,4.07,1.24,8.28,1.73,12.44,1.72,14.66,1.94,30.28.68,49.18-.32,4.79.44,7.5,2.38,8.51a8.49,8.49,0,0,0,3.38.6c7.82.36,9.33-3.63,11.44-9.15a29.16,29.16,0,0,1,4.89-9.15c-7.17-4.63-6.73-16.38-6.58-20.46.5-13.38.58-27,.24-40.36v-.22a109.34,109.34,0,0,0,.31-24Z"/><path class="cls-2" d="M808.17,248.09c-.51-3.51-1.9-6.9-1.81-10.44.07-3,1.19-5.82,2.06-8.68,3.29-10.93,2.84-22.59,2.36-34l-.92-22-1.22-29-1.29-30.67c-.31-7.42-.65-15-3.25-21.93-3.74-10-11.75-17.71-19.51-25.06a8.21,8.21,0,0,0-3-2.08c-1.92-.61-4,.23-5.78,1.06L756.66,74q5.18,24.42,9.42,49c2.37,13.79,4.53,27.61,6.69,41.43,4,25.53,7.08,51.28,10.93,76.74,1,6.63,1.09,16.92,7.29,21.37C802.09,270.53,809.87,259.81,808.17,248.09Z"/><path class="cls-2" d="M798.31,266.81a14.07,14.07,0,0,1-8.19-3c-5.72-4.1-6.69-12.3-7.46-18.89-.15-1.23-.28-2.4-.45-3.48-1.77-11.77-3.42-23.8-5-35.43-1.86-13.56-3.78-27.57-5.92-41.3l0-.2C769.14,151,767,137,764.6,123.29c-2.82-16.32-6-32.8-9.41-49l-.25-1.18,20.26-9.2c1.7-.78,4.29-2,6.85-1.13a9.54,9.54,0,0,1,3.57,2.42c7.47,7.07,16,15.09,19.89,25.63,2.71,7.23,3,14.94,3.34,22.38l3.43,81.69c.48,11.4,1,23.19-2.43,34.48-.17.57-.35,1.14-.53,1.71a17.49,17.49,0,0,0-.51,12.71c.32,1.31.64,2.67.85,4.05,1.09,7.54-1.43,14.59-6.28,17.54A9.76,9.76,0,0,1,798.31,266.81ZM758.37,74.87c3.34,15.83,6.43,31.95,9.18,47.91,2.37,13.73,4.56,27.72,6.67,41.25l0,.2c2.14,13.75,4.06,27.78,5.92,41.35,1.59,11.63,3.24,23.65,5,35.4.17,1.1.31,2.31.46,3.57.71,6,1.58,13.47,6.23,16.8,3.72,2.67,7.16,3.19,10,1.49,3.78-2.29,5.78-8.27,4.87-14.54h0c-.18-1.24-.48-2.47-.8-3.78a20.34,20.34,0,0,1,.57-14.33c.18-.55.35-1.1.52-1.65,3.26-10.81,2.77-22.34,2.3-33.5l-3.42-81.68c-.31-7.21-.62-14.67-3.16-21.46C799,82,790.8,74.25,783.56,67.4a7,7,0,0,0-2.42-1.74c-1.35-.44-3,.22-4.7,1Z"/><path class="cls-2" d="M769.73,25.59a5.52,5.52,0,0,1-.05-2.68L771.5,10.4a3.09,3.09,0,0,1,4.75.62c.67-3.12,4.16-4.61,7.19-5.62l11.3-3.74a72.27,72.27,0,0,1,17.42,17.08,34.78,34.78,0,0,1,4.77,21.34c-.17,1.63-.53,3.38-1.78,4.43a6.19,6.19,0,0,1-2.6,1.12c-8.15,1.93-20.31,1.94-26.68-4-2.39-2.23-3.54-6-6-8.37S770.94,28.85,769.73,25.59Z"/><path class="cls-2" d="M802.58,48.28c-6.74,0-13.47-1.57-17.73-5.52a19.31,19.31,0,0,1-3.29-4.53,18.62,18.62,0,0,0-2.72-3.87A20,20,0,0,0,775,31.82c-2.8-1.58-5.71-3.21-6.63-5.71a6.84,6.84,0,0,1-.14-3.42l1.9-13,.32-.34a4.41,4.41,0,0,1,3.81-1.28,5,5,0,0,1,1.48.44c1.82-2.75,5.51-4,7.27-4.56l12-4,.62.43a73.44,73.44,0,0,1,17.78,17.44l.07.1a36.18,36.18,0,0,1,5,22.26c-.18,1.78-.61,4-2.31,5.43a7.64,7.64,0,0,1-3.21,1.43A45.31,45.31,0,0,1,802.58,48.28ZM772.9,11.21l-1.74,11.91a4.43,4.43,0,0,0,0,1.95h0c.55,1.47,3.07,2.89,5.3,4.14a21.68,21.68,0,0,1,4.51,3,21.34,21.34,0,0,1,3.2,4.48,17.32,17.32,0,0,0,2.74,3.85c5.66,5.25,17.09,5.55,25.32,3.61a4.74,4.74,0,0,0,2-.81c.88-.73,1.13-2.22,1.26-3.43a33.3,33.3,0,0,0-4.53-20.36A70.7,70.7,0,0,0,794.5,3.32L783.92,6.83c-2.79.92-5.7,2.18-6.2,4.5l-.86,4-1.93-3.58a1.45,1.45,0,0,0-1.1-.66A1.67,1.67,0,0,0,772.9,11.21Z"/><path class="cls-2" d="M1009.74,147.09c-.21,10.4-3,20.61-3.22,31-.3,15.49,5.09,31.52,0,46.13-1.47,4.19-3.79,8.18-4.12,12.6-.66,9,7,16.44,15,20.64a61.39,61.39,0,0,0,27.81,7c9.66.1,19.18-2.09,28.77-3.27,13.08-1.61,26.73-1.44,38.76-6.82s22-18.78,17.89-31.32c-5.47-3.78-12.87-3.61-19.2-1.58s-12,5.72-18,8.68a86.5,86.5,0,0,1-55,7.3c-2.5-.5-5.29-1.36-6.37-3.67-.75-1.62-.42-3.51-.08-5.27l5.34-27.4-6.25-1c-1.39-23.27-.43-46.62-.88-69.93-.24-12.5,5-69.75-22.18-61.05C988,75.5,1010.05,132.17,1009.74,147.09Z"/><path class="cls-2" d="M1045.8,266h-.63a63,63,0,0,1-28.48-7.17c-3.94-2.07-16.73-9.78-15.82-22.08a29.87,29.87,0,0,1,2.75-9.33c.5-1.2,1-2.44,1.45-3.66,3.21-9.14,2.16-18.78,1-29a132.49,132.49,0,0,1-1.1-16.68,127,127,0,0,1,1.63-15.71,124,124,0,0,0,1.59-15.29h0c.09-4.21-1.74-12.14-3.85-21.33-5.45-23.67-12.23-53.12,3.2-58.06,5.3-1.69,9.85-1.16,13.52,1.59,11.83,8.86,11.1,38.47,10.71,54.38-.06,2.66-.12,5-.09,6.48.17,8.74.14,17.62.11,26.21,0,13.93-.1,28.33.7,42.46l6.59,1.09-5.64,28.92c-.33,1.7-.56,3.2,0,4.35.81,1.73,3.26,2.42,5.3,2.83a84.74,84.74,0,0,0,54-7.17c1.79-.89,3.59-1.87,5.33-2.82a77.21,77.21,0,0,1,12.83-5.94c7.78-2.51,15.26-1.86,20.52,1.77l.41.29.16.48c2,6.22.94,13.18-3,19.6a36.33,36.33,0,0,1-15.65,13.55c-9.33,4.17-19.64,5.09-29.6,6-3.16.29-6.43.58-9.6,1-2.91.36-5.89.82-8.76,1.27A128.27,128.27,0,0,1,1045.8,266Zm-34.56-118.85a128.17,128.17,0,0,1-1.62,15.66,123.08,123.08,0,0,0-1.6,15.34,129.29,129.29,0,0,0,1.08,16.29c1.1,10.09,2.23,20.52-1.2,30.31-.46,1.29-1,2.58-1.51,3.81-1.19,2.86-2.32,5.55-2.53,8.4-.61,8.33,6.94,15.38,14.22,19.2A59.76,59.76,0,0,0,1045.2,263c6.59.08,13.26-1,19.72-2,2.9-.45,5.89-.92,8.86-1.28,3.21-.4,6.5-.69,9.69-1,9.72-.87,19.77-1.76,28.64-5.73,11-4.93,20.64-17.35,17.23-29-4.46-2.85-10.79-3.26-17.47-1.11a74.45,74.45,0,0,0-12.32,5.73c-1.77,1-3.59,2-5.43,2.86a87.71,87.71,0,0,1-55.95,7.43c-2.74-.55-6.05-1.55-7.43-4.5-1-2.13-.53-4.48-.19-6.2l5-25.88-5.9-1-.08-1.19c-.87-14.62-.82-29.48-.77-43.85,0-8.57.06-17.44-.11-26.14,0-1.59,0-3.81.09-6.61.35-14.27,1.08-44-9.51-51.9-2.89-2.17-6.42-2.54-10.8-1.14-12.81,4.09-6.1,33.24-1.2,54.53,2.16,9.38,4,17.48,3.93,22.06Z"/><path class="cls-2" d="M1108.26,160.17c.46,13.46,3.66,26.69,7.86,39.48,5.57,17,13.2,33.82,25.9,46.41s31.27,20.35,48.73,16.46c13-2.9,23.88-11.69,34.18-20.22,14.4-11.92,29.33-24.52,36.6-41.75-9,.7-16.73,6.76-23,13.32s-11.81,14-19.46,18.84c-9.78,6.21-21.81,7.5-33.38,8-3.8.16-7.69.25-11.29-1-7-2.38-11.56-9.17-14.76-15.87a98.5,98.5,0,0,1-3.24-76.19c2.95-7.82,6.9-15.25,9.34-23.24,3.53-11.51,3.5-26.5-7.8-33.79-7.88-5.08-23.52-5-32.63-6.09-2.13-.27-4.59-.75-5.59-2.66-1.56-3,1.92-6.18,5.08-7.42,12.7-5,27-2,40.28,1.14,6.38,1.48,13,3.06,18.19,7,4.17,3.15,7.17,7.58,10.9,11.25,6.86,6.72,16,10.66,23.37,16.76,13.25,10.92,20,27.81,24.18,44.47,2.48,10,4.18,20.52,1.32,30.37-2,6.9-6.16,13.07-7.82,20.07-2,8.37-1.14,18.94-8.42,23.52s-17-.62-25,2.24c6.91-7.94,13.93-16,18.14-25.69,6.75-15.51,5.45-33.62-.26-49.54s-15.47-30-25.61-43.57c-5.33-7.13-11.13-14.43-19.28-18a53.77,53.77,0,0,0-10.69-3c-22.17-4.67-36.27-6.36-46.78,17C1110.21,124.37,1108.26,142.87,1108.26,160.17Z"/><path class="cls-2" d="M1181.51,265c-14.11,0-29-6.42-40.55-17.9-11-10.88-19.33-25.82-26.27-47-5-15.25-7.52-27.93-7.93-39.9v-.05c0-21.38,3-38.51,9.26-52.35s13.93-19.35,23.79-20.45c-2.51-.27-5-.46-7.34-.65-2.65-.21-5.16-.41-7.32-.67-1.72-.22-5.28-.66-6.74-3.45a4.87,4.87,0,0,1-.21-4.06c1-2.66,3.89-4.6,6.07-5.45,13.6-5.34,28.88-1.79,41.17,1.07,6.18,1.44,13.18,3.07,18.75,7.27a47.88,47.88,0,0,1,7.1,7.06c1.27,1.46,2.58,3,4,4.31,3.76,3.69,8.36,6.61,12.82,9.44a102,102,0,0,1,10.44,7.24c11.52,9.48,19.37,23.86,24.69,45.25,2.36,9.5,4.36,20.62,1.3,31.16a69.91,69.91,0,0,1-3.79,9.5,57.7,57.7,0,0,0-4,10.5c-.5,2.11-.83,4.44-1.15,6.69-.12.92-.25,1.83-.39,2.74.76-.83,1.53-1.67,2.31-2.48,8.26-8.67,16.09-13.18,23.94-13.78l2.46-.19-1,2.26c-7.58,18-23.22,30.9-37,42.33-9.9,8.19-21.12,17.48-34.81,20.52A43.48,43.48,0,0,1,1181.51,265Zm-71.75-104.88c.4,11.68,2.88,24.08,7.78,39.05,6.79,20.71,14.9,35.26,25.53,45.8,13.52,13.4,31.66,19.56,47.35,16.07,13-2.89,23.91-11.94,33.55-19.91,12.89-10.68,27.43-22.7,35.08-38.75-6.29,1.25-12.52,5.28-19.41,12.51-1.54,1.62-3.08,3.33-4.56,5l-1.13,1.26c-1.09,3.72-2.88,7-6.33,9.18a13.66,13.66,0,0,1-5.21,1.91c-.82.61-1.65,1.19-2.52,1.74-10,6.37-22.33,7.72-34.11,8.23-4.09.18-8.06.23-11.84-1.05-6.17-2.08-11.28-7.53-15.64-16.65a100.65,100.65,0,0,1-3.28-77.36c1.19-3.17,2.57-6.32,3.9-9.36a131,131,0,0,0,5.41-13.79c3.39-11.08,3.29-25.34-7.19-32.09a8.91,8.91,0,0,0-.8-.48c-17.61-3.19-28.73-2-37.58,17.62C1112.7,122.49,1109.76,139.21,1109.76,160.14Zm53-67.45c7.88,8.31,7.67,21.6,4.43,32.19a134.57,134.57,0,0,1-5.53,14.11c-1.32,3-2.68,6.12-3.85,9.22a97.61,97.61,0,0,0,3.19,75c4,8.35,8.53,13.29,13.89,15.1,3.29,1.11,7,1.06,10.75.89,10.71-.46,21.82-1.62,31-6.77-1.1-.06-2.2-.15-3.29-.25-3.92-.34-7.63-.67-10.94.52l-5.42,1.94,3.78-4.34c6.76-7.76,13.74-15.77,17.89-25.3,6-13.86,5.94-31.06-.29-48.43-5.86-16.36-16.18-30.87-25.4-43.18-5.47-7.32-11-14.17-18.68-17.54a53,53,0,0,0-10.4-2.94ZM1208,228.88c1.86,0,3.73.16,5.58.32a38.74,38.74,0,0,0,7.64.18,79.93,79.93,0,0,0,10-9.71,65.18,65.18,0,0,0,1.33-7.5c.33-2.33.66-4.73,1.2-7a60.14,60.14,0,0,1,4.2-11.05,67.06,67.06,0,0,0,3.64-9.09c2.86-9.85.93-20.49-1.33-29.59-5.16-20.74-12.69-34.61-23.69-43.67a99.93,99.93,0,0,0-10.14-7c-4.58-2.91-9.33-5.92-13.32-9.83-1.45-1.43-2.8-3-4.11-4.47a44.94,44.94,0,0,0-6.65-6.65c-5.06-3.82-11.73-5.37-17.62-6.74-11.88-2.76-26.66-6.2-39.4-1.2-2,.8-3.83,2.33-4.35,3.71a1.87,1.87,0,0,0,.07,1.62c.63,1.23,2.51,1.62,4.44,1.86,2.09.26,4.57.45,7.19.66,8.17.65,18.21,1.44,24.69,4.86,2.27.4,4.63.88,7.08,1.4a55,55,0,0,1,11,3.13c8.32,3.66,14.15,10.83,19.88,18.48,9.34,12.49,19.81,27.21,25.82,44,6.48,18.09,6.56,36.07.21,50.64-3.73,8.56-9.54,15.83-15.49,22.75C1206.59,228.9,1207.29,228.88,1208,228.88Z"/><path class="cls-2" d="M849.26,50q.86,45.48,1.7,91c.15,7.92.29,15.88-1,23.7-1.31,8.13-4.12,16.08-4.17,24.31-.05,10.87,4.75,21.49,3.6,32.3-.36,3.35-1.29,6.67-1.14,10,.33,7.69,6.16,14,12.47,18.45,23.91,16.75,56.75,14.74,84,4.2,5.28-2,10.49-4.38,16-5.51,6.78-1.38,14.13-1,20.15-4.39s9.09-13.12,3.36-17c-2.28-1.55-5.22-1.65-8-1.64-9.81.07-20.22,1.29-27.93,7.35-3,2.34-5.44,5.32-8.55,7.48a27,27,0,0,1-12.63,4.27c-15.48,1.6-30.28-5.89-44-13.18-2.76-1.46-5.57-3-7.66-5.28-3.73-4.12-4.55-10-5-15.59-.55-6.63-.86-13.28-1.17-19.93-1.8-39.2-3.58-78.76,3.12-117.42,1.51-8.73,4.93-23.31-3.49-29.71C861.67,37.88,849.06,39.61,849.26,50Z"/><path class="cls-2" d="M903.55,263.61c-16.56,0-31.7-4.23-43.65-12.6-5.77-4-12.72-10.72-13.11-19.61a32.41,32.41,0,0,1,.65-6.87c.18-1.12.38-2.28.5-3.4.6-5.72-.51-11.34-1.69-17.28A75.86,75.86,0,0,1,844.33,189c0-5.5,1.26-10.87,2.44-16.07.64-2.78,1.29-5.65,1.75-8.48,1.24-7.71,1.09-15.7.94-23.43l-1.7-91a10.21,10.21,0,0,1,5.64-9.82c4.81-2.44,11.73-1.6,16.45,2,8.51,6.48,6,20.09,4.43,29.1-.13.72-.26,1.41-.37,2.06-6.7,38.68-4.87,78.54-3.1,117.1.3,6.53.61,13.28,1.17,19.88.43,5.11,1.18,10.89,4.63,14.71,1.94,2.14,4.64,3.57,7.25,5,15.09,8,28.76,14.52,43.17,13A25.24,25.24,0,0,0,939,239a38.24,38.24,0,0,0,4.65-4c1.22-1.15,2.47-2.35,3.83-3.42,8.51-6.68,19.88-7.61,28.85-7.67,3,0,6.2.11,8.84,1.9a8.65,8.65,0,0,1,3.68,7.84,14.82,14.82,0,0,1-7.15,11.72c-4.37,2.47-9.33,3.05-14.14,3.61-2.14.25-4.36.51-6.45.94a75.45,75.45,0,0,0-12.68,4.22l-3.11,1.22A116.32,116.32,0,0,1,903.55,263.61ZM850.76,50l1.7,91c.15,7.86.3,16-1,24-.47,2.92-1.14,5.84-1.78,8.66-1.2,5.28-2.34,10.26-2.37,15.42a72.77,72.77,0,0,0,1.87,14.26c1.17,5.91,2.38,12,1.72,18.19-.13,1.21-.33,2.41-.53,3.58a30,30,0,0,0-.61,6.23c.34,7.68,6.63,13.64,11.84,17.29,20.72,14.52,51.59,16,82.57,4,1-.39,2-.8,3.08-1.21A77.26,77.26,0,0,1,960.46,247c2.22-.45,4.5-.72,6.71-1,4.71-.55,9.16-1.07,13-3.24a11.87,11.87,0,0,0,5.63-9.24,5.75,5.75,0,0,0-2.38-5.22c-1.92-1.31-4.58-1.41-7.13-1.39-8.49.06-19.23.91-27,7-1.26,1-2.4,2.08-3.62,3.23a40.9,40.9,0,0,1-5,4.3A28.27,28.27,0,0,1,927.33,246c-16.5,1.69-32.23-6.65-44.88-13.36-2.7-1.43-5.77-3.06-8.06-5.59-4.08-4.51-4.93-10.86-5.4-16.47-.56-6.66-.87-13.43-1.17-20C866,151.9,864.2,111.87,871,72.87c.12-.66.24-1.36.37-2.09,1.5-8.28,3.76-20.8-3.29-26.17-3.85-2.93-9.43-3.65-13.28-1.7a7.2,7.2,0,0,0-4,7.08Z"/><path class="cls-2" d="M157.36,83.86,145.54,33.53c-1.31-5.59-3-11.32-7.63-14.49-4.21-2.87-9.47-2.74-14.52-2.17A137.24,137.24,0,0,0,49.08,49.69c-8.18-7.62-21.17-10-31.45-5.57A30,30,0,0,0,0,72.2C.43,81,4.75,88.84,8.93,96.38c3.18,5.77,6.48,11.72,7.94,18,1.64,7.08,1,14.26.31,21.87a127.45,127.45,0,0,0-.73,13c.13,11.43,3.33,22.54,6.43,33.28,2.38,8.28,4.85,16.85,5.86,25.43,1.21,10.19.39,20.69-.39,30.85a218.18,218.18,0,0,0-1,23.64c.73,22.72,10.11,40.37,25.09,47.21A11.85,11.85,0,0,0,57.35,311a6.34,6.34,0,0,0,2.79-.62c3-1.49,3.78-4.95,4-7.51a5.2,5.2,0,0,0,3-1.35,7.66,7.66,0,0,0,2.42-6.78,578.69,578.69,0,0,1-7.23-124.78c.09-1.9.25-3.57,1.14-4.71,1.12-1.41,3.37-1.87,5.36-2.27a130.25,130.25,0,0,0,68.65-38.07l1.63,9.46,3-.23c.09-6.32,4-11.56,8.15-17.11,3.62-4.84,7.37-9.85,8.61-15.83S158.61,89.19,157.36,83.86ZM64.52,294.55a3,3,0,0,0-.4-.12l-.06-7.71ZM134.8,85.05c-.42,5-.89,10.73-3.25,15.58C128,107.9,121.4,111.38,115,114.74c-5.49,2.89-10.68,5.61-14.17,10.58-.15.2-.29.41-.43.61A10,10,0,0,1,97.61,129c-2.13,1.35-4.46.87-6.51.45-.41-.09-.83-.17-1.24-.24-5.12-.86-10.13,1.45-15.44,3.89-1.26.58-2.52,1.15-3.77,1.68-4.06,1.72-7.39,2.58-10.12,2.58a9,9,0,0,1-5.23-1.47c-4.74-3.24-5.17-11.46-4.93-19.85,0-1,.18-3.75.37-7.58C51.31,97.56,52.81,68.61,52,66a1.32,1.32,0,0,0,.84.76l.91-2.86h0c5.32,1.68,10.94-1,14.72-3.48,2.3-1.53,4.53-3.36,6.69-5.13a83.74,83.74,0,0,1,7.34-5.57C91,44.24,100.62,42.35,109,41c13.2-2.12,18.32,2.68,20.29,7.08a24.35,24.35,0,0,1,1.53,5.72c.19,1.09.38,2.12.64,3.12.62,2.31,2,4.7,3.76,4.82l1.52.11Z"/><path class="cls-2" d="M567,204.6c-14,5.14-29.67,10.57-45.6,9.5a115.89,115.89,0,0,1-17.57-3c-22.06-5-41.86-9.7-60.77-17.4-22-9-39.63-20.89-52.29-35.43l-1.37-1.57,1.93-.8a112.17,112.17,0,0,0,34.44-22.26l.16-.16c2.48-2.34,5.26-5,8.83-5.57,1.64-4.39,4.55-8.09,7.37-11.69l.22-.28c3.18-4,5.9-7.75,7.05-12,1-3.9.51-9.07-3-11.84a7.16,7.16,0,0,0-6.34-1,5.11,5.11,0,0,0-3.5,3.13l-1.67,5.14L433.71,94c-1-4.5-.17-9,.67-13.33a41,41,0,0,0,1.1-9.24c-.22-5.94-3.16-12.06-8.73-18.2-12.86-14.14-33-20.73-50.08-16.4-6.38,1.62-12.43,4.65-18.29,7.58l-6.47,3.24-10,10.43.45-4.33a.79.79,0,0,0-.43-.63.81.81,0,0,0-.75-.13,3.66,3.66,0,0,0-.87,1c-9.78,14.55-18.71,30.08-11.49,46.06.7,1.54,1.41,3,2.1,4.43,2.35,4.82,4.57,9.38,5.46,15.42.53,3.56.88,7.05,1.21,10.42.7,7,1.36,13.55,3.45,20.47h0c3.94,13,5.95,26.52,7.89,39.63,3.4,22.92,6.91,46.62,6.81,70.27v.95c0,5.08-.06,10.34,2,14.78,1.93,4.16,6.69,7.75,11.15,6.54,3.77-4.67,5.48-11.41,5.08-20-.14-3.16-.52-6.39-.89-9.51a99.15,99.15,0,0,1-1-13.19,102.37,102.37,0,0,1,2.08-16.6c1.55-8.56,3-16.66,1.12-24.66l-.21-.88c-1.41-5.85-3.33-13.86,2.7-16.95l.93-.47.77.71a152.2,152.2,0,0,0,73.33,37.76c1.05.22,2.1.42,3.15.62a85.64,85.64,0,0,1,11.56,2.8c2.16.73,4.27,1.64,6.31,2.52s4.32,1.86,6.52,2.58c5.86,1.92,12.14,2.41,18.59,2.78,12.31.7,24.79,1,37.11.91,8.56-.07,18.19-.65,24.17-6.68C565.06,219.79,566.35,212.47,567,204.6Zm-192.4-65-1.47,1.4-1.68-3.37A16.6,16.6,0,0,1,359.68,133a18.49,18.49,0,0,1-5.88-13.88c.11-4.37,1.77-8.39,3.37-12.28a38.58,38.58,0,0,0,3-9.59,45.23,45.23,0,0,0-.2-9.56c-.57-6.28-1.16-12.78,3.21-17.62,2.43-2.68,5.79-4,8.75-5.2,5.28-2.11,10.74-4.29,16.64-4.81,6.77-.6,12.92,1.33,16.86,5.29,4.64,4.66,5.67,11.14,6.67,17.41.62,3.9,1.26,7.93,2.77,11.4.25.58.53,1.16.81,1.74a16.86,16.86,0,0,1,2,5.88c.28,3.05-1,5.94-2,8.26-2.89,6.66-6,12.89-12.06,15.83a28.55,28.55,0,0,1-7.48,2.1c-.88.16-1.76.32-2.63.51C387.4,129.79,379.38,135.07,374.64,139.59Z"/><path class="cls-2" d="M1269.23,202.45l-2.13-4.4a8,8,0,0,0-3.72-3.67l1.27-2.72.21.1,0-1.14,5,.15.14,1.3a21.41,21.41,0,0,1-.09,5.54Z"/><path class="cls-3" d="M1395.34,45.44s36.66-67.53,82-16.4-58.43,205.43-70.43,267.25c-10.32,53.18-60.91-170.76-78.64-232a36.92,36.92,0,0,1,4.45-30.47c13.87-21.28,47.67-48.73,73.22,1"/><path class="cls-4" d="M1391.89,15.71a35.8,35.8,0,0,0-8.55-5.87,26.71,26.71,0,0,0-4.15-1.59,15.26,15.26,0,0,0-2.07-.57,20.84,20.84,0,0,0-3.44-.5,26.68,26.68,0,0,1,9.51,2.41,35,35,0,0,1,8.75,6,53.14,53.14,0,0,1,3.8,3.87c.58.65,1.1,1.34,1.63,2s1.06,1.25,1.48,1.9c.89,1.27,1.74,2.41,2.4,3.44l1.6,2.57c.83,1.31,1.06,1.79.58.94-.16-.27-.6-.95-1.22-1.94l-1.06-1.69c-.41-.63-.9-1.28-1.41-2A53.18,53.18,0,0,0,1391.89,15.71Z"/><path class="cls-4" d="M1405.3,33.64c-.9-1.62-1-1.9-1.94-3.49.89,1.54,1.73,3.12,2.59,4.68Z"/><path class="cls-4" d="M1359.6,9.94a43.33,43.33,0,0,0-7.95,4.57c-1.76,1.2,2.51-1.8,2.3-1.6a58.85,58.85,0,0,0-8.25,6.25,59.17,59.17,0,0,1,6.37-5.06c.82-.59,1.53-1,2.15-1.41s1.13-.72,1.59-.95c.91-.49,1.52-.83,2.07-1.09S1358.93,10.2,1359.6,9.94Z"/><path class="cls-4" d="M1341.37,116.56c1.51,6.85-1.65-5.12-2.48-7.84-1.39-5.69-2.48-10.75-1.19-6.24C1339.58,110,1340.44,113,1341.37,116.56Z"/><path class="cls-4" d="M1327.72,50.56a28.91,28.91,0,0,1,.69-5,35.24,35.24,0,0,1,2.47-7.24,41.57,41.57,0,0,1,3.32-5.78c.93-1.37,1.44-2.09,1.11-1.71a31.94,31.94,0,0,0-2.52,3.36,35.81,35.81,0,0,0-4.11,9.25,38.16,38.16,0,0,0-1.35,6.71c-.15,1.47-.18,2.21-.21,2.44a15.13,15.13,0,0,1,.12-3c.14-1.84.58-3.91.67-4.48,0-.29,0-.2-.17.48a29.45,29.45,0,0,0-.78,4.09,33.89,33.89,0,0,0-.08,7.13c.11,1,.21,1.92.35,2.63s.23,1.28.33,1.71c.2.85.29,1.17.3,1.08s-.38-2-.59-4.38a42.18,42.18,0,0,0,1.55,7.46c.58,2,1,3.66,1.36,5,.68,2.68,1,4.19,1.24,5.37a99.24,99.24,0,0,0,2.23,9.78c4.68,17.62,2.34,6.64,3.63,10.85-.14,0,.27,2,1,5.4s1.91,8.26,3.26,13.91c2.7,11.31,6.24,25.89,9.53,38.89,3.25,12.12,6.5,25.05,10,38.55s7.2,27.6,11.64,42c3.47,12.37,8,28.54,13.63,44.5,0,0-.09.07-.16.06.19.37.32.59.38.57a108.33,108.33,0,0,0,4.08,11.11c.9,2.1,1.9,4.27,3,6.42l.89,1.6.48.8.64,1a17.17,17.17,0,0,0,3,3.58,6.44,6.44,0,0,0,3.66,1.73,3.6,3.6,0,0,0,1.94-.46,5.41,5.41,0,0,0,1.47-1.21c1.65-1.87,2.44-4.52,3-6.7.23-.91.41-1.65.59-2.3s.35-1.25.51-1.76a7.36,7.36,0,0,1,.93-2c.18-1,.42-1.92.65-2.87,1-3.55,1.6-5.3,1.9-6.07s.32-.56.28-.16c-.08.8-.36,2.35,1.12-1.63,4.19-13,12.83-29.24,14.54-36.24.55-1,0,.4.55-.59l4.44-10.31c0-.81.59-3-.51-1.48,1.11-2.36,1.69-4.59,3.36-7.93,3.94-8.53,1.1-.74,2.78-3.68,9.64-21.59,21-46.19,30.34-66.84.63.27,3.43-5.63,6.39-13s6-16.16,7.7-21.45A148.78,148.78,0,0,0,1493,86.32,182.1,182.1,0,0,0,1494.49,55c.28,1.31.44,2.74.63,4.26s.23,3.08.27,4.69a93.77,93.77,0,0,1-.39,9.46c-.52,6-1.37,10.77-1,11.83l1.23-4.58A105.4,105.4,0,0,0,1497,61.74c0-.83,0-1.65,0-2.46s-.12-1.62-.17-2.41c-.09-1.56-.33-3.08-.54-4.47a28.87,28.87,0,0,0-1.84-6.75c.73,6.39,0,6.84-.23,8.94-.23-1.21-.42-2.16-.64-3s-.46-1.57-.69-2.33l-.34-1.2-.45-1.35c-.32-1-.62-2.14-1.15-3.6a64,64,0,0,0-5.26-12c-1.89-3.22-3.42-5.34-3.08-5.64a32.43,32.43,0,0,1,4.69,6.49l1,1.73c.31.58.55,1.18.82,1.75l.79,1.7c.22.57.45,1.13.67,1.67.37.31.29-.42-.1-1.8a36.8,36.8,0,0,0-2.39-5.48,34.59,34.59,0,0,0-1.89-3.22,35,35,0,0,0-2.17-3.07c-.37-.47-.73-1-1.08-1.38l-1-1.12-1.58-1.86c2.39,4.19-.84,1.87-2.58,1-.87-.43-1.39-.51-.72.68a29.38,29.38,0,0,0,2,2.85l.85,1.09c.3.4.62.88,1,1.37l1.12,1.6,1.15,1.9a31,31,0,0,0-2.12-2.72,32.59,32.59,0,0,0-2.28-2.5l-2.34-2.32-1.18-1.16c-.4-.38-.83-.73-1.25-1.09-2.22-1.34-1.37-.14.66,2.25,1,1.24,2.24,2.78,3.62,4.43l2,2.74c.59,1,1.21,1.95,1.75,2.92s1,2,1.44,2.91l1.07,2.67a24.36,24.36,0,0,1,1,3.79c.08.77,0,.95-.47.32-.19-.32-.5-.83-.92-1.56s-.88-1.7-1.63-2.84c-.73-.86-.93-.55-1.39-.82a6,6,0,0,1-1-1c-.53-.57-1.14-1.54-2.28-2.86.83,1.74,2,4.3,3.19,6.81s2.06,5.08,2.63,6.58c0,1.37.4,3.86.69,6.94.19,1.52.27,3.21.4,4.94s.15,3.53.09,5.29c0,7.07-1.12,13.59-2.09,13.82a90.25,90.25,0,0,1-5,25c-2.39,7.13-5.18,13.88-8.38,23-4.15,11.49-4.78,13.56-4.34,13.68s1.73-1.78.93,1.71c-4.84,11.31-8.79,23-11.38,30.09-2.63,6.21-4.83,9.73-3.25,5.51-10.65,22.92-21.8,45.86-32,69.42-5,11.81-9.92,23.73-13.67,36.26-1,3.12-1.76,6.32-2.47,9.57l-.5,2.43-.2,1-.07.29a3,3,0,0,1-.4.91.58.58,0,0,1-.4.25.67.67,0,0,1-.45-.18,3.27,3.27,0,0,1-.63-.76l-.75-1.25c-.36-.63-.72-1.28-1.07-1.94-.69-1.31-1.36-2.68-2-4.07-3.83-9.24-7.22-18.54-10.42-27.83s-6.06-18.7-8.49-28.51l.81,3.26c0,.5-.78-2-1.42-3.9l2.25,9.4L1374.31,225c-2.63-6.14-9.52-32.86-12.36-40.88-4.3-16.07-5.44-20.76-6.61-25.48s-2.32-9.49-6.59-25.72c-4.8-17.32-10.52-37.92-16.21-58.43-1-3.71-2-7.26-2.73-9.75-.36-1.25-.55-2.15-.69-2.72s-.12-.77,0-.47a35.61,35.61,0,0,1,2.33-23,42.92,42.92,0,0,1,3.83-6.51,77.44,77.44,0,0,1,7-8.87c1.76-1.9,2.82-2.93,3.23-3.34.85-.81-1,.71-3.85,3.73-1.42,1.5-3.07,3.4-4.73,5.55a61.89,61.89,0,0,0-4.78,7,35.9,35.9,0,0,0-3.19,7.67A36.54,36.54,0,0,0,1327.72,50.56Z"/><path class="cls-4" d="M1461.38,179.15c.06,1.68,4.52-7.5,6.18-10.5l1.59-4.26c4.23-10.55,3.51-11.25.3-4.8C1469.05,162.29,1464.19,173.37,1461.38,179.15Z"/><path class="cls-4" d="M1423.91,261.76v-1.6q-2.61,6.38-5,12.79C1419.4,272.74,1421.82,266.54,1423.91,261.76Z"/><path class="cls-4" d="M1438.22,9.08l2.44-.14c.4,0,.78,0,1.16,0L1443,9l2.13.14a20.14,20.14,0,0,1,2,.33l1.89.36c.62.12,1.19.36,1.78.52a27,27,0,0,1,3.38,1.2A58.45,58.45,0,0,1,1468.26,20c-.32-1-.66-2-1-3.05a54.64,54.64,0,0,0-8.87-6.14c-.8-.47-1.69-.8-2.54-1.22l-1.3-.59-.66-.29-.69-.23-2.78-.91a8.84,8.84,0,0,0-1.43-.37l-1.47-.3c-7.89-1.71-16.85-.1-24.61,4-2.33,1.89-2.26,2.24-1,1.81s3.78-1.64,6.61-2.55l2.13-.69,2.15-.48a21.28,21.28,0,0,1,3.71-.53,5.64,5.64,0,0,1,2.13.08C1439,8.62,1438.87,8.81,1438.22,9.08Z"/><path class="cls-4" d="M1463.83,19.66c-5-2.94-10.36-5.5-16.11-6.35l-2.15-.3c-.71-.12-1.44-.06-2.16-.11a28.59,28.59,0,0,0-4.34.16,33.52,33.52,0,0,0-8.46,2.11,40.89,40.89,0,0,0-4,1.78c-.64.35-1.27.73-1.9,1.08a20.46,20.46,0,0,0-1.85,1.15l-1.8,1.22-1.7,1.32c-1.15.85-2.18,1.85-3.23,2.77A51.4,51.4,0,0,0,1406.39,37c1.74-.35,4-2.4,6.91-5.18a109.15,109.15,0,0,1,10.39-9.34c4-3.06,8.67-5.68,13.27-6.72A21.84,21.84,0,0,1,1449,16l1.56.29.76.14.73.23,2.82.86a44.12,44.12,0,0,1,5.28,2.45,53.59,53.59,0,0,1,11.61,8.6c3.42,2.94,2.68,1.71.53-.9a50.3,50.3,0,0,0-4.13-4.3,25.14,25.14,0,0,0-2.32-2Z"/><path class="cls-4" d="M1401,40.68a38.49,38.49,0,0,0-3.37,6c-.14.46-.07.55.12.39s.23-.23.36-.36l.5-.61c.75-1,1.81-2.33,2.53-3.14C1402.51,40.88,1405.57,34.92,1401,40.68Z"/><path class="cls-4" d="M1393.14,46.84s36.66-67.53,82-16.4-58.43,205.43-70.43,267.25c-10.32,53.18-60.91-170.76-78.64-232a37,37,0,0,1,4.45-30.48c13.87-21.27,47.68-48.72,73.23,1"/><path class="cls-4" d="M1389.68,17.11a35.5,35.5,0,0,0-8.55-5.87,28.25,28.25,0,0,0-4.14-1.6,17.71,17.71,0,0,0-2.07-.56,21.2,21.2,0,0,0-3.45-.5A26.74,26.74,0,0,1,1381,11a35.35,35.35,0,0,1,8.75,6,53,53,0,0,1,3.79,3.87c.59.65,1.1,1.34,1.63,2s1.06,1.25,1.49,1.9c.88,1.27,1.73,2.41,2.39,3.44s1.19,1.91,1.61,2.57c.83,1.31,1.06,1.79.58.94L1400,29.77l-1.07-1.69c-.41-.63-.9-1.28-1.4-2A53.72,53.72,0,0,0,1389.68,17.11Z"/><path class="cls-4" d="M1403.09,35c-.89-1.62-1-1.9-1.93-3.5.89,1.55,1.73,3.13,2.59,4.69Z"/><path class="cls-4" d="M1357.4,11.33a43.63,43.63,0,0,0-8,4.58c-1.77,1.2,2.51-1.8,2.29-1.6a58.76,58.76,0,0,0-8.24,6.25,58.19,58.19,0,0,1,6.37-5.06c.81-.59,1.53-1,2.15-1.41s1.12-.72,1.58-.95c.92-.49,1.52-.83,2.07-1.09S1356.72,11.6,1357.4,11.33Z"/><path class="cls-4" d="M1339.16,118c1.51,6.85-1.65-5.12-2.47-7.84-1.4-5.69-2.49-10.75-1.19-6.24C1337.38,111.36,1338.24,114.36,1339.16,118Z"/><path class="cls-4" d="M1325.51,52a29.22,29.22,0,0,1,.7-5,35.19,35.19,0,0,1,2.46-7.24,42.53,42.53,0,0,1,3.33-5.78c.92-1.37,1.44-2.09,1.1-1.71a31.94,31.94,0,0,0-2.52,3.36,35.78,35.78,0,0,0-4.1,9.25,37.24,37.24,0,0,0-1.35,6.71c-.15,1.47-.18,2.21-.22,2.44a16.13,16.13,0,0,1,.13-3,44.14,44.14,0,0,1,.67-4.48c0-.29,0-.2-.18.48a28.43,28.43,0,0,0-.77,4.09,32.53,32.53,0,0,0-.08,7.13c.1,1,.21,1.92.34,2.63s.23,1.28.34,1.71a4.85,4.85,0,0,0,.29,1.08c0-.18-.38-2-.59-4.38a42.1,42.1,0,0,0,1.56,7.46c.57,2,1,3.66,1.35,5,.69,2.68,1,4.19,1.24,5.36.46,2.36.55,3.37,2.23,9.79,4.69,17.62,2.34,6.64,3.63,10.85-.13,0,.27,2,1,5.4s1.91,8.26,3.26,13.91c2.7,11.31,6.24,25.89,9.54,38.89,3.25,12.12,6.49,25.05,10,38.55s7.21,27.6,11.65,42c3.47,12.37,8,28.54,13.63,44.5-.06,0-.1.07-.16.06.18.37.32.59.38.57a108,108,0,0,0,4.07,11.11c.9,2.1,1.9,4.27,3,6.42.28.53.58,1.07.89,1.6l.47.8.64,1a17.43,17.43,0,0,0,3,3.58,6.5,6.5,0,0,0,3.66,1.73,3.58,3.58,0,0,0,1.94-.46,5.26,5.26,0,0,0,1.47-1.21c1.65-1.87,2.44-4.52,3-6.7.23-.91.41-1.65.59-2.3s.35-1.25.51-1.76a7.36,7.36,0,0,1,.93-2c.19-1,.43-1.92.65-2.87,1-3.55,1.6-5.3,1.9-6.07s.32-.56.28-.16c-.07.8-.35,2.35,1.12-1.63,4.19-13,12.83-29.24,14.55-36.24.54-1,0,.4.54-.59l4.44-10.31c0-.81.59-3-.51-1.48,1.11-2.36,1.69-4.59,3.36-7.94,3.94-8.52,1.11-.73,2.79-3.67,9.63-21.59,21-46.19,30.33-66.84.64.26,3.43-5.63,6.4-13s6-16.16,7.69-21.45a148.25,148.25,0,0,0,8.59-33.43,182.1,182.1,0,0,0,1.54-31.35c.28,1.31.45,2.74.64,4.25s.22,3.09.26,4.7a88.24,88.24,0,0,1-.39,9.46c-.52,6-1.37,10.77-1,11.83L1493,82a105.49,105.49,0,0,0,1.78-18.89c0-.83,0-1.65,0-2.46s-.11-1.62-.17-2.41c-.08-1.56-.32-3.08-.53-4.47a28.81,28.81,0,0,0-1.85-6.75c.73,6.39,0,6.84-.23,8.94-.23-1.21-.42-2.16-.63-3s-.46-1.57-.69-2.33c-.11-.39-.23-.78-.35-1.2s-.28-.86-.44-1.35c-.32-1-.63-2.14-1.16-3.6a63.36,63.36,0,0,0-5.26-12c-1.89-3.22-3.42-5.34-3.07-5.64a32.38,32.38,0,0,1,4.68,6.49l1,1.73c.3.58.55,1.17.82,1.75s.52,1.14.78,1.7l.67,1.67c.37.31.29-.42-.1-1.8a36.8,36.8,0,0,0-2.39-5.48,30.66,30.66,0,0,0-1.89-3.22,33,33,0,0,0-2.17-3.07c-.37-.47-.73-1-1.07-1.38l-1-1.12-1.58-1.86c2.38,4.19-.84,1.87-2.58,1-.88-.43-1.4-.51-.72.68a27.09,27.09,0,0,0,2,2.85l.85,1.09c.31.39.62.88,1,1.37l1.13,1.6,1.14,1.9a29.08,29.08,0,0,0-2.11-2.72,32.68,32.68,0,0,0-2.29-2.5l-2.34-2.32L1473,24.09c-.4-.38-.84-.73-1.25-1.09-2.22-1.34-1.37-.14.66,2.25,1,1.24,2.23,2.78,3.61,4.43l2,2.74c.59,1,1.21,1.94,1.76,2.92s1,2,1.44,2.91l1.07,2.67a23,23,0,0,1,1,3.79c.08.77,0,.95-.46.32-.2-.32-.5-.83-.93-1.56s-.88-1.7-1.62-2.84c-.74-.86-.93-.55-1.39-.83a5.08,5.08,0,0,1-1-1c-.53-.57-1.14-1.54-2.28-2.86.83,1.74,2,4.3,3.19,6.81s2.06,5.08,2.64,6.58c0,1.37.39,3.86.68,6.94.19,1.52.28,3.21.4,4.94s.16,3.53.1,5.29c0,7.07-1.13,13.59-2.09,13.82a90.22,90.22,0,0,1-5,25c-2.39,7.13-5.18,13.88-8.38,23-4.15,11.49-4.78,13.56-4.34,13.68s1.73-1.78.93,1.71c-4.84,11.31-8.79,23-11.37,30.09-2.63,6.21-4.84,9.73-3.26,5.51-10.64,22.92-21.79,45.86-32,69.42-5,11.81-9.92,23.73-13.67,36.26-.94,3.12-1.76,6.32-2.47,9.57l-.49,2.43-.2,1-.08.29a2.75,2.75,0,0,1-.4.91.54.54,0,0,1-.4.25.69.69,0,0,1-.45-.18,3,3,0,0,1-.62-.76l-.75-1.25c-.37-.63-.72-1.28-1.07-1.94-.7-1.31-1.37-2.68-2-4.07-3.83-9.24-7.22-18.54-10.42-27.83s-6.06-18.7-8.49-28.51l.81,3.26c0,.5-.77-2-1.41-3.9.77,3.25,1.52,6.39,2.24,9.4l-5.11-17.27c-2.62-6.14-9.51-32.86-12.36-40.88-4.3-16.07-5.44-20.76-6.6-25.48s-2.33-9.49-6.6-25.72c-4.8-17.32-10.52-37.92-16.21-58.43-1-3.71-2-7.27-2.73-9.75-.35-1.25-.55-2.15-.68-2.72s-.12-.77,0-.47a35.54,35.54,0,0,1,2.32-23,42.92,42.92,0,0,1,3.83-6.51,78.57,78.57,0,0,1,7-8.87c1.76-1.9,2.82-2.93,3.24-3.34.84-.81-1,.71-3.86,3.73a69.84,69.84,0,0,0-4.72,5.55,62,62,0,0,0-4.79,7,36.42,36.42,0,0,0-3.19,7.67A38.31,38.31,0,0,0,1325.51,52Z"/><path class="cls-4" d="M1459.18,180.55c0,1.68,4.52-7.5,6.17-10.5l1.59-4.26c4.24-10.55,3.52-11.25.3-4.8C1466.84,163.69,1462,174.77,1459.18,180.55Z"/><path class="cls-4" d="M1421.7,263.16v-1.6q-2.61,6.38-5,12.79C1417.19,274.14,1419.61,267.94,1421.7,263.16Z"/><path class="cls-4" d="M1436,10.48l2.45-.14c.39,0,.78-.05,1.16-.05l1.12.07,2.13.14c.69,0,1.35.23,2,.33l1.88.36c.62.12,1.2.36,1.78.52a27.2,27.2,0,0,1,3.39,1.2,58.42,58.42,0,0,1,14.13,8.44c-.32-1-.65-2-1-3.05a55.17,55.17,0,0,0-8.88-6.14c-.8-.47-1.69-.8-2.54-1.22l-1.3-.59-.66-.29-.68-.23-2.78-.91a9,9,0,0,0-1.44-.37l-1.47-.3c-7.89-1.71-16.85-.1-24.6,4-2.34,1.89-2.27,2.24-1,1.81s3.77-1.64,6.6-2.55l2.13-.69,2.15-.48a20.46,20.46,0,0,1,3.72-.53,5.58,5.58,0,0,1,2.12.08C1436.75,10,1436.66,10.21,1436,10.48Z"/><path class="cls-4" d="M1461.62,21.06c-5-2.94-10.36-5.5-16.1-6.35l-2.15-.3c-.72-.12-1.45-.06-2.17-.11a28.64,28.64,0,0,0-4.34.16,33.63,33.63,0,0,0-8.46,2.11,43.13,43.13,0,0,0-4,1.78c-.64.35-1.27.73-1.9,1.08s-1.26.73-1.85,1.15l-1.79,1.22-1.71,1.32c-1.15.85-2.17,1.85-3.23,2.77a51.16,51.16,0,0,0-9.73,12.49c1.74-.35,4-2.4,6.9-5.18a108.14,108.14,0,0,1,10.4-9.34c4-3.06,8.67-5.68,13.26-6.72a21.84,21.84,0,0,1,12.07.26l1.56.29.76.14.73.22,2.83.87a45.62,45.62,0,0,1,5.28,2.45,53.56,53.56,0,0,1,11.6,8.6c3.43,2.94,2.69,1.71.53-.91a51.57,51.57,0,0,0-4.12-4.29,26.52,26.52,0,0,0-2.32-2Z"/><path class="cls-4" d="M1398.8,42.08a39.34,39.34,0,0,0-3.37,6c-.13.46-.07.55.12.39s.23-.23.36-.36l.51-.62c.75-1,1.8-2.32,2.52-3.13C1400.31,42.28,1403.37,36.32,1398.8,42.08Z"/><g class="cls-5"><g class="cls-6"><path class="cls-2" d="M1393.14,46.84s36.66-67.53,82-16.4-58.43,205.43-70.43,267.25c-10.32,53.18-60.91-170.76-78.64-232a37,37,0,0,1,4.45-30.48c13.87-21.27,47.68-48.72,73.23,1"/><path class="cls-2" d="M1389.68,17.11a35.5,35.5,0,0,0-8.55-5.87,28.25,28.25,0,0,0-4.14-1.6,17.71,17.71,0,0,0-2.07-.56,21.2,21.2,0,0,0-3.45-.5A26.74,26.74,0,0,1,1381,11a35.35,35.35,0,0,1,8.75,6,53,53,0,0,1,3.79,3.87c.59.65,1.1,1.34,1.63,2s1.06,1.25,1.49,1.9c.88,1.27,1.73,2.41,2.39,3.44s1.19,1.91,1.61,2.57c.83,1.31,1.06,1.79.58.94L1400,29.77l-1.07-1.69c-.41-.63-.9-1.28-1.4-2A53.72,53.72,0,0,0,1389.68,17.11Z"/><path class="cls-2" d="M1403.09,35c-.89-1.62-1-1.9-1.93-3.5.89,1.55,1.73,3.13,2.59,4.69Z"/><path class="cls-2" d="M1357.4,11.33a43.63,43.63,0,0,0-8,4.58c-1.77,1.2,2.51-1.8,2.29-1.6a58.76,58.76,0,0,0-8.24,6.25,58.19,58.19,0,0,1,6.37-5.06c.81-.59,1.53-1,2.15-1.41s1.12-.72,1.58-.95c.92-.49,1.52-.83,2.07-1.09S1356.72,11.6,1357.4,11.33Z"/><path class="cls-2" d="M1339.16,118c1.51,6.85-1.65-5.12-2.47-7.84-1.4-5.69-2.49-10.75-1.19-6.24C1337.38,111.36,1338.24,114.36,1339.16,118Z"/><path class="cls-2" d="M1325.51,52a29.22,29.22,0,0,1,.7-5,35.19,35.19,0,0,1,2.46-7.24,42.53,42.53,0,0,1,3.33-5.78c.92-1.37,1.44-2.09,1.1-1.71a31.94,31.94,0,0,0-2.52,3.36,35.78,35.78,0,0,0-4.1,9.25,37.24,37.24,0,0,0-1.35,6.71c-.15,1.47-.18,2.21-.22,2.44a16.13,16.13,0,0,1,.13-3,44.14,44.14,0,0,1,.67-4.48c0-.29,0-.2-.18.48a28.43,28.43,0,0,0-.77,4.09,32.53,32.53,0,0,0-.08,7.13c.1,1,.21,1.92.34,2.63s.23,1.28.34,1.71a4.85,4.85,0,0,0,.29,1.08c0-.18-.38-2-.59-4.38a42.1,42.1,0,0,0,1.56,7.46c.57,2,1,3.66,1.35,5,.69,2.68,1,4.19,1.24,5.36.46,2.36.55,3.37,2.23,9.79,4.69,17.62,2.34,6.64,3.63,10.85-.13,0,.27,2,1,5.4s1.91,8.26,3.26,13.91c2.7,11.31,6.24,25.89,9.54,38.89,3.25,12.12,6.49,25.05,10,38.55s7.21,27.6,11.65,42c3.47,12.37,8,28.54,13.63,44.5-.06,0-.1.07-.16.06.18.37.32.59.38.57a108,108,0,0,0,4.07,11.11c.9,2.1,1.9,4.27,3,6.42.28.53.58,1.07.89,1.6l.47.8.64,1a17.43,17.43,0,0,0,3,3.58,6.5,6.5,0,0,0,3.66,1.73,3.58,3.58,0,0,0,1.94-.46,5.26,5.26,0,0,0,1.47-1.21c1.65-1.87,2.44-4.52,3-6.7.23-.91.41-1.65.59-2.3s.35-1.25.51-1.76a7.36,7.36,0,0,1,.93-2c.19-1,.43-1.92.65-2.87,1-3.55,1.6-5.3,1.9-6.07s.32-.56.28-.16c-.07.8-.35,2.35,1.12-1.63,4.19-13,12.83-29.24,14.55-36.24.54-1,0,.4.54-.59l4.44-10.31c0-.81.59-3-.51-1.48,1.11-2.36,1.69-4.59,3.36-7.94,3.94-8.52,1.11-.73,2.79-3.67,9.63-21.59,21-46.19,30.33-66.84.64.26,3.43-5.63,6.4-13s6-16.16,7.69-21.45a148.25,148.25,0,0,0,8.59-33.43,182.1,182.1,0,0,0,1.54-31.35c.28,1.31.45,2.74.64,4.25s.22,3.09.26,4.7a88.24,88.24,0,0,1-.39,9.46c-.52,6-1.37,10.77-1,11.83L1493,82a105.49,105.49,0,0,0,1.78-18.89c0-.83,0-1.65,0-2.46s-.11-1.62-.17-2.41c-.08-1.56-.32-3.08-.53-4.47a28.81,28.81,0,0,0-1.85-6.75c.73,6.39,0,6.84-.23,8.94-.23-1.21-.42-2.16-.63-3s-.46-1.57-.69-2.33c-.11-.39-.23-.78-.35-1.2s-.28-.86-.44-1.35c-.32-1-.63-2.14-1.16-3.6a63.36,63.36,0,0,0-5.26-12c-1.89-3.22-3.42-5.34-3.07-5.64a32.38,32.38,0,0,1,4.68,6.49l1,1.73c.3.58.55,1.17.82,1.75s.52,1.14.78,1.7l.67,1.67c.37.31.29-.42-.1-1.8a36.8,36.8,0,0,0-2.39-5.48,30.66,30.66,0,0,0-1.89-3.22,33,33,0,0,0-2.17-3.07c-.37-.47-.73-1-1.07-1.38l-1-1.12-1.58-1.86c2.38,4.19-.84,1.87-2.58,1-.88-.43-1.4-.51-.72.68a27.09,27.09,0,0,0,2,2.85l.85,1.09c.31.39.62.88,1,1.37l1.13,1.6,1.14,1.9a29.08,29.08,0,0,0-2.11-2.72,32.68,32.68,0,0,0-2.29-2.5l-2.34-2.32L1473,24.09c-.4-.38-.84-.73-1.25-1.09-2.22-1.34-1.37-.14.66,2.25,1,1.24,2.23,2.78,3.61,4.43l2,2.74c.59,1,1.21,1.94,1.76,2.92s1,2,1.44,2.91l1.07,2.67a23,23,0,0,1,1,3.79c.08.77,0,.95-.46.32-.2-.32-.5-.83-.93-1.56s-.88-1.7-1.62-2.84c-.74-.86-.93-.55-1.39-.83a5.08,5.08,0,0,1-1-1c-.53-.57-1.14-1.54-2.28-2.86.83,1.74,2,4.3,3.19,6.81s2.06,5.08,2.64,6.58c0,1.37.39,3.86.68,6.94.19,1.52.28,3.21.4,4.94s.16,3.53.1,5.29c0,7.07-1.13,13.59-2.09,13.82a90.22,90.22,0,0,1-5,25c-2.39,7.13-5.18,13.88-8.38,23-4.15,11.49-4.78,13.56-4.34,13.68s1.73-1.78.93,1.71c-4.84,11.31-8.79,23-11.37,30.09-2.63,6.21-4.84,9.73-3.26,5.51-10.64,22.92-21.79,45.86-32,69.42-5,11.81-9.92,23.73-13.67,36.26-.94,3.12-1.76,6.32-2.47,9.57l-.49,2.43-.2,1-.08.29a2.75,2.75,0,0,1-.4.91.54.54,0,0,1-.4.25.69.69,0,0,1-.45-.18,3,3,0,0,1-.62-.76l-.75-1.25c-.37-.63-.72-1.28-1.07-1.94-.7-1.31-1.37-2.68-2-4.07-3.83-9.24-7.22-18.54-10.42-27.83s-6.06-18.7-8.49-28.51l.81,3.26c0,.5-.77-2-1.41-3.9.77,3.25,1.52,6.39,2.24,9.4l-5.11-17.27c-2.62-6.14-9.51-32.86-12.36-40.88-4.3-16.07-5.44-20.76-6.6-25.48s-2.33-9.49-6.6-25.72c-4.8-17.32-10.52-37.92-16.21-58.43-1-3.71-2-7.27-2.73-9.75-.35-1.25-.55-2.15-.68-2.72s-.12-.77,0-.47a35.54,35.54,0,0,1,2.32-23,42.92,42.92,0,0,1,3.83-6.51,78.57,78.57,0,0,1,7-8.87c1.76-1.9,2.82-2.93,3.24-3.34.84-.81-1,.71-3.86,3.73a69.84,69.84,0,0,0-4.72,5.55,62,62,0,0,0-4.79,7,36.42,36.42,0,0,0-3.19,7.67A38.31,38.31,0,0,0,1325.51,52Z"/><path class="cls-2" d="M1459.18,180.55c0,1.68,4.52-7.5,6.17-10.5l1.59-4.26c4.24-10.55,3.52-11.25.3-4.8C1466.84,163.69,1462,174.77,1459.18,180.55Z"/><path class="cls-2" d="M1421.7,263.16v-1.6q-2.61,6.38-5,12.79C1417.19,274.14,1419.61,267.94,1421.7,263.16Z"/><path class="cls-2" d="M1436,10.48l2.45-.14c.39,0,.78-.05,1.16-.05l1.12.07,2.13.14c.69,0,1.35.23,2,.33l1.88.36c.62.12,1.2.36,1.78.52a27.2,27.2,0,0,1,3.39,1.2,58.42,58.42,0,0,1,14.13,8.44c-.32-1-.65-2-1-3.05a55.17,55.17,0,0,0-8.88-6.14c-.8-.47-1.69-.8-2.54-1.22l-1.3-.59-.66-.29-.68-.23-2.78-.91a9,9,0,0,0-1.44-.37l-1.47-.3c-7.89-1.71-16.85-.1-24.6,4-2.34,1.89-2.27,2.24-1,1.81s3.77-1.64,6.6-2.55l2.13-.69,2.15-.48a20.46,20.46,0,0,1,3.72-.53,5.58,5.58,0,0,1,2.12.08C1436.75,10,1436.66,10.21,1436,10.48Z"/><path class="cls-2" d="M1461.62,21.06c-5-2.94-10.36-5.5-16.1-6.35l-2.15-.3c-.72-.12-1.45-.06-2.17-.11a28.64,28.64,0,0,0-4.34.16,33.63,33.63,0,0,0-8.46,2.11,43.13,43.13,0,0,0-4,1.78c-.64.35-1.27.73-1.9,1.08s-1.26.73-1.85,1.15l-1.79,1.22-1.71,1.32c-1.15.85-2.17,1.85-3.23,2.77a51.16,51.16,0,0,0-9.73,12.49c1.74-.35,4-2.4,6.9-5.18a108.14,108.14,0,0,1,10.4-9.34c4-3.06,8.67-5.68,13.26-6.72a21.84,21.84,0,0,1,12.07.26l1.56.29.76.14.73.22,2.83.87a45.62,45.62,0,0,1,5.28,2.45,53.56,53.56,0,0,1,11.6,8.6c3.43,2.94,2.69,1.71.53-.91a51.57,51.57,0,0,0-4.12-4.29,26.52,26.52,0,0,0-2.32-2Z"/><path class="cls-2" d="M1398.8,42.08a39.34,39.34,0,0,0-3.37,6c-.13.46-.07.55.12.39s.23-.23.36-.36l.51-.62c.75-1,1.8-2.32,2.52-3.13C1400.31,42.28,1403.37,36.32,1398.8,42.08Z"/></g></g><polyline class="cls-7" points="1417.91 20.72 1426.34 15.85 1410.8 26.63 1433.77 13.36 1406.49 30.97 1438.17 12.68 1404 33.83 1440.84 12.56"/><polyline class="cls-7" points="1349.74 17 1357.57 12.47 1343.17 22.34 1364.26 10.17 1339.17 26.42 1368.39 9.56 1337.02 28.86 1370.67 9.44 1335.02 31.38 1372.8 9.57 1332.72 34.51 1375.31 9.92 1331.14 36.87 1377.18 10.29 1329.33 40.07 1379.54 11.08 1328.3 42.47 1381.4 11.81 1327.32 44.98 1383.21 12.72 1326.77 47.04 1384.75 13.56 1326.21 49.18 1386.22 14.54 1326.02 50.52 1387.22 15.19 1325.82 51.92 1388.15 15.93 1325.59 54.01 1389.55 17.08 1325.56 55.45 1390.54 17.93 1325.54 56.65 1391.3 18.68 1325.59 58.69 1392.62 19.99 1325.74 60.23 1393.62 21.04 1325.93 62.1 1394.75 22.37 1326.2 63.49 1395.64 23.4 1326.64 65.44 1396.82 24.92 1326.94 66.74 1397.58 25.96 1327.22 67.75 1398.18 26.78 1327.51 68.8 1398.81 27.64 1327.9 70.17 1399.56 28.79 1328.39 71.87 1400.48 30.25 1328.82 73.43 1401.32 31.57 1329.11 74.49 1401.88 32.47 1329.56 76.11 1402.69 33.89 1329.96 77.6 1442.57 12.59 1330.38 79.13 1445.29 12.79 1330.86 80.93 1448.12 13.23 1331.37 82.8 1450.7 13.91 1331.84 84.56 1452.92 14.65 1332.18 85.85 1454.48 15.24 1332.56 87.26 1456.09 15.93 1332.83 88.3 1457.2 16.5 1333.34 90.22 1459.24 17.53 1333.82 92.03 1460.98 18.61 1334.13 93.23 1462.13 19.34 1334.63 95.14 1463.88 20.51 1335.08 96.86 1465.36 21.64 1335.44 98.23 1466.52 22.55 1335.94 100.15 1468.11 23.84 1336.29 101.49 1469.15 24.78 1336.79 103.43 1470.65 26.15 1337.11 104.66 1471.6 27.01 1337.5 106.18 1472.69 28.13 1337.88 107.65 1473.72 29.23 1338.18 108.81 1474.54 30.08 1338.61 110.48 1475.72 31.33 1338.91 111.66 1476.47 32.24 1339.27 113.02 1477.31 33.32 1339.76 114.92 1478.48 34.82 1340.04 116.02 1479.15 35.71 1340.32 117.11 1479.7 36.64 1340.63 118.33 1480.31 37.68 1341.08 120.06 1481.19 39.17 1341.47 121.58 1481.9 40.5 1341.93 123.38 1482.62 42.15 1342.37 125.1 1483.31 43.73 1342.77 126.62 1483.88 45.14 1343.06 127.78 1484.23 46.27 1343.47 129.37 1484.72 47.83 1343.83 130.76 1485.14 49.17 1344.19 132.18 1485.51 50.6 1344.59 133.72 1485.83 52.18 1345.06 135.56 1486.22 54.06 1345.51 137.28 1486.54 55.86 1345.98 139.14 1486.77 57.85 1346.44 140.93 1487 59.78 1346.86 142.54 1487.15 61.54 1347.32 144.33 1487.24 63.55 1347.59 145.39 1487.29 64.74 1347.95 146.79 1487.35 66.31 1348.36 148.36 1487.34 68.12 1348.69 149.63 1487.3 69.6 1349.06 151.08 1487.26 71.29 1349.4 152.38 1487.22 72.8 1349.8 153.94 1487.08 74.69 1350.2 155.47 1486.93 76.53 1350.53 156.74 1486.8 78.06 1350.91 158.21 1486.64 79.85 1351.33 159.83 1486.37 81.87 1351.74 161.41 1486.11 83.83 1352.26 163.39 1485.77 86.3 1352.76 165.34 1485.32 88.81 1353.04 166.42 1485.06 90.2 1353.49 168.14 1484.65 92.42 1353.95 169.87 1484.25 94.64 1354.3 171.21 1483.85 96.41 1354.68 172.67 1483.4 98.36 1355.13 174.38 1482.88 100.63 1355.47 175.65 1482.49 102.32 1355.96 177.54 1481.86 104.85 1356.4 179.23 1481.23 107.17 1356.93 181.23 1480.49 109.89 1357.44 183.13 1479.78 112.49 1357.73 184.24 1479.32 114.03 1358.1 185.62 1478.73 115.97 1358.4 186.75 1478.24 117.56 1358.83 188.36 1477.55 119.82 1359.36 190.34 1476.69 122.6 1359.86 192.23 1475.77 125.31 1360.37 194.13 1474.85 128.03 1360.65 195.18 1474.34 129.54 1361.12 196.94 1473.48 132.07 1361.57 198.59 1472.6 134.49 1361.85 199.61 1472.06 135.98 1362.26 201.14 1471.25 138.22 1362.67 202.64 1470.45 140.41 1363.11 204.25 1469.55 142.8 1363.44 205.47 1468.86 144.6 1363.9 207.14 1467.9 147.09 1364.22 208.34 1467.2 148.89 1364.57 209.61 1466.47 150.78 1364.97 211.08 1465.59 152.98 1365.49 212.95 1464.44 155.82 1365.97 214.65 1463.4 158.4 1366.27 215.74 1462.73 160.04 1366.57 216.82 1462.06 161.69 1366.93 218.11 1461.22 163.68 1367.3 219.44 1460.36 165.71 1367.83 221.33 1459.13 168.62 1368.28 222.93 1458.09 171.08 1368.66 224.29 1457.2 173.17 1369.01 225.54 1456.38 175.1 1369.57 227.51 1455.03 178.16 1369.87 228.57 1454.31 179.82 1370.35 230.24 1453.16 182.42 1370.87 232.05 1451.92 185.26 1371.25 233.36 1451.02 187.3 1371.7 234.95 1449.9 189.81 1372.09 236.28 1448.96 191.9 1372.54 237.8 1447.88 194.31 1372.84 238.83 1447.16 195.92 1373.14 239.86 1446.42 197.56 1373.53 241.17 1445.49 199.62 1373.83 242.18 1444.77 201.22 1374.17 243.34 1443.94 203.06 1374.59 244.76 1442.91 205.31 1374.92 245.87 1442.1 207.09 1375.48 247.71 1440.77 210.01 1375.78 248.7 1440.05 211.59 1376.08 249.69 1439.33 213.18 1376.5 251.08 1438.32 215.39 1376.93 252.49 1437.3 217.64 1377.26 253.56 1436.52 219.35 1377.78 255.22 1435.3 222.01 1378.26 256.76 1434.18 224.47 1378.73 258.27 1433.09 226.89 1379.04 259.25 1432.38 228.46 1379.57 260.93 1431.17 231.13 1379.92 262.03 1430.37 232.9 1380.34 263.3 1429.45 234.94 1380.74 264.52 1428.56 236.91 1381.1 265.62 1427.77 238.68 1381.42 266.62 1427.06 240.27 1381.99 268.37 1425.83 243.06 1382.38 269.52 1425.01 244.91 1382.77 270.68 1424.19 246.76 1383.21 271.97 1423.3 248.82 1383.87 273.89 1421.98 251.89 1384.29 275.13 1421.13 253.86 1384.67 276.22 1420.38 255.6 1385.29 277.93 1419.26 258.32 1385.85 279.47 1418.24 260.76 1386.49 281.23 1417.08 263.57 1386.92 282.42 1416.34 265.43 1387.5 283.91 1415.41 267.8 1387.94 285.06 1414.69 269.61 1388.47 286.42 1413.85 271.76 1388.87 287.45 1413.26 273.37 1389.53 289.09 1412.33 275.93 1390.08 290.38 1411.58 277.96 1390.81 292.12 1410.65 280.66 1391.44 293.6 1409.89 282.95 1392.12 295.04 1409.14 285.21 1392.61 296.1 1408.63 286.85 1393.2 297.33 1408.09 288.73 1393.96 298.79 1407.44 291.01 1394.69 300.15 1406.85 293.13 1395.48 301.49 1406.37 295.21 1396.32 302.82 1405.9 297.29 1397.03 303.81 1405.53 298.9 1398.33 305.33 1404.91 301.54 1399.6 306.36 1404.17 303.72 1400.85 306.84 1403.29 305.43"/></g></g></svg>