<svg id="Layer_1" data-name="Layer 1" xmlns="http://www.w3.org/2000/svg" width="258.47" height="75.83" viewBox="0 0 258.47 75.83"><defs><style>.cls-1{fill:#ab2d28;}</style></defs><title>Artboard 4</title><path class="cls-1" d="M234.67,9.84S244-7.38,255.57,5.66,240.68,58,237.62,73.77C235,87.32,222.09,30.25,217.57,14.65a9.42,9.42,0,0,1,1.14-7.77c3.53-5.42,12.15-12.42,18.66.25"/><path d="M0,68.13c2.29-.21,3.71-.66,4.28-1.35s.85-2.27.85-4.74v-26c0-2.09-.32-3.46-1-4.13s-2-1.08-4.17-1.26V29.55H15.82q7.62,0,11.66,3a9.19,9.19,0,0,1,4,7.79q0,6.12-4.48,8.88a21.15,21.15,0,0,1-11.22,2.75c-.64,0-1.47,0-2.48,0s-1.75,0-2.24,0v10.9c0,2.26.35,3.67,1,4.26s2.24,1,4.65,1.13v1.12H0ZM20.24,32.89a16.18,16.18,0,0,0-6.44-1.11,4.26,4.26,0,0,0-2.27.36,2.22,2.22,0,0,0-.43,1.63V49.41l2.11.18,1,0a14.9,14.9,0,0,0,6.5-1.17q4.31-2.14,4.31-8Q25,34.95,20.24,32.89Z"/><path d="M53.38,44.62q3.1,2.87,3.1,8.1H37.88q.3,6.78,3.08,9.88a8.56,8.56,0,0,0,6.59,3.1,8.29,8.29,0,0,0,5.18-1.61,16,16,0,0,0,3.9-4.56l1,.35a16.72,16.72,0,0,1-4.5,6.9A11.22,11.22,0,0,1,45.09,70a9.88,9.88,0,0,1-8.51-4.16,15.9,15.9,0,0,1-3-9.58A15.61,15.61,0,0,1,37.06,46a11.15,11.15,0,0,1,9.08-4.27A10.37,10.37,0,0,1,53.38,44.62Zm-14,2.24a11.54,11.54,0,0,0-1.35,4H50.36a12,12,0,0,0-1.11-4.37,5.06,5.06,0,0,0-4.81-2.58A5.6,5.6,0,0,0,39.35,46.86Z"/><path d="M59.3,68.28a7.1,7.1,0,0,0,3.57-1c.59-.48.88-1.5.88-3.06V51.05a11.33,11.33,0,0,0-.54-4.14,2,2,0,0,0-2-1.25,5.68,5.68,0,0,0-.78.08c-.32,0-.66.11-1,.19V45l3.42-1.2c1.17-.41,2-.71,2.42-.88,1-.37,2-.79,3-1.26.14,0,.22.05.25.15a2.62,2.62,0,0,1,0,.61v4.81a23,23,0,0,1,3.63-4.08,5.65,5.65,0,0,1,3.63-1.46,3.42,3.42,0,0,1,2.44.89,3.16,3.16,0,0,1,.22,4.26,2.29,2.29,0,0,1-1.8.82,3.38,3.38,0,0,1-2.24-1,3.23,3.23,0,0,0-1.77-1c-.69,0-1.53.56-2.52,1.66a5.06,5.06,0,0,0-1.5,3.41V63.86a4.39,4.39,0,0,0,1.17,3.5,5.91,5.91,0,0,0,3.9.92v1H59.3Z"/><path d="M95,68.13c2.34-.25,3.81-.68,4.4-1.3s.87-2.21.87-4.79v-26c0-2.15-.32-3.54-1-4.19s-2.08-1-4.29-1.2V29.55h16.64v1.11c-2.19.16-3.62.56-4.28,1.2s-1,2-1,4.19V47.74h18.22V36.05c0-2.15-.32-3.54-1-4.19s-2.08-1-4.3-1.2V29.55h16.64v1.11q-3.31.24-4.29,1.2c-.66.65-1,2-1,4.19V62.74c0,2.18.33,3.57,1,4.18s2.08,1,4.29,1.21v1.12H119.3V68.13c2.36-.23,3.83-.66,4.41-1.28s.86-2.23.86-4.81V50.38H106.35V62.74q0,3.27,1,4.2c.66.62,2.09,1,4.28,1.19v1.12H95Z"/><path d="M138.52,68.43c2.09-.2,3.4-.56,3.95-1.07s.82-1.92.82-4.21v-14a9.16,9.16,0,0,0-.26-2.64,1.78,1.78,0,0,0-1.85-1.2,3.36,3.36,0,0,0-.63.06c-.2,0-.79.19-1.77.47V45l1.26-.41q5.13-1.66,7.15-2.52a3.58,3.58,0,0,1,1.05-.35,1.51,1.51,0,0,1,.06.44v21c0,2.23.27,3.63.81,4.19s1.75.93,3.64,1.09v.82H138.52Zm4.65-39.18a3.05,3.05,0,1,1,4.33,4.3,3.08,3.08,0,0,1-4.33,0,2.94,2.94,0,0,1-.88-2.14A3,3,0,0,1,143.17,29.25Z"/><path d="M155.24,68.43a7.08,7.08,0,0,0,3.7-1.1q1-.84,1-3.27V35.44a7.63,7.63,0,0,0-.32-2.67,2.36,2.36,0,0,0-2.37-1.23,5,5,0,0,0-.9.09l-1.21.26v-1c2.63-.71,5.81-1.64,9.52-2.82a.23.23,0,0,1,.25.18,4.08,4.08,0,0,1,0,.76V64.18c0,1.7.3,2.8.88,3.29a6.86,6.86,0,0,0,3.63,1v.82H155.24Z"/><path d="M171.91,68.43a7.08,7.08,0,0,0,3.7-1.1q1-.84,1-3.27V35.44a7.63,7.63,0,0,0-.32-2.67,2.36,2.36,0,0,0-2.37-1.23,5,5,0,0,0-.9.09l-1.21.26v-1c2.63-.71,5.81-1.64,9.52-2.82a.23.23,0,0,1,.25.18,4.08,4.08,0,0,1,0,.76V64.18c0,1.7.3,2.8.88,3.29a6.86,6.86,0,0,0,3.63,1v.82H171.91Z"/><path d="M192.58,45.79a12.39,12.39,0,0,1,9.54-4,13.05,13.05,0,0,1,9.61,3.8,13.71,13.71,0,0,1,3.81,10.14,15.09,15.09,0,0,1-3.69,10.14,12,12,0,0,1-9.56,4.3A12.57,12.57,0,0,1,192.77,66a14.54,14.54,0,0,1-3.89-10.37A14,14,0,0,1,192.58,45.79Zm4.68-.74q-2.94,2.66-2.93,9.2A20.59,20.59,0,0,0,196.69,64q2.35,4.52,6.56,4.51a5.57,5.57,0,0,0,5.06-3,15.44,15.44,0,0,0,1.78-7.91A21,21,0,0,0,207.83,48q-2.27-4.48-6.55-4.49A5.83,5.83,0,0,0,197.26,45.05Z"/></svg>
