<svg id="Layer_1" data-name="Layer 1" xmlns="http://www.w3.org/2000/svg" width="215.54" height="42.04" viewBox="0 0 215.54 42.04"><title>Artboard 5</title><path d="M0,40c2.29-.21,3.71-.67,4.28-1.36s.85-2.27.85-4.73v-26c0-2.09-.32-3.47-1-4.13S2.15,2.72,0,2.55V1.44H15.82q7.62,0,11.66,2.95a9.21,9.21,0,0,1,4,7.8q0,6.12-4.48,8.87a21.06,21.06,0,0,1-11.22,2.76c-.64,0-1.47,0-2.48-.05l-2.24,0v10.9c0,2.25.35,3.67,1,4.25s2.24,1,4.65,1.14v1.11H0ZM20.24,4.78A16,16,0,0,0,13.8,3.66,4.12,4.12,0,0,0,11.53,4a2.18,2.18,0,0,0-.43,1.62V21.3c1.08.1,1.78.16,2.11.17l1,0a14.9,14.9,0,0,0,6.5-1.17Q25,18.2,25,12.33,25,6.83,20.24,4.78Z"/><path d="M53.38,16.51q3.1,2.85,3.1,8.1H37.88q.3,6.78,3.08,9.88a8.59,8.59,0,0,0,6.59,3.1A8.29,8.29,0,0,0,52.73,36a16,16,0,0,0,3.9-4.56l1,.35a16.78,16.78,0,0,1-4.5,6.9,11.22,11.22,0,0,1-8.07,3.17,9.88,9.88,0,0,1-8.51-4.16,15.92,15.92,0,0,1-3-9.58,15.61,15.61,0,0,1,3.49-10.17,11.16,11.16,0,0,1,9.08-4.28A10.33,10.33,0,0,1,53.38,16.51Zm-14,2.24a11.41,11.41,0,0,0-1.35,4H50.36a12,12,0,0,0-1.11-4.36,5.06,5.06,0,0,0-4.81-2.58A5.6,5.6,0,0,0,39.35,18.75Z"/><path d="M59.3,40.17a7.08,7.08,0,0,0,3.57-1c.59-.47.88-1.5.88-3.06V22.94a11.39,11.39,0,0,0-.54-4.15,2,2,0,0,0-2-1.24,5.39,5.39,0,0,0-.78.07c-.32.05-.66.11-1,.19v-1l3.42-1.21c1.17-.41,2-.7,2.42-.87,1-.38,2-.8,3-1.26.14,0,.22,0,.25.14a2.78,2.78,0,0,1,0,.62v4.8A22.9,22.9,0,0,1,72.21,15a5.59,5.59,0,0,1,3.63-1.46,3.38,3.38,0,0,1,2.44.89,2.94,2.94,0,0,1,.94,2.24,3,3,0,0,1-.72,2,2.29,2.29,0,0,1-1.8.82,3.38,3.38,0,0,1-2.24-1,3.16,3.16,0,0,0-1.77-1c-.69,0-1.53.55-2.52,1.66a5.06,5.06,0,0,0-1.5,3.41V35.74c0,1.68.39,2.85,1.17,3.5a5.85,5.85,0,0,0,3.9.93v1H59.3Z"/><path d="M95,40c2.34-.25,3.81-.69,4.4-1.3s.87-2.21.87-4.79v-26c0-2.15-.32-3.55-1-4.19s-2.08-1-4.29-1.2V1.44h16.64V2.55c-2.19.16-3.62.56-4.28,1.2s-1,2-1,4.19V19.63h18.22V7.94c0-2.15-.32-3.55-1-4.19s-2.08-1-4.3-1.2V1.44h16.64V2.55q-3.31.24-4.29,1.2c-.66.64-1,2-1,4.19V34.63c0,2.17.33,3.57,1,4.18s2.08,1,4.29,1.21v1.11H119.3V40c2.36-.23,3.83-.66,4.41-1.28s.86-2.23.86-4.81V22.27H106.35V34.63c0,2.17.33,3.57,1,4.19s2.09,1,4.28,1.2v1.11H95Z"/><path d="M138.52,40.31c2.09-.19,3.4-.55,3.95-1.07s.82-1.92.82-4.2v-14a9.08,9.08,0,0,0-.26-2.63,1.78,1.78,0,0,0-1.85-1.2,3.36,3.36,0,0,0-.63.06c-.2,0-.79.19-1.77.46v-.9l1.26-.41q5.13-1.68,7.15-2.52a3.74,3.74,0,0,1,1.05-.36,1.61,1.61,0,0,1,.06.44V35c0,2.23.27,3.62.81,4.19s1.75.93,3.64,1.08v.82H138.52Zm4.65-39.17a2.93,2.93,0,0,1,2.17-.91,3,3,0,0,1,2.16.89,3,3,0,0,1,.89,2.18,2.93,2.93,0,0,1-.89,2.14,3,3,0,0,1-5.21-2.14A3,3,0,0,1,143.17,1.14Z"/><path d="M155.24,40.31a6.89,6.89,0,0,0,3.7-1.1c.64-.55,1-1.64,1-3.26V7.32a7.61,7.61,0,0,0-.32-2.66,2.36,2.36,0,0,0-2.37-1.23,5,5,0,0,0-.9.09c-.32,0-.72.14-1.21.26v-1Q159,1.76,164.62,0a.23.23,0,0,1,.25.18,4,4,0,0,1,0,.76V36.06c0,1.7.3,2.8.88,3.3a6.78,6.78,0,0,0,3.63,1v.82H155.24Z"/><path d="M171.91,40.31a6.89,6.89,0,0,0,3.7-1.1c.64-.55,1-1.64,1-3.26V7.32a7.61,7.61,0,0,0-.32-2.66,2.36,2.36,0,0,0-2.37-1.23,5,5,0,0,0-.9.09c-.32,0-.72.14-1.21.26v-1q3.94-1.05,9.52-2.81a.23.23,0,0,1,.25.18,4,4,0,0,1,0,.76V36.06c0,1.7.3,2.8.88,3.3a6.78,6.78,0,0,0,3.63,1v.82H171.91Z"/><path d="M192.58,17.68a12.4,12.4,0,0,1,9.54-4,13,13,0,0,1,9.61,3.81,13.71,13.71,0,0,1,3.81,10.14,15.08,15.08,0,0,1-3.69,10.13A12,12,0,0,1,202.29,42a12.6,12.6,0,0,1-9.52-4.13,14.54,14.54,0,0,1-3.89-10.37A14,14,0,0,1,192.58,17.68Zm4.68-.75q-2.94,2.67-2.93,9.2a20.6,20.6,0,0,0,2.36,9.73q2.35,4.52,6.56,4.51a5.56,5.56,0,0,0,5.06-3,15.39,15.39,0,0,0,1.78-7.91,21,21,0,0,0-2.26-9.55q-2.27-4.49-6.55-4.48A5.87,5.87,0,0,0,197.26,16.93Z"/></svg>
