<svg id="Layer_1" data-name="Layer 1" xmlns="http://www.w3.org/2000/svg" width="46.84mm" height="29.16mm" viewBox="0 0 132.77 82.65"><defs><style>.cls-1{fill:#1d1d1b;}</style></defs><title>pil1</title><path class="cls-1" d="M123.78,15.51c4,.43,17.38,2,17.76,7.15.18,2.28-1.91,5.87-2.63,8.06l-3.21,9.86c-.75,2.3,2.87,3.28,3.61,1L144,27.24c.93-2.86,2.6-5.85.41-8.46-1.92-2.28-5.76-3.39-8.51-4.38a51.89,51.89,0,0,0-12.11-2.64c-2.4-.26-2.38,3.49,0,3.75Z" transform="translate(-12.71 -11.75)"/><path class="cls-1" d="M142.3,20.94C90.07,21,45.47,52.4,13.17,91.12c-1.54,1.84,1.1,4.51,2.65,2.65C47.49,55.8,91,24.71,142.3,24.69a1.88,1.88,0,0,0,0-3.75Z" transform="translate(-12.71 -11.75)"/></svg>