<svg id="Layer_1" data-name="Layer 1" xmlns="http://www.w3.org/2000/svg" width="29.53mm" height="41.92mm" viewBox="0 0 83.7 118.83"><defs><style>.cls-1{fill:#1d1d1b;}</style></defs><title>pil2</title><path class="cls-1" d="M30.14,4.37,8.48,16.53A1.91,1.91,0,0,0,7.8,19.1a56.08,56.08,0,0,1,7.48,21.12c.35,2.38,4,1.37,3.62-1A58.78,58.78,0,0,0,11,17.2l-.67,2.57L32,7.6c2.11-1.18.22-4.42-1.89-3.23Z" transform="translate(-7.55 -4.11)"/><path class="cls-1" d="M11.57,19.62C54.34,34.28,85.5,76,87.5,121.13c.11,2.4,3.86,2.42,3.75,0C89.17,74.22,57,31.23,12.56,16c-2.29-.78-3.27,2.84-1,3.62Z" transform="translate(-7.55 -4.11)"/></svg>