<svg id="Layer_1" data-name="Layer 1" xmlns="http://www.w3.org/2000/svg" width="192.88" height="304.62" viewBox="0 0 192.88 304.62"><defs><style>.cls-1{fill:#713026;}</style></defs><title>stregtegning_familie</title><path d="M44.17,250.11l0-.56c0,.91-.06,1.84-.12,2.77s-.22,1.86-.34,2.78c.3-1,.62-2,.85-3.1a19.94,19.94,0,0,0,.41-3.24,11.54,11.54,0,0,0-.31-3.09,7.36,7.36,0,0,0-1.22-2.57c.5-.23.73-1.37.8-2.47a4.24,4.24,0,0,0-.26-2.16c-.37-.8-.69-1.61-1.08-2.4.25.55.49,1.11.7,1.67-.21-.56-.45-1.12-.7-1.67s-.56-1.28-.82-1.93-.61-1.28-.89-1.93c-.54-1.31-1.2-2.6-1.82-3.91-1.28-2.59-2.69-5.16-4.13-7.7l-3.85-6.37a40.34,40.34,0,0,1-3.15-6.36c-.15-.4-.29-.8-.44-1.21.21.69.21.69.43,1.38a30.09,30.09,0,0,1-2.59-4.43,3.17,3.17,0,0,0-.14,1.13l-.18-.82c-.66-.58-1.15-2.29-1.51-3.07.28.12.14-.52.07-1.09l-.11.25a50,50,0,0,1-1-6.64,1,1,0,0,1,.13-.61l-.22-1.88c.31.14.31-1.55.48-.65a7.61,7.61,0,0,1-.15-2.12A14.42,14.42,0,0,0,23,186c0-.6.15-1.2.24-1.8s.18-1.21.3-1.82.23-1.22.37-1.83l.2-.91c.07-.27.15-.54.23-.81a9.74,9.74,0,0,1,.62-1.51c.06-.11.12-.23.19-.34s.08-.15.15-.24a4,4,0,0,1,.37-.47,2.14,2.14,0,0,1,2.34-.52l0-.14a6.3,6.3,0,0,1,1,.37c.37.18.77.4,1.18.63A29.26,29.26,0,0,0,33,178.09a9.51,9.51,0,0,0,2.72-.09,2.76,2.76,0,0,0,1.72-.88,6.13,6.13,0,0,0,3.1-2.17c-.24,0,0-.29.09-.57s.32-.62-.07-.34a2.76,2.76,0,0,0-.79.42,1.18,1.18,0,0,1-.71.29l.08.08a6.45,6.45,0,0,1-4.82.12,4.69,4.69,0,0,1-1-.51,10.38,10.38,0,0,1-1-.82L31.6,173l-.44-.36c-.2-.15-.42-.31-.65-.46A7,7,0,0,0,27.57,171a6.59,6.59,0,0,0-4.05,1.07,8,8,0,0,0-1.64,1.44,9.6,9.6,0,0,0-1.13,1.58,14.28,14.28,0,0,0-1.3,2.94c-.27.95-.49,1.77-.68,2.66a40,40,0,0,0-.71,5.78,37.45,37.45,0,0,0,.14,5.38,6.52,6.52,0,0,1-.24,2,44,44,0,0,0,1.94,10l0-.16a44.78,44.78,0,0,0,1.39,4.7c.09,0,.19.21.29.31-.16.22,1.09,2.55,2.56,4.67s3.09,4.1,3.15,4.42l.34.43c1.78,3,3.16,6.44,4.72,8.85.5.43,1,.94,1.46,1.28.1.53.46.44.71,1,0,1.76.65,2.39.59,1.55a18.4,18.4,0,0,1,1.51,3.29c.24.46.48.92.73,1.38a1,1,0,0,1,0,1c.43,1,.15.79.38,1.94-.25.34,1.11,2.8,1,3.18l-.07-.18c.14,1.38-.28,2.35-.22,3.69A69.89,69.89,0,0,1,38,256.54c.31.07,0-.78.44-.78-.28,2.07-1,4.11-1.39,6.19a4.5,4.5,0,0,1-.52.94c-.23.65.08.42-.06.9l-.29,0c.08.75-.52,1-.54,1.66.1.06.07.31,0,.55-.29,0-.14.73-.4.64h0a1.54,1.54,0,0,1-.13.42c0,.3.27,3,.3,3.34l-.08.12c-.09.39.09.61.19.39l-.13.47v-.06l-.13.47a.17.17,0,0,1-.3,0,1.66,1.66,0,0,1-.11.86,25.53,25.53,0,0,1,1.32-2.27,7.07,7.07,0,0,1-.32,1.24,12.26,12.26,0,0,0-1,1.81c0,.15.27.33,0,.63-.27.1-.09.37-.32.61a2.26,2.26,0,0,1,.19-1c-.28,0-.38.73-.52,1,.06.14-.19.74-.22,1.15-.21-.24-.25.27-.44.46s0,.45.07.37c.25.15.44-1,.63-.56-.16.06-.25.58-.31.86.15.05.17-.16.26.06-.11.3,0,.67-.22.81a.62.62,0,0,1,.06-.28c-.12.4-.4-2.42-.45-1.88.17-.1.29,2.51.36,2.24s.23.25.35,0l-.11-.33c.15-.33.44-.4.51-.25-.17.57-.58-1.91-.56-1.38l.12-.18a1.33,1.33,0,0,1-.23,1c.15,0,.12.34.11.59l0,.07c0,.27-.12.59.12.49.35-1.43,1.25,1.33,1.7,0-.48.49-.28-.29-.16-.9.13,0,.36-.26.56-.67s-.06-.26-.12-.35c.12-.19.29-.57.45-.48-.13-.35.25-.43.27-.81s-.1,0-.14-.24c.14-.47.34-1.11.47-1.48.2-.1.6-.47.77-.09-.22.71-.34-.37-.47.38.45-.22-.07.68.17.89a1.93,1.93,0,0,0,.41-1.08l-.07.06a2.9,2.9,0,0,1,.43-1.42c.1.12.24,0,.21.25l.14-.49c0-.07-.05-.14-.11,0a.79.79,0,0,1,.18-.63,24.2,24.2,0,0,0,.1-2.63c.07-.35.3-.39.23-.76a25.12,25.12,0,0,0-.23,3c.23-.26.23-4.14.51-4.3,0-.27.08-.59-.07-.56.16-.43.24.19.43-.1,0,0-.07,0,0-.09l.24-.26c-.06-.73.4-1.69.24-2.47a2.56,2.56,0,0,1,.4,1l-.09.06c0,.08,0,.47.15.49a2.49,2.49,0,0,0,.16-1.31,2.29,2.29,0,0,1,.16-.23h-.05c.11-.14.12-.12.17-.06a.05.05,0,0,1,0,0c.47-.21.06-1.8.38-2.58,0-.25-.07,0-.1-.35a17.7,17.7,0,0,0,.7-2.24c-.15-.31-.22-.34-.44,0l.13-.66c.41.67.6-1.19,1-.47a1.64,1.64,0,0,0,.16-1c-.11-.05-.3-.13-.27-.61.21-.65.14-.49.34-1,.16-.12.21.09.34.07-.14-.86.4-.72.42-1.53,0-.51,0-1.52-.3-1.55C43.74,250,44,250,44.17,250.11Z"/><path d="M88.3,258.46c-.74-1.41-1.47-2.74-2.18-3.91a48.53,48.53,0,0,0-1.3-8.82,16.9,16.9,0,0,1,.29-9.3,41.35,41.35,0,0,1,3-8.53,30,30,0,0,1,2.18-3.69c.88-1.23,1.94-2.5,3.17-3.94-.26-.94.18-2.13.94-3.6s1.79-3.29,2.67-5.26c1.81-3.94,2.84-8.68,2-11.58a8.74,8.74,0,0,0-.93-4c-.44-.6-.82-.37-1,1a15.45,15.45,0,0,1,.25-4.33,6.91,6.91,0,0,0-.29-3.7c.41.42.81.85,1.21,1.29a12.79,12.79,0,0,0-.27-5c-.5-.63-1-1.25-1.54-1.84a11.42,11.42,0,0,0-2.61-6.41,56.13,56.13,0,0,0-5.11-5.47c.66.75.84,1.1.78,1.19s-.34-.06-.72-.27c-.75-.43-1.9-1-2-.5A7.26,7.26,0,0,0,85,170.34c-.71-.45-1.23-.77-.6-.7a9,9,0,0,0-3.62-.77,4.42,4.42,0,0,0-.78,0,4.55,4.55,0,0,0-.66.1,1.78,1.78,0,0,1-1.23-.07,4.42,4.42,0,0,1-1.8-1.35,3.66,3.66,0,0,1-.84-2c-.43-.33-.86-.68-1.28-1-2-2-2.39-4.38-3.22-6.75l-.67-.09A11.2,11.2,0,0,1,69,154.82a6,6,0,0,1-.28-2.91,19.08,19.08,0,0,1,.3-3.15c.18-1.15.44-2.36.75-3.6.62-2.46,1.43-5,2-7.27,1.15-2,1-2.76.8-3.3a4.79,4.79,0,0,1-.68-2.43,4.27,4.27,0,0,0,.08-1.61,4.83,4.83,0,0,0-.18-.84l-.06-.21c0-.05,0-.18-.11-.15l-.46,0c-1.37-.08-2.5-.11-3-.57a20.75,20.75,0,0,0,4.21-.62l.45-.07.23,0c.07,0,.17,0,.18,0a3.13,3.13,0,0,1,.34.66,4.75,4.75,0,0,1,.21,2.08c.29-.88.46.7.39,2.14s-.25,2.77.61.84a21.1,21.1,0,0,0-.1-3.65,16.18,16.18,0,0,0-.32-1.8c-.06-.3-.15-.59-.24-.89,0-.07,0-.17-.08-.2l-.22,0-.43-.08c-6.41-.51-12.41-.64-17.21.87.17-.8-2-.8-4.58-.34a43.29,43.29,0,0,0-6.93,1.92l-.3-.35a14.78,14.78,0,0,0-2.65.71,4.63,4.63,0,0,0-2.29,1.82,6.15,6.15,0,0,0-.47,4c0,.65.07,1.29.1,1.94l.12,1.84c.08,1.22.16,2.42.23,3.6a46.46,46.46,0,0,1,0,6.78,25.36,25.36,0,0,0,1.38,9.35,27.64,27.64,0,0,0,2.94,6.29A77.66,77.66,0,0,0,42,154.92c-.59-3.33-.87-6.49.15-9.35.05,5.16.69,5.47,2,9.23l.21-2.12L45,154.3c.41-.92,1.22,1.19,1.73.85q-.48-3-.82-6c-.09,3.27-1,1.24-1.66.35l-.12-3.14c-.2.75-.23,2.71-.8.46,0-1.27-.47-2.93-.18-4.36l1.37,2.4a10.58,10.58,0,0,1-.12-5.26c.13-.84.27-1.68.32-2.54v-.57a.43.43,0,0,0,0-.16,2,2,0,0,0-.21-.4,4,4,0,0,1,1.25.29.19.19,0,0,1,0-.08.36.36,0,0,1,.13-.19c.08.13.16.26.25.38l.08.06h0l.11,0,.5-.12,1-.22c2.07-.73,2.28-1.33,2.57-1.84,1.67-.4,3.28-.87,4-.7-.62.34-1.23.71-1.83,1.07.61,0,1.22-.07,1.83-.08-1.27-.05,1.43-.69,1.85-1a26.63,26.63,0,0,1,3.32-.17,18.07,18.07,0,0,1,2.19.39,14.49,14.49,0,0,1,4-.18l.8,0c.13,0,0,0,.08,0a2.22,2.22,0,0,0,.14-.44,1,1,0,0,1,.22.4.82.82,0,0,1-.14.36l0,.09v0l-.15.4c-.12.33-.24.66-.39,1,0,.65-.1,1.3-.21,2a26.34,26.34,0,0,0-3.31,7.26,23.26,23.26,0,0,0-.8,4.43c0,.43-.07.84-.08,1.32a11,11,0,0,0,0,1.81,18.63,18.63,0,0,0,.7,3.23c-.15-.16-.29-.36-.44-.54a26.66,26.66,0,0,0,2,3.63,17.77,17.77,0,0,0,2.72,5.61c1.08,1.59,2.11,3.18,3.68,6,.26.37.5.71.78,1.06a16.33,16.33,0,0,0,1.09,1.22,10.88,10.88,0,0,0,2.43,1.9,6.79,6.79,0,0,0,2.46.84l1.15,0a5.67,5.67,0,0,0,1-.13l.45-.08.14,0,.09,0,.34-.13c.23-.09.46-.17.68-.28.45-.17.9-.37,1.34-.56a5.24,5.24,0,0,1,3.19,1.66,19.15,19.15,0,0,1,2.13,2.78,12.93,12.93,0,0,0-1.18-.69,12.11,12.11,0,0,1,.6,1.55,9.83,9.83,0,0,1,1.58,2.62c.36.83.8,1.73,1.62,3.67.46,2.85,1,4.08,1.65,4.85s1.42,1.11,1.94,2.4a44.13,44.13,0,0,1-1,6l.28-.12a6.31,6.31,0,0,1,.62,3.72,39.12,39.12,0,0,1-1.83,7l.92-.07a8.29,8.29,0,0,0-1.52,3.16,11.13,11.13,0,0,1-1.71,3.81c-.49.77-1.86,2.06-3.26,3.62a12.48,12.48,0,0,0-3.06,5.26,15.56,15.56,0,0,0-2.76,7.85c-.07,1.23-.18,2.39-.21,3.62,0,.61-.08,1.23-.15,1.87a18.49,18.49,0,0,1-.23,2,7.78,7.78,0,0,0-.39,2.33,11.7,11.7,0,0,0,.06,1.92c.1,1.12.09,1.87-.58,2.22a4.33,4.33,0,0,1,0-.62c-.48.42-.9.87-1.34,1.32l1,.12a15.33,15.33,0,0,0-.1,1.72l.09,1.86a10,10,0,0,1-.28,3.47c.41.76.95,1.48,1.42,2.2A24,24,0,0,0,81.46,259a11.94,11.94,0,0,1-.94-3.65l-.24.19c-.19-.59-.39-1.65-.6-2.72a10.12,10.12,0,0,1-.13-2.94l.51,1.67c0-2,.65-.4.86.11.16,3.91.94,2.71,1.83,5.46.06.66.35,1.89-.07,1.53.18.4.32,1,.55,1.63s.46,1.34.69,2c.53,1.27,1.13,2.3,1.59,2.15,0,.15,0,.22,0,.36C86.83,263.45,87.51,261.05,88.3,258.46Z"/><path d="M99.59,176.09l.11.64a39.35,39.35,0,0,1-1-6.37,25.73,25.73,0,0,0,.49,7.45,13.46,13.46,0,0,0,1.24,3.38,7.88,7.88,0,0,0,2,2.53c-.43.39-.31,1.72,0,2.93a5.61,5.61,0,0,0,1,2.25c.61.76,1.21,1.51,1.79,2.28l-1.18-1.6,1.18,1.6a51.94,51.94,0,0,1,4.91,7.66,40.25,40.25,0,0,1,3.18,8.63,67.7,67.7,0,0,1,1.67,8.05,59.87,59.87,0,0,1,.68,8.34l0,1.58,0-1.76c.48,2.17.86,4.18,1.11,6.14a4.24,4.24,0,0,0,.47-1.25l-.07,1c.49.9.51,3,.72,4-.24-.22-.27.57-.3,1.27l.15-.28c-.07,2.64.08,5.73,0,8.11a1.59,1.59,0,0,1-.18.72l.14,2.29c-.31-.18-.32,1.87-.49.79.33,1.7.05,3.4.34,5a96.55,96.55,0,0,1-2,17.5l.16-.1c-.5,2-.55,4-2,6.1-.45,1.81-1.86,4-1.88,5-.62.9-1.15,1.46-1.6,2.09a10.8,10.8,0,0,1-1.77,2c.32-.05,0,.36-.36.73s-.58.63-.1.44c1.44-.57,1.28-.92,2.5-1.46l-.1-.05a26.86,26.86,0,0,0,6-6.66,34,34,0,0,0,3.74-8.1,87.29,87.29,0,0,0,2.09-11.91,96.73,96.73,0,0,0,0-12.38,6.29,6.29,0,0,1,.36-2.17c-.1-3.27,0-7.46-.23-11.18v.18c-.11-2,.17-3.48,0-5.42-.09,0-.11-.28-.17-.43.21-.18-.19-3-.79-5.9s-1.39-5.74-1.34-6.1c0-.2-.11-.4-.17-.61-.63-4.07-1.12-8.49-2.6-11.84-.5-.65-1-1.39-1.48-1.9-.11-.65-.48-.61-.77-1.32-.12-2.12-1-2.94-.78-1.92-.85-1.34-1.57-2.73-2.28-3.9-.37-.52-.75-1-1.13-1.55a1.36,1.36,0,0,1-.33-1.09c-.78-1.13-.4-.88-1-2.17.08-.43-2.07-2.89-2.13-3.3l.14.18c-.66-1.47-.49-2.69-1-4.12a60.43,60.43,0,0,1-2.74-12.76c-.31,0,.16.88-.24,1-.22-2.41,0-4.85,0-7.29a5,5,0,0,1,.31-1.19c.1-.78-.16-.46-.12-1l.28-.08c-.25-.83.31-1.22.19-2-.11,0-.12-.33-.11-.61.3,0,0-.86.26-.82h0a1.84,1.84,0,0,1,0-.5c-.08-.34-.83-3.36-.92-3.72l.06-.15c0-.46-.2-.66-.27-.4l0-.56,0,.07.05-.56a.16.16,0,0,1,.3-.05,2.12,2.12,0,0,1-.06-1c-.23.88-.55,2-.88,2.87a8.4,8.4,0,0,1,.09-1.48,15.42,15.42,0,0,0,.62-2.26c0-.17-.33-.31-.16-.7.24-.18,0-.44.21-.76a3.3,3.3,0,0,1,0,1.13c.27-.05.24-.92.34-1.21-.08-.15,0-.88,0-1.35.24.22.19-.36.35-.63s0-.51-.14-.39c-.28-.12-.25,1.23-.52.78.14-.11.14-.73.15-1.06-.16,0-.13.22-.27,0,.06-.37-.1-.77.08-1a.94.94,0,0,1,0,.33c0-.47.83,2.65.78,2-.15.15-.73-2.78-.76-2.46s-.27-.23-.34.07l.16.35c-.08.4-.36.55-.46.4.07-.68.92,2,.8,1.43l-.08.24a1.77,1.77,0,0,1,0-1.18c-.15,0-.18-.35-.22-.64l0-.09c-.06-.3,0-.7-.21-.52-.09,1.69-1.47-1.22-1.67.41.39-.66.33.26.32,1a1.58,1.58,0,0,0-.43.89c0,.45.11.27.19.36-.09.25-.19.72-.36.65.19.36-.17.55-.12,1s.09,0,.18.25c-.06.56-.13,1.34-.2,1.78-.17.16-.49.67-.73.27.08-.84.4.35.39-.54-.4.36-.06-.78-.34-1a2.51,2.51,0,0,0-.19,1.32l0-.09a4,4,0,0,1-.16,1.7c-.13-.11-.24.09-.26-.22l0,.57c0,.08.08.16.12,0a1,1,0,0,1-.07.75c-.15.06.49,3.1.41,3,0,.42-.23.51-.09.92a33.54,33.54,0,0,0-.33-3.44c-.2.35.56,4.74.31,5,0,.31,0,.68.18.61-.07.52-.27-.16-.41.21,0,0,.07,0,.07.09l-.18.36c.23.81-.05,2,.27,2.84a2.87,2.87,0,0,1-.59-1.06l.07-.09c0-.08-.1-.53-.24-.52a3.29,3.29,0,0,0,.09,1.52,2.11,2.11,0,0,1-.1.3h.06c-.09.18-.1.16-.16.1l0,0c-.4.35.32,2,.19,3,.07.28.07,0,.17.37a20,20,0,0,0-.16,2.7c.21.31.28.33.43-.08l0,.77c-.55-.65-.3,1.5-.86.78a2.11,2.11,0,0,0,.1,1.13c.12,0,.33.07.4.62,0,.78,0,.58-.07,1.25-.13.17-.23,0-.35,0,.38.94-.18.91,0,1.83.13.57.43,1.7.7,1.67C100,176.06,99.83,176.11,99.59,176.09Z"/><path d="M156.4,277.17l.17-.56a35.38,35.38,0,0,1-1.86,5.45,22.6,22.6,0,0,0,2.83-6.06,8.78,8.78,0,0,0-.26-6.12c1.14-.24,1.76-4.49,1.44-4.57-.2-.89-.4-1.75-.59-2.61.1.61.25,1.2.35,1.8-.1-.6-.25-1.19-.35-1.8-1.18-5.46-2.08-11.2-3.27-17.1-.33-1.63-1.08-4.61-1.81-7.55s-1.4-5.9-1.69-7.54l-.27-1.42c.12.8.12.8.23,1.6-.79-1.87-1.54-3.57-2.15-5.25a3.71,3.71,0,0,0-.22,1.21l-.13-.91c-.62-.69-1.08-2.54-1.47-3.37.27.13.15-.56,0-1.18l-.09.28c-.46-2.32-1.24-4.95-1.65-7a1.17,1.17,0,0,1,0-.67l-.58-1.94c.33.09-.06-1.69.31-.79-.62-1.41-.69-3-1.3-4.31-.91-5.07-1.83-10.45-2.68-15.73l-.11.13c-.29-1.84-1-3.47-.85-5.76-.47-1.62-.64-3.94-1.27-4.61-.09-1.9-.32-2.67-.41-4.55-.35.46-.29-1.84-.59-.94-.5,1.22-.13,1.31-.54,2.36l.11,0a80.42,80.42,0,0,0-.67,15c.52,3.33.69,7,1.26,10.4a102.56,102.56,0,0,0,2.46,10.71,5.17,5.17,0,0,1,.07,2c.75,2.84,1.47,6.51,2.46,9.67l0-.16c.48,1.68.48,3,1,4.68.08,0,.16.22.24.33-.38.42,3.53,9.46,3.47,10.09.07.17.14.34.2.51.83,3.5,1,7.25,1.82,10.14.34.59.69,1.26,1,1.75-.06.56.31.58.4,1.22-.51,1.76,0,2.61.15,1.74a31.5,31.5,0,0,1,.69,3.77c.14.53.27,1.05.39,1.59a1,1,0,0,1-.16,1c.22,1.17,0,.84,0,2.07-.26.3.53,3.08.4,3.43l0-.2a6.19,6.19,0,0,1-.43,1.86,9.36,9.36,0,0,0-.5,1.79,57.36,57.36,0,0,1-3.13,11.16c.28.14.22-.78.62-.68-.81,2-2,3.93-2.88,6a5.12,5.12,0,0,1-.72.89c-.38.63,0,.46-.26.93l-.29,0c-.07.81-.7,1-.86,1.69.09.08,0,.33-.1.58-.28-.1-.26.77-.5.64v0a2,2,0,0,1-.19.43c0,.32-.19,3.31-.14,3.65l-.09.13c-.12.42,0,.66.16.43l-.17.51v-.07l-.17.5a.16.16,0,0,1-.3,0,2,2,0,0,1-.14.95,17.54,17.54,0,0,1,1.48-2.43,8.35,8.35,0,0,1-.43,1.31,10.71,10.71,0,0,0-1,2c0,.16.26.35,0,.68-.26.13-.08.41-.31.68a2.58,2.58,0,0,1,.18-1.06c-.29,0-.37.83-.51,1.1.06.15-.17.82-.19,1.27-.22-.24-.22.33-.39.58s0,.5.1.39c.27.14.35-1.16.58-.69-.15.08-.19.67-.23,1,.15,0,.15-.2.27,0-.09.34,0,.73-.15.91,0-.07,0-.21,0-.31-.08.47-.62-2.63-.61-2,.15-.11.5,2.75.56,2.44s.25.23.34-.05l-.13-.34c.11-.38.4-.5.49-.35-.13.66-.76-2-.69-1.43a2.12,2.12,0,0,1,.11-.21,1.74,1.74,0,0,1-.15,1.12c.15,0,.15.35.17.62l0,.09c0,.28-.06.66.17.51.21-1.57,1.38,1.21,1.7-.28-.43.58-.31-.25-.25-.91a1.46,1.46,0,0,0,.49-.76c.06-.4-.07-.26-.14-.35.12-.21.27-.62.43-.53-.14-.35.24-.47.24-.85s-.09,0-.14-.26c.15-.48.35-1.15.49-1.53.2-.11.6-.48.77-.08-.23.72-.34-.39-.48.39.45-.23-.07.69.17.9a2,2,0,0,0,.42-1.1l-.07.07a2.73,2.73,0,0,1,.49-1.43c.1.12.25,0,.2.25l.17-.47c0-.08,0-.15-.12,0a.87.87,0,0,1,.23-.63c.15,0,.31-2.76.38-2.66.12-.34.35-.35.34-.74a19.49,19.49,0,0,0-.59,3c.22-.24.71-4.17,1.08-4.29.09-.26.18-.58,0-.57.24-.41.21.23.45,0,0,0-.08,0,0-.1l.28-.23c0-.75.72-1.62.72-2.43a2.61,2.61,0,0,1,.18,1.1l-.1.05c0,.08-.09.47.05.51a2.6,2.6,0,0,0,.43-1.27l.2-.2h-.05c.14-.12.15-.1.18,0s0,0,0,0c.49-.11.43-1.77.94-2.48,0-.26-.06,0,0-.37a20.92,20.92,0,0,0,1.23-2.07c-.07-.33-.13-.38-.43-.12l.3-.62c.24.76.88-1,1.09-.23a1.75,1.75,0,0,0,.39-.93c-.1-.08-.26-.2-.09-.66.37-.59.26-.46.58-.94.2-.08.19.14.32.15.08-.9.57-.62.79-1.43.1-.52.37-1.52.12-1.62C156,277,156.19,277,156.4,277.17Z"/><path d="M152.6,112.18c.29,0,.57.12.86.17a12.27,12.27,0,0,0-8.29,1.19,13.66,13.66,0,0,1,9.29-.15,50.57,50.57,0,0,1,8.16,3.66,2.46,2.46,0,0,0,.29,1.44c.12.34.27.7.43,1.06s.3.78.46,1.15a27.09,27.09,0,0,0,1.22,3.1,18.51,18.51,0,0,1,1.46,3.84,21.73,21.73,0,0,0-.87-2.73,21.73,21.73,0,0,1,.87,2.73,23.51,23.51,0,0,1,.64,6.92,30.41,30.41,0,0,1-1.3,7.28,74.5,74.5,0,0,1-6.58,14.58l-1.23,2.3,5.86.5a4.28,4.28,0,0,1,.75-3.41,6.28,6.28,0,0,1,1.69-1.68,5.87,5.87,0,0,1,2.25-.86,9.62,9.62,0,0,1,5.23.75,12.79,12.79,0,0,1,2.15,1.17c.61.43,1.14.92,1.6,1.27s1.05,1.08,1.61,1.6l-.86-.93a7,7,0,0,0-.91-.89l.52.31.46.37.93.73c.59.5,1.1,1.08,1.66,1.61s1,1.18,1.41,1.81.85,1.27,1.2,2a5.93,5.93,0,0,0-.43-1.94l.66,1.44a7.61,7.61,0,0,1,.78,1.17c.14.24.28.5.42.76l.36.85c.5,1.14.85,2.38,1.15,3.14-.15-.14-.16.11-.1.52s.15,1,.25,1.59l0-.48a74.56,74.56,0,0,1,1.28,13.4,3.52,3.52,0,0,1-.17,1.22c.06,1.28.1,2.56.11,3.85-.29-.31-.37,3.21-.5,1.35.26,2.92-.09,5.78-.08,8.45a33.2,33.2,0,0,1-1.61,6.93,63.19,63.19,0,0,1-3,6.82c-1.14,2.29-2.35,4.62-3.42,7.06a51.43,51.43,0,0,0-2.62,7.51l.19-.21c-.92,3.59-1,6.84-1.69,11.19,0,1.59.1,3.5.27,5.16a10.69,10.69,0,0,0,.83,3.65,20.83,20.83,0,0,0,.3,2.31c.11.68.24,1.28.39,1.88.29,1.2.62,2.38,1.08,4,.09-.94,1.18,3.16,1,1.44-.11-2.29-.49-2.33-.5-4.27l-.09.08a54.8,54.8,0,0,1,3.19-26.1,46,46,0,0,1,3.78-8.47,85.72,85.72,0,0,0,4.56-9.15,36.18,36.18,0,0,0,1.67-5.59,44.05,44.05,0,0,0,.75-5.68c.25-3.72.18-7.11.14-10.18a21.07,21.07,0,0,1,.34-3.78c-.18-5.65-.59-13.1-3-19.44l.09.32-.43-1.23-.47-1.16a23,23,0,0,0-1-2.21,19.61,19.61,0,0,0-2.64-4.25c-.06.07-.43-.36-.64-.54,0-.37-3.71-4.57-9.17-6.25a15.64,15.64,0,0,0-7.84-.46,14.69,14.69,0,0,0-4,1.57c-.34.24-.68.49-1,.77a11.93,11.93,0,0,0-3.67,4.56,10.59,10.59,0,0,0-.83,3,9.59,9.59,0,0,0,.22,3.24l1.41,5.75,3.2-5.36a80.54,80.54,0,0,0,4.89-9.15c.35-1.29.76-2.72,1-3.84.55-1,.29-1.26.76-2.47,1.87-2.88,1.94-5,1.23-3.34a50.73,50.73,0,0,0,1.31-7.91c0-1.15,0-2.3-.12-3.46a4.94,4.94,0,0,1,.14-2.05c-.41-2.52-.07-1.8-.53-4.47a10.77,10.77,0,0,0-1.21-3.56c-.76-1.57-1.73-3-1.9-3.36.09.12.19.24.27.36-.78-1.38-1.35-2.57-2.13-3.7a13.41,13.41,0,0,0-2.87-3.24A20.2,20.2,0,0,0,151,106.41a16.77,16.77,0,0,0-7,1.5,19.15,19.15,0,0,0-5.43,3.77c.14.27,1.3-1.3,1.66-1a28.58,28.58,0,0,0-5,5.18,13.33,13.33,0,0,0-1,1.48c-.32.51-.66,1-1,1.53l-.79,1.62-.39.81-.3.85c-.34.79-.87,1.74-1,2.1-.48,1.47-.07.92-.37,2l-.31.09a7.82,7.82,0,0,1-.38,2,5.44,5.44,0,0,0-.35,1.92,2.72,2.72,0,0,1,0,1.21c-.15,0-.17.44-.18.85s0,.81-.1.77l0,0a6.49,6.49,0,0,1,0,1c0,.16.11.65.24,1.3l.59,2.24a29.31,29.31,0,0,0,1.21,3.37l0,.29c.26.84.57,1.13.48.63l.29,1-.06-.11a9.16,9.16,0,0,0,.33,1c.05.19,0,.45-.24.21a7.91,7.91,0,0,1,.8,1.72c-.22-.82-.49-1.73-.68-2.66s-.29-1.88-.35-2.74c.26.65.49,1.91.73,2.63a13.5,13.5,0,0,0,.44,1.9c.11.37.2.77.34,1.15l.43,1.1c.16.28.56.33.76,1,0,.44.45.71.63,1.32a6.35,6.35,0,0,1-1.11-1.81c-.09.12.05.54.28,1s.55.91.67,1.17a6.62,6.62,0,0,1,.6.86,8.93,8.93,0,0,0,.93,1.19c-.44-.14.31.67.53,1.18s.73.68.61.45c.29,0-1.36-2-.62-1.49a5.35,5.35,0,0,0,1.24,1.57c.12-.1-.21-.38.18-.19.46.52,1.09.91,1.26,1.31a2.9,2.9,0,0,1-.44-.43c.31.32-.71-.37-1.73-1.08s-1.84-1.59-1.44-1.15c0-.08.22.11.58.42s.83.75,1.36,1.12a11.43,11.43,0,0,0,1.8,1.26c-.33-.44.46.07.11-.36l-.57-.32c-.49-.59-.51-1-.25-.88.43.46-.38,0-1.21-.53s-1.54-1.22-1.14-.82l-.22-.41a8,8,0,0,1,1.42,1.71c.12-.09.6.33,1,.67l.11.15c.44.33.94.9.83.5-1.11-1.12-.46-1,.18-.93s1.27.14.3-.92c.61,1.1-.53,0-1.43-1a4.28,4.28,0,0,0-.7-1.49c-.51-.6-.39-.29-.55-.36-.22-.38-.58-1.14-.38-1.14-.51-.4-.41-.89-.86-1.47s-.06.08-.36-.27a22.76,22.76,0,0,1-1.24-2.84c.05-.34,0-1.28.47-.77.5,1.35-.59-.35,0,1,.06-.37.21-.07.38.33s.47.89.66,1a3.41,3.41,0,0,0-.32-1c-.15-.36-.3-.77-.48-1.13v.17c-.15-.32-.37-.8-.57-1.3a5.08,5.08,0,0,1-.3-1.44c.18.13.18-.21.36.27l-.25-.92c-.08-.11-.15-.22-.11.05a2.25,2.25,0,0,1-.27-1.22c.09-.07-.39-1.28-.68-2.51-.15-.61-.29-1.23-.4-1.67a2.57,2.57,0,0,1-.09-.7c0-.71.18-.88,0-1.56a4.45,4.45,0,0,0,.05,1c0,.3.07.66.1,1s.15.76.22,1.15a13.55,13.55,0,0,0,.62,2.48c0-.3-.52-2.2-.78-4.15a14,14,0,0,1-.1-4.13c0-.53.11-1.15-.06-1.05.19-.86.23.3.45-.3,0,0-.07,0,0-.16l.26-.56a8.63,8.63,0,0,1,.4-2.32c.17-.83.48-1.62.56-2.34a8.59,8.59,0,0,1,0,1.86l-.11.13c0,.14-.11.87,0,.88a8.83,8.83,0,0,0,.33-1.16,10.14,10.14,0,0,0,.28-1.23c.09-.14.19-.31.27-.42s0,0-.06,0c.18-.25.18-.21.2-.09a.35.35,0,0,1,0,.06,1.41,1.41,0,0,0,.38-.66c.15-.33.29-.75.44-1.2a8.26,8.26,0,0,1,1.21-2.51c.18-.42,0-.07.18-.61a38.83,38.83,0,0,1,2.92-3.12c.22-.5.21-.59-.37-.26.3-.29.6-.56.92-.83-.24.56.25.23.73,0s1-.51.66,0a7,7,0,0,0,1.36-1c0-.13,0-.37.66-.77a11.18,11.18,0,0,1,1.68-.51c.25.07,0,.25.06.35a2.08,2.08,0,0,1,1.21-.29,2.67,2.67,0,0,0,1.19,0c.39,0,1-.16,1.47-.2s.91-.13.93-.25C152.76,111.77,152.73,112,152.6,112.18Z"/><path d="M63.91,71.37a27.58,27.58,0,0,0,3.29-.76l.29.18.07,0a.5.5,0,0,0,.13.06,3.09,3.09,0,0,1,.45.17l.75.34.74.42c1,.55,1.94,1,2.87,1.51,1,.8,2,1.65,3,2.38l.71.55a2.41,2.41,0,0,1,.77.78l1.84,2.52c.6-.41,1.22-.85,1.74-1.24l1.21-1,.59-.47.42-.36a8.14,8.14,0,0,1,.83-.62,2,2,0,0,1,2.58,0,1.18,1.18,0,0,1,.18.13c.86.45,1.16,2.54.91.54a5.85,5.85,0,0,1,.17-1.83,4.9,4.9,0,0,1,.42-1,5,5,0,0,1,.89-1c-.79-1.62-1-3-.17-4.56a22.82,22.82,0,0,1-.9-2.68c-.13-.44-.26-.9-.39-1.36-.06-.22-.14-.47-.19-.69L87,62.85l-.48-2.67c-.11-.89-.21-1.78-.32-2.66s-.17-1.74-.27-2.58-.23-1.76-.28-2.11a7.1,7.1,0,0,0-.93-2.56c-.58-2.89-2.09-4.6-2.76-2.28-.09-4.22,1.61-3.06,1.17-6.54l1.25,1.26c.43-1.08,1.24-2.18,1.22-3.59-.35-.59-.73-1.2-1.06-1.82A10,10,0,0,0,86,32.55,6.65,6.65,0,0,1,88.17,28c-1.16.76-1.18.43-1-.2s.63-1.47.1-1.73A11.56,11.56,0,0,0,89,25.25c.58-.27,1-.41.81,0,.35-.27.7-.47,1-.73a11.16,11.16,0,0,1,.94-.76c.32-.24.62-.53,1-.76l1-.64a4.26,4.26,0,0,1,1-.47,3.07,3.07,0,0,1,1-.25,2.38,2.38,0,0,1,1.82.55l1.27-.66a5.06,5.06,0,0,1,1.65-.21,6.6,6.6,0,0,1,1.5.38,25.46,25.46,0,0,1,2.65,1.5l.56-.6a4.3,4.3,0,0,1,1.2.32c.22.09.44.18.66.29s.41.26.61.41a4.33,4.33,0,0,1,1.63,2c1.18,1.34,2.56,2.64,3.85,4.38a18.32,18.32,0,0,1,3,5.88c-.27,2.07,0,2.63.5,3.2a3.83,3.83,0,0,1,1.18,3.06c-.73,2.37-.58,6.64-2,7.78a7,7,0,0,0-.27-3.67,6.09,6.09,0,0,1,0-3.7c-.45.6-.41-.85-.55-2.07s-.38-2.18-.94-.76c.65,3.19-.06,6.83-.9,10.29-.42,1.73-.85,3.46-1.15,5.14a18.31,18.31,0,0,0-.4,4.68c-.58,0-1.08.56-1.53,1.49a13.45,13.45,0,0,0-.62,1.62c-.1.3-.19.61-.28.93l-.13.48s0,0,0,.06l0,0,.09,0,.19.09c1.18.26,2.49.44,3.63.72l1.58.33,1.18.33-.14.56.83.42.41.2.32.2a15.15,15.15,0,0,0,1.39.75c.51.21,1,.52,1.64.78l1,.41,1.13.52a26.14,26.14,0,0,1,4.84,3.84,12.35,12.35,0,0,1,3,4.86,31.39,31.39,0,0,0,3.67,6.82c.37.5.71,1,1,1.49s.68.93,1,1.36a19.42,19.42,0,0,0,1.64,2.1c.3-3.49-1.17-6.63-2.67-9.26s-3-4.93-3.43-8c.66,1,1.21,1.8,1.67,2.42a9.72,9.72,0,0,0,1.3,1.51l1.37,1.24a16.15,16.15,0,0,1,1.77,1.72,19.79,19.79,0,0,0-.39-2.15c.4.43.84.83,1.21,1.29.24-1.14,1.84.66,2.39.11l-.74-1.48L139,76.18c-.28-.47-.55-1-.85-1.41l-.93-1.35c1.46,3.26-.57,1.75-1.75,1.42a29.63,29.63,0,0,0-1.72-2.72c.21.81,1.17,2.51-.62,1-.65-1.11-2.13-2-2.73-3.39,1,.22,1.91.49,2.9.78a8.05,8.05,0,0,1-2.14-1.88,23.37,23.37,0,0,1-1.59-2.21,15.43,15.43,0,0,0-1.76-2.13,6.82,6.82,0,0,0-2.54-1.45c0-.69-.12-1.36-.21-2.06l-1.76-1L121.49,59l.66-.31-1.08-.59-.26-.15h0v0a.36.36,0,0,1,0-.11,10.63,10.63,0,0,1-1.56,1.15h-.4c-.18,0-.09-.1-.08-.16a.65.65,0,0,1,.25-.25,4,4,0,0,0,1.14-.37,2.86,2.86,0,0,1,.38-.26,1.91,1.91,0,0,1-1.1.25c.2-.29.23-.36.35-.41a.68.68,0,0,1,.25,0h.4l.13-.19a12.91,12.91,0,0,1,.8-3.67c.33-1.07.51-1.9-.11-2.14a36.85,36.85,0,0,0,2.81-16.07c-.3-.84-.7-1.7-1.08-2.52a16,16,0,0,0-.8-4.83,13.19,13.19,0,0,0-.83-2,13.19,13.19,0,0,0-1.09-1.9,24.77,24.77,0,0,0-7-6.91l.72.08a16.16,16.16,0,0,0-2.06-.79l-1-.33c-.34-.09-.69-.16-1-.24a12.1,12.1,0,0,0-6.37-2.1c-1,0-2-.15-3.22-.19s-2.5-.17-4.15-.32a12,12,0,0,0-7.69,2.67,7.26,7.26,0,0,0-1.74,2.12A6.91,6.91,0,0,0,86,20.38,29.94,29.94,0,0,1,82.71,24a18,18,0,0,0-2.88,3.59c.07-.61.18-1.22.28-1.84-.55.55-1.14,1.11-1.65,1.71L77,31.33a16.48,16.48,0,0,0-.82,4.72c-.94,3.1-.51,4.5.13,5.42s1.59,1.38,2,2.66q-1,2.74-1.74,5.63l.36-.14a6.16,6.16,0,0,1,1.36,3.46c0,.29,0,.68,0,1v1a17.1,17.1,0,0,0,.32,3c.39.11.77.22,1.15.31a1.46,1.46,0,0,0-.16,1.4,15.43,15.43,0,0,0,.85,1.9,15.45,15.45,0,0,1,1.06,2.77,11.33,11.33,0,0,1,.08,2.28c.05.87.34,1.82,1.9,4.45a4.68,4.68,0,0,0,.57,1.56l.12.25-.08-.16L84,72.57a1.41,1.41,0,0,1-.1-.29c-.07-.11-.05-.12-.08-.14s-.12,0-.32-.18l-.15-.09-.24-.24c-.18-.18-.35-.37-.55-.55-.42-.35-.86-.75-1.4-1.24a19.21,19.21,0,0,0-1.71-1.46,8.79,8.79,0,0,0-1.22-.62,3.7,3.7,0,0,1-1-.55,2.86,2.86,0,0,1-.52-.59,10,10,0,0,1-.52-.87l.43.24c-.64-1-1.2-1.94-1.71-2.83l.47,1.59a9,9,0,0,0-.82-.6c-.67-.48-1.42-.79-2.11-1.24a3.93,3.93,0,0,1-1.68-1.67,10.92,10.92,0,0,1-2.18.66c-.8.26-1.57.52-2.3.79a7.4,7.4,0,0,1,3.17.76v-.39A10.09,10.09,0,0,1,74,64.91c-.43,0-.86,0-1.33-.08.84.57,1,1,.81,1.12s-.67.14-.93.11C70.65,64.9,70,64.88,69.32,65c-.31.06-.54.17-.89.24a6.56,6.56,0,0,1-1.36.06c-.49-.28-1.5-.59-1.06-.91-.74,0-2-.32-3.19-.36s-2.15.11-2.16.74a2,2,0,0,1-.29-.17A16.28,16.28,0,0,0,61.92,68Z"/><path class="cls-1" d="M90.09,112.15l7.65-14.51c-2.43-3.29-8.48-2.54-10,1.25a5.72,5.72,0,0,0-6.79-3.36,26.54,26.54,0,0,0,12.62,23"/><path class="cls-1" d="M93.55,115.87a8.73,8.73,0,0,0-1.28-.53,6.89,6.89,0,0,0-1-1c-.36-.26-.71-.48-1.06-.71a6.12,6.12,0,0,1-2.1-1.87,15.24,15.24,0,0,1-2.94-4.51,1.09,1.09,0,0,1-.76-.62,9.73,9.73,0,0,1-.55-1.34c-.15-.51-.27-1.05-.45-1.53a3.76,3.76,0,0,0-.58-1.24c-.38-.91-.84-1.38-.85-.59-.33-1.36.14-1.08-.2-2.19l.4.33a4,4,0,0,0,0-1.29l-.39-.52a3.11,3.11,0,0,0,.06-.49,1.4,1.4,0,0,0,0-.29,4.51,4.51,0,0,0-.11-.58,6.15,6.15,0,0,1-.12-.69c0-.08,0-.09.08-.1l.17,0a1.46,1.46,0,0,1,.42,0c-.91-.15.19-.25,0-.51.29.1,1,.26.79.34.89.17,2.36.25,2.58,1.08a2.56,2.56,0,0,1,.44.18,2,2,0,0,1,.85,1c.21.43.41,1,.6,1.55l.07-.31a1,1,0,0,1,.08.11,10,10,0,0,1,.47-.92,2.06,2.06,0,0,1,.59-.57,7,7,0,0,1,.83-.87c.23-.24.52-.43.79-.67a7.24,7.24,0,0,1,1.91-1,1.51,1.51,0,0,0,1-.18,1.27,1.27,0,0,1,1-.27c.4.11,1,.21,1.47.39a2.43,2.43,0,0,1,1.16.76,4.44,4.44,0,0,0-.72-.34,4.13,4.13,0,0,0-.56,0,4.51,4.51,0,0,1-1.21-.18c.2.13-.28.08-.67.1s-.71.1-.25.24a4.18,4.18,0,0,1,3.12.83,4.07,4.07,0,0,1,.62.55l.28.3c.06.11-.08.23-.11.35a10.38,10.38,0,0,0-.54,1.44c-.39-.37-1.41,2-1.75,2.82l-.15,0a8.61,8.61,0,0,0-1.09,2.22,15.75,15.75,0,0,1-2,3.46,8.52,8.52,0,0,0-1.66,4.33c1.4-1.69,1.67-3.83,3.16-4.84a5.72,5.72,0,0,0-1,2.56l.44-.45-.14.48c.28-.14.11.51.31.53l.83-1.58c-.59.77-.47.12-.51-.22l.49-.78c-.18.15-.51.61-.3,0a5.92,5.92,0,0,1,.64-1.1v.83c.25-1.14,1.33-1.53,1.58-2.67l.52-.11.47-.95.07.17.65-1.1c.26-.64.14-.82.07-1a4.56,4.56,0,0,1,.6-1.11l-.07.67.33-.47c-.25.3.09-.49.07-.66.22-.4.38-.67.49-.86l.32-.56a10,10,0,0,0,.67-1.11,5.08,5.08,0,0,1,.15-.52l0-.14s-.06-.07-.08-.11l-.2-.23c-.26-.29-.49-.59-.72-.84-.46-.48-.81-.83-1-.74-.26-.23-.55-.43-.84-.65a4.1,4.1,0,0,0-.82-.5A7.49,7.49,0,0,0,95,93.62a8.77,8.77,0,0,0-3-.15l-.77.35a5.41,5.41,0,0,0-2.55,1,3.83,3.83,0,0,0-.51.39L88,95.4l-.06.06,0,0h0v0a.79.79,0,0,1-.09.22v-.14a4.07,4.07,0,0,1-.07.51s0,0,0,0c0-.19-.09-.16-.19-.2a.62.62,0,0,1-.17-.13l-.16-.18-.46-.45a4,4,0,0,0-2.19-1,4.85,4.85,0,0,0-.85,0,3.18,3.18,0,0,0-.71.21,8.51,8.51,0,0,1-.88,0c-.3,0-.62,0-.93.08s-.62.06-.94.12l-.23,0c-.08,0-.16,0-.14.11l0,.39,0-.4c0-.06,0-.14,0-.19l.14-.08c-.07,0-.21,0-.23,0l0,.19-.1.4c0,.83-.06,1.24-.1,1.72a4.35,4.35,0,0,0,0,.86l0,.27,0,.2c0,.14,0,.29.09.47,0,2,.72,1.58,1.09,2.33,0,.62,0,1.25,0,1.88l.08-.06c.8.9.36.76,1.27,3.16l.21-.21c.07.9.57,1.09,1.05,2.06.13.24.26.78.49,1.34a3.72,3.72,0,0,0,.94,1.43,4.84,4.84,0,0,0,1.5,1.82,11.46,11.46,0,0,1,1.61,1.42c.5.88,1.37,1,1.17,1.46l-.13-.12,0,.59.25-.21c.35.5,1.08,1,1.24,1.57l1.47.36a4,4,0,0,1-.85-.67l0,.1a5.35,5.35,0,0,1-1.22-1.08l.45.24c-.38-.43.08-.24.23-.18.74.86.73.39,1.44.86.13.14.4.39.23.39.43.25,1.43,1.16,1.64.91l.06.09A4.41,4.41,0,0,0,93.55,115.87Z"/><path d="M10,150.48V150a42.34,42.34,0,0,1,.06,5.05c1.17-3.77,2.09-8.2-1.1-10.8,1.57-.43,2.06-4,1.66-4.05A18.89,18.89,0,0,1,9.74,138c.14.5.31,1,.49,1.51-.18-.5-.35-1-.49-1.51-1.55-4.65-1.31-9.83-.79-15.09.12-1.46.25-4.17.5-6.84.12-1.34.25-2.67.42-3.85a29.27,29.27,0,0,1,.51-2.92c.08-.42.17-.83.25-1.25l-.39,1.39a47.93,47.93,0,0,1-.65-5,3,3,0,0,0-.87.9L9,104.5c-.58-.81-.35-2.49-.49-3.32.32.22.48-.39.61-.93l-.26.18c.21-1,.37-2.16.53-3.25a26.53,26.53,0,0,1,.53-3.08.83.83,0,0,1,.37-.51l.13-1.82c.41.24.78-1.33.84-.44-.17-1.42.45-2.66.31-4,1.26-4.39,2.72-9,4.32-13.56l-.21,0c.55-1.58.48-3.38,1.9-4.93.24-1.6,1.3-3.46.89-4.54.23-.38.41-.71.57-1s.3-.59.44-.88a15,15,0,0,1,1-1.9c-.65,0,.69-1.66-.15-1.28-1.27.45-.89.88-1.95,1.29l.14.08A44,44,0,0,0,9.42,71.66c-.52,1.54-1.3,3-1.94,4.57l-1,2.31c-.29.78-.58,1.57-.84,2.35-.57,1.69-.94,3.5-1.35,5.23s-.62,3.43-.74,4.94c0,.73-.52,1.14-.88,1.69-.39,2.74-1.11,6.17-1.26,9.27a1.55,1.55,0,0,1,0-.15c-.1,1.64-.75,2.8-.81,4.41.14,0,.13.25.19.38-.31.11-.23,2.49,0,4.88s.61,4.79.41,5.07c0,.16.05.33.06.51C1,120.43-.2,123.91,0,126.76a17.73,17.73,0,0,0,1,1.8c-.25.52.28.59.24,1.2C0,131.35.61,132.23,1,131.41c.23,1.25.19,2.52.3,3.63l.39,1.54a.79.79,0,0,1-.32.94c.26,1.12-.08.8-.13,2-.43.32.91,2.92.8,3.26L2,142.6c0,1.37-.77,2.34-.71,3.67-.06,3.73.56,7.74.6,11.14.46,0-.15-.74.46-.82,0,2-.43,4.07-.42,6.08a3.22,3.22,0,0,1-.47,1c-.15.64.24.37.2.84l-.42.08c.37.67-.44,1-.24,1.65.17,0,.2.26.2.49-.45,0,0,.7-.37.68h0a1,1,0,0,1,0,.4c.16.25,1.43,2.69,1.61,3l-.07.12c0,.37.34.53.42.31l0,.45,0,0,0,.45a.31.31,0,0,1-.44.05,1,1,0,0,1,.16.8,15.47,15.47,0,0,1,1.12-2.34c.15.3-.09.86,0,1.19a7.34,7.34,0,0,0-.75,1.84c0,.14.52.24.3.56-.35.14,0,.35-.25.61a1.47,1.47,0,0,1-.07-.9c-.4,0-.28.74-.41,1,.13.12,0,.7.09,1.07-.39-.17-.26.29-.47.5-.06.25.1.41.24.32.42.09.27-1,.71-.63-.21.09-.15.58-.14.84.23,0,.18-.17.4,0-.06.29.21.61,0,.77-.06-.06,0-.18,0-.27,0,.38-1.46-2.1-1.34-1.6.21-.13,1.32,2.2,1.34,2s.41.18.5-.06l-.27-.27a.49.49,0,0,1,.66-.33c0,.55-1.54-1.61-1.32-1.13l.11-.19c.15.2.27.74,0,.93.23,0,.3.28.38.51l0,.08c.11.23,0,.55.35.41,0-1.36,2.3,1,2.47-.34-.52.54-.52-.2-.56-.79A1.11,1.11,0,0,0,6,175.9c0-.37-.18-.22-.3-.29.11-.2.22-.59.48-.53-.31-.29.22-.45.12-.8s-.14,0-.29-.19c0-.45.08-1.09.14-1.45.25-.13.69-.56,1.08-.25-.05.69-.63-.26-.55.45.57-.3.16.64.59.77a1.19,1.19,0,0,0,.19-1.08l-.08.08a1.79,1.79,0,0,1,.12-1.39c.2.08.35-.08.4.17l0-.47c-.06-.06-.12-.12-.17,0a.52.52,0,0,1,0-.62c.21-.06-.93-2.49-.8-2.42,0-.33.3-.42.08-.75a13.57,13.57,0,0,0,.71,2.78c.22-.3-1.12-3.82-.74-4,0-.25-.08-.55-.29-.48.09-.43.41.11.6-.19,0,0-.11,0-.1-.07l.26-.3c-.36-.65,0-1.63-.42-2.3a2.6,2.6,0,0,1,.88.83l-.11.09c.07.06.16.42.37.4a1.48,1.48,0,0,0-.15-1.22,1.81,1.81,0,0,1,.16-.25H8.14c.12-.15.15-.14.23-.09l.05,0c.62-.29-.47-1.64-.19-2.43-.1-.22-.1,0-.24-.29a13.43,13.43,0,0,0,.47-2.18c-.29-.25-.39-.27-.66.07l0-.63c.76.52.62-1.2,1.38-.62a1,1,0,0,0,0-.91.48.48,0,0,1-.51-.5c.2-.62.12-.47.32-1,.23-.14.34,0,.52,0-.35-.76.47-.71.38-1.45-.1-.45-.19-1.36-.61-1.35C9.34,150.46,9.64,150.44,10,150.48Z"/><path d="M22.78,26.6l-.11-.5c.45,1.6.92,3.29,1.41,5-.46-3.89-.71-8.17-3.14-10.69.49-.25.71-1.29.79-2.24s.08-1.78-.05-1.8a9.78,9.78,0,0,1-.53-2,11.27,11.27,0,0,0,.27,1.36,11.27,11.27,0,0,1-.27-1.36,6.22,6.22,0,0,1,.19-2.87A5.28,5.28,0,0,1,23,9.19c1.55-1.32,4-2,6.58-2.37.72-.11,1.77-.26,3-.39s2.7-.29,4.08-.37a20.85,20.85,0,0,1,6.59.47,10,10,0,0,1,1,.33,9.31,9.31,0,0,0-1.16-.44,9.64,9.64,0,0,1,4.17.7,2,2,0,0,0-.47-.85l.56.42c.77-.06,1.94.92,2.51,1.37-.28,0,.06.48.29.91l0-.25a14.93,14.93,0,0,1,2.19,5.69,1,1,0,0,1-.07.6q.22.9.39,1.83c-.31-.11-.15,1.59-.41.7.47,1.39.27,2.87.68,4.29.13,5.06.4,10.45.89,15.7L54,37.4c.19,1.84.78,3.47.55,5.7.39,1.6.57,3.88,1.19,4.53,0,1.85.36,2.59.47,4.41.34-.46.34,1.77.61.88.48-1.19.11-1.26.49-2.27l-.11,0c.61-4.75.95-9.52,1.12-14.36-.26-3.23,0-6.73-.17-10.08-.08-1.81-.19-3.69-.32-5.5a46.39,46.39,0,0,0-.66-5.31,6.94,6.94,0,0,1,0-2.09A24.83,24.83,0,0,0,55.52,8.2a12.94,12.94,0,0,0-3.75-4.74l.14.13A14.52,14.52,0,0,0,47.09.64c0,.09-.32,0-.47,0a4.61,4.61,0,0,0-1.88-.5A19.75,19.75,0,0,0,40.92.05c-2.72.17-5.26.76-5.57.67l-.54.11C33,1,31.2,1,29.36,1.09A16.94,16.94,0,0,0,24.1,2.18a11.19,11.19,0,0,0-1.79,1.48c-.64.12-.57.51-1.23.86A5.44,5.44,0,0,0,19.77,5a3.47,3.47,0,0,0-.74.53c-.3.32-.21.44.28.2a12.79,12.79,0,0,0-2.71,4,10.22,10.22,0,0,0-.4,2,1.66,1.66,0,0,1-.45,1.1c0,1.43-.21,1-.31,2.45a4,4,0,0,0,.22,1.94,18.56,18.56,0,0,1,.49,1.86l-.07-.21c.18,1.51-.24,2.6.05,4.08a58.15,58.15,0,0,0,3.53,12c.31-.08-.38-.76,0-1,.76,2.12,1.38,4.36,2.36,6.44a5.52,5.52,0,0,1,.22,1.14c.25.71.34.32.56.81l-.21.2c.58.58.31,1.16.78,1.75.12,0,.27.21.39.44-.25.17.45.69.2.8h0a1.65,1.65,0,0,1,.22.42l1.36,1.18c.64.52,1.28,1,1.42,1.11l0,.15c.24.34.53.36.43.13l.29.43-.05,0,.29.42a.16.16,0,0,1-.2.22,1.86,1.86,0,0,1,.63.68,17,17,0,0,1-1-2.6c.28.23.5.84.76,1.12a11.67,11.67,0,0,0,.85,2c.11.12.44,0,.55.37-.07.28.26.31.32.65a2.67,2.67,0,0,1-.69-.77c-.17.21.39.78.5,1,.16,0,.5.64.84.91-.32,0,.1.36.16.65s.36.3.35.16c.28-.12-.61-1-.13-.87,0,.17.37.56.57.78.12-.1,0-.23.2-.18.19.28.56.42.56.67-.07,0-.14-.14-.2-.22.28.35-2.31-1.13-1.87-.76,0-.19,2.32,1.29,2.13,1s.33,0,.2-.28l-.34-.11c-.2-.32-.1-.61.07-.58.39.49-2-.66-1.5-.36l-.08-.21c.22.11.69.51.72.8.11-.1.35.09.56.25l0,.09c.23.14.44.44.48.18-1-1.13,1.81-.28.92-1.44.14.68-.39.07-.84-.39a1.37,1.37,0,0,0-.25-.85c-.28-.28-.24-.1-.36-.1-.08-.22-.29-.59-.12-.66-.36-.11-.2-.47-.49-.71s-.06.07-.28,0c-.3-.4-.68-1-.88-1.3,0-.23,0-.77.41-.65.41.61-.5,0,0,.6.11-.49.48.49.8.42a1.91,1.91,0,0,0-.59-1V48A3,3,0,0,1,30,46.78c.17,0,.15-.2.33,0l-.26-.42c-.07,0-.15-.05-.09.08a.79.79,0,0,1-.34-.55c0-.07-.45-.53-.95-1a11.15,11.15,0,0,1-.89-.9c-.2-.31-.06-.49-.37-.71a8.66,8.66,0,0,0,1,1.29,6,6,0,0,0,.94.95c-.08-.3-2.81-3-2.67-3.4-.14-.22-.33-.49-.43-.36-.16-.43.31,0,.26-.36,0,0-.05,0-.09,0V41c-.54-.5-.76-1.55-1.37-2.06a2.81,2.81,0,0,1,.94.55l0,.11c.07,0,.3.36.42.28a2.52,2.52,0,0,0-.67-1.11c0-.09,0-.2,0-.27l-.05,0c0-.18,0-.17.11-.15l0,0c.26-.44-1-1.44-1.15-2.27-.15-.19-.08,0-.27-.23-.18-.83-.32-1.39-.54-2.22-.27-.19-.35-.18-.4.2l-.19-.63c.67.37,0-1.29.67-.87a1.67,1.67,0,0,0-.29-.89c-.13,0-.33,0-.48-.4-.07-.65-.07-.49-.1-1,.1-.17.23,0,.34-.07-.47-.69.1-.78-.17-1.48-.18-.44-.49-1.32-.76-1.26C22.35,26.66,22.55,26.6,22.78,26.6Z"/></svg>