<svg id="Layer_1" data-name="Layer 1" xmlns="http://www.w3.org/2000/svg" width="200.45" height="344.53" viewBox="0 0 200.45 344.53"><defs><style>.cls-1{fill:#1d1d1d;}.cls-2{fill:#78322b;}.cls-3{opacity:0.8;}.cls-4{fill:#874943;}.cls-5{fill:#fff;}</style></defs><title>stregtegning</title><path d="M112.89,313.51l.35-.51a57,57,0,0,1-3.15,5.14,22.29,22.29,0,0,0,5-5.16,7.4,7.4,0,0,0,.81-6.91c1,.28,2.3-.55,3.22-1.57s1.48-2.18,1.26-2.31c0-1.12,0-2.22.1-3.32-.06.75-.12,1.49-.19,2.24.07-.75.13-1.49.19-2.24.2-3.43.61-6.74,1.12-10.1s1.09-6.76,1.52-10.19c.12-1,.23-2.32.36-3.9s.13-3.36.2-5.15,0-3.57.06-5.16,0-3,.07-4c0-.58,0-1.15,0-1.73l-.2,1.94c-.76-2.33-1.64-4.37-2.25-6.38a3.9,3.9,0,0,0-.84,1.42l.06-1.07c-1-.84-1.3-3-1.82-4,.49.14.45-.67.41-1.4l-.26.34a29.8,29.8,0,0,0-.76-4.19c-.31-1.4-.66-2.75-.89-3.94a1,1,0,0,1,.18-.79l-.82-2.2c.65,0,.1-2,.73-1-1.11-1.53-1-3.35-2.18-4.78a92.13,92.13,0,0,0-6.24-17.13l-.18.21c-1-1.92-2.68-3.36-3-5.93-1.31-1.51-2.49-3.87-3.93-4.19-.78-2-1.65-2.58-2.57-4.45-.45.69-1.32-1.7-1.5-.58-.45,1.57.3,1.42,0,2.74l.19-.09a160.23,160.23,0,0,0,2.93,16.11c1.53,3.34,2.14,7.25,3.24,10.83,1.22,3.86,2.64,8,3.87,11.27.35.77,0,1.46-.2,2.2.93,3,1.42,7,2.29,10.51V254c.4,1.86-.11,3.35.25,5.15.18,0,.23.25.34.38-.38.21.31,2.83,1.06,5.53s1.38,5.48,1.11,5.81a5.59,5.59,0,0,1,.11.59,26.87,26.87,0,0,1-.38,2.94c-.2,1-.46,1.94-.68,2.88a25.41,25.41,0,0,0-.89,5.29c.35.72.65,1.54,1,2.16-.4.54.28.71.12,1.39-1.87,1.55-1.32,2.59-.6,1.8a20.74,20.74,0,0,1-.55,4c0,.59,0,1.17,0,1.77s-.31.72-.76.85c-.11,1.25-.4.79-1,2-.33.05-.36.87-.39,1.75a5.62,5.62,0,0,1-.21,1.93V300c-.71,1.39-2.19,1.83-2.92,3.18-2.3,3.63-4.45,8.19-6.58,12.22.54.31.31-1,1.07-.65C99,317,97.1,319.3,96.11,322a5.53,5.53,0,0,1-1.06,1.15c-.47.85.14.62-.12,1.27l-.56-.05c.18,1.09-1,1.32-.94,2.34.21.1.18.46.1.81-.59-.09-.15,1.07-.67.94l0,0a1.74,1.74,0,0,1-.15.63c.07.22.39,1.34.79,2.44a20.84,20.84,0,0,0,1,2.37l-.1.19c0,.58.49.8.59.47v.7l0-.08c0,.23,0,.47,0,.7a.38.38,0,0,1-.58.12,1.9,1.9,0,0,1,.35,1.25A12.92,12.92,0,0,1,96,333.64c.19.44-.07,1.27,0,1.76a8.16,8.16,0,0,0-.67,2.92c.07.22.75.24.55.78-.41.33.14.54-.09,1a2.3,2.3,0,0,1-.41-1.38c-.26.09-.29.4-.27.75a6.06,6.06,0,0,1,.1.92c.21.13.27,1.11.63,1.65-.58-.1-.16.57-.3,1,.07.43.39.59.49.37.55-.08-.22-1.66.52-1.31-.21.22.12.95.33,1.32.29-.11.11-.35.49-.21.12.46.65.75.46,1.13-.11,0-.14-.24-.18-.37.1.28-.68-.25-1.45-.86s-1.41-1.27-1.19-.9c.11-.14.8.6,1.53,1.24s1.41,1.2,1.34,1c0-.39.61,0,.55-.39l-.5-.22c-.1-.52.32-.92.58-.84.15.39-.57.07-1.26-.35s-1.29-.93-1-.61l0-.34a1.6,1.6,0,0,1,.55,1.41c.29-.11.55.24.79.52v.14c.28.27.42.76.69.38-.44-1,.41-.93,1.27-1s1.73-.12,1.47-1c-.32,1-.74.06-1.11-.65a1.59,1.59,0,0,0,.39-1.17c-.2-.44-.33-.2-.52-.23.06-.3.07-.83.43-.85-.5-.26.11-.63-.12-1s-.18.06-.43-.17a11.1,11.1,0,0,1-.09-1.86c.31-.23.84-.79,1.4-.47,0,.84-.87-.23-.67.63.71-.46.29.75.91.81a1.43,1.43,0,0,0,.08-1.3l-.09.1c-.16-.38-.37-1.2,0-1.65.27.1.46-.1.54.19l0-.54c-.09-.07-.18-.14-.23,0a.51.51,0,0,1,.07-.71c.15,0-.17-.75-.4-1.49a5.29,5.29,0,0,1-.41-1.44c0-.41.47-.45.24-.89a5.33,5.33,0,0,0,.17,1.89,5,5,0,0,0,.4,1.48,9.47,9.47,0,0,0-.33-2.44c-.21-1.17-.24-2.35,0-2.42,0-.3.07-.67-.23-.66.25-.47.5.26.84,0,0,0-.14,0-.11-.11l.43-.26c-.25-.87.61-1.82.31-2.78a3.69,3.69,0,0,1,.78,1.32l-.17,0c.06.1,0,.54.33.6a1.62,1.62,0,0,0,.26-1.4,2.7,2.7,0,0,1,.31-.2l-.11,0c.22-.1.24-.08.33,0l.05,0c.88,0,.11-2,.86-2.66,0-.29-.13-.08-.15-.45a21.7,21.7,0,0,0,1.73-2c-.2-.44-.32-.52-.81-.34l.42-.62c.58,1,1.42-.83,2,.25a1,1,0,0,0,.57-.9.6.6,0,0,1-.29-.84,10.34,10.34,0,0,1,1-.78c.34,0,.35.27.59.36.07-1,1-.4,1.33-1.19.18-.54.67-1.52.19-1.81C112.17,313,112.53,313.23,112.89,313.51Z"/><path d="M187.51,219.2l.41-1.78-.42,2.19c-.11.74-.23,1.48-.35,2.23-.25,1.49-.51,3-.76,4.5s-.43,3-.66,4.57-.48,3.05-.63,4.58c1.57-6.52,3.27-13.6,4.88-20.28.35-1.67.69-3.32,1-4.93s.58-3.21.76-4.77a40,40,0,0,0,.41-8.84c1.17-.23,3-3.34,4.52-6.62s2.62-6.78,2.4-7c.4-3,.75-6.07,1-9.12-.09,1.05-.18,2.1-.32,3.15s-.24,2.11-.39,3.15q.22-1.56.39-3.15c.14-1.05.23-2.1.32-3.15a213.26,213.26,0,0,0-.25-29.25q-.48-7.29-1-14.78a105.62,105.62,0,0,0-2-15.77,44.29,44.29,0,0,0-4.7-12.32,32,32,0,0,0-5.56-7.15A32.57,32.57,0,0,0,178.61,89a49,49,0,0,0-17-4.61l-1.88-.17c-.31,0-.61-.06-.9-.07l-.62,0a.71.71,0,0,1-.17-.11.16.16,0,0,1,0-.22.18.18,0,0,1,.05-.07.63.63,0,0,1,.18-.14,1.15,1.15,0,0,0-.3.23.3.3,0,0,0-.09.15l-.35.19c-.28,0-.45-.19-.56-.66a16.24,16.24,0,0,1,.44-3.11c.22-1.44.44-2.87.66-4.28a20.89,20.89,0,0,0-1.84,3.68l.89-3.13a43.71,43.71,0,0,1,.36-6.47,57.09,57.09,0,0,0,.34-6.65c.21.37.38-.09.54-.92s.22-2.05.31-3.19l-.34.89a54.49,54.49,0,0,0-.94-13.65c-.12-.58-.22-1.15-.35-1.71s-.29-1.12-.44-1.68-.3-1.1-.44-1.65-.37-1.07-.55-1.6a36.42,36.42,0,0,0-2.51-6,13.41,13.41,0,0,1-1-2.4,27.38,27.38,0,0,0-5.65-6.06c.46,0-.83-1.29-2-2.15s-2-1.38,0-.45a27.82,27.82,0,0,0-5-1.83,19.13,19.13,0,0,0-5.31-.49,15.44,15.44,0,0,0-9.28,3.5,26,26,0,0,0-5.83,5.34,43.65,43.65,0,0,0-4.19,6.21,64.14,64.14,0,0,0-3.2,6.57c-.89,2.14-1.78,4.29-2.63,6.5a105.92,105.92,0,0,0-4.4,13.64A51.88,51.88,0,0,0,103,76.89l.24-.48a28.91,28.91,0,0,0,2.22,9.77c1.28,3.1,3,6.08,4.51,9.68a43.78,43.78,0,0,1,4.36,8c1.13,2.79,1.78,5.32,2.56,6.39.39,3.3.61,5.62.75,8a44.62,44.62,0,0,1-.17,8c.45-.79.39.83.28,2.26s-.21,2.57.36,1.12a16.61,16.61,0,0,0,1.29-4.36,27.56,27.56,0,0,1,.82-4l-.23.1a58.46,58.46,0,0,0,.33-13.56c0-.57-.11-1.14-.19-1.7l-.11-.86-.15-.92a34.93,34.93,0,0,0-.84-3.6,51.91,51.91,0,0,0-2.39-6.53c-1.74-4-3.47-7.54-4.23-10.78a27.73,27.73,0,0,1-.33-10.1,43.8,43.8,0,0,1,1.24-7.55,80.76,80.76,0,0,1,2.53-7.83c1-2.63,2.13-5.27,3.29-7.93.59-1.33,1.17-2.66,1.76-4s1.12-2.46,1.73-3.61a36.2,36.2,0,0,1,4.36-6.9,14.28,14.28,0,0,1,5.14-4.19A7.9,7.9,0,0,1,137.4,31,10.51,10.51,0,0,1,140,32.31a16.65,16.65,0,0,1,2.38,2c1.45,1.47,1.83,3.11,2.36,4.83a20.43,20.43,0,0,1,1.3,2.9,34.63,34.63,0,0,1,1.08,3.4A45,45,0,0,1,148.44,53a77.8,77.8,0,0,1-.52,16c0-.19.07-.38.1-.51a52,52,0,0,1-1.66,7.62l-1,3.63c-.27,1-.55,1.94-.83,2.94s-.62,2.31-.94,3.51c.21-.08-.2,1.4-.3,2.07a68.12,68.12,0,0,0-2.68,8.93l7.1-.39,3.92-.22,4-.16,3.24,0c.76,0,1.54,0,2.3,0,1.53,0,3,.14,4.44.31a30.62,30.62,0,0,1,7.1,1.61l1.21.49c.36.15.66.33.93.46a3.93,3.93,0,0,1,1,.63c.45.25.92.5,1.38.78a19.27,19.27,0,0,1,5,5.89A30.48,30.48,0,0,1,185,114c1.3,5.22,1.67,10.67,2.3,15.74.63,2.16,1.22,4.7,1.85,6.56-.19,1.88.54,2.17.63,4.39-1.21,5.75-.37,8.91.07,6a109.21,109.21,0,0,1,.49,13.15c.08,1.86.12,3.7.13,5.57a5.28,5.28,0,0,1-.8,3.19,13.09,13.09,0,0,1-.49,3.39c-.22.7-.45,1.43-1,3.44-.36.43-.69,3-1.15,5.66a45.06,45.06,0,0,1-1.27,6l.13-.71a54.3,54.3,0,0,1-2.73,6.31,40.79,40.79,0,0,0-2.54,6.47l-.81,2.59c-.23.88-.47,1.76-.7,2.65l-1.34,5.36-1.08,5.47c-.17.91-.37,1.82-.52,2.73s-.27,1.84-.4,2.75c-1.2,7.3-1.68,14.55-2.19,21.18.6.17.06-2.93.88-3l-.26,2.93-.2,2.94c-.12,2-.33,3.93-.43,5.9l-.22,5.94c-.08,2,0,4,.1,5.95a36.24,36.24,0,0,1-.45,3.89c0,2.55.44,1.47.54,3.33l-.53.3c.72,2.66-.27,4,.34,6.57.24.1.4,1,.51,1.94-.58.13.43,2.78-.13,2.73l.05,0a16.1,16.1,0,0,1,.18,1.61c.18.5,1.12,3.09,2.07,5.68s2.06,5.09,2.28,5.58v.5c.33,1.42.9,1.92.82,1.07l.36,1.76-.09-.19c.12.58.28,1.15.42,1.73,0,.33-.14.76-.52.33a11,11,0,0,1,1,3c-.19-1.41-.38-3-.55-4.58s-.18-3.23-.21-4.72c.46,1.12.61,3.31,1,4.56a69.52,69.52,0,0,0,.92,7.27c.16.52.93.69,1,2-.26.71.43,1.33.43,2.42a15.85,15.85,0,0,1-1.18-3.37c-.45.35.53,2.92.67,3.87.31.37.81,2.67,1.44,4-.71-.43.09,1.22.12,2.14.28,1,.69,1.48.73,1,.64.1-1-3.82,0-2.72-.14.43.61,2.22,1,3.19.29-.1,0-.75.48-.22.33,1.11,1.09,2.13,1,2.87a3.63,3.63,0,0,1-.37-1c.49,1.45-4.68-7-3.85-5.24.1-.55,4.65,7.47,4.32,6.51-.17-.92.75.41.52-.51l-.7-.86c-.34-1.26,0-1.94.35-1.59.69,2.07-4.08-5.07-3.16-3.44l-.11-.76a9,9,0,0,1,1.3,3.47c.29-.1.75.86,1.15,1.65l.06.31c.46.8.82,2,1,1.32-1.84-4.95,4.08,2.14,2.51-2.7.09,2.23-.89-.43-1.72-2.5a6.24,6.24,0,0,0-.26-2.89c-.48-1.3-.48-.7-.73-.89-.08-.79-.4-2.23,0-2.15-.72-.9-.26-1.73-.78-2.92-.53-1-.15.13-.59-.58-.5-1.64-1-4-1.29-5.32.18-.6.34-2.29,1.14-1.3.6,2.51-1.07-.73-.26,1.83.43-1.31.81,2.24,1.49,2.56a11.32,11.32,0,0,0-.8-4l0,.31c-.42-1.21-1.27-3.63-1.13-5.07.33.25.39-.38.66.51l-.33-1.71c-.13-.2-.27-.4-.22.1a4.71,4.71,0,0,1-.43-2.24,44.77,44.77,0,0,0-1.4-4.5c-.71-2.18-1.42-4.31-1.31-4.19-.24-1.24.13-1.61-.32-2.79-.35-.05,3,11.73,2.71,10.08,0-.55-1-4-1.93-7.42s-1.61-6.9-1.42-7.32c-.15-.92-.37-2-.62-1.78,0-1.6.59.4.75-.75,0,0-.14.11-.16-.25l.26-1.11c-.67-2.41-.5-6-1.17-8.56a12.34,12.34,0,0,1,1.33,3.16l-.12.3c.11.22.34,1.56.62,1.5a14.88,14.88,0,0,0-.11-2.24,16.93,16.93,0,0,0-.38-2.28c.06-.31.12-.66.19-.91,0,0-.07,0-.11,0,.15-.55.18-.49.3-.31a.52.52,0,0,1,.07.11c.39-.51.18-2-.11-3.77a21.34,21.34,0,0,1-.29-5.18c-.13-.84-.14-.08-.32-1.12.07-.73.14-1.4.21-2.05s.17-1.26.26-1.88c.16-1.24.31-2.5.44-4-.33-1-.47-1.07-.88.09.07-.76.1-1.53.2-2.29.81,2.12,1.2-4.22,2-1.87a9,9,0,0,0,.34-3.29c-.24-.15-.61-.38-.5-2,.56-2.19.39-1.67.9-3.48.36-.4.41.29.67.24-.08-2.87.91-2.4,1.21-5.05.16-1.66.62-4.94.09-5.11C186.68,218.83,187.13,218.91,187.51,219.2Z"/><path class="cls-1" d="M19.23,208.55c-.29,0-.49,1.66-.75-1-.32-4.13-.33-7.87-.41-11.61,0-1.87-.06-3.75-.14-5.67s-.24-3.89-.46-5.95l-.5-.56c-.07-1.61-.15-3.23-.22-4.86s-.2-3.29-.29-4.95c-.19-3.33-.39-6.71-.69-10.13-.36-3.12-.71-6.28-1.12-9.34s-.76-6.06-1-9a66.59,66.59,0,0,1,.15-16.73c-.19.25-.41.34-.25-.7a29.12,29.12,0,0,1,2.2-7.26,72.89,72.89,0,0,1,4.69-8.55L22,109.49a2.13,2.13,0,0,0,.32-1.22c1.78-2.89,3.4-5.62,4.77-8.35.52-1.14,1-2.33,1.45-3.53s.84-2.43,1.22-3.64l.94-3.69c.25-1.24.45-2.47.68-3.7a86.11,86.11,0,0,0,.82-14.6c-.18-9.55-1.37-18.7-1.53-27.69,0-2.25,0-4.48.1-6.7a47.6,47.6,0,0,1,.7-6.47,31,31,0,0,1,4.37-11.74,16.32,16.32,0,0,1,9.27-7,19.93,19.93,0,0,1,12.4.83,26.11,26.11,0,0,1,5,2.48,24.58,24.58,0,0,1,4.27,3.62,28.88,28.88,0,0,1,3.35,4.63,30.64,30.64,0,0,1,2.35,5.23,41.15,41.15,0,0,1,1.29,18.53,80.74,80.74,0,0,1-5.26,18.1c.3-.14.38.22.28,1a35.92,35.92,0,0,1-1,3.75c-.44,1.49-1,3.12-1.49,4.7-.25.76-.5,1.54-.75,2.31-.12.36-.24.72-.35,1.08l-.17.52L65,78.2a3.21,3.21,0,0,0,.34-.08c3.07-.93,5.54-1.61,7-2.14s1.86-.89,1.14-1.14c.73-.11,1.51-.21,2.31-.3.41-.05.84-.08,1.26-.12l.64-.06.84,0a42.41,42.41,0,0,1,6.69.08,35.92,35.92,0,0,1,5.31.89,14.72,14.72,0,0,0,2.45.59,6.8,6.8,0,0,1,2.8.17,16,16,0,0,1,5.3,2.52,28.79,28.79,0,0,1,6.7,7.05c1.13,1.58,2.2,3.28,3.35,5.22s2.34,4.11,3.54,6.55a96.15,96.15,0,0,1,5,13.42c1.37,4.49,2.23,8.41,2.72,9.84.36,1.07.45.95.4.24s-.25-2.12-.49-3.48c-.46-2.74-1-5.47-.16-3.25a128.75,128.75,0,0,0-6.64-18.29q-2-4.44-4.33-8.69a46.71,46.71,0,0,0-6-8.93,26,26,0,0,0-4.59-4.13,27,27,0,0,0-5.42-3,33.22,33.22,0,0,0-11.28-2.45c-.91-.05-1.82-.1-2.7-.07s-1.78,0-2.64.07l-1.27.07h0l-.08.13.56-1.45.62-1.63c.4-1.1.8-2.19,1.17-3.32.75-2.23,1.44-4.51,2-6.86A73,73,0,0,0,83,48.42a60.65,60.65,0,0,0,.59-7.51,52.65,52.65,0,0,0-.43-7.61,45.37,45.37,0,0,0-1.61-7.62,39,39,0,0,0-7.63-14.2A33.61,33.61,0,0,0,60.13,2,32.31,32.31,0,0,0,51.79.1a29.27,29.27,0,0,0-8.86.62c-.74.19-1.48.35-2.21.6l-2.16.81a27.19,27.19,0,0,0-4.05,2.2,28.32,28.32,0,0,0-6.58,6A39.46,39.46,0,0,0,21.3,24.5a57.76,57.76,0,0,0-1.74,10.92,121,121,0,0,0-.19,12.29c.21,8.57,1.17,17.74.82,26.88a57.26,57.26,0,0,1-2,13.39,29.36,29.36,0,0,1-1,3.17,25.87,25.87,0,0,1-1.29,3.11c-1,2.07-2.15,4.18-3.44,6.35-2.56,4.35-5.62,9-8.06,14.37a48.27,48.27,0,0,0-2.9,8.54A57.18,57.18,0,0,0,.2,132.16a94.74,94.74,0,0,0,.37,16.19c.48,5.1,1.17,9.84,1.63,14.36C4.25,180.84,5.1,196.13,5.47,205l.18,3.22c.86,19.37,1.13,43,1.56,59.45.31,7.57.62,15.27.94,22.93.35-3.55.68-6.84,1-9.71C9,288.7,8.74,296.5,9,299.5c.28,16.64,1.32,7.25,2.58.88.59-4.59,1.19,1.65,1.84-5.55-.15,5.2-.23,7.8-.38,13,.45.61.17-16.05.82-12.41-.29,5-.15,10.62-.31,15.82.68-1.78.69-18,1.27-17.21.09,2.82-1.19,14.61-.46,15.64.16.2.31-5,.39-7.61-.18,16,.28,24.89,1.52,10.28-.16,5.08-.69,12.25-.74,17.62,0,0,0,0,0,0,.13-2.68.35-7.3.47-9.77l-.3,9.14c.12-.47.24-1,.36-1.58.16-2.28.3-4.56.38-6.94-.07,2-.14,4-.2,6.08.29-1.51.58-3.25.86-5.16.69-7.2,1.6-14.1,1.71-18C19.94,272.15,20.62,240.3,19.23,208.55Z"/><path class="cls-2" d="M89,152.22c-.2-3,.72-6.53,3.5-7.71a9.19,9.19,0,0,1,3.66-.47,14.33,14.33,0,0,1,6.32,1c1.94.94,3.47,3.08,3,5.17a16.37,16.37,0,0,1,12-5.85,3.52,3.52,0,0,1,1.9.36,3.42,3.42,0,0,1,1.15,1.54c3.2,6.85,1.85,15.18-1.89,21.75-2.62,4.6-7.39,11.12-12.22,13.61-6.13,3.16-2.82,3-5.46-1.67-2.18-3.91-2.92-8.53-5.61-12.77C92.4,162.52,89.4,157.88,89,152.22Z"/><g class="cls-3"><path class="cls-4" d="M93,142.28c.39-.06-.14.07.44,0-.14.05-.74.19-1.29.38a4.43,4.43,0,0,0-.47.17A4.91,4.91,0,0,1,93,142.28Z"/><path class="cls-4" d="M88.29,152c0-.16,0-.12,0-.1s0,.31,0,.41S88.3,152.1,88.29,152Z"/><path class="cls-4" d="M90.56,144.67a5.76,5.76,0,0,1,.83-.57c.19,0-.39.34-.89.88l-.41.42c-.14.09-.34.27,0-.19C90.12,145.07,90.63,144.66,90.56,144.67Z"/><path class="cls-4" d="M88.8,150v-.07c0-.15.06-.07.1-.31s0-.27,0-.4,0-.08,0-.06a8.57,8.57,0,0,1,.7-2.07l-.07.27a7.24,7.24,0,0,1,.41-.75c-.28.57.19-.21.25-.19L90,147a3.61,3.61,0,0,1,.45-.64l-.19.29c0,.09.07,0,.21-.25-.17.26,0,.13-.08.22a4.43,4.43,0,0,1,1.09-1.25.93.93,0,0,1,.4-.18,4.37,4.37,0,0,0-.78.75c-.22.17-.64.81-.69.81a5.57,5.57,0,0,0-.24.52c.1-.11.28-.52.39-.61a7.11,7.11,0,0,0-.63,1.37l.06-.1a9.13,9.13,0,0,0-.49,2.08c-.15.68-.21,1.35-.28,1.51,0-.6-.08,0-.11,0s0-.51,0-.45c0,.33,0,.62,0,.75-.06-.62-.14-.26-.19-.47s0-1,0-.93c0,.47,0,0,0,.13A3.42,3.42,0,0,1,88.8,150Z"/><path class="cls-4" d="M96.28,143.75c.26,0,.17,0,.24.05s-.5,0-.79,0-.34,0-.31-.06A4.42,4.42,0,0,1,96.28,143.75Z"/><path class="cls-4" d="M92.67,144.71a3.09,3.09,0,0,1,.58-.16s0,.06-.21.15-.61.28-.9.38S92.12,144.94,92.67,144.71Z"/><path class="cls-4" d="M105,146c.55.69.32.54.42.73-.59-.81.22.45-.29-.24l-.43-.54c.17.14,0-.14-.28-.37s-.48-.46-.25-.31A4.27,4.27,0,0,1,105,146Z"/><path class="cls-4" d="M100.8,144.07c.27.07.41.14.28.13s-.5-.1-.73-.15-.42-.11-.23-.1A3.49,3.49,0,0,1,100.8,144.07Z"/><path class="cls-4" d="M98.89,144c.16,0,0,0,.12.05-.12,0-.42,0-.59,0l-.21-.05A5.8,5.8,0,0,1,98.89,144Z"/><path class="cls-4" d="M101.65,144.4c.13.06.19.11.13.11-.3-.1-.63-.17-.88-.26s-.06-.05-.08-.08A4.49,4.49,0,0,1,101.65,144.4Z"/><path class="cls-4" d="M99.73,144.23l.77.14s.55.18.7.25c-.47-.13-.18,0-.32,0l-1.95-.35c.11,0-.5-.15.3-.08C99.43,144.2,99.66,144.24,99.73,144.23Z"/><path class="cls-4" d="M95.72,144.54l1,0c.31.06-.11.12.06.15a7.08,7.08,0,0,0-1.25,0l-1.31,0c-.39-.06,1.31-.19.69-.22A7.22,7.22,0,0,0,95.72,144.54Z"/><path class="cls-4" d="M102.49,144.81a3.91,3.91,0,0,1,.53.33,4.93,4.93,0,0,0-.53-.22c-.24-.14-.66-.31-.68-.36A2.35,2.35,0,0,1,102.49,144.81Z"/><path class="cls-4" d="M104.33,146.17c0,.11-.37-.33-.63-.49l-.43-.35c-.06-.07,0-.07.2.06A5.82,5.82,0,0,1,104.33,146.17Z"/><path class="cls-4" d="M106,149c.19-.21.08,0,.08,0l-.18.22-.09.11,0,0v-.08c0-.19,0-.23,0-.18s0,.13,0,.12A2.09,2.09,0,0,0,106,149Z"/><path class="cls-4" d="M105.25,149.35c0,.39-.06.31-.08-.23,0-.19,0-.39,0-.54A4.05,4.05,0,0,1,105.25,149.35Z"/><path class="cls-4" d="M124.38,158.19a.17.17,0,0,1,0,.07l0-.16S124.39,158.16,124.38,158.19Z"/><path class="cls-4" d="M118.06,143.85a3.69,3.69,0,0,0,.92.25,2.84,2.84,0,0,1,1.8,1.73c-.07-.07,0,.15.21.59a3.06,3.06,0,0,0,.16.32c0,.09-.12,0,0,.4a4.83,4.83,0,0,0-.41-.56c0,.11.1.2.12.31a7.24,7.24,0,0,0-.79-1.5l0,.1a2.6,2.6,0,0,0-1.13-1c-.25-.09-.2,0-.3-.05a1.57,1.57,0,0,0-.75-.16l-.4,0s.45-.05.13-.08h-.57c.27-.06-.71,0-.36-.12.6,0,.25-.07.14-.09h.38c-.11,0,.21-.09.5-.12l.24,0C118.54,144,117.88,143.88,118.06,143.85Z"/><path class="cls-4" d="M117.71,143.93h0l-.16,0C117.68,143.9,117.64,143.92,117.71,143.93Z"/><path class="cls-4" d="M116.45,144.21s.1,0,0,0S116.28,144.23,116.45,144.21Z"/><path class="cls-4" d="M100.84,145.65a3.78,3.78,0,0,1-.47-.13A1.57,1.57,0,0,1,100.84,145.65Z"/><path class="cls-4" d="M116.9,144.27h0Z"/><path class="cls-4" d="M121,146.32c0-.07-.07-.1-.08-.18A.78.78,0,0,1,121,146.32Z"/><path class="cls-4" d="M121.75,148.08l0,.06,0-.14S121.73,148,121.75,148.08Z"/><path class="cls-4" d="M121.44,147.84l0,.06-.08-.22A.41.41,0,0,1,121.44,147.84Z"/><path class="cls-4" d="M122.11,150.71a9.68,9.68,0,0,1,.21,1.24c0-.09-.08-.32,0,.09s0,.19.06.45c0-.38-.11-.55-.12-.5l0,.34c-.08-.61-.24-1.27-.31-1.86s.07.05,0-.28A4.62,4.62,0,0,0,122.11,150.71Z"/><path class="cls-4" d="M119.88,145.89c.09.16.11.24,0,.11C119.73,145.72,119.67,145.57,119.88,145.89Z"/><path class="cls-4" d="M122.63,153.32c0,.12,0,.36,0,.27a1.8,1.8,0,0,1,0-.46A1.25,1.25,0,0,0,122.63,153.32Z"/><path class="cls-4" d="M121.34,161c0,.1-.26,1.1-.23,1.21,0-.17-.06,0,0-.31-.1.39-.27.76-.49,1.39-.06,0-.07,0-.2.15a3.93,3.93,0,0,0,.2-.72l-.06.14a7.28,7.28,0,0,0,.31-1.14l0,.06c.09-.23,0,0,.08-.09s.14-.42.13-.49c.11-.32.2-.52.34-1C121.22,161,121.55,160.19,121.34,161Z"/><path class="cls-4" d="M121.45,159.59a.76.76,0,0,1,0-.3c0-.11,0-.13,0,0S121.47,159.52,121.45,159.59Z"/><polygon class="cls-4" points="120.6 163.46 120.64 163.35 120.62 163.45 120.6 163.46"/><polygon class="cls-4" points="120.38 163.41 120.43 163.28 120.41 163.36 120.38 163.41"/><path class="cls-4" d="M119.55,165.64c-.11.21,0-.11,0,0S119.53,165.65,119.55,165.64Z"/><path class="cls-4" d="M119.68,165c0,.1,0,0,.07-.07a2.6,2.6,0,0,0-.24.7c-.31.61-.61,1.28-1,2l0-.08c-.14.17-.48.77-.75,1.17.23-.41-.06,0-.16.17a8.75,8.75,0,0,1-.5.87l.25-.44s.11-.27,0-.12a2,2,0,0,1-.2.32,2.71,2.71,0,0,1,.15-.26s-.19.21-.37.48a5.69,5.69,0,0,0,.48-1l-.15.2c.09-.11.28-.46.39-.64s.6-1.08.67-1.33a11,11,0,0,0,.69-1.31h0c.47-.93.55-.95.89-1.63-.16.46,0,.09-.14.62l.12-.18A4.27,4.27,0,0,0,119.68,165Z"/><path class="cls-4" d="M118.63,167.44l-.06.15Z"/><path class="cls-4" d="M118.35,168l-.1.22Z"/><polygon class="cls-4" points="120.52 154.92 120.52 154.94 120.5 155.2 120.5 155.18 120.52 154.92"/><path class="cls-4" d="M120.6,156.89s0,0,0-.14S120.61,156.79,120.6,156.89Z"/><path class="cls-4" d="M116.9,170.39l-.1.17Z"/><path class="cls-4" d="M116.56,170.67c.08-.13.29-.43.38-.6A5.11,5.11,0,0,1,116.56,170.67Z"/><polygon class="cls-4" points="116.88 170.05 116.97 169.9 116.93 169.97 116.88 170.05"/><path class="cls-4" d="M115.48,172.54c-.15.17,0,0,.1-.18S115.59,172.4,115.48,172.54Z"/><polygon class="cls-4" points="115.98 171.57 116.17 171.29 116.11 171.38 115.98 171.57"/><path class="cls-4" d="M114.25,173.16a2.5,2.5,0,0,1-.43.48s.21-.33,0-.1c.16-.2.58-.79.77-1S114.55,172.77,114.25,173.16Z"/><path class="cls-4" d="M113,175c.15-.13-.29.37,0,.13-.23.32-.6.71-.91,1.13,0-.1-.43.4-.41.41a4.59,4.59,0,0,1-.61.46c.15-.17.54-.63.28-.4.23-.25.63-.68.56-.66l1.08-1.12c.1-.09-.13.27.24-.17Z"/><path class="cls-4" d="M117.93,164.62l-.27.44s.14-.37.11-.38c.23-.51.32-.78.47-1,.05-.05,0,.09,0,.1A7.74,7.74,0,0,1,117.93,164.62Z"/><polygon class="cls-4" points="111.01 177.27 111.13 177.13 111.05 177.23 111.01 177.27"/><path class="cls-4" d="M114.86,170.88l-.21.23c0-.08,0-.13.35-.62.1-.14.28-.42.36-.5s.09-.06,0,.08S115.05,170.62,114.86,170.88Z"/><path class="cls-4" d="M113.11,173.66c-.06.13-.33.45-.48.67a4.55,4.55,0,0,1-.53.54c-.26.22.47-.61.54-.78s.42-.4.51-.48Z"/><path class="cls-4" d="M103.88,182.94s0,0,0,0l.11,0Z"/><path class="cls-4" d="M115.48,169c-.18.26-.36.48-.23.23a5.51,5.51,0,0,1,.35-.6c.19-.29.26-.32.23-.24A5.79,5.79,0,0,1,115.48,169Z"/><path class="cls-4" d="M105.41,181.45l-.16.06Z"/><path class="cls-4" d="M106.6,180.49a4.87,4.87,0,0,1,.49-.34c.28-.18.12,0,.17,0A3.57,3.57,0,0,1,106.6,180.49Z"/><path class="cls-4" d="M108.29,148.05a4.67,4.67,0,0,0,.42-.39c.13-.09.1,0,.3-.17.51-.38,1.22-.8,1.48-1,0,0-.34.23-.22.2l.89-.45c-.29.15.17,0,.19,0a18.56,18.56,0,0,1,1.85-.73,8.18,8.18,0,0,0-1.31.54c.12,0,.75-.26,1-.3l-.32.11c.11,0-.22.17.38,0-.15.11-1.24.62-1.91,1a14.85,14.85,0,0,0-1.81,1s0,.05,0,.05a2.21,2.21,0,0,0-.32.18c-.14.09-.24.14-.47.31a12.72,12.72,0,0,0-1.06.9c-.29.24.38-.4.13-.21,0-.06-.33.27-.48.4a2.2,2.2,0,0,0,.32-.58C107.7,148.66,107.94,148.3,108.29,148.05Z"/><path class="cls-4" d="M101.9,181.64s0,0,0-.07c-.11-.21-.23-.43-.37-.66v0c-.29-.57-.52-.93-.87-1.57a23.53,23.53,0,0,1-1-2.44c0-.24.12.26.23.47,0-.08.1.11-.06-.23.13.25.16.25.27.45l-.1-.29a4,4,0,0,0,.38.73c-.09-.26-.19-.4-.27-.64.26.66.53,1.12.86,1.81l0-.12c.18.34.23.54.46.92v-.05a11.32,11.32,0,0,1,.62,1.6C102.21,182.16,102,181.76,101.9,181.64Z"/><path class="cls-4" d="M107.59,179.57a.53.53,0,0,1-.17.08,3.69,3.69,0,0,1,.43-.32C108,179.27,107.75,179.45,107.59,179.57Z"/><path class="cls-4" d="M106.61,180.35c-.12.07,0,0,0,0s.28-.16.23-.12A.7.7,0,0,1,106.61,180.35Z"/><path class="cls-5" d="M102.63,182.39l0-.06Z"/><path class="cls-4" d="M102.38,181.63c0-.07.08.15.1.28C102.46,181.85,102.42,181.76,102.38,181.63Z"/><polygon class="cls-5" points="99.91 177.39 99.89 177.37 99.83 177.16 99.84 177.18 99.91 177.39"/><polygon class="cls-4" points="101.23 179.41 101.37 179.77 101.23 179.46 101.23 179.41"/><path class="cls-4" d="M99.45,176.34c0-.06,0-.05,0,0S99.49,176.45,99.45,176.34Z"/><path class="cls-4" d="M99.52,176.27l-.13-.36Z"/><path class="cls-4" d="M99.64,176.3s-.09-.22-.11-.3c.13.24.16.47.34.84A2.74,2.74,0,0,1,99.64,176.3Z"/><path class="cls-4" d="M91.83,161.94c-.28-.58-.7-1.29-.89-1.76,0,0,.1.19.08.13-.39-.81-.09-.39-.47-1.19l.15.32a2.82,2.82,0,0,0-.16-.48,3.47,3.47,0,0,0,.15.36c0-.13.08,0,.16.13l0,.07c.13.21.18.3.41.74,0,0-.06-.15-.1-.26.19.53.81,1.58,1.06,2.17a4.49,4.49,0,0,1,.35.71c.16.3.14.31.09.29A6.46,6.46,0,0,1,91.83,161.94Z"/><path class="cls-4" d="M103.93,181.43c-.09,0-.08,0-.06,0a.43.43,0,0,1,.19-.1S104,181.4,103.93,181.43Z"/><path class="cls-4" d="M97.86,172.27l-.11-.26Z"/><path class="cls-4" d="M101.84,179.63l0-.06.11.19A1.05,1.05,0,0,1,101.84,179.63Z"/><path class="cls-4" d="M101.52,179h0l.07.17A.85.85,0,0,1,101.52,179Z"/><path class="cls-4" d="M101.73,179.14l-.22-.45c.23.37.16.21.35.5s.32.57.41.85c0,.1,0,.09-.11-.08l-.31-.55C101.76,179.25,101.7,179.13,101.73,179.14Z"/><polygon class="cls-4" points="90.5 159.38 90.56 159.47 90.52 159.42 90.5 159.38"/><polygon class="cls-4" points="101.7 179.11 101.71 179.14 101.67 179.08 101.7 179.11"/><polygon class="cls-4" points="87.22 153.1 87.25 153.34 87.23 153.16 87.22 153.1"/><path class="cls-4" d="M102.13,179.64l-.09-.17Z"/><path class="cls-4" d="M90.63,159.42l-.17-.38Z"/><polygon class="cls-4" points="90.2 158.53 90.28 158.72 90.26 158.66 90.2 158.53"/><path class="cls-4" d="M89.94,157.9c0-.09,0,0,0,0S90,158,89.94,157.9Z"/><path class="cls-4" d="M90.66,159.09a.78.78,0,0,1,0,.14A.58.58,0,0,1,90.66,159.09Z"/><path class="cls-4" d="M90.87,159.36c.07.18.19.41.21.46A1.86,1.86,0,0,1,90.87,159.36Z"/><path class="cls-4" d="M90.12,158.06l-.11-.32Z"/><polygon class="cls-4" points="90.54 158.82 90.61 158.95 90.64 159.04 90.56 158.9 90.54 158.82"/><path class="cls-4" d="M100.94,177.11c-.07-.25.2.36.16.34A1.84,1.84,0,0,1,100.94,177.11Z"/><path class="cls-4" d="M100.66,176.55s.16.34.13.31S100.69,176.64,100.66,176.55Z"/><path class="cls-4" d="M100.9,176.81s.06.14.11.25A.84.84,0,0,1,100.9,176.81Z"/><path class="cls-4" d="M101.18,176.82a5.55,5.55,0,0,1,.34.69A5.54,5.54,0,0,1,101.18,176.82Z"/><path class="cls-4" d="M101.28,176.94a.43.43,0,0,1,.07.14Z"/><polygon class="cls-4" points="101.15 176.66 101.21 176.81 101.17 176.71 101.15 176.66"/><polygon class="cls-4" points="101.12 176.53 101.21 176.72 101.13 176.56 101.12 176.53"/><path class="cls-4" d="M100.33,174.57c0-.08.07.1.08.18S100.37,174.64,100.33,174.57Z"/><path class="cls-4" d="M89.05,152.5v-.29a5.67,5.67,0,0,1,.11,1C89.14,153.33,89.08,152.76,89.05,152.5Z"/><path class="cls-4" d="M91.19,158a1.63,1.63,0,0,1,.13.3C91.39,158.52,91.17,158.06,91.19,158Z"/><polygon class="cls-4" points="89.81 154.21 89.86 154.5 89.79 154.19 89.81 154.21"/></g></svg>