<svg id="Layer_1" data-name="Layer 1" xmlns="http://www.w3.org/2000/svg" xmlns:xlink="http://www.w3.org/1999/xlink" viewBox="0 0 565.64 562.85"><defs><style>.cls-1,.cls-3{fill:#010101;}.cls-1,.cls-5{stroke:#000;stroke-miterlimit:10;}.cls-2{opacity:0.69;}.cls-4{clip-path:url(#clip-path);}.cls-5{fill:none;}</style><clipPath id="clip-path"><path class="cls-1" d="M473.08,395.56c23.91-5.9,21.39-21.39,21.39-21.39,7.59-30.35-24.15-43.46-24.15-43.46-36.56-9-35.87-12.42-35.87-12.42s-11.73-6.9-4.83-35.87,37.94-38.63,37.94-38.63l2.07-2.07c4.14-13.11,15.87-3.45,15.87-3.45l5.52,1.38,4.14-2.07,3.45-2.07,1.38,4.83,2.07,3.45,4.13,6.21,3.45,3.45,6.9,2.76h6.9l2.07-1.38,2.76-4.83,2.76-1.38c20.69-17.25,0-38.63,0-38.63-1.38-13.8-4.83-15.18-4.83-15.18-10.35-4.83-3.45-11-3.45-11-.69-4.14-4.83-1.38-4.83-1.38l-2.07-3.45c3.45-24.83-6.9-35.18-6.9-35.18,2.07-2.76.69-13.1.69-13.1-31-33.81-8.27-70.37-8.27-70.37l6.2-2.07,5.52-8.28v-6.2L511.71,41l-4.14-2.07-10.34-7.59-7.59-6.21-7.59-2.76-6.9-.69-3.45.69-6.9,2.07-7.58-2.76-13.11-8.28-8.28-3.45h-8.28L419.27,12,411,16.83,392.37,29.94l-13.8,11L363.4,54.77l-14.49,13.8-9.66,6.21-10.35,6.9-5.51,5.52-.69,5.51,1.38,4.83,4.13,4.14,2.76,2.76,14.49-5.52,6.9-4.83L360.64,90c20.69,13.79,12.41,25.52,12.41,25.52l8.28,9,1.38,6.21-2.07,2.07-4.83,6.2-5.51-1.38-4.83-6.2c10.34-20.7,0-22.08,0-22.08l-4.83-.69-4.83-2.07s-26.22-10.35-11,11.73,4.14,35.18,4.14,35.18c-6.9-2.07-13.11,8.28-13.11,8.28l-3.45,1.38V175.5c-6.2,7.58,4.83,19.31,4.83,19.31l-1.38,9-.69,2.76,1.38,24.83s2.07,19.32-2.07,17.25-17.24-23.46-17.24-23.46c.69-6.2,4.83-15.86,4.83-15.86l-2.07-6.21-4.14-5.52-6.9-.69-4.83,2.76c-24.83,4.83-17.94,0-17.94,0s-2.07-2.07,13.8-3.45,11-10.35,11-10.35-2.07-18.62-8.28-19.31-18.63,11-18.63,11-2.75,3.44-8.27-1.38,3.45-4.83,3.45-4.83a15.4,15.4,0,0,0,4.13-7.59c-2.06-4.83,6.21-2.07,6.21-2.07h6.9c6.21-2.76,6.21-5.52,6.21-5.52l-5.52-10.35L293,137.55,288.89,132l-4.14-4.83-2.06-4.14s2.06-12.42,9-4.14,12.42,1.38,12.42,1.38c-.69-21.39,6.21-20.7,6.21-20.7s6.21-6.21-1.38-11-14.49,4.82-14.49,4.82l-4.83,4.14-6.21,1.38L278.55,101s-7.59,4.14-8.28,0-4.14-3.45-4.14-3.45c-15.18,2.07-22.77,1.38-22.77,1.38a126.06,126.06,0,0,1-26.21-1.38c-10.35-1.38-22.76-11-22.76-11l-5.52-6.21h-4.14l2.07,6.21,4.14,9,6.2,4.14,23.46,8.28,11.73.69L242,110c16.56,20,1.38,36.56,1.38,36.56l-9.65,2.07-6.21,2.07-7.59,3.45-5.52-1.38L209.56,150H206.8l.69,4.83,2.76,4.14,2.07,2.76v22.76l-4.83,3.45H197.14L193.7,190c-.69,11.73-8.28,11-8.28,11v-3.45l-4.83-2.76-3.45,2.76-2.76,2.07-4.14-1.38v-3.45L162,192.74l-7.59,1.38-3.44,2.76-4.14,4.83L142,203.09h-6.21l-7.59-.69C106.09,190,93,203.09,93,203.09l6.9,5.52,9,2.07,12.42,2.76,8.28,3.45,15.18,12.41-4.14,4.83-4.14-.69-9-1.38-9-1.38-9.66,1.38v2.07l3.45,4.14,3.45,1.38c42.77.69,51.74,34.49,51.74,34.49s2.07,10.35-8.28,12.42-11.72,11-11.72,11l5.51,5.52,4.83-1.38,3.45-4.14,7.59,5.52,4.83,7.58v3.45l2.07,4.14,2.76,4.83v4.14l-1.38,2.07-.69,10.35,6.21,11.73-6.9,6.89-8.28,4.14-5.52-.69-4.14,2.76-2.07,2.76,2.76,5.52,3.45,3.45,4.83-.69-2.07,6.21,4.14,1.38,6.9,4.83,5.52,4.14c10.35.69,13.11,13.79,13.11,13.79s.69-1.38,0,13.8S202,433.5,202,433.5l2.76,2.07c22.77,7.58,26.91.69,26.91.69l3.45-4.14,6.2-2.76h6.21l6.21,1.38,9.66,2.76h6.21l6.21-3.45s39.32-41.39,30.35-13.11,7.59,35.18,7.59,35.18c0,15.18,15.86,28.29,15.86,28.29h4.14l4.14,2.76,6.9,7.58-28.28-6.2-7.59-2.07-9-3.45-4.14-1.38L292.34,479l2.76,3.45L342,499l7.59,7.59,9,5.52,6.9,2.07h10.34l4.14,1.38,8.28,8.28c16.56,14.48,33.8-10.35,33.8-10.35l6.21,4.14-2.07,2.07-4.83,4.14s0,4.83,5.52,15.17,22.08,3.45,22.08,3.45l2.76-4.83,3.45-4.83,11-17.93,2.07-6.21,4.14-1.38,4.83-4.83h6.9l15.87.69c18.62,13.11,32.42,2.76,32.42,2.76-1.38-24.83-16.56-28.28-16.56-28.28l-11.73-2.76H493.78l-21.39.69-6.21-1.38-11-11.73-5.52,7.59,2.76,4.14h3.45L458.6,477l2.06,4.83L460,487.3l-.69,3.45.69,2.76,7.59,5.52c-4.83,4.83-5.52,2.07-5.52,2.07l-2.76-3.45-4.13-.69s-9.66,8.28-10.35,4.83-11-6.21-11-6.21l2.07,9h-4.14c0-5.52-10.35-25.52-10.35-25.52l1.38-3.45h3.45l2.07-1.38,3.45-4.14,2.76-5.52v-8.28l-4.14-2.76-5.52-2.76-5.52,4.14h-13.1l-3.45,1.38c-26.91-11.73,4.14-24.83,4.14-24.83L406.17,448c4.14,3.45,9,0,9,0s-.68-3.45,1.38-17.93C416.51,430.05,420,408.66,473.08,395.56Z"/></clipPath></defs><title>zealand</title><g class="cls-2"><path class="cls-3" d="M473.08,395.56c23.91-5.9,21.39-21.39,21.39-21.39,7.59-30.35-24.15-43.46-24.15-43.46-36.56-9-35.87-12.42-35.87-12.42s-11.73-6.9-4.83-35.87,37.94-38.63,37.94-38.63l2.07-2.07c4.14-13.11,15.87-3.45,15.87-3.45l5.52,1.38,4.14-2.07,3.45-2.07,1.38,4.83,2.07,3.45,4.13,6.21,3.45,3.45,6.9,2.76h6.9l2.07-1.38,2.76-4.83,2.76-1.38c20.69-17.25,0-38.63,0-38.63-1.38-13.8-4.83-15.18-4.83-15.18-10.35-4.83-3.45-11-3.45-11-.69-4.14-4.83-1.38-4.83-1.38l-2.07-3.45c3.45-24.83-6.9-35.18-6.9-35.18,2.07-2.76.69-13.1.69-13.1-31-33.81-8.27-70.37-8.27-70.37l6.2-2.07,5.52-8.28v-6.2L511.71,41l-4.14-2.07-10.34-7.59-7.59-6.21-7.59-2.76-6.9-.69-3.45.69-6.9,2.07-7.58-2.76-13.11-8.28-8.28-3.45h-8.28L419.27,12,411,16.83,392.37,29.94l-13.8,11L363.4,54.77l-14.49,13.8-9.66,6.21-10.35,6.9-5.51,5.52-.69,5.51,1.38,4.83,4.13,4.14,2.76,2.76,14.49-5.52,6.9-4.83L360.64,90c20.69,13.79,12.41,25.52,12.41,25.52l8.28,9,1.38,6.21-2.07,2.07-4.83,6.2-5.51-1.38-4.83-6.2c10.34-20.7,0-22.08,0-22.08l-4.83-.69-4.83-2.07s-26.22-10.35-11,11.73,4.14,35.18,4.14,35.18c-6.9-2.07-13.11,8.28-13.11,8.28l-3.45,1.38V175.5c-6.2,7.58,4.83,19.31,4.83,19.31l-1.38,9-.69,2.76,1.38,24.83s2.07,19.32-2.07,17.25-17.24-23.46-17.24-23.46c.69-6.2,4.83-15.86,4.83-15.86l-2.07-6.21-4.14-5.52-6.9-.69-4.83,2.76c-24.83,4.83-17.94,0-17.94,0s-2.07-2.07,13.8-3.45,11-10.35,11-10.35-2.07-18.62-8.28-19.31-18.63,11-18.63,11-2.75,3.44-8.27-1.38,3.45-4.83,3.45-4.83a15.4,15.4,0,0,0,4.13-7.59c-2.06-4.83,6.21-2.07,6.21-2.07h6.9c6.21-2.76,6.21-5.52,6.21-5.52l-5.52-10.35L293,137.55,288.89,132l-4.14-4.83-2.06-4.14s2.06-12.42,9-4.14,12.42,1.38,12.42,1.38c-.69-21.39,6.21-20.7,6.21-20.7s6.21-6.21-1.38-11-14.49,4.82-14.49,4.82l-4.83,4.14-6.21,1.38L278.55,101s-7.59,4.14-8.28,0-4.14-3.45-4.14-3.45c-15.18,2.07-22.77,1.38-22.77,1.38a126.06,126.06,0,0,1-26.21-1.38c-10.35-1.38-22.76-11-22.76-11l-5.52-6.21h-4.14l2.07,6.21,4.14,9,6.2,4.14,23.46,8.28,11.73.69L242,110c16.56,20,1.38,36.56,1.38,36.56l-9.65,2.07-6.21,2.07-7.59,3.45-5.52-1.38L209.56,150H206.8l.69,4.83,2.76,4.14,2.07,2.76v22.76l-4.83,3.45H197.14L193.7,190c-.69,11.73-8.28,11-8.28,11v-3.45l-4.83-2.76-3.45,2.76-2.76,2.07-4.14-1.38v-3.45L162,192.74l-7.59,1.38-3.44,2.76-4.14,4.83L142,203.09h-6.21l-7.59-.69C106.09,190,93,203.09,93,203.09l6.9,5.52,9,2.07,12.42,2.76,8.28,3.45,15.18,12.41-4.14,4.83-4.14-.69-9-1.38-9-1.38-9.66,1.38v2.07l3.45,4.14,3.45,1.38c42.77.69,51.74,34.49,51.74,34.49s2.07,10.35-8.28,12.42-11.72,11-11.72,11l5.51,5.52,4.83-1.38,3.45-4.14,7.59,5.52,4.83,7.58v3.45l2.07,4.14,2.76,4.83v4.14l-1.38,2.07-.69,10.35,6.21,11.73-6.9,6.89-8.28,4.14-5.52-.69-4.14,2.76-2.07,2.76,2.76,5.52,3.45,3.45,4.83-.69-2.07,6.21,4.14,1.38,6.9,4.83,5.52,4.14c10.35.69,13.11,13.79,13.11,13.79s.69-1.38,0,13.8S202,433.5,202,433.5l2.76,2.07c22.77,7.58,26.91.69,26.91.69l3.45-4.14,6.2-2.76h6.21l6.21,1.38,9.66,2.76h6.21l6.21-3.45s39.32-41.39,30.35-13.11,7.59,35.18,7.59,35.18c0,15.18,15.86,28.29,15.86,28.29h4.14l4.14,2.76,6.9,7.58-28.28-6.2-7.59-2.07-9-3.45-4.14-1.38L292.34,479l2.76,3.45L342,499l7.59,7.59,9,5.52,6.9,2.07h10.34l4.14,1.38,8.28,8.28c16.56,14.48,33.8-10.35,33.8-10.35l6.21,4.14-2.07,2.07-4.83,4.14s0,4.83,5.52,15.17,22.08,3.45,22.08,3.45l2.76-4.83,3.45-4.83,11-17.93,2.07-6.21,4.14-1.38,4.83-4.83h6.9l15.87.69c18.62,13.11,32.42,2.76,32.42,2.76-1.38-24.83-16.56-28.28-16.56-28.28l-11.73-2.76H493.78l-21.39.69-6.21-1.38-11-11.73-5.52,7.59,2.76,4.14h3.45L458.6,477l2.06,4.83L460,487.3l-.69,3.45.69,2.76,7.59,5.52c-4.83,4.83-5.52,2.07-5.52,2.07l-2.76-3.45-4.13-.69s-9.66,8.28-10.35,4.83-11-6.21-11-6.21l2.07,9h-4.14c0-5.52-10.35-25.52-10.35-25.52l1.38-3.45h3.45l2.07-1.38,3.45-4.14,2.76-5.52v-8.28l-4.14-2.76-5.52-2.76-5.52,4.14h-13.1l-3.45,1.38c-26.91-11.73,4.14-24.83,4.14-24.83L406.17,448c4.14,3.45,9,0,9,0s-.68-3.45,1.38-17.93C416.51,430.05,420,408.66,473.08,395.56Z"/><g class="cls-4"><image width="406" height="404" transform="scale(1.39)" xlink:href="../../eksamen-2-semester/Sk%C3%A6rmbillede%202019-05-28%20kl.%2013.09.20.png"/></g><path class="cls-5" d="M473.08,395.56c23.91-5.9,21.39-21.39,21.39-21.39,7.59-30.35-24.15-43.46-24.15-43.46-36.56-9-35.87-12.42-35.87-12.42s-11.73-6.9-4.83-35.87,37.94-38.63,37.94-38.63l2.07-2.07c4.14-13.11,15.87-3.45,15.87-3.45l5.52,1.38,4.14-2.07,3.45-2.07,1.38,4.83,2.07,3.45,4.13,6.21,3.45,3.45,6.9,2.76h6.9l2.07-1.38,2.76-4.83,2.76-1.38c20.69-17.25,0-38.63,0-38.63-1.38-13.8-4.83-15.18-4.83-15.18-10.35-4.83-3.45-11-3.45-11-.69-4.14-4.83-1.38-4.83-1.38l-2.07-3.45c3.45-24.83-6.9-35.18-6.9-35.18,2.07-2.76.69-13.1.69-13.1-31-33.81-8.27-70.37-8.27-70.37l6.2-2.07,5.52-8.28v-6.2L511.71,41l-4.14-2.07-10.34-7.59-7.59-6.21-7.59-2.76-6.9-.69-3.45.69-6.9,2.07-7.58-2.76-13.11-8.28-8.28-3.45h-8.28L419.27,12,411,16.83,392.37,29.94l-13.8,11L363.4,54.77l-14.49,13.8-9.66,6.21-10.35,6.9-5.51,5.52-.69,5.51,1.38,4.83,4.13,4.14,2.76,2.76,14.49-5.52,6.9-4.83L360.64,90c20.69,13.79,12.41,25.52,12.41,25.52l8.28,9,1.38,6.21-2.07,2.07-4.83,6.2-5.51-1.38-4.83-6.2c10.34-20.7,0-22.08,0-22.08l-4.83-.69-4.83-2.07s-26.22-10.35-11,11.73,4.14,35.18,4.14,35.18c-6.9-2.07-13.11,8.28-13.11,8.28l-3.45,1.38V175.5c-6.2,7.58,4.83,19.31,4.83,19.31l-1.38,9-.69,2.76,1.38,24.83s2.07,19.32-2.07,17.25-17.24-23.46-17.24-23.46c.69-6.2,4.83-15.86,4.83-15.86l-2.07-6.21-4.14-5.52-6.9-.69-4.83,2.76c-24.83,4.83-17.94,0-17.94,0s-2.07-2.07,13.8-3.45,11-10.35,11-10.35-2.07-18.62-8.28-19.31-18.63,11-18.63,11-2.75,3.44-8.27-1.38,3.45-4.83,3.45-4.83a15.4,15.4,0,0,0,4.13-7.59c-2.06-4.83,6.21-2.07,6.21-2.07h6.9c6.21-2.76,6.21-5.52,6.21-5.52l-5.52-10.35L293,137.55,288.89,132l-4.14-4.83-2.06-4.14s2.06-12.42,9-4.14,12.42,1.38,12.42,1.38c-.69-21.39,6.21-20.7,6.21-20.7s6.21-6.21-1.38-11-14.49,4.82-14.49,4.82l-4.83,4.14-6.21,1.38L278.55,101s-7.59,4.14-8.28,0-4.14-3.45-4.14-3.45c-15.18,2.07-22.77,1.38-22.77,1.38a126.06,126.06,0,0,1-26.21-1.38c-10.35-1.38-22.76-11-22.76-11l-5.52-6.21h-4.14l2.07,6.21,4.14,9,6.2,4.14,23.46,8.28,11.73.69L242,110c16.56,20,1.38,36.56,1.38,36.56l-9.65,2.07-6.21,2.07-7.59,3.45-5.52-1.38L209.56,150H206.8l.69,4.83,2.76,4.14,2.07,2.76v22.76l-4.83,3.45H197.14L193.7,190c-.69,11.73-8.28,11-8.28,11v-3.45l-4.83-2.76-3.45,2.76-2.76,2.07-4.14-1.38v-3.45L162,192.74l-7.59,1.38-3.44,2.76-4.14,4.83L142,203.09h-6.21l-7.59-.69C106.09,190,93,203.09,93,203.09l6.9,5.52,9,2.07,12.42,2.76,8.28,3.45,15.18,12.41-4.14,4.83-4.14-.69-9-1.38-9-1.38-9.66,1.38v2.07l3.45,4.14,3.45,1.38c42.77.69,51.74,34.49,51.74,34.49s2.07,10.35-8.28,12.42-11.72,11-11.72,11l5.51,5.52,4.83-1.38,3.45-4.14,7.59,5.52,4.83,7.58v3.45l2.07,4.14,2.76,4.83v4.14l-1.38,2.07-.69,10.35,6.21,11.73-6.9,6.89-8.28,4.14-5.52-.69-4.14,2.76-2.07,2.76,2.76,5.52,3.45,3.45,4.83-.69-2.07,6.21,4.14,1.38,6.9,4.83,5.52,4.14c10.35.69,13.11,13.79,13.11,13.79s.69-1.38,0,13.8S202,433.5,202,433.5l2.76,2.07c22.77,7.58,26.91.69,26.91.69l3.45-4.14,6.2-2.76h6.21l6.21,1.38,9.66,2.76h6.21l6.21-3.45s39.32-41.39,30.35-13.11,7.59,35.18,7.59,35.18c0,15.18,15.86,28.29,15.86,28.29h4.14l4.14,2.76,6.9,7.58-28.28-6.2-7.59-2.07-9-3.45-4.14-1.38L292.34,479l2.76,3.45L342,499l7.59,7.59,9,5.52,6.9,2.07h10.34l4.14,1.38,8.28,8.28c16.56,14.48,33.8-10.35,33.8-10.35l6.21,4.14-2.07,2.07-4.83,4.14s0,4.83,5.52,15.17,22.08,3.45,22.08,3.45l2.76-4.83,3.45-4.83,11-17.93,2.07-6.21,4.14-1.38,4.83-4.83h6.9l15.87.69c18.62,13.11,32.42,2.76,32.42,2.76-1.38-24.83-16.56-28.28-16.56-28.28l-11.73-2.76H493.78l-21.39.69-6.21-1.38-11-11.73-5.52,7.59,2.76,4.14h3.45L458.6,477l2.06,4.83L460,487.3l-.69,3.45.69,2.76,7.59,5.52c-4.83,4.83-5.52,2.07-5.52,2.07l-2.76-3.45-4.13-.69s-9.66,8.28-10.35,4.83-11-6.21-11-6.21l2.07,9h-4.14c0-5.52-10.35-25.52-10.35-25.52l1.38-3.45h3.45l2.07-1.38,3.45-4.14,2.76-5.52v-8.28l-4.14-2.76-5.52-2.76-5.52,4.14h-13.1l-3.45,1.38c-26.91-11.73,4.14-24.83,4.14-24.83L406.17,448c4.14,3.45,9,0,9,0s-.68-3.45,1.38-17.93C416.51,430.05,420,408.66,473.08,395.56Z"/></g></svg>