<?xml version="1.0" standalone="no"?>
<!DOCTYPE svg PUBLIC "-//W3C//DTD SVG 20010904//EN"
 "http://www.w3.org/TR/2001/REC-SVG-20010904/DTD/svg10.dtd">
<svg version="1.0" xmlns="http://www.w3.org/2000/svg"
 width="349.000000pt" height="349.000000pt" viewBox="0 0 349.000000 349.000000"
 preserveAspectRatio="xMidYMid meet">
<metadata>
Created by potrace 1.11, written by Peter Selinger 2001-2013
</metadata>
<g transform="translate(0.000000,349.000000) scale(0.100000,-0.100000)"
fill="#000000" stroke="none">
<path d="M1206 3470 c-150 -53 -319 -218 -383 -371 -43 -104 -41 -192 7 -364
22 -77 42 -149 44 -160 2 -11 23 -92 46 -180 23 -88 43 -166 45 -175 6 -28
147 -573 180 -695 9 -33 32 -118 50 -190 32 -121 129 -465 189 -668 94 -316
192 -565 251 -636 49 -57 72 -35 104 99 32 136 138 421 236 635 35 77 68 149
125 275 29 63 65 142 80 175 22 47 142 321 189 430 8 18 62 151 96 235 43 107
130 367 151 449 2 9 10 43 19 76 8 33 17 76 20 95 3 19 7 42 10 50 19 65 29
330 15 405 -27 137 -75 229 -171 323 -240 237 -495 233 -740 -13 l-66 -65 -47
69 c-96 141 -195 208 -319 217 -57 3 -84 0 -131 -16z"/>
</g>
</svg>
